  0
SECTION
  2
HEADER
  9
$ANGBASE
  50
0.0
  9
$ANGDIR
  70
1
  9
$MEASUREMENT
  70
1
  0
ENDSEC
  0
SECTION
  2
TABLES
  0
TABLE
  2
LTYPE
  70
4
  0
LTYPE
  5
40F
  2
CONTINUOUS
  70
0
  3
Solid line
  72
65
  73
0
  40
0.0
  0
LTYPE
  5
410
  2
DASHDOT
 70
0
  3
Dash Dot ____ _ ____ _
 72
65
 73
4
 40
2.0
 49
1.25
 49
-0.25
 49
0.25
 49
-0.25
  0
LTYPE
  5
411
  2
DASHED
 70
0
  3
Dashed __ __ __ __ __
 72
65
 73
2
 40
0.75
 49
0.5
 49
-0.25
  0
LTYPE
  5
43B
  2
DOTTED
 70
0
  3
Dotted .  .  .  .
 72
65
 73
2
 40
0.2
 49
0.0
 49
-0.2
  0
ENDTAB
  0
TABLE
  2
STYLE
  70
4
  0
STYLE
  2
KICAD
  70
0
  40
0
  41
1
  42
1
  50
0
  71
0
  3
isocp.shx
  0
STYLE
  2
KICADB
  70
0
  40
0
  41
1
  42
1
  50
0
  71
0
  3
isocp.shx
  0
STYLE
  2
KICADI
  70
0
  40
0
  41
1
  42
1
  50
15
  71
0
  3
isocp.shx
  0
STYLE
  2
KICADBI
  70
0
  40
0
  41
1
  42
1
  50
15
  71
0
  3
isocp.shx
  0
ENDTAB
  0
TABLE
  2
LAYER
  70
1
  0
LAYER
  2
BLACK
  70
0
  62
7
  6
CONTINUOUS
  0
ENDTAB
  0
ENDSEC
  0
SECTION
  2
ENTITIES
0
ARC
8
BLACK
10
401.934
20
-132.982
40
3.048
50
-90
51
-0
0
ARC
8
BLACK
10
3.0345
20
-3.08
40
3.048
50
90
51
180
0
ARC
8
BLACK
10
3.0345
20
-132.982
40
3.048
50
-180
51
-90
0
LINE
8
BLACK
6
CONTINUOUS
10
3.0345
20
-136.03
11
401.934
21
-136.03
0
LINE
8
BLACK
6
CONTINUOUS
10
404.982
20
-132.982
11
404.982
21
-3.08
0
LINE
8
BLACK
6
CONTINUOUS
10
-0.0135
20
-3.08
11
-0.0135
21
-132.982
0
LINE
8
BLACK
6
CONTINUOUS
10
255.508
20
-0.031999
11
3.0345
21
-0.032
0
LINE
8
BLACK
6
CONTINUOUS
10
255.508
20
-0.031999
11
401.934
21
-0.032
0
CIRCLE
8
BLACK
10
374.6
20
-129.605
40
1.62519
0
CIRCLE
8
BLACK
10
393.6
20
-21.6
40
1.62519
0
CIRCLE
8
BLACK
10
147.6
20
-26.605
40
1.62519
0
CIRCLE
8
BLACK
10
29.1
20
-26.605
40
1.62519
0
CIRCLE
8
BLACK
10
320.6
20
-96.605
40
1.62519
0
CIRCLE
8
BLACK
10
285.6
20
-26.605
40
1.62519
0
ARC
8
BLACK
10
401.934
20
-3.08
40
3.048
50
-0
51
90
0
CIRCLE
8
BLACK
10
33.6
20
-116.605
40
1.62519
0
LINE
8
BLACK
6
CONTINUOUS
10
5.265
20
-11.175
11
7.015
21
-12.925
0
LINE
8
BLACK
6
CONTINUOUS
10
7.015
20
-11.175
11
5.265
21
-12.925
0
LINE
8
BLACK
6
CONTINUOUS
10
5.265
20
-77.675
11
7.015
21
-79.425
0
LINE
8
BLACK
6
CONTINUOUS
10
7.015
20
-77.675
11
5.265
21
-79.425
0
LINE
8
BLACK
6
CONTINUOUS
10
5.265
20
-96.675
11
7.015
21
-98.425
0
LINE
8
BLACK
6
CONTINUOUS
10
7.015
20
-96.675
11
5.265
21
-98.425
0
LINE
8
BLACK
6
CONTINUOUS
10
7.545
20
-39.675
11
9.295
21
-41.425
0
LINE
8
BLACK
6
CONTINUOUS
10
9.295
20
-39.675
11
7.545
21
-41.425
0
LINE
8
BLACK
6
CONTINUOUS
10
12.29
20
-58.65
11
14.04
21
-60.4
0
LINE
8
BLACK
6
CONTINUOUS
10
14.04
20
-58.65
11
12.29
21
-60.4
0
LINE
8
BLACK
6
CONTINUOUS
10
15.425
20
-11.175
11
17.175
21
-12.925
0
LINE
8
BLACK
6
CONTINUOUS
10
17.175
20
-11.175
11
15.425
21
-12.925
0
LINE
8
BLACK
6
CONTINUOUS
10
15.425
20
-77.675
11
17.175
21
-79.425
0
LINE
8
BLACK
6
CONTINUOUS
10
17.175
20
-77.675
11
15.425
21
-79.425
0
LINE
8
BLACK
6
CONTINUOUS
10
15.425
20
-96.675
11
17.175
21
-98.425
0
LINE
8
BLACK
6
CONTINUOUS
10
17.175
20
-96.675
11
15.425
21
-98.425
0
LINE
8
BLACK
6
CONTINUOUS
10
17.705
20
-39.675
11
19.455
21
-41.425
0
LINE
8
BLACK
6
CONTINUOUS
10
19.455
20
-39.675
11
17.705
21
-41.425
0
LINE
8
BLACK
6
CONTINUOUS
10
22.45
20
-58.65
11
24.2
21
-60.4
0
LINE
8
BLACK
6
CONTINUOUS
10
24.2
20
-58.65
11
22.45
21
-60.4
0
LINE
8
BLACK
6
CONTINUOUS
10
24.265
20
-11.175
11
26.015
21
-12.925
0
LINE
8
BLACK
6
CONTINUOUS
10
26.015
20
-11.175
11
24.265
21
-12.925
0
LINE
8
BLACK
6
CONTINUOUS
10
24.265
20
-77.675
11
26.015
21
-79.425
0
LINE
8
BLACK
6
CONTINUOUS
10
26.015
20
-77.675
11
24.265
21
-79.425
0
LINE
8
BLACK
6
CONTINUOUS
10
29.245
20
-39.675
11
30.995
21
-41.425
0
LINE
8
BLACK
6
CONTINUOUS
10
30.995
20
-39.675
11
29.245
21
-41.425
0
LINE
8
BLACK
6
CONTINUOUS
10
33.765
20
-96.675
11
35.515
21
-98.425
0
LINE
8
BLACK
6
CONTINUOUS
10
35.515
20
-96.675
11
33.765
21
-98.425
0
LINE
8
BLACK
6
CONTINUOUS
10
34.425
20
-11.175
11
36.175
21
-12.925
0
LINE
8
BLACK
6
CONTINUOUS
10
36.175
20
-11.175
11
34.425
21
-12.925
0
LINE
8
BLACK
6
CONTINUOUS
10
34.425
20
-77.675
11
36.175
21
-79.425
0
LINE
8
BLACK
6
CONTINUOUS
10
36.175
20
-77.675
11
34.425
21
-79.425
0
LINE
8
BLACK
6
CONTINUOUS
10
38.415
20
-58.65
11
40.165
21
-60.4
0
LINE
8
BLACK
6
CONTINUOUS
10
40.165
20
-58.65
11
38.415
21
-60.4
0
LINE
8
BLACK
6
CONTINUOUS
10
39.405
20
-39.675
11
41.155
21
-41.425
0
LINE
8
BLACK
6
CONTINUOUS
10
41.155
20
-39.675
11
39.405
21
-41.425
0
LINE
8
BLACK
6
CONTINUOUS
10
43.265
20
-77.675
11
45.015
21
-79.425
0
LINE
8
BLACK
6
CONTINUOUS
10
45.015
20
-77.675
11
43.265
21
-79.425
0
LINE
8
BLACK
6
CONTINUOUS
10
43.925
20
-96.675
11
45.675
21
-98.425
0
LINE
8
BLACK
6
CONTINUOUS
10
45.675
20
-96.675
11
43.925
21
-98.425
0
LINE
8
BLACK
6
CONTINUOUS
10
48.245
20
-39.675
11
49.995
21
-41.425
0
LINE
8
BLACK
6
CONTINUOUS
10
49.995
20
-39.675
11
48.245
21
-41.425
0
LINE
8
BLACK
6
CONTINUOUS
10
48.575
20
-58.65
11
50.325
21
-60.4
0
LINE
8
BLACK
6
CONTINUOUS
10
50.325
20
-58.65
11
48.575
21
-60.4
0
LINE
8
BLACK
6
CONTINUOUS
10
52.765
20
-96.675
11
54.515
21
-98.425
0
LINE
8
BLACK
6
CONTINUOUS
10
54.515
20
-96.675
11
52.765
21
-98.425
0
LINE
8
BLACK
6
CONTINUOUS
10
52.765
20
-115.775
11
54.515
21
-117.525
0
LINE
8
BLACK
6
CONTINUOUS
10
54.515
20
-115.775
11
52.765
21
-117.525
0
LINE
8
BLACK
6
CONTINUOUS
10
53.425
20
-77.675
11
55.175
21
-79.425
0
LINE
8
BLACK
6
CONTINUOUS
10
55.175
20
-77.675
11
53.425
21
-79.425
0
LINE
8
BLACK
6
CONTINUOUS
10
57.415
20
-58.65
11
59.165
21
-60.4
0
LINE
8
BLACK
6
CONTINUOUS
10
59.165
20
-58.65
11
57.415
21
-60.4
0
LINE
8
BLACK
6
CONTINUOUS
10
58.405
20
-39.675
11
60.155
21
-41.425
0
LINE
8
BLACK
6
CONTINUOUS
10
60.155
20
-39.675
11
58.405
21
-41.425
0
LINE
8
BLACK
6
CONTINUOUS
10
62.265
20
-77.675
11
64.015
21
-79.425
0
LINE
8
BLACK
6
CONTINUOUS
10
64.015
20
-77.675
11
62.265
21
-79.425
0
LINE
8
BLACK
6
CONTINUOUS
10
62.925
20
-96.675
11
64.675
21
-98.425
0
LINE
8
BLACK
6
CONTINUOUS
10
64.675
20
-96.675
11
62.925
21
-98.425
0
LINE
8
BLACK
6
CONTINUOUS
10
62.925
20
-115.775
11
64.675
21
-117.525
0
LINE
8
BLACK
6
CONTINUOUS
10
64.675
20
-115.775
11
62.925
21
-117.525
0
LINE
8
BLACK
6
CONTINUOUS
10
67.065
20
-11.175
11
68.815
21
-12.925
0
LINE
8
BLACK
6
CONTINUOUS
10
68.815
20
-11.175
11
67.065
21
-12.925
0
LINE
8
BLACK
6
CONTINUOUS
10
67.245
20
-39.675
11
68.995
21
-41.425
0
LINE
8
BLACK
6
CONTINUOUS
10
68.995
20
-39.675
11
67.245
21
-41.425
0
LINE
8
BLACK
6
CONTINUOUS
10
67.575
20
-58.65
11
69.325
21
-60.4
0
LINE
8
BLACK
6
CONTINUOUS
10
69.325
20
-58.65
11
67.575
21
-60.4
0
LINE
8
BLACK
6
CONTINUOUS
10
71.765
20
-96.675
11
73.515
21
-98.425
0
LINE
8
BLACK
6
CONTINUOUS
10
73.515
20
-96.675
11
71.765
21
-98.425
0
LINE
8
BLACK
6
CONTINUOUS
10
71.765
20
-115.775
11
73.515
21
-117.525
0
LINE
8
BLACK
6
CONTINUOUS
10
73.515
20
-115.775
11
71.765
21
-117.525
0
LINE
8
BLACK
6
CONTINUOUS
10
72.425
20
-77.675
11
74.175
21
-79.425
0
LINE
8
BLACK
6
CONTINUOUS
10
74.175
20
-77.675
11
72.425
21
-79.425
0
LINE
8
BLACK
6
CONTINUOUS
10
76.415
20
-58.65
11
78.165
21
-60.4
0
LINE
8
BLACK
6
CONTINUOUS
10
78.165
20
-58.65
11
76.415
21
-60.4
0
LINE
8
BLACK
6
CONTINUOUS
10
77.225
20
-11.175
11
78.975
21
-12.925
0
LINE
8
BLACK
6
CONTINUOUS
10
78.975
20
-11.175
11
77.225
21
-12.925
0
LINE
8
BLACK
6
CONTINUOUS
10
77.405
20
-39.675
11
79.155
21
-41.425
0
LINE
8
BLACK
6
CONTINUOUS
10
79.155
20
-39.675
11
77.405
21
-41.425
0
LINE
8
BLACK
6
CONTINUOUS
10
81.265
20
-77.675
11
83.015
21
-79.425
0
LINE
8
BLACK
6
CONTINUOUS
10
83.015
20
-77.675
11
81.265
21
-79.425
0
LINE
8
BLACK
6
CONTINUOUS
10
81.925
20
-96.675
11
83.675
21
-98.425
0
LINE
8
BLACK
6
CONTINUOUS
10
83.675
20
-96.675
11
81.925
21
-98.425
0
LINE
8
BLACK
6
CONTINUOUS
10
81.925
20
-115.775
11
83.675
21
-117.525
0
LINE
8
BLACK
6
CONTINUOUS
10
83.675
20
-115.775
11
81.925
21
-117.525
0
LINE
8
BLACK
6
CONTINUOUS
10
86.245
20
-39.675
11
87.995
21
-41.425
0
LINE
8
BLACK
6
CONTINUOUS
10
87.995
20
-39.675
11
86.245
21
-41.425
0
LINE
8
BLACK
6
CONTINUOUS
10
86.575
20
-58.65
11
88.325
21
-60.4
0
LINE
8
BLACK
6
CONTINUOUS
10
88.325
20
-58.65
11
86.575
21
-60.4
0
LINE
8
BLACK
6
CONTINUOUS
10
90.765
20
-96.675
11
92.515
21
-98.425
0
LINE
8
BLACK
6
CONTINUOUS
10
92.515
20
-96.675
11
90.765
21
-98.425
0
LINE
8
BLACK
6
CONTINUOUS
10
91.425
20
-77.675
11
93.175
21
-79.425
0
LINE
8
BLACK
6
CONTINUOUS
10
93.175
20
-77.675
11
91.425
21
-79.425
0
LINE
8
BLACK
6
CONTINUOUS
10
95.415
20
-58.65
11
97.165
21
-60.4
0
LINE
8
BLACK
6
CONTINUOUS
10
97.165
20
-58.65
11
95.415
21
-60.4
0
LINE
8
BLACK
6
CONTINUOUS
10
96.405
20
-39.675
11
98.155
21
-41.425
0
LINE
8
BLACK
6
CONTINUOUS
10
98.155
20
-39.675
11
96.405
21
-41.425
0
LINE
8
BLACK
6
CONTINUOUS
10
100.265
20
-77.675
11
102.015
21
-79.425
0
LINE
8
BLACK
6
CONTINUOUS
10
102.015
20
-77.675
11
100.265
21
-79.425
0
LINE
8
BLACK
6
CONTINUOUS
10
100.925
20
-96.675
11
102.675
21
-98.425
0
LINE
8
BLACK
6
CONTINUOUS
10
102.675
20
-96.675
11
100.925
21
-98.425
0
LINE
8
BLACK
6
CONTINUOUS
10
105.065
20
-11.175
11
106.815
21
-12.925
0
LINE
8
BLACK
6
CONTINUOUS
10
106.815
20
-11.175
11
105.065
21
-12.925
0
LINE
8
BLACK
6
CONTINUOUS
10
105.245
20
-39.675
11
106.995
21
-41.425
0
LINE
8
BLACK
6
CONTINUOUS
10
106.995
20
-39.675
11
105.245
21
-41.425
0
LINE
8
BLACK
6
CONTINUOUS
10
105.575
20
-58.65
11
107.325
21
-60.4
0
LINE
8
BLACK
6
CONTINUOUS
10
107.325
20
-58.65
11
105.575
21
-60.4
0
LINE
8
BLACK
6
CONTINUOUS
10
109.765
20
-96.675
11
111.515
21
-98.425
0
LINE
8
BLACK
6
CONTINUOUS
10
111.515
20
-96.675
11
109.765
21
-98.425
0
LINE
8
BLACK
6
CONTINUOUS
10
110.425
20
-77.675
11
112.175
21
-79.425
0
LINE
8
BLACK
6
CONTINUOUS
10
112.175
20
-77.675
11
110.425
21
-79.425
0
LINE
8
BLACK
6
CONTINUOUS
10
114.415
20
-58.65
11
116.165
21
-60.4
0
LINE
8
BLACK
6
CONTINUOUS
10
116.165
20
-58.65
11
114.415
21
-60.4
0
LINE
8
BLACK
6
CONTINUOUS
10
115.225
20
-11.175
11
116.975
21
-12.925
0
LINE
8
BLACK
6
CONTINUOUS
10
116.975
20
-11.175
11
115.225
21
-12.925
0
LINE
8
BLACK
6
CONTINUOUS
10
115.405
20
-39.675
11
117.155
21
-41.425
0
LINE
8
BLACK
6
CONTINUOUS
10
117.155
20
-39.675
11
115.405
21
-41.425
0
LINE
8
BLACK
6
CONTINUOUS
10
119.265
20
-77.675
11
121.015
21
-79.425
0
LINE
8
BLACK
6
CONTINUOUS
10
121.015
20
-77.675
11
119.265
21
-79.425
0
LINE
8
BLACK
6
CONTINUOUS
10
119.925
20
-96.675
11
121.675
21
-98.425
0
LINE
8
BLACK
6
CONTINUOUS
10
121.675
20
-96.675
11
119.925
21
-98.425
0
LINE
8
BLACK
6
CONTINUOUS
10
124.245
20
-39.675
11
125.995
21
-41.425
0
LINE
8
BLACK
6
CONTINUOUS
10
125.995
20
-39.675
11
124.245
21
-41.425
0
LINE
8
BLACK
6
CONTINUOUS
10
124.575
20
-58.65
11
126.325
21
-60.4
0
LINE
8
BLACK
6
CONTINUOUS
10
126.325
20
-58.65
11
124.575
21
-60.4
0
LINE
8
BLACK
6
CONTINUOUS
10
128.765
20
-96.675
11
130.515
21
-98.425
0
LINE
8
BLACK
6
CONTINUOUS
10
130.515
20
-96.675
11
128.765
21
-98.425
0
LINE
8
BLACK
6
CONTINUOUS
10
129.425
20
-77.675
11
131.175
21
-79.425
0
LINE
8
BLACK
6
CONTINUOUS
10
131.175
20
-77.675
11
129.425
21
-79.425
0
LINE
8
BLACK
6
CONTINUOUS
10
133.415
20
-58.65
11
135.165
21
-60.4
0
LINE
8
BLACK
6
CONTINUOUS
10
135.165
20
-58.65
11
133.415
21
-60.4
0
LINE
8
BLACK
6
CONTINUOUS
10
134.405
20
-39.675
11
136.155
21
-41.425
0
LINE
8
BLACK
6
CONTINUOUS
10
136.155
20
-39.675
11
134.405
21
-41.425
0
LINE
8
BLACK
6
CONTINUOUS
10
138.265
20
-77.675
11
140.015
21
-79.425
0
LINE
8
BLACK
6
CONTINUOUS
10
140.015
20
-77.675
11
138.265
21
-79.425
0
LINE
8
BLACK
6
CONTINUOUS
10
138.925
20
-96.675
11
140.675
21
-98.425
0
LINE
8
BLACK
6
CONTINUOUS
10
140.675
20
-96.675
11
138.925
21
-98.425
0
LINE
8
BLACK
6
CONTINUOUS
10
143.065
20
-11.175
11
144.815
21
-12.925
0
LINE
8
BLACK
6
CONTINUOUS
10
144.815
20
-11.175
11
143.065
21
-12.925
0
LINE
8
BLACK
6
CONTINUOUS
10
143.245
20
-39.675
11
144.995
21
-41.425
0
LINE
8
BLACK
6
CONTINUOUS
10
144.995
20
-39.675
11
143.245
21
-41.425
0
LINE
8
BLACK
6
CONTINUOUS
10
143.575
20
-58.65
11
145.325
21
-60.4
0
LINE
8
BLACK
6
CONTINUOUS
10
145.325
20
-58.65
11
143.575
21
-60.4
0
LINE
8
BLACK
6
CONTINUOUS
10
147.765
20
-96.675
11
149.515
21
-98.425
0
LINE
8
BLACK
6
CONTINUOUS
10
149.515
20
-96.675
11
147.765
21
-98.425
0
LINE
8
BLACK
6
CONTINUOUS
10
147.765
20
-115.775
11
149.515
21
-117.525
0
LINE
8
BLACK
6
CONTINUOUS
10
149.515
20
-115.775
11
147.765
21
-117.525
0
LINE
8
BLACK
6
CONTINUOUS
10
148.425
20
-77.675
11
150.175
21
-79.425
0
LINE
8
BLACK
6
CONTINUOUS
10
150.175
20
-77.675
11
148.425
21
-79.425
0
LINE
8
BLACK
6
CONTINUOUS
10
152.415
20
-58.65
11
154.165
21
-60.4
0
LINE
8
BLACK
6
CONTINUOUS
10
154.165
20
-58.65
11
152.415
21
-60.4
0
LINE
8
BLACK
6
CONTINUOUS
10
153.225
20
-11.175
11
154.975
21
-12.925
0
LINE
8
BLACK
6
CONTINUOUS
10
154.975
20
-11.175
11
153.225
21
-12.925
0
LINE
8
BLACK
6
CONTINUOUS
10
153.405
20
-39.675
11
155.155
21
-41.425
0
LINE
8
BLACK
6
CONTINUOUS
10
155.155
20
-39.675
11
153.405
21
-41.425
0
LINE
8
BLACK
6
CONTINUOUS
10
157.265
20
-77.675
11
159.015
21
-79.425
0
LINE
8
BLACK
6
CONTINUOUS
10
159.015
20
-77.675
11
157.265
21
-79.425
0
LINE
8
BLACK
6
CONTINUOUS
10
157.925
20
-96.675
11
159.675
21
-98.425
0
LINE
8
BLACK
6
CONTINUOUS
10
159.675
20
-96.675
11
157.925
21
-98.425
0
LINE
8
BLACK
6
CONTINUOUS
10
157.925
20
-115.775
11
159.675
21
-117.525
0
LINE
8
BLACK
6
CONTINUOUS
10
159.675
20
-115.775
11
157.925
21
-117.525
0
LINE
8
BLACK
6
CONTINUOUS
10
162.245
20
-39.675
11
163.995
21
-41.425
0
LINE
8
BLACK
6
CONTINUOUS
10
163.995
20
-39.675
11
162.245
21
-41.425
0
LINE
8
BLACK
6
CONTINUOUS
10
162.575
20
-58.65
11
164.325
21
-60.4
0
LINE
8
BLACK
6
CONTINUOUS
10
164.325
20
-58.65
11
162.575
21
-60.4
0
LINE
8
BLACK
6
CONTINUOUS
10
166.765
20
-96.675
11
168.515
21
-98.425
0
LINE
8
BLACK
6
CONTINUOUS
10
168.515
20
-96.675
11
166.765
21
-98.425
0
LINE
8
BLACK
6
CONTINUOUS
10
166.765
20
-115.775
11
168.515
21
-117.525
0
LINE
8
BLACK
6
CONTINUOUS
10
168.515
20
-115.775
11
166.765
21
-117.525
0
LINE
8
BLACK
6
CONTINUOUS
10
167.425
20
-77.675
11
169.175
21
-79.425
0
LINE
8
BLACK
6
CONTINUOUS
10
169.175
20
-77.675
11
167.425
21
-79.425
0
LINE
8
BLACK
6
CONTINUOUS
10
171.415
20
-58.65
11
173.165
21
-60.4
0
LINE
8
BLACK
6
CONTINUOUS
10
173.165
20
-58.65
11
171.415
21
-60.4
0
LINE
8
BLACK
6
CONTINUOUS
10
172.405
20
-39.675
11
174.155
21
-41.425
0
LINE
8
BLACK
6
CONTINUOUS
10
174.155
20
-39.675
11
172.405
21
-41.425
0
LINE
8
BLACK
6
CONTINUOUS
10
176.265
20
-77.675
11
178.015
21
-79.425
0
LINE
8
BLACK
6
CONTINUOUS
10
178.015
20
-77.675
11
176.265
21
-79.425
0
LINE
8
BLACK
6
CONTINUOUS
10
176.925
20
-96.675
11
178.675
21
-98.425
0
LINE
8
BLACK
6
CONTINUOUS
10
178.675
20
-96.675
11
176.925
21
-98.425
0
LINE
8
BLACK
6
CONTINUOUS
10
176.925
20
-115.775
11
178.675
21
-117.525
0
LINE
8
BLACK
6
CONTINUOUS
10
178.675
20
-115.775
11
176.925
21
-117.525
0
LINE
8
BLACK
6
CONTINUOUS
10
181.065
20
-11.175
11
182.815
21
-12.925
0
LINE
8
BLACK
6
CONTINUOUS
10
182.815
20
-11.175
11
181.065
21
-12.925
0
LINE
8
BLACK
6
CONTINUOUS
10
181.245
20
-39.675
11
182.995
21
-41.425
0
LINE
8
BLACK
6
CONTINUOUS
10
182.995
20
-39.675
11
181.245
21
-41.425
0
LINE
8
BLACK
6
CONTINUOUS
10
181.575
20
-58.65
11
183.325
21
-60.4
0
LINE
8
BLACK
6
CONTINUOUS
10
183.325
20
-58.65
11
181.575
21
-60.4
0
LINE
8
BLACK
6
CONTINUOUS
10
185.765
20
-96.675
11
187.515
21
-98.425
0
LINE
8
BLACK
6
CONTINUOUS
10
187.515
20
-96.675
11
185.765
21
-98.425
0
LINE
8
BLACK
6
CONTINUOUS
10
186.425
20
-77.675
11
188.175
21
-79.425
0
LINE
8
BLACK
6
CONTINUOUS
10
188.175
20
-77.675
11
186.425
21
-79.425
0
LINE
8
BLACK
6
CONTINUOUS
10
190.415
20
-58.65
11
192.165
21
-60.4
0
LINE
8
BLACK
6
CONTINUOUS
10
192.165
20
-58.65
11
190.415
21
-60.4
0
LINE
8
BLACK
6
CONTINUOUS
10
191.225
20
-11.175
11
192.975
21
-12.925
0
LINE
8
BLACK
6
CONTINUOUS
10
192.975
20
-11.175
11
191.225
21
-12.925
0
LINE
8
BLACK
6
CONTINUOUS
10
191.405
20
-39.675
11
193.155
21
-41.425
0
LINE
8
BLACK
6
CONTINUOUS
10
193.155
20
-39.675
11
191.405
21
-41.425
0
LINE
8
BLACK
6
CONTINUOUS
10
195.265
20
-77.675
11
197.015
21
-79.425
0
LINE
8
BLACK
6
CONTINUOUS
10
197.015
20
-77.675
11
195.265
21
-79.425
0
LINE
8
BLACK
6
CONTINUOUS
10
195.925
20
-96.675
11
197.675
21
-98.425
0
LINE
8
BLACK
6
CONTINUOUS
10
197.675
20
-96.675
11
195.925
21
-98.425
0
LINE
8
BLACK
6
CONTINUOUS
10
200.245
20
-39.675
11
201.995
21
-41.425
0
LINE
8
BLACK
6
CONTINUOUS
10
201.995
20
-39.675
11
200.245
21
-41.425
0
LINE
8
BLACK
6
CONTINUOUS
10
200.575
20
-58.65
11
202.325
21
-60.4
0
LINE
8
BLACK
6
CONTINUOUS
10
202.325
20
-58.65
11
200.575
21
-60.4
0
LINE
8
BLACK
6
CONTINUOUS
10
204.765
20
-96.675
11
206.515
21
-98.425
0
LINE
8
BLACK
6
CONTINUOUS
10
206.515
20
-96.675
11
204.765
21
-98.425
0
LINE
8
BLACK
6
CONTINUOUS
10
205.425
20
-77.675
11
207.175
21
-79.425
0
LINE
8
BLACK
6
CONTINUOUS
10
207.175
20
-77.675
11
205.425
21
-79.425
0
LINE
8
BLACK
6
CONTINUOUS
10
209.415
20
-58.65
11
211.165
21
-60.4
0
LINE
8
BLACK
6
CONTINUOUS
10
211.165
20
-58.65
11
209.415
21
-60.4
0
LINE
8
BLACK
6
CONTINUOUS
10
210.405
20
-39.675
11
212.155
21
-41.425
0
LINE
8
BLACK
6
CONTINUOUS
10
212.155
20
-39.675
11
210.405
21
-41.425
0
LINE
8
BLACK
6
CONTINUOUS
10
214.265
20
-77.675
11
216.015
21
-79.425
0
LINE
8
BLACK
6
CONTINUOUS
10
216.015
20
-77.675
11
214.265
21
-79.425
0
LINE
8
BLACK
6
CONTINUOUS
10
214.925
20
-96.675
11
216.675
21
-98.425
0
LINE
8
BLACK
6
CONTINUOUS
10
216.675
20
-96.675
11
214.925
21
-98.425
0
LINE
8
BLACK
6
CONTINUOUS
10
219.065
20
-11.175
11
220.815
21
-12.925
0
LINE
8
BLACK
6
CONTINUOUS
10
220.815
20
-11.175
11
219.065
21
-12.925
0
LINE
8
BLACK
6
CONTINUOUS
10
219.245
20
-39.675
11
220.995
21
-41.425
0
LINE
8
BLACK
6
CONTINUOUS
10
220.995
20
-39.675
11
219.245
21
-41.425
0
LINE
8
BLACK
6
CONTINUOUS
10
219.575
20
-58.65
11
221.325
21
-60.4
0
LINE
8
BLACK
6
CONTINUOUS
10
221.325
20
-58.65
11
219.575
21
-60.4
0
LINE
8
BLACK
6
CONTINUOUS
10
223.765
20
-96.675
11
225.515
21
-98.425
0
LINE
8
BLACK
6
CONTINUOUS
10
225.515
20
-96.675
11
223.765
21
-98.425
0
LINE
8
BLACK
6
CONTINUOUS
10
224.425
20
-77.675
11
226.175
21
-79.425
0
LINE
8
BLACK
6
CONTINUOUS
10
226.175
20
-77.675
11
224.425
21
-79.425
0
LINE
8
BLACK
6
CONTINUOUS
10
228.415
20
-58.65
11
230.165
21
-60.4
0
LINE
8
BLACK
6
CONTINUOUS
10
230.165
20
-58.65
11
228.415
21
-60.4
0
LINE
8
BLACK
6
CONTINUOUS
10
229.225
20
-11.175
11
230.975
21
-12.925
0
LINE
8
BLACK
6
CONTINUOUS
10
230.975
20
-11.175
11
229.225
21
-12.925
0
LINE
8
BLACK
6
CONTINUOUS
10
229.405
20
-39.675
11
231.155
21
-41.425
0
LINE
8
BLACK
6
CONTINUOUS
10
231.155
20
-39.675
11
229.405
21
-41.425
0
LINE
8
BLACK
6
CONTINUOUS
10
233.265
20
-77.675
11
235.015
21
-79.425
0
LINE
8
BLACK
6
CONTINUOUS
10
235.015
20
-77.675
11
233.265
21
-79.425
0
LINE
8
BLACK
6
CONTINUOUS
10
233.925
20
-96.675
11
235.675
21
-98.425
0
LINE
8
BLACK
6
CONTINUOUS
10
235.675
20
-96.675
11
233.925
21
-98.425
0
LINE
8
BLACK
6
CONTINUOUS
10
238.245
20
-39.675
11
239.995
21
-41.425
0
LINE
8
BLACK
6
CONTINUOUS
10
239.995
20
-39.675
11
238.245
21
-41.425
0
LINE
8
BLACK
6
CONTINUOUS
10
238.575
20
-58.65
11
240.325
21
-60.4
0
LINE
8
BLACK
6
CONTINUOUS
10
240.325
20
-58.65
11
238.575
21
-60.4
0
LINE
8
BLACK
6
CONTINUOUS
10
242.765
20
-96.675
11
244.515
21
-98.425
0
LINE
8
BLACK
6
CONTINUOUS
10
244.515
20
-96.675
11
242.765
21
-98.425
0
LINE
8
BLACK
6
CONTINUOUS
10
243.425
20
-77.675
11
245.175
21
-79.425
0
LINE
8
BLACK
6
CONTINUOUS
10
245.175
20
-77.675
11
243.425
21
-79.425
0
LINE
8
BLACK
6
CONTINUOUS
10
247.415
20
-58.65
11
249.165
21
-60.4
0
LINE
8
BLACK
6
CONTINUOUS
10
249.165
20
-58.65
11
247.415
21
-60.4
0
LINE
8
BLACK
6
CONTINUOUS
10
248.405
20
-39.675
11
250.155
21
-41.425
0
LINE
8
BLACK
6
CONTINUOUS
10
250.155
20
-39.675
11
248.405
21
-41.425
0
LINE
8
BLACK
6
CONTINUOUS
10
252.265
20
-77.675
11
254.015
21
-79.425
0
LINE
8
BLACK
6
CONTINUOUS
10
254.015
20
-77.675
11
252.265
21
-79.425
0
LINE
8
BLACK
6
CONTINUOUS
10
252.925
20
-96.675
11
254.675
21
-98.425
0
LINE
8
BLACK
6
CONTINUOUS
10
254.675
20
-96.675
11
252.925
21
-98.425
0
LINE
8
BLACK
6
CONTINUOUS
10
257.245
20
-39.675
11
258.995
21
-41.425
0
LINE
8
BLACK
6
CONTINUOUS
10
258.995
20
-39.675
11
257.245
21
-41.425
0
LINE
8
BLACK
6
CONTINUOUS
10
257.575
20
-58.65
11
259.325
21
-60.4
0
LINE
8
BLACK
6
CONTINUOUS
10
259.325
20
-58.65
11
257.575
21
-60.4
0
LINE
8
BLACK
6
CONTINUOUS
10
261.765
20
-115.675
11
263.515
21
-117.425
0
LINE
8
BLACK
6
CONTINUOUS
10
263.515
20
-115.675
11
261.765
21
-117.425
0
LINE
8
BLACK
6
CONTINUOUS
10
261.865
20
-11.175
11
263.615
21
-12.925
0
LINE
8
BLACK
6
CONTINUOUS
10
263.615
20
-11.175
11
261.865
21
-12.925
0
LINE
8
BLACK
6
CONTINUOUS
10
262.425
20
-77.675
11
264.175
21
-79.425
0
LINE
8
BLACK
6
CONTINUOUS
10
264.175
20
-77.675
11
262.425
21
-79.425
0
LINE
8
BLACK
6
CONTINUOUS
10
267.405
20
-39.675
11
269.155
21
-41.425
0
LINE
8
BLACK
6
CONTINUOUS
10
269.155
20
-39.675
11
267.405
21
-41.425
0
LINE
8
BLACK
6
CONTINUOUS
10
271.265
20
-96.675
11
273.015
21
-98.425
0
LINE
8
BLACK
6
CONTINUOUS
10
273.015
20
-96.675
11
271.265
21
-98.425
0
LINE
8
BLACK
6
CONTINUOUS
10
271.925
20
-115.675
11
273.675
21
-117.425
0
LINE
8
BLACK
6
CONTINUOUS
10
273.675
20
-115.675
11
271.925
21
-117.425
0
LINE
8
BLACK
6
CONTINUOUS
10
272.025
20
-11.175
11
273.775
21
-12.925
0
LINE
8
BLACK
6
CONTINUOUS
10
273.775
20
-11.175
11
272.025
21
-12.925
0
LINE
8
BLACK
6
CONTINUOUS
10
273.54
20
-58.65
11
275.29
21
-60.4
0
LINE
8
BLACK
6
CONTINUOUS
10
275.29
20
-58.65
11
273.54
21
-60.4
0
LINE
8
BLACK
6
CONTINUOUS
10
276.015
20
-77.675
11
277.765
21
-79.425
0
LINE
8
BLACK
6
CONTINUOUS
10
277.765
20
-77.675
11
276.015
21
-79.425
0
LINE
8
BLACK
6
CONTINUOUS
10
278.62
20
-39.675
11
280.37
21
-41.425
0
LINE
8
BLACK
6
CONTINUOUS
10
280.37
20
-39.675
11
278.62
21
-41.425
0
LINE
8
BLACK
6
CONTINUOUS
10
280.725
20
-96.6
11
282.475
21
-98.35
0
LINE
8
BLACK
6
CONTINUOUS
10
282.475
20
-96.6
11
280.725
21
-98.35
0
LINE
8
BLACK
6
CONTINUOUS
10
280.765
20
-115.675
11
282.515
21
-117.425
0
LINE
8
BLACK
6
CONTINUOUS
10
282.515
20
-115.675
11
280.765
21
-117.425
0
LINE
8
BLACK
6
CONTINUOUS
10
280.865
20
-11.175
11
282.615
21
-12.925
0
LINE
8
BLACK
6
CONTINUOUS
10
282.615
20
-11.175
11
280.865
21
-12.925
0
LINE
8
BLACK
6
CONTINUOUS
10
281.425
20
-96.675
11
283.175
21
-98.425
0
LINE
8
BLACK
6
CONTINUOUS
10
283.175
20
-96.675
11
281.425
21
-98.425
0
LINE
8
BLACK
6
CONTINUOUS
10
283.7
20
-58.65
11
285.45
21
-60.4
0
LINE
8
BLACK
6
CONTINUOUS
10
285.45
20
-58.65
11
283.7
21
-60.4
0
LINE
8
BLACK
6
CONTINUOUS
10
286.175
20
-77.675
11
287.925
21
-79.425
0
LINE
8
BLACK
6
CONTINUOUS
10
287.925
20
-77.675
11
286.175
21
-79.425
0
LINE
8
BLACK
6
CONTINUOUS
10
288.78
20
-39.675
11
290.53
21
-41.425
0
LINE
8
BLACK
6
CONTINUOUS
10
290.53
20
-39.675
11
288.78
21
-41.425
0
LINE
8
BLACK
6
CONTINUOUS
10
290.885
20
-96.6
11
292.635
21
-98.35
0
LINE
8
BLACK
6
CONTINUOUS
10
292.635
20
-96.6
11
290.885
21
-98.35
0
LINE
8
BLACK
6
CONTINUOUS
10
290.925
20
-115.675
11
292.675
21
-117.425
0
LINE
8
BLACK
6
CONTINUOUS
10
292.675
20
-115.675
11
290.925
21
-117.425
0
LINE
8
BLACK
6
CONTINUOUS
10
291.025
20
-11.175
11
292.775
21
-12.925
0
LINE
8
BLACK
6
CONTINUOUS
10
292.775
20
-11.175
11
291.025
21
-12.925
0
LINE
8
BLACK
6
CONTINUOUS
10
299.765
20
-96.675
11
301.515
21
-98.425
0
LINE
8
BLACK
6
CONTINUOUS
10
301.515
20
-96.675
11
299.765
21
-98.425
0
LINE
8
BLACK
6
CONTINUOUS
10
299.765
20
-115.675
11
301.515
21
-117.425
0
LINE
8
BLACK
6
CONTINUOUS
10
301.515
20
-115.675
11
299.765
21
-117.425
0
LINE
8
BLACK
6
CONTINUOUS
10
309.925
20
-96.675
11
311.675
21
-98.425
0
LINE
8
BLACK
6
CONTINUOUS
10
311.675
20
-96.675
11
309.925
21
-98.425
0
LINE
8
BLACK
6
CONTINUOUS
10
309.925
20
-115.675
11
311.675
21
-117.425
0
LINE
8
BLACK
6
CONTINUOUS
10
311.675
20
-115.675
11
309.925
21
-117.425
0
LINE
8
BLACK
6
CONTINUOUS
10
332.245
20
-39.675
11
333.995
21
-41.425
0
LINE
8
BLACK
6
CONTINUOUS
10
333.995
20
-39.675
11
332.245
21
-41.425
0
LINE
8
BLACK
6
CONTINUOUS
10
332.245
20
-58.675
11
333.995
21
-60.425
0
LINE
8
BLACK
6
CONTINUOUS
10
333.995
20
-58.675
11
332.245
21
-60.425
0
LINE
8
BLACK
6
CONTINUOUS
10
332.245
20
-77.675
11
333.995
21
-79.425
0
LINE
8
BLACK
6
CONTINUOUS
10
333.995
20
-77.675
11
332.245
21
-79.425
0
LINE
8
BLACK
6
CONTINUOUS
10
332.245
20
-96.675
11
333.995
21
-98.425
0
LINE
8
BLACK
6
CONTINUOUS
10
333.995
20
-96.675
11
332.245
21
-98.425
0
LINE
8
BLACK
6
CONTINUOUS
10
332.245
20
-115.675
11
333.995
21
-117.425
0
LINE
8
BLACK
6
CONTINUOUS
10
333.995
20
-115.675
11
332.245
21
-117.425
0
LINE
8
BLACK
6
CONTINUOUS
10
342.405
20
-39.675
11
344.155
21
-41.425
0
LINE
8
BLACK
6
CONTINUOUS
10
344.155
20
-39.675
11
342.405
21
-41.425
0
LINE
8
BLACK
6
CONTINUOUS
10
342.405
20
-58.675
11
344.155
21
-60.425
0
LINE
8
BLACK
6
CONTINUOUS
10
344.155
20
-58.675
11
342.405
21
-60.425
0
LINE
8
BLACK
6
CONTINUOUS
10
342.405
20
-77.675
11
344.155
21
-79.425
0
LINE
8
BLACK
6
CONTINUOUS
10
344.155
20
-77.675
11
342.405
21
-79.425
0
LINE
8
BLACK
6
CONTINUOUS
10
342.405
20
-96.675
11
344.155
21
-98.425
0
LINE
8
BLACK
6
CONTINUOUS
10
344.155
20
-96.675
11
342.405
21
-98.425
0
LINE
8
BLACK
6
CONTINUOUS
10
342.405
20
-115.675
11
344.155
21
-117.425
0
LINE
8
BLACK
6
CONTINUOUS
10
344.155
20
-115.675
11
342.405
21
-117.425
0
LINE
8
BLACK
6
CONTINUOUS
10
351.245
20
-39.675
11
352.995
21
-41.425
0
LINE
8
BLACK
6
CONTINUOUS
10
352.995
20
-39.675
11
351.245
21
-41.425
0
LINE
8
BLACK
6
CONTINUOUS
10
351.245
20
-58.675
11
352.995
21
-60.425
0
LINE
8
BLACK
6
CONTINUOUS
10
352.995
20
-58.675
11
351.245
21
-60.425
0
LINE
8
BLACK
6
CONTINUOUS
10
351.245
20
-77.675
11
352.995
21
-79.425
0
LINE
8
BLACK
6
CONTINUOUS
10
352.995
20
-77.675
11
351.245
21
-79.425
0
LINE
8
BLACK
6
CONTINUOUS
10
351.245
20
-96.675
11
352.995
21
-98.425
0
LINE
8
BLACK
6
CONTINUOUS
10
352.995
20
-96.675
11
351.245
21
-98.425
0
LINE
8
BLACK
6
CONTINUOUS
10
351.245
20
-115.675
11
352.995
21
-117.425
0
LINE
8
BLACK
6
CONTINUOUS
10
352.995
20
-115.675
11
351.245
21
-117.425
0
LINE
8
BLACK
6
CONTINUOUS
10
361.405
20
-39.675
11
363.155
21
-41.425
0
LINE
8
BLACK
6
CONTINUOUS
10
363.155
20
-39.675
11
361.405
21
-41.425
0
LINE
8
BLACK
6
CONTINUOUS
10
361.405
20
-58.675
11
363.155
21
-60.425
0
LINE
8
BLACK
6
CONTINUOUS
10
363.155
20
-58.675
11
361.405
21
-60.425
0
LINE
8
BLACK
6
CONTINUOUS
10
361.405
20
-77.675
11
363.155
21
-79.425
0
LINE
8
BLACK
6
CONTINUOUS
10
363.155
20
-77.675
11
361.405
21
-79.425
0
LINE
8
BLACK
6
CONTINUOUS
10
361.405
20
-96.675
11
363.155
21
-98.425
0
LINE
8
BLACK
6
CONTINUOUS
10
363.155
20
-96.675
11
361.405
21
-98.425
0
LINE
8
BLACK
6
CONTINUOUS
10
361.405
20
-115.675
11
363.155
21
-117.425
0
LINE
8
BLACK
6
CONTINUOUS
10
363.155
20
-115.675
11
361.405
21
-117.425
0
LINE
8
BLACK
6
CONTINUOUS
10
370.245
20
-39.675
11
371.995
21
-41.425
0
LINE
8
BLACK
6
CONTINUOUS
10
371.995
20
-39.675
11
370.245
21
-41.425
0
LINE
8
BLACK
6
CONTINUOUS
10
370.245
20
-58.675
11
371.995
21
-60.425
0
LINE
8
BLACK
6
CONTINUOUS
10
371.995
20
-58.675
11
370.245
21
-60.425
0
LINE
8
BLACK
6
CONTINUOUS
10
370.245
20
-77.675
11
371.995
21
-79.425
0
LINE
8
BLACK
6
CONTINUOUS
10
371.995
20
-77.675
11
370.245
21
-79.425
0
LINE
8
BLACK
6
CONTINUOUS
10
370.245
20
-96.675
11
371.995
21
-98.425
0
LINE
8
BLACK
6
CONTINUOUS
10
371.995
20
-96.675
11
370.245
21
-98.425
0
LINE
8
BLACK
6
CONTINUOUS
10
370.245
20
-115.675
11
371.995
21
-117.425
0
LINE
8
BLACK
6
CONTINUOUS
10
371.995
20
-115.675
11
370.245
21
-117.425
0
LINE
8
BLACK
6
CONTINUOUS
10
380.405
20
-39.675
11
382.155
21
-41.425
0
LINE
8
BLACK
6
CONTINUOUS
10
382.155
20
-39.675
11
380.405
21
-41.425
0
LINE
8
BLACK
6
CONTINUOUS
10
380.405
20
-58.675
11
382.155
21
-60.425
0
LINE
8
BLACK
6
CONTINUOUS
10
382.155
20
-58.675
11
380.405
21
-60.425
0
LINE
8
BLACK
6
CONTINUOUS
10
380.405
20
-77.675
11
382.155
21
-79.425
0
LINE
8
BLACK
6
CONTINUOUS
10
382.155
20
-77.675
11
380.405
21
-79.425
0
LINE
8
BLACK
6
CONTINUOUS
10
380.405
20
-96.675
11
382.155
21
-98.425
0
LINE
8
BLACK
6
CONTINUOUS
10
382.155
20
-96.675
11
380.405
21
-98.425
0
LINE
8
BLACK
6
CONTINUOUS
10
380.405
20
-115.675
11
382.155
21
-117.425
0
LINE
8
BLACK
6
CONTINUOUS
10
382.155
20
-115.675
11
380.405
21
-117.425
0
LINE
8
BLACK
6
CONTINUOUS
10
389.245
20
-39.675
11
390.995
21
-41.425
0
LINE
8
BLACK
6
CONTINUOUS
10
390.995
20
-39.675
11
389.245
21
-41.425
0
LINE
8
BLACK
6
CONTINUOUS
10
389.245
20
-58.675
11
390.995
21
-60.425
0
LINE
8
BLACK
6
CONTINUOUS
10
390.995
20
-58.675
11
389.245
21
-60.425
0
LINE
8
BLACK
6
CONTINUOUS
10
389.245
20
-77.675
11
390.995
21
-79.425
0
LINE
8
BLACK
6
CONTINUOUS
10
390.995
20
-77.675
11
389.245
21
-79.425
0
LINE
8
BLACK
6
CONTINUOUS
10
389.245
20
-96.675
11
390.995
21
-98.425
0
LINE
8
BLACK
6
CONTINUOUS
10
390.995
20
-96.675
11
389.245
21
-98.425
0
LINE
8
BLACK
6
CONTINUOUS
10
389.245
20
-115.675
11
390.995
21
-117.425
0
LINE
8
BLACK
6
CONTINUOUS
10
390.995
20
-115.675
11
389.245
21
-117.425
0
LINE
8
BLACK
6
CONTINUOUS
10
399.405
20
-39.675
11
401.155
21
-41.425
0
LINE
8
BLACK
6
CONTINUOUS
10
401.155
20
-39.675
11
399.405
21
-41.425
0
LINE
8
BLACK
6
CONTINUOUS
10
399.405
20
-58.675
11
401.155
21
-60.425
0
LINE
8
BLACK
6
CONTINUOUS
10
401.155
20
-58.675
11
399.405
21
-60.425
0
LINE
8
BLACK
6
CONTINUOUS
10
399.405
20
-77.675
11
401.155
21
-79.425
0
LINE
8
BLACK
6
CONTINUOUS
10
401.155
20
-77.675
11
399.405
21
-79.425
0
LINE
8
BLACK
6
CONTINUOUS
10
399.405
20
-96.675
11
401.155
21
-98.425
0
LINE
8
BLACK
6
CONTINUOUS
10
401.155
20
-96.675
11
399.405
21
-98.425
0
LINE
8
BLACK
6
CONTINUOUS
10
399.405
20
-115.675
11
401.155
21
-117.425
0
LINE
8
BLACK
6
CONTINUOUS
10
401.155
20
-115.675
11
399.405
21
-117.425
0
CIRCLE
8
BLACK
10
11.22
20
-12.05
40
1.9939
0
CIRCLE
8
BLACK
10
11.22
20
-78.55
40
1.9939
0
CIRCLE
8
BLACK
10
11.22
20
-97.55
40
1.9939
0
CIRCLE
8
BLACK
10
13.5
20
-40.55
40
1.9939
0
CIRCLE
8
BLACK
10
18.245
20
-59.525
40
1.9939
0
CIRCLE
8
BLACK
10
30.22
20
-12.05
40
1.9939
0
CIRCLE
8
BLACK
10
30.22
20
-78.55
40
1.9939
0
CIRCLE
8
BLACK
10
35.2
20
-40.55
40
1.9939
0
CIRCLE
8
BLACK
10
39.72
20
-97.55
40
1.9939
0
CIRCLE
8
BLACK
10
44.37
20
-59.525
40
1.9939
0
CIRCLE
8
BLACK
10
49.22
20
-78.55
40
1.9939
0
CIRCLE
8
BLACK
10
54.2
20
-40.55
40
1.9939
0
CIRCLE
8
BLACK
10
58.72
20
-97.55
40
1.9939
0
CIRCLE
8
BLACK
10
58.72
20
-116.65
40
1.9939
0
CIRCLE
8
BLACK
10
63.37
20
-59.525
40
1.9939
0
CIRCLE
8
BLACK
10
68.22
20
-78.55
40
1.9939
0
CIRCLE
8
BLACK
10
73.02
20
-12.05
40
1.9939
0
CIRCLE
8
BLACK
10
73.2
20
-40.55
40
1.9939
0
CIRCLE
8
BLACK
10
77.72
20
-97.55
40
1.9939
0
CIRCLE
8
BLACK
10
77.72
20
-116.65
40
1.9939
0
CIRCLE
8
BLACK
10
82.37
20
-59.525
40
1.9939
0
CIRCLE
8
BLACK
10
87.22
20
-78.55
40
1.9939
0
CIRCLE
8
BLACK
10
92.2
20
-40.55
40
1.9939
0
CIRCLE
8
BLACK
10
96.72
20
-97.55
40
1.9939
0
CIRCLE
8
BLACK
10
101.37
20
-59.525
40
1.9939
0
CIRCLE
8
BLACK
10
106.22
20
-78.55
40
1.9939
0
CIRCLE
8
BLACK
10
111.02
20
-12.05
40
1.9939
0
CIRCLE
8
BLACK
10
111.2
20
-40.55
40
1.9939
0
CIRCLE
8
BLACK
10
115.72
20
-97.55
40
1.9939
0
CIRCLE
8
BLACK
10
120.37
20
-59.525
40
1.9939
0
CIRCLE
8
BLACK
10
125.22
20
-78.55
40
1.9939
0
CIRCLE
8
BLACK
10
130.2
20
-40.55
40
1.9939
0
CIRCLE
8
BLACK
10
134.72
20
-97.55
40
1.9939
0
CIRCLE
8
BLACK
10
139.37
20
-59.525
40
1.9939
0
CIRCLE
8
BLACK
10
144.22
20
-78.55
40
1.9939
0
CIRCLE
8
BLACK
10
149.02
20
-12.05
40
1.9939
0
CIRCLE
8
BLACK
10
149.2
20
-40.55
40
1.9939
0
CIRCLE
8
BLACK
10
153.72
20
-97.55
40
1.9939
0
CIRCLE
8
BLACK
10
153.72
20
-116.65
40
1.9939
0
CIRCLE
8
BLACK
10
158.37
20
-59.525
40
1.9939
0
CIRCLE
8
BLACK
10
163.22
20
-78.55
40
1.9939
0
CIRCLE
8
BLACK
10
168.2
20
-40.55
40
1.9939
0
CIRCLE
8
BLACK
10
172.72
20
-97.55
40
1.9939
0
CIRCLE
8
BLACK
10
172.72
20
-116.65
40
1.9939
0
CIRCLE
8
BLACK
10
177.37
20
-59.525
40
1.9939
0
CIRCLE
8
BLACK
10
182.22
20
-78.55
40
1.9939
0
CIRCLE
8
BLACK
10
187.02
20
-12.05
40
1.9939
0
CIRCLE
8
BLACK
10
187.2
20
-40.55
40
1.9939
0
CIRCLE
8
BLACK
10
191.72
20
-97.55
40
1.9939
0
CIRCLE
8
BLACK
10
196.37
20
-59.525
40
1.9939
0
CIRCLE
8
BLACK
10
201.22
20
-78.55
40
1.9939
0
CIRCLE
8
BLACK
10
206.2
20
-40.55
40
1.9939
0
CIRCLE
8
BLACK
10
210.72
20
-97.55
40
1.9939
0
CIRCLE
8
BLACK
10
215.37
20
-59.525
40
1.9939
0
CIRCLE
8
BLACK
10
220.22
20
-78.55
40
1.9939
0
CIRCLE
8
BLACK
10
225.02
20
-12.05
40
1.9939
0
CIRCLE
8
BLACK
10
225.2
20
-40.55
40
1.9939
0
CIRCLE
8
BLACK
10
229.72
20
-97.55
40
1.9939
0
CIRCLE
8
BLACK
10
234.37
20
-59.525
40
1.9939
0
CIRCLE
8
BLACK
10
239.22
20
-78.55
40
1.9939
0
CIRCLE
8
BLACK
10
244.2
20
-40.55
40
1.9939
0
CIRCLE
8
BLACK
10
248.72
20
-97.55
40
1.9939
0
CIRCLE
8
BLACK
10
253.37
20
-59.525
40
1.9939
0
CIRCLE
8
BLACK
10
258.22
20
-78.55
40
1.9939
0
CIRCLE
8
BLACK
10
263.2
20
-40.55
40
1.9939
0
CIRCLE
8
BLACK
10
267.72
20
-116.55
40
1.9939
0
CIRCLE
8
BLACK
10
267.82
20
-12.05
40
1.9939
0
CIRCLE
8
BLACK
10
277.22
20
-97.55
40
1.9939
0
CIRCLE
8
BLACK
10
279.495
20
-59.525
40
1.9939
0
CIRCLE
8
BLACK
10
281.97
20
-78.55
40
1.9939
0
CIRCLE
8
BLACK
10
284.575
20
-40.55
40
1.9939
0
CIRCLE
8
BLACK
10
286.68
20
-97.475
40
1.9939
0
CIRCLE
8
BLACK
10
286.72
20
-116.55
40
1.9939
0
CIRCLE
8
BLACK
10
286.82
20
-12.05
40
1.9939
0
CIRCLE
8
BLACK
10
305.72
20
-97.55
40
1.9939
0
CIRCLE
8
BLACK
10
305.72
20
-116.55
40
1.9939
0
CIRCLE
8
BLACK
10
338.2
20
-40.55
40
1.9939
0
CIRCLE
8
BLACK
10
338.2
20
-59.55
40
1.9939
0
CIRCLE
8
BLACK
10
338.2
20
-78.55
40
1.9939
0
CIRCLE
8
BLACK
10
338.2
20
-97.55
40
1.9939
0
CIRCLE
8
BLACK
10
338.2
20
-116.55
40
1.9939
0
CIRCLE
8
BLACK
10
357.2
20
-40.55
40
1.9939
0
CIRCLE
8
BLACK
10
357.2
20
-59.55
40
1.9939
0
CIRCLE
8
BLACK
10
357.2
20
-78.55
40
1.9939
0
CIRCLE
8
BLACK
10
357.2
20
-97.55
40
1.9939
0
CIRCLE
8
BLACK
10
357.2
20
-116.55
40
1.9939
0
CIRCLE
8
BLACK
10
376.2
20
-40.55
40
1.9939
0
CIRCLE
8
BLACK
10
376.2
20
-59.55
40
1.9939
0
CIRCLE
8
BLACK
10
376.2
20
-78.55
40
1.9939
0
CIRCLE
8
BLACK
10
376.2
20
-97.55
40
1.9939
0
CIRCLE
8
BLACK
10
376.2
20
-116.55
40
1.9939
0
CIRCLE
8
BLACK
10
395.2
20
-40.55
40
1.9939
0
CIRCLE
8
BLACK
10
395.2
20
-59.55
40
1.9939
0
CIRCLE
8
BLACK
10
395.2
20
-78.55
40
1.9939
0
CIRCLE
8
BLACK
10
395.2
20
-97.55
40
1.9939
0
CIRCLE
8
BLACK
10
395.2
20
-116.55
40
1.9939
0
LINE
8
BLACK
6
CONTINUOUS
10
2.38769
20
-139.04
11
2.38769
21
-137.04
0
LINE
8
BLACK
6
CONTINUOUS
10
2.38769
20
-137.04
11
2.86388
21
-137.04
0
LINE
8
BLACK
6
CONTINUOUS
10
2.86388
20
-137.04
11
3.14959
21
-137.135
0
LINE
8
BLACK
6
CONTINUOUS
10
3.14959
20
-137.135
11
3.34007
21
-137.325
0
LINE
8
BLACK
6
CONTINUOUS
10
3.34007
20
-137.325
11
3.43531
21
-137.516
0
LINE
8
BLACK
6
CONTINUOUS
10
3.43531
20
-137.516
11
3.53055
21
-137.897
0
LINE
8
BLACK
6
CONTINUOUS
10
3.53055
20
-137.897
11
3.53055
21
-138.183
0
LINE
8
BLACK
6
CONTINUOUS
10
3.53055
20
-138.183
11
3.43531
21
-138.564
0
LINE
8
BLACK
6
CONTINUOUS
10
3.43531
20
-138.564
11
3.34007
21
-138.754
0
LINE
8
BLACK
6
CONTINUOUS
10
3.34007
20
-138.754
11
3.14959
21
-138.945
0
LINE
8
BLACK
6
CONTINUOUS
10
3.14959
20
-138.945
11
2.86388
21
-139.04
0
LINE
8
BLACK
6
CONTINUOUS
10
2.86388
20
-139.04
11
2.38769
21
-139.04
0
LINE
8
BLACK
6
CONTINUOUS
10
4.38769
20
-139.04
11
4.38769
21
-137.706
0
LINE
8
BLACK
6
CONTINUOUS
10
4.38769
20
-138.087
11
4.48293
21
-137.897
0
LINE
8
BLACK
6
CONTINUOUS
10
4.48293
20
-137.897
11
4.57817
21
-137.802
0
LINE
8
BLACK
6
CONTINUOUS
10
4.57817
20
-137.802
11
4.76864
21
-137.706
0
LINE
8
BLACK
6
CONTINUOUS
10
4.76864
20
-137.706
11
4.95912
21
-137.706
0
LINE
8
BLACK
6
CONTINUOUS
10
5.62578
20
-139.04
11
5.62578
21
-137.706
0
LINE
8
BLACK
6
CONTINUOUS
10
5.62578
20
-137.04
11
5.53055
21
-137.135
0
LINE
8
BLACK
6
CONTINUOUS
10
5.53055
20
-137.135
11
5.62578
21
-137.23
0
LINE
8
BLACK
6
CONTINUOUS
10
5.62578
20
-137.23
11
5.72102
21
-137.135
0
LINE
8
BLACK
6
CONTINUOUS
10
5.72102
20
-137.135
11
5.62578
21
-137.04
0
LINE
8
BLACK
6
CONTINUOUS
10
5.62578
20
-137.04
11
5.62578
21
-137.23
0
LINE
8
BLACK
6
CONTINUOUS
10
6.86388
20
-139.04
11
6.6734
21
-138.945
0
LINE
8
BLACK
6
CONTINUOUS
10
6.6734
20
-138.945
11
6.57817
21
-138.754
0
LINE
8
BLACK
6
CONTINUOUS
10
6.57817
20
-138.754
11
6.57817
21
-137.04
0
LINE
8
BLACK
6
CONTINUOUS
10
7.9115
20
-139.04
11
7.72102
21
-138.945
0
LINE
8
BLACK
6
CONTINUOUS
10
7.72102
20
-138.945
11
7.62578
21
-138.754
0
LINE
8
BLACK
6
CONTINUOUS
10
7.62578
20
-138.754
11
7.62578
21
-137.04
0
LINE
8
BLACK
6
CONTINUOUS
10
9.8734
20
-139.04
11
9.8734
21
-137.04
0
LINE
8
BLACK
6
CONTINUOUS
10
9.8734
20
-137.04
11
10.5401
21
-138.468
0
LINE
8
BLACK
6
CONTINUOUS
10
10.5401
20
-138.468
11
11.2067
21
-137.04
0
LINE
8
BLACK
6
CONTINUOUS
10
11.2067
20
-137.04
11
11.2067
21
-139.04
0
LINE
8
BLACK
6
CONTINUOUS
10
13.0163
20
-139.04
11
13.0163
21
-137.992
0
LINE
8
BLACK
6
CONTINUOUS
10
13.0163
20
-137.992
11
12.921
21
-137.802
0
LINE
8
BLACK
6
CONTINUOUS
10
12.921
20
-137.802
11
12.7305
21
-137.706
0
LINE
8
BLACK
6
CONTINUOUS
10
12.7305
20
-137.706
11
12.3496
21
-137.706
0
LINE
8
BLACK
6
CONTINUOUS
10
12.3496
20
-137.706
11
12.1591
21
-137.802
0
LINE
8
BLACK
6
CONTINUOUS
10
13.0163
20
-138.945
11
12.8258
21
-139.04
0
LINE
8
BLACK
6
CONTINUOUS
10
12.8258
20
-139.04
11
12.3496
21
-139.04
0
LINE
8
BLACK
6
CONTINUOUS
10
12.3496
20
-139.04
11
12.1591
21
-138.945
0
LINE
8
BLACK
6
CONTINUOUS
10
12.1591
20
-138.945
11
12.0639
21
-138.754
0
LINE
8
BLACK
6
CONTINUOUS
10
12.0639
20
-138.754
11
12.0639
21
-138.564
0
LINE
8
BLACK
6
CONTINUOUS
10
12.0639
20
-138.564
11
12.1591
21
-138.373
0
LINE
8
BLACK
6
CONTINUOUS
10
12.1591
20
-138.373
11
12.3496
21
-138.278
0
LINE
8
BLACK
6
CONTINUOUS
10
12.3496
20
-138.278
11
12.8258
21
-138.278
0
LINE
8
BLACK
6
CONTINUOUS
10
12.8258
20
-138.278
11
13.0163
21
-138.183
0
LINE
8
BLACK
6
CONTINUOUS
10
13.9686
20
-137.706
11
13.9686
21
-139.706
0
LINE
8
BLACK
6
CONTINUOUS
10
13.9686
20
-137.802
11
14.1591
21
-137.706
0
LINE
8
BLACK
6
CONTINUOUS
10
14.1591
20
-137.706
11
14.5401
21
-137.706
0
LINE
8
BLACK
6
CONTINUOUS
10
14.5401
20
-137.706
11
14.7305
21
-137.802
0
LINE
8
BLACK
6
CONTINUOUS
10
14.7305
20
-137.802
11
14.8258
21
-137.897
0
LINE
8
BLACK
6
CONTINUOUS
10
14.8258
20
-137.897
11
14.921
21
-138.087
0
LINE
8
BLACK
6
CONTINUOUS
10
14.921
20
-138.087
11
14.921
21
-138.659
0
LINE
8
BLACK
6
CONTINUOUS
10
14.921
20
-138.659
11
14.8258
21
-138.849
0
LINE
8
BLACK
6
CONTINUOUS
10
14.8258
20
-138.849
11
14.7305
21
-138.945
0
LINE
8
BLACK
6
CONTINUOUS
10
14.7305
20
-138.945
11
14.5401
21
-139.04
0
LINE
8
BLACK
6
CONTINUOUS
10
14.5401
20
-139.04
11
14.1591
21
-139.04
0
LINE
8
BLACK
6
CONTINUOUS
10
14.1591
20
-139.04
11
13.9686
21
-138.945
0
LINE
8
BLACK
6
CONTINUOUS
10
15.7782
20
-138.849
11
15.8734
21
-138.945
0
LINE
8
BLACK
6
CONTINUOUS
10
15.8734
20
-138.945
11
15.7782
21
-139.04
0
LINE
8
BLACK
6
CONTINUOUS
10
15.7782
20
-139.04
11
15.6829
21
-138.945
0
LINE
8
BLACK
6
CONTINUOUS
10
15.6829
20
-138.945
11
15.7782
21
-138.849
0
LINE
8
BLACK
6
CONTINUOUS
10
15.7782
20
-138.849
11
15.7782
21
-139.04
0
LINE
8
BLACK
6
CONTINUOUS
10
15.7782
20
-137.802
11
15.8734
21
-137.897
0
LINE
8
BLACK
6
CONTINUOUS
10
15.8734
20
-137.897
11
15.7782
21
-137.992
0
LINE
8
BLACK
6
CONTINUOUS
10
15.7782
20
-137.992
11
15.6829
21
-137.897
0
LINE
8
BLACK
6
CONTINUOUS
10
15.6829
20
-137.897
11
15.7782
21
-137.802
0
LINE
8
BLACK
6
CONTINUOUS
10
15.7782
20
-137.802
11
15.7782
21
-137.992
0
LINE
8
BLACK
6
CONTINUOUS
10
-1.8385
20
-141.63
11
-0.0885
21
-143.38
0
LINE
8
BLACK
6
CONTINUOUS
10
-0.0885
20
-141.63
11
-1.8385
21
-143.38
0
LINE
8
BLACK
6
CONTINUOUS
10
3.43531
20
-143.24
11
2.29245
21
-143.24
0
LINE
8
BLACK
6
CONTINUOUS
10
2.86388
20
-143.24
11
2.86388
21
-141.24
0
LINE
8
BLACK
6
CONTINUOUS
10
2.86388
20
-141.24
11
2.6734
21
-141.525
0
LINE
8
BLACK
6
CONTINUOUS
10
2.6734
20
-141.525
11
2.48293
21
-141.716
0
LINE
8
BLACK
6
CONTINUOUS
10
2.48293
20
-141.716
11
2.29245
21
-141.811
0
LINE
8
BLACK
6
CONTINUOUS
10
4.29245
20
-143.049
11
4.38769
21
-143.145
0
LINE
8
BLACK
6
CONTINUOUS
10
4.38769
20
-143.145
11
4.29245
21
-143.24
0
LINE
8
BLACK
6
CONTINUOUS
10
4.29245
20
-143.24
11
4.19721
21
-143.145
0
LINE
8
BLACK
6
CONTINUOUS
10
4.19721
20
-143.145
11
4.29245
21
-143.049
0
LINE
8
BLACK
6
CONTINUOUS
10
4.29245
20
-143.049
11
4.29245
21
-143.24
0
LINE
8
BLACK
6
CONTINUOUS
10
5.05436
20
-141.24
11
6.38769
21
-141.24
0
LINE
8
BLACK
6
CONTINUOUS
10
6.38769
20
-141.24
11
5.53055
21
-143.24
0
LINE
8
BLACK
6
CONTINUOUS
10
8.10198
20
-141.24
11
7.14959
21
-141.24
0
LINE
8
BLACK
6
CONTINUOUS
10
7.14959
20
-141.24
11
7.05436
21
-142.192
0
LINE
8
BLACK
6
CONTINUOUS
10
7.05436
20
-142.192
11
7.14959
21
-142.097
0
LINE
8
BLACK
6
CONTINUOUS
10
7.14959
20
-142.097
11
7.34007
21
-142.002
0
LINE
8
BLACK
6
CONTINUOUS
10
7.34007
20
-142.002
11
7.81626
21
-142.002
0
LINE
8
BLACK
6
CONTINUOUS
10
7.81626
20
-142.002
11
8.00674
21
-142.097
0
LINE
8
BLACK
6
CONTINUOUS
10
8.00674
20
-142.097
11
8.10198
21
-142.192
0
LINE
8
BLACK
6
CONTINUOUS
10
8.10198
20
-142.192
11
8.19721
21
-142.383
0
LINE
8
BLACK
6
CONTINUOUS
10
8.19721
20
-142.383
11
8.19721
21
-142.859
0
LINE
8
BLACK
6
CONTINUOUS
10
8.19721
20
-142.859
11
8.10198
21
-143.049
0
LINE
8
BLACK
6
CONTINUOUS
10
8.10198
20
-143.049
11
8.00674
21
-143.145
0
LINE
8
BLACK
6
CONTINUOUS
10
8.00674
20
-143.145
11
7.81626
21
-143.24
0
LINE
8
BLACK
6
CONTINUOUS
10
7.81626
20
-143.24
11
7.34007
21
-143.24
0
LINE
8
BLACK
6
CONTINUOUS
10
7.34007
20
-143.24
11
7.14959
21
-143.145
0
LINE
8
BLACK
6
CONTINUOUS
10
7.14959
20
-143.145
11
7.05436
21
-143.049
0
LINE
8
BLACK
6
CONTINUOUS
10
9.43531
20
-141.24
11
9.62579
21
-141.24
0
LINE
8
BLACK
6
CONTINUOUS
10
9.62579
20
-141.24
11
9.81626
21
-141.335
0
LINE
8
BLACK
6
CONTINUOUS
10
9.81626
20
-141.335
11
9.9115
21
-141.43
0
LINE
8
BLACK
6
CONTINUOUS
10
9.9115
20
-141.43
11
10.0067
21
-141.621
0
LINE
8
BLACK
6
CONTINUOUS
10
10.0067
20
-141.621
11
10.102
21
-142.002
0
LINE
8
BLACK
6
CONTINUOUS
10
10.102
20
-142.002
11
10.102
21
-142.478
0
LINE
8
BLACK
6
CONTINUOUS
10
10.102
20
-142.478
11
10.0067
21
-142.859
0
LINE
8
BLACK
6
CONTINUOUS
10
10.0067
20
-142.859
11
9.9115
21
-143.049
0
LINE
8
BLACK
6
CONTINUOUS
10
9.9115
20
-143.049
11
9.81626
21
-143.145
0
LINE
8
BLACK
6
CONTINUOUS
10
9.81626
20
-143.145
11
9.62579
21
-143.24
0
LINE
8
BLACK
6
CONTINUOUS
10
9.62579
20
-143.24
11
9.43531
21
-143.24
0
LINE
8
BLACK
6
CONTINUOUS
10
9.43531
20
-143.24
11
9.24483
21
-143.145
0
LINE
8
BLACK
6
CONTINUOUS
10
9.24483
20
-143.145
11
9.14959
21
-143.049
0
LINE
8
BLACK
6
CONTINUOUS
10
9.14959
20
-143.049
11
9.05436
21
-142.859
0
LINE
8
BLACK
6
CONTINUOUS
10
9.05436
20
-142.859
11
8.95912
21
-142.478
0
LINE
8
BLACK
6
CONTINUOUS
10
8.95912
20
-142.478
11
8.95912
21
-142.002
0
LINE
8
BLACK
6
CONTINUOUS
10
8.95912
20
-142.002
11
9.05436
21
-141.621
0
LINE
8
BLACK
6
CONTINUOUS
10
9.05436
20
-141.621
11
9.14959
21
-141.43
0
LINE
8
BLACK
6
CONTINUOUS
10
9.14959
20
-141.43
11
9.24483
21
-141.335
0
LINE
8
BLACK
6
CONTINUOUS
10
9.24483
20
-141.335
11
9.43531
21
-141.24
0
LINE
8
BLACK
6
CONTINUOUS
10
10.9591
20
-143.24
11
10.9591
21
-141.906
0
LINE
8
BLACK
6
CONTINUOUS
10
10.9591
20
-142.097
11
11.0544
21
-142.002
0
LINE
8
BLACK
6
CONTINUOUS
10
11.0544
20
-142.002
11
11.2448
21
-141.906
0
LINE
8
BLACK
6
CONTINUOUS
10
11.2448
20
-141.906
11
11.5305
21
-141.906
0
LINE
8
BLACK
6
CONTINUOUS
10
11.5305
20
-141.906
11
11.721
21
-142.002
0
LINE
8
BLACK
6
CONTINUOUS
10
11.721
20
-142.002
11
11.8163
21
-142.192
0
LINE
8
BLACK
6
CONTINUOUS
10
11.8163
20
-142.192
11
11.8163
21
-143.24
0
LINE
8
BLACK
6
CONTINUOUS
10
11.8163
20
-142.192
11
11.9115
21
-142.002
0
LINE
8
BLACK
6
CONTINUOUS
10
11.9115
20
-142.002
11
12.102
21
-141.906
0
LINE
8
BLACK
6
CONTINUOUS
10
12.102
20
-141.906
11
12.3877
21
-141.906
0
LINE
8
BLACK
6
CONTINUOUS
10
12.3877
20
-141.906
11
12.5782
21
-142.002
0
LINE
8
BLACK
6
CONTINUOUS
10
12.5782
20
-142.002
11
12.6734
21
-142.192
0
LINE
8
BLACK
6
CONTINUOUS
10
12.6734
20
-142.192
11
12.6734
21
-143.24
0
LINE
8
BLACK
6
CONTINUOUS
10
13.6258
20
-143.24
11
13.6258
21
-141.906
0
LINE
8
BLACK
6
CONTINUOUS
10
13.6258
20
-142.097
11
13.721
21
-142.002
0
LINE
8
BLACK
6
CONTINUOUS
10
13.721
20
-142.002
11
13.9115
21
-141.906
0
LINE
8
BLACK
6
CONTINUOUS
10
13.9115
20
-141.906
11
14.1972
21
-141.906
0
LINE
8
BLACK
6
CONTINUOUS
10
14.1972
20
-141.906
11
14.3877
21
-142.002
0
LINE
8
BLACK
6
CONTINUOUS
10
14.3877
20
-142.002
11
14.4829
21
-142.192
0
LINE
8
BLACK
6
CONTINUOUS
10
14.4829
20
-142.192
11
14.4829
21
-143.24
0
LINE
8
BLACK
6
CONTINUOUS
10
14.4829
20
-142.192
11
14.5782
21
-142.002
0
LINE
8
BLACK
6
CONTINUOUS
10
14.5782
20
-142.002
11
14.7686
21
-141.906
0
LINE
8
BLACK
6
CONTINUOUS
10
14.7686
20
-141.906
11
15.0544
21
-141.906
0
LINE
8
BLACK
6
CONTINUOUS
10
15.0544
20
-141.906
11
15.2448
21
-142.002
0
LINE
8
BLACK
6
CONTINUOUS
10
15.2448
20
-142.002
11
15.3401
21
-142.192
0
LINE
8
BLACK
6
CONTINUOUS
10
15.3401
20
-142.192
11
15.3401
21
-143.24
0
LINE
8
BLACK
6
CONTINUOUS
10
18.921
20
-141.145
11
17.2067
21
-143.716
0
LINE
8
BLACK
6
CONTINUOUS
10
21.1686
20
-141.24
11
21.3591
21
-141.24
0
LINE
8
BLACK
6
CONTINUOUS
10
21.3591
20
-141.24
11
21.5496
21
-141.335
0
LINE
8
BLACK
6
CONTINUOUS
10
21.5496
20
-141.335
11
21.6448
21
-141.43
0
LINE
8
BLACK
6
CONTINUOUS
10
21.6448
20
-141.43
11
21.7401
21
-141.621
0
LINE
8
BLACK
6
CONTINUOUS
10
21.7401
20
-141.621
11
21.8353
21
-142.002
0
LINE
8
BLACK
6
CONTINUOUS
10
21.8353
20
-142.002
11
21.8353
21
-142.478
0
LINE
8
BLACK
6
CONTINUOUS
10
21.8353
20
-142.478
11
21.7401
21
-142.859
0
LINE
8
BLACK
6
CONTINUOUS
10
21.7401
20
-142.859
11
21.6448
21
-143.049
0
LINE
8
BLACK
6
CONTINUOUS
10
21.6448
20
-143.049
11
21.5496
21
-143.145
0
LINE
8
BLACK
6
CONTINUOUS
10
21.5496
20
-143.145
11
21.3591
21
-143.24
0
LINE
8
BLACK
6
CONTINUOUS
10
21.3591
20
-143.24
11
21.1686
21
-143.24
0
LINE
8
BLACK
6
CONTINUOUS
10
21.1686
20
-143.24
11
20.9782
21
-143.145
0
LINE
8
BLACK
6
CONTINUOUS
10
20.9782
20
-143.145
11
20.8829
21
-143.049
0
LINE
8
BLACK
6
CONTINUOUS
10
20.8829
20
-143.049
11
20.7877
21
-142.859
0
LINE
8
BLACK
6
CONTINUOUS
10
20.7877
20
-142.859
11
20.6925
21
-142.478
0
LINE
8
BLACK
6
CONTINUOUS
10
20.6925
20
-142.478
11
20.6925
21
-142.002
0
LINE
8
BLACK
6
CONTINUOUS
10
20.6925
20
-142.002
11
20.7877
21
-141.621
0
LINE
8
BLACK
6
CONTINUOUS
10
20.7877
20
-141.621
11
20.8829
21
-141.43
0
LINE
8
BLACK
6
CONTINUOUS
10
20.8829
20
-141.43
11
20.9782
21
-141.335
0
LINE
8
BLACK
6
CONTINUOUS
10
20.9782
20
-141.335
11
21.1686
21
-141.24
0
LINE
8
BLACK
6
CONTINUOUS
10
22.6925
20
-143.049
11
22.7877
21
-143.145
0
LINE
8
BLACK
6
CONTINUOUS
10
22.7877
20
-143.145
11
22.6925
21
-143.24
0
LINE
8
BLACK
6
CONTINUOUS
10
22.6925
20
-143.24
11
22.5972
21
-143.145
0
LINE
8
BLACK
6
CONTINUOUS
10
22.5972
20
-143.145
11
22.6925
21
-143.049
0
LINE
8
BLACK
6
CONTINUOUS
10
22.6925
20
-143.049
11
22.6925
21
-143.24
0
LINE
8
BLACK
6
CONTINUOUS
10
24.0258
20
-141.24
11
24.2163
21
-141.24
0
LINE
8
BLACK
6
CONTINUOUS
10
24.2163
20
-141.24
11
24.4067
21
-141.335
0
LINE
8
BLACK
6
CONTINUOUS
10
24.4067
20
-141.335
11
24.502
21
-141.43
0
LINE
8
BLACK
6
CONTINUOUS
10
24.502
20
-141.43
11
24.5972
21
-141.621
0
LINE
8
BLACK
6
CONTINUOUS
10
24.5972
20
-141.621
11
24.6925
21
-142.002
0
LINE
8
BLACK
6
CONTINUOUS
10
24.6925
20
-142.002
11
24.6925
21
-142.478
0
LINE
8
BLACK
6
CONTINUOUS
10
24.6925
20
-142.478
11
24.5972
21
-142.859
0
LINE
8
BLACK
6
CONTINUOUS
10
24.5972
20
-142.859
11
24.502
21
-143.049
0
LINE
8
BLACK
6
CONTINUOUS
10
24.502
20
-143.049
11
24.4067
21
-143.145
0
LINE
8
BLACK
6
CONTINUOUS
10
24.4067
20
-143.145
11
24.2163
21
-143.24
0
LINE
8
BLACK
6
CONTINUOUS
10
24.2163
20
-143.24
11
24.0258
21
-143.24
0
LINE
8
BLACK
6
CONTINUOUS
10
24.0258
20
-143.24
11
23.8353
21
-143.145
0
LINE
8
BLACK
6
CONTINUOUS
10
23.8353
20
-143.145
11
23.7401
21
-143.049
0
LINE
8
BLACK
6
CONTINUOUS
10
23.7401
20
-143.049
11
23.6448
21
-142.859
0
LINE
8
BLACK
6
CONTINUOUS
10
23.6448
20
-142.859
11
23.5496
21
-142.478
0
LINE
8
BLACK
6
CONTINUOUS
10
23.5496
20
-142.478
11
23.5496
21
-142.002
0
LINE
8
BLACK
6
CONTINUOUS
10
23.5496
20
-142.002
11
23.6448
21
-141.621
0
LINE
8
BLACK
6
CONTINUOUS
10
23.6448
20
-141.621
11
23.7401
21
-141.43
0
LINE
8
BLACK
6
CONTINUOUS
10
23.7401
20
-141.43
11
23.8353
21
-141.335
0
LINE
8
BLACK
6
CONTINUOUS
10
23.8353
20
-141.335
11
24.0258
21
-141.24
0
LINE
8
BLACK
6
CONTINUOUS
10
26.4067
20
-141.24
11
26.0258
21
-141.24
0
LINE
8
BLACK
6
CONTINUOUS
10
26.0258
20
-141.24
11
25.8353
21
-141.335
0
LINE
8
BLACK
6
CONTINUOUS
10
25.8353
20
-141.335
11
25.7401
21
-141.43
0
LINE
8
BLACK
6
CONTINUOUS
10
25.7401
20
-141.43
11
25.5496
21
-141.716
0
LINE
8
BLACK
6
CONTINUOUS
10
25.5496
20
-141.716
11
25.4544
21
-142.097
0
LINE
8
BLACK
6
CONTINUOUS
10
25.4544
20
-142.097
11
25.4544
21
-142.859
0
LINE
8
BLACK
6
CONTINUOUS
10
25.4544
20
-142.859
11
25.5496
21
-143.049
0
LINE
8
BLACK
6
CONTINUOUS
10
25.5496
20
-143.049
11
25.6448
21
-143.145
0
LINE
8
BLACK
6
CONTINUOUS
10
25.6448
20
-143.145
11
25.8353
21
-143.24
0
LINE
8
BLACK
6
CONTINUOUS
10
25.8353
20
-143.24
11
26.2163
21
-143.24
0
LINE
8
BLACK
6
CONTINUOUS
10
26.2163
20
-143.24
11
26.4067
21
-143.145
0
LINE
8
BLACK
6
CONTINUOUS
10
26.4067
20
-143.145
11
26.502
21
-143.049
0
LINE
8
BLACK
6
CONTINUOUS
10
26.502
20
-143.049
11
26.5972
21
-142.859
0
LINE
8
BLACK
6
CONTINUOUS
10
26.5972
20
-142.859
11
26.5972
21
-142.383
0
LINE
8
BLACK
6
CONTINUOUS
10
26.5972
20
-142.383
11
26.502
21
-142.192
0
LINE
8
BLACK
6
CONTINUOUS
10
26.502
20
-142.192
11
26.4067
21
-142.097
0
LINE
8
BLACK
6
CONTINUOUS
10
26.4067
20
-142.097
11
26.2163
21
-142.002
0
LINE
8
BLACK
6
CONTINUOUS
10
26.2163
20
-142.002
11
25.8353
21
-142.002
0
LINE
8
BLACK
6
CONTINUOUS
10
25.8353
20
-142.002
11
25.6448
21
-142.097
0
LINE
8
BLACK
6
CONTINUOUS
10
25.6448
20
-142.097
11
25.5496
21
-142.192
0
LINE
8
BLACK
6
CONTINUOUS
10
25.5496
20
-142.192
11
25.4544
21
-142.383
0
LINE
8
BLACK
6
CONTINUOUS
10
27.7401
20
-142.097
11
27.5496
21
-142.002
0
LINE
8
BLACK
6
CONTINUOUS
10
27.5496
20
-142.002
11
27.4544
21
-141.906
0
LINE
8
BLACK
6
CONTINUOUS
10
27.4544
20
-141.906
11
27.3591
21
-141.716
0
LINE
8
BLACK
6
CONTINUOUS
10
27.3591
20
-141.716
11
27.3591
21
-141.621
0
LINE
8
BLACK
6
CONTINUOUS
10
27.3591
20
-141.621
11
27.4544
21
-141.43
0
LINE
8
BLACK
6
CONTINUOUS
10
27.4544
20
-141.43
11
27.5496
21
-141.335
0
LINE
8
BLACK
6
CONTINUOUS
10
27.5496
20
-141.335
11
27.7401
21
-141.24
0
LINE
8
BLACK
6
CONTINUOUS
10
27.7401
20
-141.24
11
28.121
21
-141.24
0
LINE
8
BLACK
6
CONTINUOUS
10
28.121
20
-141.24
11
28.3115
21
-141.335
0
LINE
8
BLACK
6
CONTINUOUS
10
28.3115
20
-141.335
11
28.4067
21
-141.43
0
LINE
8
BLACK
6
CONTINUOUS
10
28.4067
20
-141.43
11
28.502
21
-141.621
0
LINE
8
BLACK
6
CONTINUOUS
10
28.502
20
-141.621
11
28.502
21
-141.716
0
LINE
8
BLACK
6
CONTINUOUS
10
28.502
20
-141.716
11
28.4067
21
-141.906
0
LINE
8
BLACK
6
CONTINUOUS
10
28.4067
20
-141.906
11
28.3115
21
-142.002
0
LINE
8
BLACK
6
CONTINUOUS
10
28.3115
20
-142.002
11
28.121
21
-142.097
0
LINE
8
BLACK
6
CONTINUOUS
10
28.121
20
-142.097
11
27.7401
21
-142.097
0
LINE
8
BLACK
6
CONTINUOUS
10
27.7401
20
-142.097
11
27.5496
21
-142.192
0
LINE
8
BLACK
6
CONTINUOUS
10
27.5496
20
-142.192
11
27.4544
21
-142.287
0
LINE
8
BLACK
6
CONTINUOUS
10
27.4544
20
-142.287
11
27.3591
21
-142.478
0
LINE
8
BLACK
6
CONTINUOUS
10
27.3591
20
-142.478
11
27.3591
21
-142.859
0
LINE
8
BLACK
6
CONTINUOUS
10
27.3591
20
-142.859
11
27.4544
21
-143.049
0
LINE
8
BLACK
6
CONTINUOUS
10
27.4544
20
-143.049
11
27.5496
21
-143.145
0
LINE
8
BLACK
6
CONTINUOUS
10
27.5496
20
-143.145
11
27.7401
21
-143.24
0
LINE
8
BLACK
6
CONTINUOUS
10
27.7401
20
-143.24
11
28.121
21
-143.24
0
LINE
8
BLACK
6
CONTINUOUS
10
28.121
20
-143.24
11
28.3115
21
-143.145
0
LINE
8
BLACK
6
CONTINUOUS
10
28.3115
20
-143.145
11
28.4067
21
-143.049
0
LINE
8
BLACK
6
CONTINUOUS
10
28.4067
20
-143.049
11
28.502
21
-142.859
0
LINE
8
BLACK
6
CONTINUOUS
10
28.502
20
-142.859
11
28.502
21
-142.478
0
LINE
8
BLACK
6
CONTINUOUS
10
28.502
20
-142.478
11
28.4067
21
-142.287
0
LINE
8
BLACK
6
CONTINUOUS
10
28.4067
20
-142.287
11
28.3115
21
-142.192
0
LINE
8
BLACK
6
CONTINUOUS
10
28.3115
20
-142.192
11
28.121
21
-142.097
0
LINE
8
BLACK
6
CONTINUOUS
10
29.4544
20
-143.24
11
29.8353
21
-143.24
0
LINE
8
BLACK
6
CONTINUOUS
10
29.8353
20
-143.24
11
30.0258
21
-143.145
0
LINE
8
BLACK
6
CONTINUOUS
10
30.0258
20
-143.145
11
30.121
21
-143.049
0
LINE
8
BLACK
6
CONTINUOUS
10
30.121
20
-143.049
11
30.3115
21
-142.764
0
LINE
8
BLACK
6
CONTINUOUS
10
30.3115
20
-142.764
11
30.4067
21
-142.383
0
LINE
8
BLACK
6
CONTINUOUS
10
30.4067
20
-142.383
11
30.4067
21
-141.621
0
LINE
8
BLACK
6
CONTINUOUS
10
30.4067
20
-141.621
11
30.3115
21
-141.43
0
LINE
8
BLACK
6
CONTINUOUS
10
30.3115
20
-141.43
11
30.2163
21
-141.335
0
LINE
8
BLACK
6
CONTINUOUS
10
30.2163
20
-141.335
11
30.0258
21
-141.24
0
LINE
8
BLACK
6
CONTINUOUS
10
30.0258
20
-141.24
11
29.6448
21
-141.24
0
LINE
8
BLACK
6
CONTINUOUS
10
29.6448
20
-141.24
11
29.4544
21
-141.335
0
LINE
8
BLACK
6
CONTINUOUS
10
29.4544
20
-141.335
11
29.3591
21
-141.43
0
LINE
8
BLACK
6
CONTINUOUS
10
29.3591
20
-141.43
11
29.2639
21
-141.621
0
LINE
8
BLACK
6
CONTINUOUS
10
29.2639
20
-141.621
11
29.2639
21
-142.097
0
LINE
8
BLACK
6
CONTINUOUS
10
29.2639
20
-142.097
11
29.3591
21
-142.287
0
LINE
8
BLACK
6
CONTINUOUS
10
29.3591
20
-142.287
11
29.4544
21
-142.383
0
LINE
8
BLACK
6
CONTINUOUS
10
29.4544
20
-142.383
11
29.6448
21
-142.478
0
LINE
8
BLACK
6
CONTINUOUS
10
29.6448
20
-142.478
11
30.0258
21
-142.478
0
LINE
8
BLACK
6
CONTINUOUS
10
30.0258
20
-142.478
11
30.2163
21
-142.383
0
LINE
8
BLACK
6
CONTINUOUS
10
30.2163
20
-142.383
11
30.3115
21
-142.287
0
LINE
8
BLACK
6
CONTINUOUS
10
30.3115
20
-142.287
11
30.4067
21
-142.097
0
LINE
8
BLACK
6
CONTINUOUS
10
31.1686
20
-141.24
11
31.1686
21
-141.621
0
LINE
8
BLACK
6
CONTINUOUS
10
31.9305
20
-141.24
11
31.9305
21
-141.621
0
LINE
8
BLACK
6
CONTINUOUS
10
34.5591
20
-144.002
11
34.4639
21
-143.906
0
LINE
8
BLACK
6
CONTINUOUS
10
34.4639
20
-143.906
11
34.2734
21
-143.621
0
LINE
8
BLACK
6
CONTINUOUS
10
34.2734
20
-143.621
11
34.1782
21
-143.43
0
LINE
8
BLACK
6
CONTINUOUS
10
34.1782
20
-143.43
11
34.0829
21
-143.145
0
LINE
8
BLACK
6
CONTINUOUS
10
34.0829
20
-143.145
11
33.9877
21
-142.668
0
LINE
8
BLACK
6
CONTINUOUS
10
33.9877
20
-142.668
11
33.9877
21
-142.287
0
LINE
8
BLACK
6
CONTINUOUS
10
33.9877
20
-142.287
11
34.0829
21
-141.811
0
LINE
8
BLACK
6
CONTINUOUS
10
34.0829
20
-141.811
11
34.1782
21
-141.525
0
LINE
8
BLACK
6
CONTINUOUS
10
34.1782
20
-141.525
11
34.2734
21
-141.335
0
LINE
8
BLACK
6
CONTINUOUS
10
34.2734
20
-141.335
11
34.4639
21
-141.049
0
LINE
8
BLACK
6
CONTINUOUS
10
34.4639
20
-141.049
11
34.5591
21
-140.954
0
LINE
8
BLACK
6
CONTINUOUS
10
36.3686
20
-143.24
11
35.2258
21
-143.24
0
LINE
8
BLACK
6
CONTINUOUS
10
35.7972
20
-143.24
11
35.7972
21
-141.24
0
LINE
8
BLACK
6
CONTINUOUS
10
35.7972
20
-141.24
11
35.6067
21
-141.525
0
LINE
8
BLACK
6
CONTINUOUS
10
35.6067
20
-141.525
11
35.4163
21
-141.716
0
LINE
8
BLACK
6
CONTINUOUS
10
35.4163
20
-141.716
11
35.2258
21
-141.811
0
LINE
8
BLACK
6
CONTINUOUS
10
37.321
20
-143.24
11
37.702
21
-143.24
0
LINE
8
BLACK
6
CONTINUOUS
10
37.702
20
-143.24
11
37.8925
21
-143.145
0
LINE
8
BLACK
6
CONTINUOUS
10
37.8925
20
-143.145
11
37.9877
21
-143.049
0
LINE
8
BLACK
6
CONTINUOUS
10
37.9877
20
-143.049
11
38.1782
21
-142.764
0
LINE
8
BLACK
6
CONTINUOUS
10
38.1782
20
-142.764
11
38.2734
21
-142.383
0
LINE
8
BLACK
6
CONTINUOUS
10
38.2734
20
-142.383
11
38.2734
21
-141.621
0
LINE
8
BLACK
6
CONTINUOUS
10
38.2734
20
-141.621
11
38.1782
21
-141.43
0
LINE
8
BLACK
6
CONTINUOUS
10
38.1782
20
-141.43
11
38.0829
21
-141.335
0
LINE
8
BLACK
6
CONTINUOUS
10
38.0829
20
-141.335
11
37.8925
21
-141.24
0
LINE
8
BLACK
6
CONTINUOUS
10
37.8925
20
-141.24
11
37.5115
21
-141.24
0
LINE
8
BLACK
6
CONTINUOUS
10
37.5115
20
-141.24
11
37.321
21
-141.335
0
LINE
8
BLACK
6
CONTINUOUS
10
37.321
20
-141.335
11
37.2258
21
-141.43
0
LINE
8
BLACK
6
CONTINUOUS
10
37.2258
20
-141.43
11
37.1305
21
-141.621
0
LINE
8
BLACK
6
CONTINUOUS
10
37.1305
20
-141.621
11
37.1305
21
-142.097
0
LINE
8
BLACK
6
CONTINUOUS
10
37.1305
20
-142.097
11
37.2258
21
-142.287
0
LINE
8
BLACK
6
CONTINUOUS
10
37.2258
20
-142.287
11
37.321
21
-142.383
0
LINE
8
BLACK
6
CONTINUOUS
10
37.321
20
-142.383
11
37.5115
21
-142.478
0
LINE
8
BLACK
6
CONTINUOUS
10
37.5115
20
-142.478
11
37.8925
21
-142.478
0
LINE
8
BLACK
6
CONTINUOUS
10
37.8925
20
-142.478
11
38.0829
21
-142.383
0
LINE
8
BLACK
6
CONTINUOUS
10
38.0829
20
-142.383
11
38.1782
21
-142.287
0
LINE
8
BLACK
6
CONTINUOUS
10
38.1782
20
-142.287
11
38.2734
21
-142.097
0
LINE
8
BLACK
6
CONTINUOUS
10
39.0353
20
-141.43
11
39.1305
21
-141.335
0
LINE
8
BLACK
6
CONTINUOUS
10
39.1305
20
-141.335
11
39.321
21
-141.24
0
LINE
8
BLACK
6
CONTINUOUS
10
39.321
20
-141.24
11
39.7972
21
-141.24
0
LINE
8
BLACK
6
CONTINUOUS
10
39.7972
20
-141.24
11
39.9877
21
-141.335
0
LINE
8
BLACK
6
CONTINUOUS
10
39.9877
20
-141.335
11
40.0829
21
-141.43
0
LINE
8
BLACK
6
CONTINUOUS
10
40.0829
20
-141.43
11
40.1782
21
-141.621
0
LINE
8
BLACK
6
CONTINUOUS
10
40.1782
20
-141.621
11
40.1782
21
-141.811
0
LINE
8
BLACK
6
CONTINUOUS
10
40.1782
20
-141.811
11
40.0829
21
-142.097
0
LINE
8
BLACK
6
CONTINUOUS
10
40.0829
20
-142.097
11
38.9401
21
-143.24
0
LINE
8
BLACK
6
CONTINUOUS
10
38.9401
20
-143.24
11
40.1782
21
-143.24
0
LINE
8
BLACK
6
CONTINUOUS
10
42.2353
20
-143.24
11
42.2353
21
-141.24
0
LINE
8
BLACK
6
CONTINUOUS
10
43.0925
20
-143.24
11
43.0925
21
-142.192
0
LINE
8
BLACK
6
CONTINUOUS
10
43.0925
20
-142.192
11
42.9972
21
-142.002
0
LINE
8
BLACK
6
CONTINUOUS
10
42.9972
20
-142.002
11
42.8067
21
-141.906
0
LINE
8
BLACK
6
CONTINUOUS
10
42.8067
20
-141.906
11
42.521
21
-141.906
0
LINE
8
BLACK
6
CONTINUOUS
10
42.521
20
-141.906
11
42.3305
21
-142.002
0
LINE
8
BLACK
6
CONTINUOUS
10
42.3305
20
-142.002
11
42.2353
21
-142.097
0
LINE
8
BLACK
6
CONTINUOUS
10
44.3305
20
-143.24
11
44.1401
21
-143.145
0
LINE
8
BLACK
6
CONTINUOUS
10
44.1401
20
-143.145
11
44.0448
21
-143.049
0
LINE
8
BLACK
6
CONTINUOUS
10
44.0448
20
-143.049
11
43.9496
21
-142.859
0
LINE
8
BLACK
6
CONTINUOUS
10
43.9496
20
-142.859
11
43.9496
21
-142.287
0
LINE
8
BLACK
6
CONTINUOUS
10
43.9496
20
-142.287
11
44.0448
21
-142.097
0
LINE
8
BLACK
6
CONTINUOUS
10
44.0448
20
-142.097
11
44.1401
21
-142.002
0
LINE
8
BLACK
6
CONTINUOUS
10
44.1401
20
-142.002
11
44.3305
21
-141.906
0
LINE
8
BLACK
6
CONTINUOUS
10
44.3305
20
-141.906
11
44.6163
21
-141.906
0
LINE
8
BLACK
6
CONTINUOUS
10
44.6163
20
-141.906
11
44.8067
21
-142.002
0
LINE
8
BLACK
6
CONTINUOUS
10
44.8067
20
-142.002
11
44.902
21
-142.097
0
LINE
8
BLACK
6
CONTINUOUS
10
44.902
20
-142.097
11
44.9972
21
-142.287
0
LINE
8
BLACK
6
CONTINUOUS
10
44.9972
20
-142.287
11
44.9972
21
-142.859
0
LINE
8
BLACK
6
CONTINUOUS
10
44.9972
20
-142.859
11
44.902
21
-143.049
0
LINE
8
BLACK
6
CONTINUOUS
10
44.902
20
-143.049
11
44.8067
21
-143.145
0
LINE
8
BLACK
6
CONTINUOUS
10
44.8067
20
-143.145
11
44.6163
21
-143.24
0
LINE
8
BLACK
6
CONTINUOUS
10
44.6163
20
-143.24
11
44.3305
21
-143.24
0
LINE
8
BLACK
6
CONTINUOUS
10
46.1401
20
-143.24
11
45.9496
21
-143.145
0
LINE
8
BLACK
6
CONTINUOUS
10
45.9496
20
-143.145
11
45.8544
21
-142.954
0
LINE
8
BLACK
6
CONTINUOUS
10
45.8544
20
-142.954
11
45.8544
21
-141.24
0
LINE
8
BLACK
6
CONTINUOUS
10
47.6639
20
-143.145
11
47.4734
21
-143.24
0
LINE
8
BLACK
6
CONTINUOUS
10
47.4734
20
-143.24
11
47.0925
21
-143.24
0
LINE
8
BLACK
6
CONTINUOUS
10
47.0925
20
-143.24
11
46.902
21
-143.145
0
LINE
8
BLACK
6
CONTINUOUS
10
46.902
20
-143.145
11
46.8067
21
-142.954
0
LINE
8
BLACK
6
CONTINUOUS
10
46.8067
20
-142.954
11
46.8067
21
-142.192
0
LINE
8
BLACK
6
CONTINUOUS
10
46.8067
20
-142.192
11
46.902
21
-142.002
0
LINE
8
BLACK
6
CONTINUOUS
10
46.902
20
-142.002
11
47.0925
21
-141.906
0
LINE
8
BLACK
6
CONTINUOUS
10
47.0925
20
-141.906
11
47.4734
21
-141.906
0
LINE
8
BLACK
6
CONTINUOUS
10
47.4734
20
-141.906
11
47.6639
21
-142.002
0
LINE
8
BLACK
6
CONTINUOUS
10
47.6639
20
-142.002
11
47.7591
21
-142.192
0
LINE
8
BLACK
6
CONTINUOUS
10
47.7591
20
-142.192
11
47.7591
21
-142.383
0
LINE
8
BLACK
6
CONTINUOUS
10
47.7591
20
-142.383
11
46.8067
21
-142.573
0
LINE
8
BLACK
6
CONTINUOUS
10
48.521
20
-143.145
11
48.7115
21
-143.24
0
LINE
8
BLACK
6
CONTINUOUS
10
48.7115
20
-143.24
11
49.0925
21
-143.24
0
LINE
8
BLACK
6
CONTINUOUS
10
49.0925
20
-143.24
11
49.2829
21
-143.145
0
LINE
8
BLACK
6
CONTINUOUS
10
49.2829
20
-143.145
11
49.3782
21
-142.954
0
LINE
8
BLACK
6
CONTINUOUS
10
49.3782
20
-142.954
11
49.3782
21
-142.859
0
LINE
8
BLACK
6
CONTINUOUS
10
49.3782
20
-142.859
11
49.2829
21
-142.668
0
LINE
8
BLACK
6
CONTINUOUS
10
49.2829
20
-142.668
11
49.0925
21
-142.573
0
LINE
8
BLACK
6
CONTINUOUS
10
49.0925
20
-142.573
11
48.8067
21
-142.573
0
LINE
8
BLACK
6
CONTINUOUS
10
48.8067
20
-142.573
11
48.6163
21
-142.478
0
LINE
8
BLACK
6
CONTINUOUS
10
48.6163
20
-142.478
11
48.521
21
-142.287
0
LINE
8
BLACK
6
CONTINUOUS
10
48.521
20
-142.287
11
48.521
21
-142.192
0
LINE
8
BLACK
6
CONTINUOUS
10
48.521
20
-142.192
11
48.6163
21
-142.002
0
LINE
8
BLACK
6
CONTINUOUS
10
48.6163
20
-142.002
11
48.8067
21
-141.906
0
LINE
8
BLACK
6
CONTINUOUS
10
48.8067
20
-141.906
11
49.0925
21
-141.906
0
LINE
8
BLACK
6
CONTINUOUS
10
49.0925
20
-141.906
11
49.2829
21
-142.002
0
LINE
8
BLACK
6
CONTINUOUS
10
50.0448
20
-144.002
11
50.1401
21
-143.906
0
LINE
8
BLACK
6
CONTINUOUS
10
50.1401
20
-143.906
11
50.3305
21
-143.621
0
LINE
8
BLACK
6
CONTINUOUS
10
50.3305
20
-143.621
11
50.4258
21
-143.43
0
LINE
8
BLACK
6
CONTINUOUS
10
50.4258
20
-143.43
11
50.521
21
-143.145
0
LINE
8
BLACK
6
CONTINUOUS
10
50.521
20
-143.145
11
50.6163
21
-142.668
0
LINE
8
BLACK
6
CONTINUOUS
10
50.6163
20
-142.668
11
50.6163
21
-142.287
0
LINE
8
BLACK
6
CONTINUOUS
10
50.6163
20
-142.287
11
50.521
21
-141.811
0
LINE
8
BLACK
6
CONTINUOUS
10
50.521
20
-141.811
11
50.4258
21
-141.525
0
LINE
8
BLACK
6
CONTINUOUS
10
50.4258
20
-141.525
11
50.3305
21
-141.335
0
LINE
8
BLACK
6
CONTINUOUS
10
50.3305
20
-141.335
11
50.1401
21
-141.049
0
LINE
8
BLACK
6
CONTINUOUS
10
50.1401
20
-141.049
11
50.0448
21
-140.954
0
LINE
8
BLACK
6
CONTINUOUS
10
53.3401
20
-144.002
11
53.2448
21
-143.906
0
LINE
8
BLACK
6
CONTINUOUS
10
53.2448
20
-143.906
11
53.0544
21
-143.621
0
LINE
8
BLACK
6
CONTINUOUS
10
53.0544
20
-143.621
11
52.9591
21
-143.43
0
LINE
8
BLACK
6
CONTINUOUS
10
52.9591
20
-143.43
11
52.8639
21
-143.145
0
LINE
8
BLACK
6
CONTINUOUS
10
52.8639
20
-143.145
11
52.7686
21
-142.668
0
LINE
8
BLACK
6
CONTINUOUS
10
52.7686
20
-142.668
11
52.7686
21
-142.287
0
LINE
8
BLACK
6
CONTINUOUS
10
52.7686
20
-142.287
11
52.8639
21
-141.811
0
LINE
8
BLACK
6
CONTINUOUS
10
52.8639
20
-141.811
11
52.9591
21
-141.525
0
LINE
8
BLACK
6
CONTINUOUS
10
52.9591
20
-141.525
11
53.0544
21
-141.335
0
LINE
8
BLACK
6
CONTINUOUS
10
53.0544
20
-141.335
11
53.2448
21
-141.049
0
LINE
8
BLACK
6
CONTINUOUS
10
53.2448
20
-141.049
11
53.3401
21
-140.954
0
LINE
8
BLACK
6
CONTINUOUS
10
54.102
20
-141.906
11
54.102
21
-143.24
0
LINE
8
BLACK
6
CONTINUOUS
10
54.102
20
-142.097
11
54.1972
21
-142.002
0
LINE
8
BLACK
6
CONTINUOUS
10
54.1972
20
-142.002
11
54.3877
21
-141.906
0
LINE
8
BLACK
6
CONTINUOUS
10
54.3877
20
-141.906
11
54.6734
21
-141.906
0
LINE
8
BLACK
6
CONTINUOUS
10
54.6734
20
-141.906
11
54.8639
21
-142.002
0
LINE
8
BLACK
6
CONTINUOUS
10
54.8639
20
-142.002
11
54.9591
21
-142.192
0
LINE
8
BLACK
6
CONTINUOUS
10
54.9591
20
-142.192
11
54.9591
21
-143.24
0
LINE
8
BLACK
6
CONTINUOUS
10
56.1972
20
-143.24
11
56.0067
21
-143.145
0
LINE
8
BLACK
6
CONTINUOUS
10
56.0067
20
-143.145
11
55.9115
21
-143.049
0
LINE
8
BLACK
6
CONTINUOUS
10
55.9115
20
-143.049
11
55.8163
21
-142.859
0
LINE
8
BLACK
6
CONTINUOUS
10
55.8163
20
-142.859
11
55.8163
21
-142.287
0
LINE
8
BLACK
6
CONTINUOUS
10
55.8163
20
-142.287
11
55.9115
21
-142.097
0
LINE
8
BLACK
6
CONTINUOUS
10
55.9115
20
-142.097
11
56.0067
21
-142.002
0
LINE
8
BLACK
6
CONTINUOUS
10
56.0067
20
-142.002
11
56.1972
21
-141.906
0
LINE
8
BLACK
6
CONTINUOUS
10
56.1972
20
-141.906
11
56.4829
21
-141.906
0
LINE
8
BLACK
6
CONTINUOUS
10
56.4829
20
-141.906
11
56.6734
21
-142.002
0
LINE
8
BLACK
6
CONTINUOUS
10
56.6734
20
-142.002
11
56.7686
21
-142.097
0
LINE
8
BLACK
6
CONTINUOUS
10
56.7686
20
-142.097
11
56.8639
21
-142.287
0
LINE
8
BLACK
6
CONTINUOUS
10
56.8639
20
-142.287
11
56.8639
21
-142.859
0
LINE
8
BLACK
6
CONTINUOUS
10
56.8639
20
-142.859
11
56.7686
21
-143.049
0
LINE
8
BLACK
6
CONTINUOUS
10
56.7686
20
-143.049
11
56.6734
21
-143.145
0
LINE
8
BLACK
6
CONTINUOUS
10
56.6734
20
-143.145
11
56.4829
21
-143.24
0
LINE
8
BLACK
6
CONTINUOUS
10
56.4829
20
-143.24
11
56.1972
21
-143.24
0
LINE
8
BLACK
6
CONTINUOUS
10
57.4353
20
-141.906
11
58.1972
21
-141.906
0
LINE
8
BLACK
6
CONTINUOUS
10
57.721
20
-141.24
11
57.721
21
-142.954
0
LINE
8
BLACK
6
CONTINUOUS
10
57.721
20
-142.954
11
57.8163
21
-143.145
0
LINE
8
BLACK
6
CONTINUOUS
10
57.8163
20
-143.145
11
58.0067
21
-143.24
0
LINE
8
BLACK
6
CONTINUOUS
10
58.0067
20
-143.24
11
58.1972
21
-143.24
0
LINE
8
BLACK
6
CONTINUOUS
10
60.0639
20
-141.906
11
60.0639
21
-143.906
0
LINE
8
BLACK
6
CONTINUOUS
10
60.0639
20
-142.002
11
60.2544
21
-141.906
0
LINE
8
BLACK
6
CONTINUOUS
10
60.2544
20
-141.906
11
60.6353
21
-141.906
0
LINE
8
BLACK
6
CONTINUOUS
10
60.6353
20
-141.906
11
60.8258
21
-142.002
0
LINE
8
BLACK
6
CONTINUOUS
10
60.8258
20
-142.002
11
60.921
21
-142.097
0
LINE
8
BLACK
6
CONTINUOUS
10
60.921
20
-142.097
11
61.0163
21
-142.287
0
LINE
8
BLACK
6
CONTINUOUS
10
61.0163
20
-142.287
11
61.0163
21
-142.859
0
LINE
8
BLACK
6
CONTINUOUS
10
61.0163
20
-142.859
11
60.921
21
-143.049
0
LINE
8
BLACK
6
CONTINUOUS
10
60.921
20
-143.049
11
60.8258
21
-143.145
0
LINE
8
BLACK
6
CONTINUOUS
10
60.8258
20
-143.145
11
60.6353
21
-143.24
0
LINE
8
BLACK
6
CONTINUOUS
10
60.6353
20
-143.24
11
60.2544
21
-143.24
0
LINE
8
BLACK
6
CONTINUOUS
10
60.2544
20
-143.24
11
60.0639
21
-143.145
0
LINE
8
BLACK
6
CONTINUOUS
10
62.1591
20
-143.24
11
61.9686
21
-143.145
0
LINE
8
BLACK
6
CONTINUOUS
10
61.9686
20
-143.145
11
61.8734
21
-142.954
0
LINE
8
BLACK
6
CONTINUOUS
10
61.8734
20
-142.954
11
61.8734
21
-141.24
0
LINE
8
BLACK
6
CONTINUOUS
10
63.7782
20
-143.24
11
63.7782
21
-142.192
0
LINE
8
BLACK
6
CONTINUOUS
10
63.7782
20
-142.192
11
63.6829
21
-142.002
0
LINE
8
BLACK
6
CONTINUOUS
10
63.6829
20
-142.002
11
63.4925
21
-141.906
0
LINE
8
BLACK
6
CONTINUOUS
10
63.4925
20
-141.906
11
63.1115
21
-141.906
0
LINE
8
BLACK
6
CONTINUOUS
10
63.1115
20
-141.906
11
62.921
21
-142.002
0
LINE
8
BLACK
6
CONTINUOUS
10
63.7782
20
-143.145
11
63.5877
21
-143.24
0
LINE
8
BLACK
6
CONTINUOUS
10
63.5877
20
-143.24
11
63.1115
21
-143.24
0
LINE
8
BLACK
6
CONTINUOUS
10
63.1115
20
-143.24
11
62.921
21
-143.145
0
LINE
8
BLACK
6
CONTINUOUS
10
62.921
20
-143.145
11
62.8258
21
-142.954
0
LINE
8
BLACK
6
CONTINUOUS
10
62.8258
20
-142.954
11
62.8258
21
-142.764
0
LINE
8
BLACK
6
CONTINUOUS
10
62.8258
20
-142.764
11
62.921
21
-142.573
0
LINE
8
BLACK
6
CONTINUOUS
10
62.921
20
-142.573
11
63.1115
21
-142.478
0
LINE
8
BLACK
6
CONTINUOUS
10
63.1115
20
-142.478
11
63.5877
21
-142.478
0
LINE
8
BLACK
6
CONTINUOUS
10
63.5877
20
-142.478
11
63.7782
21
-142.383
0
LINE
8
BLACK
6
CONTINUOUS
10
64.4448
20
-141.906
11
65.2067
21
-141.906
0
LINE
8
BLACK
6
CONTINUOUS
10
64.7305
20
-141.24
11
64.7305
21
-142.954
0
LINE
8
BLACK
6
CONTINUOUS
10
64.7305
20
-142.954
11
64.8258
21
-143.145
0
LINE
8
BLACK
6
CONTINUOUS
10
64.8258
20
-143.145
11
65.0163
21
-143.24
0
LINE
8
BLACK
6
CONTINUOUS
10
65.0163
20
-143.24
11
65.2067
21
-143.24
0
LINE
8
BLACK
6
CONTINUOUS
10
66.6353
20
-143.145
11
66.4448
21
-143.24
0
LINE
8
BLACK
6
CONTINUOUS
10
66.4448
20
-143.24
11
66.0639
21
-143.24
0
LINE
8
BLACK
6
CONTINUOUS
10
66.0639
20
-143.24
11
65.8734
21
-143.145
0
LINE
8
BLACK
6
CONTINUOUS
10
65.8734
20
-143.145
11
65.7782
21
-142.954
0
LINE
8
BLACK
6
CONTINUOUS
10
65.7782
20
-142.954
11
65.7782
21
-142.192
0
LINE
8
BLACK
6
CONTINUOUS
10
65.7782
20
-142.192
11
65.8734
21
-142.002
0
LINE
8
BLACK
6
CONTINUOUS
10
65.8734
20
-142.002
11
66.0639
21
-141.906
0
LINE
8
BLACK
6
CONTINUOUS
10
66.0639
20
-141.906
11
66.4448
21
-141.906
0
LINE
8
BLACK
6
CONTINUOUS
10
66.4448
20
-141.906
11
66.6353
21
-142.002
0
LINE
8
BLACK
6
CONTINUOUS
10
66.6353
20
-142.002
11
66.7305
21
-142.192
0
LINE
8
BLACK
6
CONTINUOUS
10
66.7305
20
-142.192
11
66.7305
21
-142.383
0
LINE
8
BLACK
6
CONTINUOUS
10
66.7305
20
-142.383
11
65.7782
21
-142.573
0
LINE
8
BLACK
6
CONTINUOUS
10
68.4448
20
-143.24
11
68.4448
21
-141.24
0
LINE
8
BLACK
6
CONTINUOUS
10
68.4448
20
-143.145
11
68.2544
21
-143.24
0
LINE
8
BLACK
6
CONTINUOUS
10
68.2544
20
-143.24
11
67.8734
21
-143.24
0
LINE
8
BLACK
6
CONTINUOUS
10
67.8734
20
-143.24
11
67.6829
21
-143.145
0
LINE
8
BLACK
6
CONTINUOUS
10
67.6829
20
-143.145
11
67.5877
21
-143.049
0
LINE
8
BLACK
6
CONTINUOUS
10
67.5877
20
-143.049
11
67.4925
21
-142.859
0
LINE
8
BLACK
6
CONTINUOUS
10
67.4925
20
-142.859
11
67.4925
21
-142.287
0
LINE
8
BLACK
6
CONTINUOUS
10
67.4925
20
-142.287
11
67.5877
21
-142.097
0
LINE
8
BLACK
6
CONTINUOUS
10
67.5877
20
-142.097
11
67.6829
21
-142.002
0
LINE
8
BLACK
6
CONTINUOUS
10
67.6829
20
-142.002
11
67.8734
21
-141.906
0
LINE
8
BLACK
6
CONTINUOUS
10
67.8734
20
-141.906
11
68.2544
21
-141.906
0
LINE
8
BLACK
6
CONTINUOUS
10
68.2544
20
-141.906
11
68.4448
21
-142.002
0
LINE
8
BLACK
6
CONTINUOUS
10
69.2067
20
-144.002
11
69.302
21
-143.906
0
LINE
8
BLACK
6
CONTINUOUS
10
69.302
20
-143.906
11
69.4925
21
-143.621
0
LINE
8
BLACK
6
CONTINUOUS
10
69.4925
20
-143.621
11
69.5877
21
-143.43
0
LINE
8
BLACK
6
CONTINUOUS
10
69.5877
20
-143.43
11
69.6829
21
-143.145
0
LINE
8
BLACK
6
CONTINUOUS
10
69.6829
20
-143.145
11
69.7782
21
-142.668
0
LINE
8
BLACK
6
CONTINUOUS
10
69.7782
20
-142.668
11
69.7782
21
-142.287
0
LINE
8
BLACK
6
CONTINUOUS
10
69.7782
20
-142.287
11
69.6829
21
-141.811
0
LINE
8
BLACK
6
CONTINUOUS
10
69.6829
20
-141.811
11
69.5877
21
-141.525
0
LINE
8
BLACK
6
CONTINUOUS
10
69.5877
20
-141.525
11
69.4925
21
-141.335
0
LINE
8
BLACK
6
CONTINUOUS
10
69.4925
20
-141.335
11
69.302
21
-141.049
0
LINE
8
BLACK
6
CONTINUOUS
10
69.302
20
-141.049
11
69.2067
21
-140.954
0
CIRCLE
8
BLACK
10
-1.0885
20
-145.455
40
1
0
LINE
8
BLACK
6
CONTINUOUS
10
2.19721
20
-144.19
11
3.43531
21
-144.19
0
LINE
8
BLACK
6
CONTINUOUS
10
3.43531
20
-144.19
11
2.76864
21
-144.952
0
LINE
8
BLACK
6
CONTINUOUS
10
2.76864
20
-144.952
11
3.05436
21
-144.952
0
LINE
8
BLACK
6
CONTINUOUS
10
3.05436
20
-144.952
11
3.24483
21
-145.047
0
LINE
8
BLACK
6
CONTINUOUS
10
3.24483
20
-145.047
11
3.34007
21
-145.142
0
LINE
8
BLACK
6
CONTINUOUS
10
3.34007
20
-145.142
11
3.43531
21
-145.333
0
LINE
8
BLACK
6
CONTINUOUS
10
3.43531
20
-145.333
11
3.43531
21
-145.809
0
LINE
8
BLACK
6
CONTINUOUS
10
3.43531
20
-145.809
11
3.34007
21
-145.999
0
LINE
8
BLACK
6
CONTINUOUS
10
3.34007
20
-145.999
11
3.24483
21
-146.095
0
LINE
8
BLACK
6
CONTINUOUS
10
3.24483
20
-146.095
11
3.05436
21
-146.19
0
LINE
8
BLACK
6
CONTINUOUS
10
3.05436
20
-146.19
11
2.48293
21
-146.19
0
LINE
8
BLACK
6
CONTINUOUS
10
2.48293
20
-146.19
11
2.29245
21
-146.095
0
LINE
8
BLACK
6
CONTINUOUS
10
2.29245
20
-146.095
11
2.19721
21
-145.999
0
LINE
8
BLACK
6
CONTINUOUS
10
4.29245
20
-145.999
11
4.38769
21
-146.095
0
LINE
8
BLACK
6
CONTINUOUS
10
4.38769
20
-146.095
11
4.29245
21
-146.19
0
LINE
8
BLACK
6
CONTINUOUS
10
4.29245
20
-146.19
11
4.19721
21
-146.095
0
LINE
8
BLACK
6
CONTINUOUS
10
4.19721
20
-146.095
11
4.29245
21
-145.999
0
LINE
8
BLACK
6
CONTINUOUS
10
4.29245
20
-145.999
11
4.29245
21
-146.19
0
LINE
8
BLACK
6
CONTINUOUS
10
5.34007
20
-146.19
11
5.72102
21
-146.19
0
LINE
8
BLACK
6
CONTINUOUS
10
5.72102
20
-146.19
11
5.9115
21
-146.095
0
LINE
8
BLACK
6
CONTINUOUS
10
5.9115
20
-146.095
11
6.00674
21
-145.999
0
LINE
8
BLACK
6
CONTINUOUS
10
6.00674
20
-145.999
11
6.19721
21
-145.714
0
LINE
8
BLACK
6
CONTINUOUS
10
6.19721
20
-145.714
11
6.29245
21
-145.333
0
LINE
8
BLACK
6
CONTINUOUS
10
6.29245
20
-145.333
11
6.29245
21
-144.571
0
LINE
8
BLACK
6
CONTINUOUS
10
6.29245
20
-144.571
11
6.19721
21
-144.38
0
LINE
8
BLACK
6
CONTINUOUS
10
6.19721
20
-144.38
11
6.10198
21
-144.285
0
LINE
8
BLACK
6
CONTINUOUS
10
6.10198
20
-144.285
11
5.9115
21
-144.19
0
LINE
8
BLACK
6
CONTINUOUS
10
5.9115
20
-144.19
11
5.53055
21
-144.19
0
LINE
8
BLACK
6
CONTINUOUS
10
5.53055
20
-144.19
11
5.34007
21
-144.285
0
LINE
8
BLACK
6
CONTINUOUS
10
5.34007
20
-144.285
11
5.24483
21
-144.38
0
LINE
8
BLACK
6
CONTINUOUS
10
5.24483
20
-144.38
11
5.14959
21
-144.571
0
LINE
8
BLACK
6
CONTINUOUS
10
5.14959
20
-144.571
11
5.14959
21
-145.047
0
LINE
8
BLACK
6
CONTINUOUS
10
5.14959
20
-145.047
11
5.24483
21
-145.237
0
LINE
8
BLACK
6
CONTINUOUS
10
5.24483
20
-145.237
11
5.34007
21
-145.333
0
LINE
8
BLACK
6
CONTINUOUS
10
5.34007
20
-145.333
11
5.53055
21
-145.428
0
LINE
8
BLACK
6
CONTINUOUS
10
5.53055
20
-145.428
11
5.9115
21
-145.428
0
LINE
8
BLACK
6
CONTINUOUS
10
5.9115
20
-145.428
11
6.10198
21
-145.333
0
LINE
8
BLACK
6
CONTINUOUS
10
6.10198
20
-145.333
11
6.19721
21
-145.237
0
LINE
8
BLACK
6
CONTINUOUS
10
6.19721
20
-145.237
11
6.29245
21
-145.047
0
LINE
8
BLACK
6
CONTINUOUS
10
7.43531
20
-145.047
11
7.24483
21
-144.952
0
LINE
8
BLACK
6
CONTINUOUS
10
7.24483
20
-144.952
11
7.14959
21
-144.856
0
LINE
8
BLACK
6
CONTINUOUS
10
7.14959
20
-144.856
11
7.05436
21
-144.666
0
LINE
8
BLACK
6
CONTINUOUS
10
7.05436
20
-144.666
11
7.05436
21
-144.571
0
LINE
8
BLACK
6
CONTINUOUS
10
7.05436
20
-144.571
11
7.14959
21
-144.38
0
LINE
8
BLACK
6
CONTINUOUS
10
7.14959
20
-144.38
11
7.24483
21
-144.285
0
LINE
8
BLACK
6
CONTINUOUS
10
7.24483
20
-144.285
11
7.43531
21
-144.19
0
LINE
8
BLACK
6
CONTINUOUS
10
7.43531
20
-144.19
11
7.81626
21
-144.19
0
LINE
8
BLACK
6
CONTINUOUS
10
7.81626
20
-144.19
11
8.00674
21
-144.285
0
LINE
8
BLACK
6
CONTINUOUS
10
8.00674
20
-144.285
11
8.10198
21
-144.38
0
LINE
8
BLACK
6
CONTINUOUS
10
8.10198
20
-144.38
11
8.19721
21
-144.571
0
LINE
8
BLACK
6
CONTINUOUS
10
8.19721
20
-144.571
11
8.19721
21
-144.666
0
LINE
8
BLACK
6
CONTINUOUS
10
8.19721
20
-144.666
11
8.10198
21
-144.856
0
LINE
8
BLACK
6
CONTINUOUS
10
8.10198
20
-144.856
11
8.00674
21
-144.952
0
LINE
8
BLACK
6
CONTINUOUS
10
8.00674
20
-144.952
11
7.81626
21
-145.047
0
LINE
8
BLACK
6
CONTINUOUS
10
7.81626
20
-145.047
11
7.43531
21
-145.047
0
LINE
8
BLACK
6
CONTINUOUS
10
7.43531
20
-145.047
11
7.24483
21
-145.142
0
LINE
8
BLACK
6
CONTINUOUS
10
7.24483
20
-145.142
11
7.14959
21
-145.237
0
LINE
8
BLACK
6
CONTINUOUS
10
7.14959
20
-145.237
11
7.05436
21
-145.428
0
LINE
8
BLACK
6
CONTINUOUS
10
7.05436
20
-145.428
11
7.05436
21
-145.809
0
LINE
8
BLACK
6
CONTINUOUS
10
7.05436
20
-145.809
11
7.14959
21
-145.999
0
LINE
8
BLACK
6
CONTINUOUS
10
7.14959
20
-145.999
11
7.24483
21
-146.095
0
LINE
8
BLACK
6
CONTINUOUS
10
7.24483
20
-146.095
11
7.43531
21
-146.19
0
LINE
8
BLACK
6
CONTINUOUS
10
7.43531
20
-146.19
11
7.81626
21
-146.19
0
LINE
8
BLACK
6
CONTINUOUS
10
7.81626
20
-146.19
11
8.00674
21
-146.095
0
LINE
8
BLACK
6
CONTINUOUS
10
8.00674
20
-146.095
11
8.10198
21
-145.999
0
LINE
8
BLACK
6
CONTINUOUS
10
8.10198
20
-145.999
11
8.19721
21
-145.809
0
LINE
8
BLACK
6
CONTINUOUS
10
8.19721
20
-145.809
11
8.19721
21
-145.428
0
LINE
8
BLACK
6
CONTINUOUS
10
8.19721
20
-145.428
11
8.10198
21
-145.237
0
LINE
8
BLACK
6
CONTINUOUS
10
8.10198
20
-145.237
11
8.00674
21
-145.142
0
LINE
8
BLACK
6
CONTINUOUS
10
8.00674
20
-145.142
11
7.81626
21
-145.047
0
LINE
8
BLACK
6
CONTINUOUS
10
9.34007
20
-145.047
11
9.14959
21
-144.952
0
LINE
8
BLACK
6
CONTINUOUS
10
9.14959
20
-144.952
11
9.05436
21
-144.856
0
LINE
8
BLACK
6
CONTINUOUS
10
9.05436
20
-144.856
11
8.95912
21
-144.666
0
LINE
8
BLACK
6
CONTINUOUS
10
8.95912
20
-144.666
11
8.95912
21
-144.571
0
LINE
8
BLACK
6
CONTINUOUS
10
8.95912
20
-144.571
11
9.05436
21
-144.38
0
LINE
8
BLACK
6
CONTINUOUS
10
9.05436
20
-144.38
11
9.14959
21
-144.285
0
LINE
8
BLACK
6
CONTINUOUS
10
9.14959
20
-144.285
11
9.34007
21
-144.19
0
LINE
8
BLACK
6
CONTINUOUS
10
9.34007
20
-144.19
11
9.72102
21
-144.19
0
LINE
8
BLACK
6
CONTINUOUS
10
9.72102
20
-144.19
11
9.9115
21
-144.285
0
LINE
8
BLACK
6
CONTINUOUS
10
9.9115
20
-144.285
11
10.0067
21
-144.38
0
LINE
8
BLACK
6
CONTINUOUS
10
10.0067
20
-144.38
11
10.102
21
-144.571
0
LINE
8
BLACK
6
CONTINUOUS
10
10.102
20
-144.571
11
10.102
21
-144.666
0
LINE
8
BLACK
6
CONTINUOUS
10
10.102
20
-144.666
11
10.0067
21
-144.856
0
LINE
8
BLACK
6
CONTINUOUS
10
10.0067
20
-144.856
11
9.9115
21
-144.952
0
LINE
8
BLACK
6
CONTINUOUS
10
9.9115
20
-144.952
11
9.72102
21
-145.047
0
LINE
8
BLACK
6
CONTINUOUS
10
9.72102
20
-145.047
11
9.34007
21
-145.047
0
LINE
8
BLACK
6
CONTINUOUS
10
9.34007
20
-145.047
11
9.14959
21
-145.142
0
LINE
8
BLACK
6
CONTINUOUS
10
9.14959
20
-145.142
11
9.05436
21
-145.237
0
LINE
8
BLACK
6
CONTINUOUS
10
9.05436
20
-145.237
11
8.95912
21
-145.428
0
LINE
8
BLACK
6
CONTINUOUS
10
8.95912
20
-145.428
11
8.95912
21
-145.809
0
LINE
8
BLACK
6
CONTINUOUS
10
8.95912
20
-145.809
11
9.05436
21
-145.999
0
LINE
8
BLACK
6
CONTINUOUS
10
9.05436
20
-145.999
11
9.14959
21
-146.095
0
LINE
8
BLACK
6
CONTINUOUS
10
9.14959
20
-146.095
11
9.34007
21
-146.19
0
LINE
8
BLACK
6
CONTINUOUS
10
9.34007
20
-146.19
11
9.72102
21
-146.19
0
LINE
8
BLACK
6
CONTINUOUS
10
9.72102
20
-146.19
11
9.9115
21
-146.095
0
LINE
8
BLACK
6
CONTINUOUS
10
9.9115
20
-146.095
11
10.0067
21
-145.999
0
LINE
8
BLACK
6
CONTINUOUS
10
10.0067
20
-145.999
11
10.102
21
-145.809
0
LINE
8
BLACK
6
CONTINUOUS
10
10.102
20
-145.809
11
10.102
21
-145.428
0
LINE
8
BLACK
6
CONTINUOUS
10
10.102
20
-145.428
11
10.0067
21
-145.237
0
LINE
8
BLACK
6
CONTINUOUS
10
10.0067
20
-145.237
11
9.9115
21
-145.142
0
LINE
8
BLACK
6
CONTINUOUS
10
9.9115
20
-145.142
11
9.72102
21
-145.047
0
LINE
8
BLACK
6
CONTINUOUS
10
10.9591
20
-146.19
11
10.9591
21
-144.856
0
LINE
8
BLACK
6
CONTINUOUS
10
10.9591
20
-145.047
11
11.0544
21
-144.952
0
LINE
8
BLACK
6
CONTINUOUS
10
11.0544
20
-144.952
11
11.2448
21
-144.856
0
LINE
8
BLACK
6
CONTINUOUS
10
11.2448
20
-144.856
11
11.5305
21
-144.856
0
LINE
8
BLACK
6
CONTINUOUS
10
11.5305
20
-144.856
11
11.721
21
-144.952
0
LINE
8
BLACK
6
CONTINUOUS
10
11.721
20
-144.952
11
11.8163
21
-145.142
0
LINE
8
BLACK
6
CONTINUOUS
10
11.8163
20
-145.142
11
11.8163
21
-146.19
0
LINE
8
BLACK
6
CONTINUOUS
10
11.8163
20
-145.142
11
11.9115
21
-144.952
0
LINE
8
BLACK
6
CONTINUOUS
10
11.9115
20
-144.952
11
12.102
21
-144.856
0
LINE
8
BLACK
6
CONTINUOUS
10
12.102
20
-144.856
11
12.3877
21
-144.856
0
LINE
8
BLACK
6
CONTINUOUS
10
12.3877
20
-144.856
11
12.5782
21
-144.952
0
LINE
8
BLACK
6
CONTINUOUS
10
12.5782
20
-144.952
11
12.6734
21
-145.142
0
LINE
8
BLACK
6
CONTINUOUS
10
12.6734
20
-145.142
11
12.6734
21
-146.19
0
LINE
8
BLACK
6
CONTINUOUS
10
13.6258
20
-146.19
11
13.6258
21
-144.856
0
LINE
8
BLACK
6
CONTINUOUS
10
13.6258
20
-145.047
11
13.721
21
-144.952
0
LINE
8
BLACK
6
CONTINUOUS
10
13.721
20
-144.952
11
13.9115
21
-144.856
0
LINE
8
BLACK
6
CONTINUOUS
10
13.9115
20
-144.856
11
14.1972
21
-144.856
0
LINE
8
BLACK
6
CONTINUOUS
10
14.1972
20
-144.856
11
14.3877
21
-144.952
0
LINE
8
BLACK
6
CONTINUOUS
10
14.3877
20
-144.952
11
14.4829
21
-145.142
0
LINE
8
BLACK
6
CONTINUOUS
10
14.4829
20
-145.142
11
14.4829
21
-146.19
0
LINE
8
BLACK
6
CONTINUOUS
10
14.4829
20
-145.142
11
14.5782
21
-144.952
0
LINE
8
BLACK
6
CONTINUOUS
10
14.5782
20
-144.952
11
14.7686
21
-144.856
0
LINE
8
BLACK
6
CONTINUOUS
10
14.7686
20
-144.856
11
15.0544
21
-144.856
0
LINE
8
BLACK
6
CONTINUOUS
10
15.0544
20
-144.856
11
15.2448
21
-144.952
0
LINE
8
BLACK
6
CONTINUOUS
10
15.2448
20
-144.952
11
15.3401
21
-145.142
0
LINE
8
BLACK
6
CONTINUOUS
10
15.3401
20
-145.142
11
15.3401
21
-146.19
0
LINE
8
BLACK
6
CONTINUOUS
10
18.921
20
-144.095
11
17.2067
21
-146.666
0
LINE
8
BLACK
6
CONTINUOUS
10
21.1686
20
-144.19
11
21.3591
21
-144.19
0
LINE
8
BLACK
6
CONTINUOUS
10
21.3591
20
-144.19
11
21.5496
21
-144.285
0
LINE
8
BLACK
6
CONTINUOUS
10
21.5496
20
-144.285
11
21.6448
21
-144.38
0
LINE
8
BLACK
6
CONTINUOUS
10
21.6448
20
-144.38
11
21.7401
21
-144.571
0
LINE
8
BLACK
6
CONTINUOUS
10
21.7401
20
-144.571
11
21.8353
21
-144.952
0
LINE
8
BLACK
6
CONTINUOUS
10
21.8353
20
-144.952
11
21.8353
21
-145.428
0
LINE
8
BLACK
6
CONTINUOUS
10
21.8353
20
-145.428
11
21.7401
21
-145.809
0
LINE
8
BLACK
6
CONTINUOUS
10
21.7401
20
-145.809
11
21.6448
21
-145.999
0
LINE
8
BLACK
6
CONTINUOUS
10
21.6448
20
-145.999
11
21.5496
21
-146.095
0
LINE
8
BLACK
6
CONTINUOUS
10
21.5496
20
-146.095
11
21.3591
21
-146.19
0
LINE
8
BLACK
6
CONTINUOUS
10
21.3591
20
-146.19
11
21.1686
21
-146.19
0
LINE
8
BLACK
6
CONTINUOUS
10
21.1686
20
-146.19
11
20.9782
21
-146.095
0
LINE
8
BLACK
6
CONTINUOUS
10
20.9782
20
-146.095
11
20.8829
21
-145.999
0
LINE
8
BLACK
6
CONTINUOUS
10
20.8829
20
-145.999
11
20.7877
21
-145.809
0
LINE
8
BLACK
6
CONTINUOUS
10
20.7877
20
-145.809
11
20.6925
21
-145.428
0
LINE
8
BLACK
6
CONTINUOUS
10
20.6925
20
-145.428
11
20.6925
21
-144.952
0
LINE
8
BLACK
6
CONTINUOUS
10
20.6925
20
-144.952
11
20.7877
21
-144.571
0
LINE
8
BLACK
6
CONTINUOUS
10
20.7877
20
-144.571
11
20.8829
21
-144.38
0
LINE
8
BLACK
6
CONTINUOUS
10
20.8829
20
-144.38
11
20.9782
21
-144.285
0
LINE
8
BLACK
6
CONTINUOUS
10
20.9782
20
-144.285
11
21.1686
21
-144.19
0
LINE
8
BLACK
6
CONTINUOUS
10
22.6925
20
-145.999
11
22.7877
21
-146.095
0
LINE
8
BLACK
6
CONTINUOUS
10
22.7877
20
-146.095
11
22.6925
21
-146.19
0
LINE
8
BLACK
6
CONTINUOUS
10
22.6925
20
-146.19
11
22.5972
21
-146.095
0
LINE
8
BLACK
6
CONTINUOUS
10
22.5972
20
-146.095
11
22.6925
21
-145.999
0
LINE
8
BLACK
6
CONTINUOUS
10
22.6925
20
-145.999
11
22.6925
21
-146.19
0
LINE
8
BLACK
6
CONTINUOUS
10
24.6925
20
-146.19
11
23.5496
21
-146.19
0
LINE
8
BLACK
6
CONTINUOUS
10
24.121
20
-146.19
11
24.121
21
-144.19
0
LINE
8
BLACK
6
CONTINUOUS
10
24.121
20
-144.19
11
23.9305
21
-144.475
0
LINE
8
BLACK
6
CONTINUOUS
10
23.9305
20
-144.475
11
23.7401
21
-144.666
0
LINE
8
BLACK
6
CONTINUOUS
10
23.7401
20
-144.666
11
23.5496
21
-144.761
0
LINE
8
BLACK
6
CONTINUOUS
10
26.502
20
-144.19
11
25.5496
21
-144.19
0
LINE
8
BLACK
6
CONTINUOUS
10
25.5496
20
-144.19
11
25.4544
21
-145.142
0
LINE
8
BLACK
6
CONTINUOUS
10
25.4544
20
-145.142
11
25.5496
21
-145.047
0
LINE
8
BLACK
6
CONTINUOUS
10
25.5496
20
-145.047
11
25.7401
21
-144.952
0
LINE
8
BLACK
6
CONTINUOUS
10
25.7401
20
-144.952
11
26.2163
21
-144.952
0
LINE
8
BLACK
6
CONTINUOUS
10
26.2163
20
-144.952
11
26.4067
21
-145.047
0
LINE
8
BLACK
6
CONTINUOUS
10
26.4067
20
-145.047
11
26.502
21
-145.142
0
LINE
8
BLACK
6
CONTINUOUS
10
26.502
20
-145.142
11
26.5972
21
-145.333
0
LINE
8
BLACK
6
CONTINUOUS
10
26.5972
20
-145.333
11
26.5972
21
-145.809
0
LINE
8
BLACK
6
CONTINUOUS
10
26.5972
20
-145.809
11
26.502
21
-145.999
0
LINE
8
BLACK
6
CONTINUOUS
10
26.502
20
-145.999
11
26.4067
21
-146.095
0
LINE
8
BLACK
6
CONTINUOUS
10
26.4067
20
-146.095
11
26.2163
21
-146.19
0
LINE
8
BLACK
6
CONTINUOUS
10
26.2163
20
-146.19
11
25.7401
21
-146.19
0
LINE
8
BLACK
6
CONTINUOUS
10
25.7401
20
-146.19
11
25.5496
21
-146.095
0
LINE
8
BLACK
6
CONTINUOUS
10
25.5496
20
-146.095
11
25.4544
21
-145.999
0
LINE
8
BLACK
6
CONTINUOUS
10
27.2639
20
-144.19
11
28.5972
21
-144.19
0
LINE
8
BLACK
6
CONTINUOUS
10
28.5972
20
-144.19
11
27.7401
21
-146.19
0
LINE
8
BLACK
6
CONTINUOUS
10
29.7401
20
-144.19
11
29.9305
21
-144.19
0
LINE
8
BLACK
6
CONTINUOUS
10
29.9305
20
-144.19
11
30.121
21
-144.285
0
LINE
8
BLACK
6
CONTINUOUS
10
30.121
20
-144.285
11
30.2163
21
-144.38
0
LINE
8
BLACK
6
CONTINUOUS
10
30.2163
20
-144.38
11
30.3115
21
-144.571
0
LINE
8
BLACK
6
CONTINUOUS
10
30.3115
20
-144.571
11
30.4067
21
-144.952
0
LINE
8
BLACK
6
CONTINUOUS
10
30.4067
20
-144.952
11
30.4067
21
-145.428
0
LINE
8
BLACK
6
CONTINUOUS
10
30.4067
20
-145.428
11
30.3115
21
-145.809
0
LINE
8
BLACK
6
CONTINUOUS
10
30.3115
20
-145.809
11
30.2163
21
-145.999
0
LINE
8
BLACK
6
CONTINUOUS
10
30.2163
20
-145.999
11
30.121
21
-146.095
0
LINE
8
BLACK
6
CONTINUOUS
10
30.121
20
-146.095
11
29.9305
21
-146.19
0
LINE
8
BLACK
6
CONTINUOUS
10
29.9305
20
-146.19
11
29.7401
21
-146.19
0
LINE
8
BLACK
6
CONTINUOUS
10
29.7401
20
-146.19
11
29.5496
21
-146.095
0
LINE
8
BLACK
6
CONTINUOUS
10
29.5496
20
-146.095
11
29.4544
21
-145.999
0
LINE
8
BLACK
6
CONTINUOUS
10
29.4544
20
-145.999
11
29.3591
21
-145.809
0
LINE
8
BLACK
6
CONTINUOUS
10
29.3591
20
-145.809
11
29.2639
21
-145.428
0
LINE
8
BLACK
6
CONTINUOUS
10
29.2639
20
-145.428
11
29.2639
21
-144.952
0
LINE
8
BLACK
6
CONTINUOUS
10
29.2639
20
-144.952
11
29.3591
21
-144.571
0
LINE
8
BLACK
6
CONTINUOUS
10
29.3591
20
-144.571
11
29.4544
21
-144.38
0
LINE
8
BLACK
6
CONTINUOUS
10
29.4544
20
-144.38
11
29.5496
21
-144.285
0
LINE
8
BLACK
6
CONTINUOUS
10
29.5496
20
-144.285
11
29.7401
21
-144.19
0
LINE
8
BLACK
6
CONTINUOUS
10
31.1686
20
-144.19
11
31.1686
21
-144.571
0
LINE
8
BLACK
6
CONTINUOUS
10
31.9305
20
-144.19
11
31.9305
21
-144.571
0
LINE
8
BLACK
6
CONTINUOUS
10
34.5591
20
-146.952
11
34.4639
21
-146.856
0
LINE
8
BLACK
6
CONTINUOUS
10
34.4639
20
-146.856
11
34.2734
21
-146.571
0
LINE
8
BLACK
6
CONTINUOUS
10
34.2734
20
-146.571
11
34.1782
21
-146.38
0
LINE
8
BLACK
6
CONTINUOUS
10
34.1782
20
-146.38
11
34.0829
21
-146.095
0
LINE
8
BLACK
6
CONTINUOUS
10
34.0829
20
-146.095
11
33.9877
21
-145.618
0
LINE
8
BLACK
6
CONTINUOUS
10
33.9877
20
-145.618
11
33.9877
21
-145.237
0
LINE
8
BLACK
6
CONTINUOUS
10
33.9877
20
-145.237
11
34.0829
21
-144.761
0
LINE
8
BLACK
6
CONTINUOUS
10
34.0829
20
-144.761
11
34.1782
21
-144.475
0
LINE
8
BLACK
6
CONTINUOUS
10
34.1782
20
-144.475
11
34.2734
21
-144.285
0
LINE
8
BLACK
6
CONTINUOUS
10
34.2734
20
-144.285
11
34.4639
21
-143.999
0
LINE
8
BLACK
6
CONTINUOUS
10
34.4639
20
-143.999
11
34.5591
21
-143.904
0
LINE
8
BLACK
6
CONTINUOUS
10
35.4163
20
-146.19
11
35.7972
21
-146.19
0
LINE
8
BLACK
6
CONTINUOUS
10
35.7972
20
-146.19
11
35.9877
21
-146.095
0
LINE
8
BLACK
6
CONTINUOUS
10
35.9877
20
-146.095
11
36.0829
21
-145.999
0
LINE
8
BLACK
6
CONTINUOUS
10
36.0829
20
-145.999
11
36.2734
21
-145.714
0
LINE
8
BLACK
6
CONTINUOUS
10
36.2734
20
-145.714
11
36.3686
21
-145.333
0
LINE
8
BLACK
6
CONTINUOUS
10
36.3686
20
-145.333
11
36.3686
21
-144.571
0
LINE
8
BLACK
6
CONTINUOUS
10
36.3686
20
-144.571
11
36.2734
21
-144.38
0
LINE
8
BLACK
6
CONTINUOUS
10
36.2734
20
-144.38
11
36.1782
21
-144.285
0
LINE
8
BLACK
6
CONTINUOUS
10
36.1782
20
-144.285
11
35.9877
21
-144.19
0
LINE
8
BLACK
6
CONTINUOUS
10
35.9877
20
-144.19
11
35.6067
21
-144.19
0
LINE
8
BLACK
6
CONTINUOUS
10
35.6067
20
-144.19
11
35.4163
21
-144.285
0
LINE
8
BLACK
6
CONTINUOUS
10
35.4163
20
-144.285
11
35.321
21
-144.38
0
LINE
8
BLACK
6
CONTINUOUS
10
35.321
20
-144.38
11
35.2258
21
-144.571
0
LINE
8
BLACK
6
CONTINUOUS
10
35.2258
20
-144.571
11
35.2258
21
-145.047
0
LINE
8
BLACK
6
CONTINUOUS
10
35.2258
20
-145.047
11
35.321
21
-145.237
0
LINE
8
BLACK
6
CONTINUOUS
10
35.321
20
-145.237
11
35.4163
21
-145.333
0
LINE
8
BLACK
6
CONTINUOUS
10
35.4163
20
-145.333
11
35.6067
21
-145.428
0
LINE
8
BLACK
6
CONTINUOUS
10
35.6067
20
-145.428
11
35.9877
21
-145.428
0
LINE
8
BLACK
6
CONTINUOUS
10
35.9877
20
-145.428
11
36.1782
21
-145.333
0
LINE
8
BLACK
6
CONTINUOUS
10
36.1782
20
-145.333
11
36.2734
21
-145.237
0
LINE
8
BLACK
6
CONTINUOUS
10
36.2734
20
-145.237
11
36.3686
21
-145.047
0
LINE
8
BLACK
6
CONTINUOUS
10
38.0829
20
-144.19
11
37.702
21
-144.19
0
LINE
8
BLACK
6
CONTINUOUS
10
37.702
20
-144.19
11
37.5115
21
-144.285
0
LINE
8
BLACK
6
CONTINUOUS
10
37.5115
20
-144.285
11
37.4163
21
-144.38
0
LINE
8
BLACK
6
CONTINUOUS
10
37.4163
20
-144.38
11
37.2258
21
-144.666
0
LINE
8
BLACK
6
CONTINUOUS
10
37.2258
20
-144.666
11
37.1305
21
-145.047
0
LINE
8
BLACK
6
CONTINUOUS
10
37.1305
20
-145.047
11
37.1305
21
-145.809
0
LINE
8
BLACK
6
CONTINUOUS
10
37.1305
20
-145.809
11
37.2258
21
-145.999
0
LINE
8
BLACK
6
CONTINUOUS
10
37.2258
20
-145.999
11
37.321
21
-146.095
0
LINE
8
BLACK
6
CONTINUOUS
10
37.321
20
-146.095
11
37.5115
21
-146.19
0
LINE
8
BLACK
6
CONTINUOUS
10
37.5115
20
-146.19
11
37.8925
21
-146.19
0
LINE
8
BLACK
6
CONTINUOUS
10
37.8925
20
-146.19
11
38.0829
21
-146.095
0
LINE
8
BLACK
6
CONTINUOUS
10
38.0829
20
-146.095
11
38.1782
21
-145.999
0
LINE
8
BLACK
6
CONTINUOUS
10
38.1782
20
-145.999
11
38.2734
21
-145.809
0
LINE
8
BLACK
6
CONTINUOUS
10
38.2734
20
-145.809
11
38.2734
21
-145.333
0
LINE
8
BLACK
6
CONTINUOUS
10
38.2734
20
-145.333
11
38.1782
21
-145.142
0
LINE
8
BLACK
6
CONTINUOUS
10
38.1782
20
-145.142
11
38.0829
21
-145.047
0
LINE
8
BLACK
6
CONTINUOUS
10
38.0829
20
-145.047
11
37.8925
21
-144.952
0
LINE
8
BLACK
6
CONTINUOUS
10
37.8925
20
-144.952
11
37.5115
21
-144.952
0
LINE
8
BLACK
6
CONTINUOUS
10
37.5115
20
-144.952
11
37.321
21
-145.047
0
LINE
8
BLACK
6
CONTINUOUS
10
37.321
20
-145.047
11
37.2258
21
-145.142
0
LINE
8
BLACK
6
CONTINUOUS
10
37.2258
20
-145.142
11
37.1305
21
-145.333
0
LINE
8
BLACK
6
CONTINUOUS
10
40.3305
20
-146.19
11
40.3305
21
-144.19
0
LINE
8
BLACK
6
CONTINUOUS
10
41.1877
20
-146.19
11
41.1877
21
-145.142
0
LINE
8
BLACK
6
CONTINUOUS
10
41.1877
20
-145.142
11
41.0925
21
-144.952
0
LINE
8
BLACK
6
CONTINUOUS
10
41.0925
20
-144.952
11
40.902
21
-144.856
0
LINE
8
BLACK
6
CONTINUOUS
10
40.902
20
-144.856
11
40.6163
21
-144.856
0
LINE
8
BLACK
6
CONTINUOUS
10
40.6163
20
-144.856
11
40.4258
21
-144.952
0
LINE
8
BLACK
6
CONTINUOUS
10
40.4258
20
-144.952
11
40.3305
21
-145.047
0
LINE
8
BLACK
6
CONTINUOUS
10
42.4258
20
-146.19
11
42.2353
21
-146.095
0
LINE
8
BLACK
6
CONTINUOUS
10
42.2353
20
-146.095
11
42.1401
21
-145.999
0
LINE
8
BLACK
6
CONTINUOUS
10
42.1401
20
-145.999
11
42.0448
21
-145.809
0
LINE
8
BLACK
6
CONTINUOUS
10
42.0448
20
-145.809
11
42.0448
21
-145.237
0
LINE
8
BLACK
6
CONTINUOUS
10
42.0448
20
-145.237
11
42.1401
21
-145.047
0
LINE
8
BLACK
6
CONTINUOUS
10
42.1401
20
-145.047
11
42.2353
21
-144.952
0
LINE
8
BLACK
6
CONTINUOUS
10
42.2353
20
-144.952
11
42.4258
21
-144.856
0
LINE
8
BLACK
6
CONTINUOUS
10
42.4258
20
-144.856
11
42.7115
21
-144.856
0
LINE
8
BLACK
6
CONTINUOUS
10
42.7115
20
-144.856
11
42.902
21
-144.952
0
LINE
8
BLACK
6
CONTINUOUS
10
42.902
20
-144.952
11
42.9972
21
-145.047
0
LINE
8
BLACK
6
CONTINUOUS
10
42.9972
20
-145.047
11
43.0925
21
-145.237
0
LINE
8
BLACK
6
CONTINUOUS
10
43.0925
20
-145.237
11
43.0925
21
-145.809
0
LINE
8
BLACK
6
CONTINUOUS
10
43.0925
20
-145.809
11
42.9972
21
-145.999
0
LINE
8
BLACK
6
CONTINUOUS
10
42.9972
20
-145.999
11
42.902
21
-146.095
0
LINE
8
BLACK
6
CONTINUOUS
10
42.902
20
-146.095
11
42.7115
21
-146.19
0
LINE
8
BLACK
6
CONTINUOUS
10
42.7115
20
-146.19
11
42.4258
21
-146.19
0
LINE
8
BLACK
6
CONTINUOUS
10
44.2353
20
-146.19
11
44.0448
21
-146.095
0
LINE
8
BLACK
6
CONTINUOUS
10
44.0448
20
-146.095
11
43.9496
21
-145.904
0
LINE
8
BLACK
6
CONTINUOUS
10
43.9496
20
-145.904
11
43.9496
21
-144.19
0
LINE
8
BLACK
6
CONTINUOUS
10
45.7591
20
-146.095
11
45.5686
21
-146.19
0
LINE
8
BLACK
6
CONTINUOUS
10
45.5686
20
-146.19
11
45.1877
21
-146.19
0
LINE
8
BLACK
6
CONTINUOUS
10
45.1877
20
-146.19
11
44.9972
21
-146.095
0
LINE
8
BLACK
6
CONTINUOUS
10
44.9972
20
-146.095
11
44.902
21
-145.904
0
LINE
8
BLACK
6
CONTINUOUS
10
44.902
20
-145.904
11
44.902
21
-145.142
0
LINE
8
BLACK
6
CONTINUOUS
10
44.902
20
-145.142
11
44.9972
21
-144.952
0
LINE
8
BLACK
6
CONTINUOUS
10
44.9972
20
-144.952
11
45.1877
21
-144.856
0
LINE
8
BLACK
6
CONTINUOUS
10
45.1877
20
-144.856
11
45.5686
21
-144.856
0
LINE
8
BLACK
6
CONTINUOUS
10
45.5686
20
-144.856
11
45.7591
21
-144.952
0
LINE
8
BLACK
6
CONTINUOUS
10
45.7591
20
-144.952
11
45.8544
21
-145.142
0
LINE
8
BLACK
6
CONTINUOUS
10
45.8544
20
-145.142
11
45.8544
21
-145.333
0
LINE
8
BLACK
6
CONTINUOUS
10
45.8544
20
-145.333
11
44.902
21
-145.523
0
LINE
8
BLACK
6
CONTINUOUS
10
46.6163
20
-146.095
11
46.8067
21
-146.19
0
LINE
8
BLACK
6
CONTINUOUS
10
46.8067
20
-146.19
11
47.1877
21
-146.19
0
LINE
8
BLACK
6
CONTINUOUS
10
47.1877
20
-146.19
11
47.3782
21
-146.095
0
LINE
8
BLACK
6
CONTINUOUS
10
47.3782
20
-146.095
11
47.4734
21
-145.904
0
LINE
8
BLACK
6
CONTINUOUS
10
47.4734
20
-145.904
11
47.4734
21
-145.809
0
LINE
8
BLACK
6
CONTINUOUS
10
47.4734
20
-145.809
11
47.3782
21
-145.618
0
LINE
8
BLACK
6
CONTINUOUS
10
47.3782
20
-145.618
11
47.1877
21
-145.523
0
LINE
8
BLACK
6
CONTINUOUS
10
47.1877
20
-145.523
11
46.902
21
-145.523
0
LINE
8
BLACK
6
CONTINUOUS
10
46.902
20
-145.523
11
46.7115
21
-145.428
0
LINE
8
BLACK
6
CONTINUOUS
10
46.7115
20
-145.428
11
46.6163
21
-145.237
0
LINE
8
BLACK
6
CONTINUOUS
10
46.6163
20
-145.237
11
46.6163
21
-145.142
0
LINE
8
BLACK
6
CONTINUOUS
10
46.6163
20
-145.142
11
46.7115
21
-144.952
0
LINE
8
BLACK
6
CONTINUOUS
10
46.7115
20
-144.952
11
46.902
21
-144.856
0
LINE
8
BLACK
6
CONTINUOUS
10
46.902
20
-144.856
11
47.1877
21
-144.856
0
LINE
8
BLACK
6
CONTINUOUS
10
47.1877
20
-144.856
11
47.3782
21
-144.952
0
LINE
8
BLACK
6
CONTINUOUS
10
48.1401
20
-146.952
11
48.2353
21
-146.856
0
LINE
8
BLACK
6
CONTINUOUS
10
48.2353
20
-146.856
11
48.4258
21
-146.571
0
LINE
8
BLACK
6
CONTINUOUS
10
48.4258
20
-146.571
11
48.521
21
-146.38
0
LINE
8
BLACK
6
CONTINUOUS
10
48.521
20
-146.38
11
48.6163
21
-146.095
0
LINE
8
BLACK
6
CONTINUOUS
10
48.6163
20
-146.095
11
48.7115
21
-145.618
0
LINE
8
BLACK
6
CONTINUOUS
10
48.7115
20
-145.618
11
48.7115
21
-145.237
0
LINE
8
BLACK
6
CONTINUOUS
10
48.7115
20
-145.237
11
48.6163
21
-144.761
0
LINE
8
BLACK
6
CONTINUOUS
10
48.6163
20
-144.761
11
48.521
21
-144.475
0
LINE
8
BLACK
6
CONTINUOUS
10
48.521
20
-144.475
11
48.4258
21
-144.285
0
LINE
8
BLACK
6
CONTINUOUS
10
48.4258
20
-144.285
11
48.2353
21
-143.999
0
LINE
8
BLACK
6
CONTINUOUS
10
48.2353
20
-143.999
11
48.1401
21
-143.904
0
LINE
8
BLACK
6
CONTINUOUS
10
51.4353
20
-146.952
11
51.3401
21
-146.856
0
LINE
8
BLACK
6
CONTINUOUS
10
51.3401
20
-146.856
11
51.1496
21
-146.571
0
LINE
8
BLACK
6
CONTINUOUS
10
51.1496
20
-146.571
11
51.0544
21
-146.38
0
LINE
8
BLACK
6
CONTINUOUS
10
51.0544
20
-146.38
11
50.9591
21
-146.095
0
LINE
8
BLACK
6
CONTINUOUS
10
50.9591
20
-146.095
11
50.8639
21
-145.618
0
LINE
8
BLACK
6
CONTINUOUS
10
50.8639
20
-145.618
11
50.8639
21
-145.237
0
LINE
8
BLACK
6
CONTINUOUS
10
50.8639
20
-145.237
11
50.9591
21
-144.761
0
LINE
8
BLACK
6
CONTINUOUS
10
50.9591
20
-144.761
11
51.0544
21
-144.475
0
LINE
8
BLACK
6
CONTINUOUS
10
51.0544
20
-144.475
11
51.1496
21
-144.285
0
LINE
8
BLACK
6
CONTINUOUS
10
51.1496
20
-144.285
11
51.3401
21
-143.999
0
LINE
8
BLACK
6
CONTINUOUS
10
51.3401
20
-143.999
11
51.4353
21
-143.904
0
LINE
8
BLACK
6
CONTINUOUS
10
52.1972
20
-144.856
11
52.1972
21
-146.19
0
LINE
8
BLACK
6
CONTINUOUS
10
52.1972
20
-145.047
11
52.2925
21
-144.952
0
LINE
8
BLACK
6
CONTINUOUS
10
52.2925
20
-144.952
11
52.4829
21
-144.856
0
LINE
8
BLACK
6
CONTINUOUS
10
52.4829
20
-144.856
11
52.7686
21
-144.856
0
LINE
8
BLACK
6
CONTINUOUS
10
52.7686
20
-144.856
11
52.9591
21
-144.952
0
LINE
8
BLACK
6
CONTINUOUS
10
52.9591
20
-144.952
11
53.0544
21
-145.142
0
LINE
8
BLACK
6
CONTINUOUS
10
53.0544
20
-145.142
11
53.0544
21
-146.19
0
LINE
8
BLACK
6
CONTINUOUS
10
54.2925
20
-146.19
11
54.102
21
-146.095
0
LINE
8
BLACK
6
CONTINUOUS
10
54.102
20
-146.095
11
54.0067
21
-145.999
0
LINE
8
BLACK
6
CONTINUOUS
10
54.0067
20
-145.999
11
53.9115
21
-145.809
0
LINE
8
BLACK
6
CONTINUOUS
10
53.9115
20
-145.809
11
53.9115
21
-145.237
0
LINE
8
BLACK
6
CONTINUOUS
10
53.9115
20
-145.237
11
54.0067
21
-145.047
0
LINE
8
BLACK
6
CONTINUOUS
10
54.0067
20
-145.047
11
54.102
21
-144.952
0
LINE
8
BLACK
6
CONTINUOUS
10
54.102
20
-144.952
11
54.2925
21
-144.856
0
LINE
8
BLACK
6
CONTINUOUS
10
54.2925
20
-144.856
11
54.5782
21
-144.856
0
LINE
8
BLACK
6
CONTINUOUS
10
54.5782
20
-144.856
11
54.7686
21
-144.952
0
LINE
8
BLACK
6
CONTINUOUS
10
54.7686
20
-144.952
11
54.8639
21
-145.047
0
LINE
8
BLACK
6
CONTINUOUS
10
54.8639
20
-145.047
11
54.9591
21
-145.237
0
LINE
8
BLACK
6
CONTINUOUS
10
54.9591
20
-145.237
11
54.9591
21
-145.809
0
LINE
8
BLACK
6
CONTINUOUS
10
54.9591
20
-145.809
11
54.8639
21
-145.999
0
LINE
8
BLACK
6
CONTINUOUS
10
54.8639
20
-145.999
11
54.7686
21
-146.095
0
LINE
8
BLACK
6
CONTINUOUS
10
54.7686
20
-146.095
11
54.5782
21
-146.19
0
LINE
8
BLACK
6
CONTINUOUS
10
54.5782
20
-146.19
11
54.2925
21
-146.19
0
LINE
8
BLACK
6
CONTINUOUS
10
55.5305
20
-144.856
11
56.2925
21
-144.856
0
LINE
8
BLACK
6
CONTINUOUS
10
55.8163
20
-144.19
11
55.8163
21
-145.904
0
LINE
8
BLACK
6
CONTINUOUS
10
55.8163
20
-145.904
11
55.9115
21
-146.095
0
LINE
8
BLACK
6
CONTINUOUS
10
55.9115
20
-146.095
11
56.102
21
-146.19
0
LINE
8
BLACK
6
CONTINUOUS
10
56.102
20
-146.19
11
56.2925
21
-146.19
0
LINE
8
BLACK
6
CONTINUOUS
10
58.1591
20
-144.856
11
58.1591
21
-146.856
0
LINE
8
BLACK
6
CONTINUOUS
10
58.1591
20
-144.952
11
58.3496
21
-144.856
0
LINE
8
BLACK
6
CONTINUOUS
10
58.3496
20
-144.856
11
58.7305
21
-144.856
0
LINE
8
BLACK
6
CONTINUOUS
10
58.7305
20
-144.856
11
58.921
21
-144.952
0
LINE
8
BLACK
6
CONTINUOUS
10
58.921
20
-144.952
11
59.0163
21
-145.047
0
LINE
8
BLACK
6
CONTINUOUS
10
59.0163
20
-145.047
11
59.1115
21
-145.237
0
LINE
8
BLACK
6
CONTINUOUS
10
59.1115
20
-145.237
11
59.1115
21
-145.809
0
LINE
8
BLACK
6
CONTINUOUS
10
59.1115
20
-145.809
11
59.0163
21
-145.999
0
LINE
8
BLACK
6
CONTINUOUS
10
59.0163
20
-145.999
11
58.921
21
-146.095
0
LINE
8
BLACK
6
CONTINUOUS
10
58.921
20
-146.095
11
58.7305
21
-146.19
0
LINE
8
BLACK
6
CONTINUOUS
10
58.7305
20
-146.19
11
58.3496
21
-146.19
0
LINE
8
BLACK
6
CONTINUOUS
10
58.3496
20
-146.19
11
58.1591
21
-146.095
0
LINE
8
BLACK
6
CONTINUOUS
10
60.2544
20
-146.19
11
60.0639
21
-146.095
0
LINE
8
BLACK
6
CONTINUOUS
10
60.0639
20
-146.095
11
59.9686
21
-145.904
0
LINE
8
BLACK
6
CONTINUOUS
10
59.9686
20
-145.904
11
59.9686
21
-144.19
0
LINE
8
BLACK
6
CONTINUOUS
10
61.8734
20
-146.19
11
61.8734
21
-145.142
0
LINE
8
BLACK
6
CONTINUOUS
10
61.8734
20
-145.142
11
61.7782
21
-144.952
0
LINE
8
BLACK
6
CONTINUOUS
10
61.7782
20
-144.952
11
61.5877
21
-144.856
0
LINE
8
BLACK
6
CONTINUOUS
10
61.5877
20
-144.856
11
61.2067
21
-144.856
0
LINE
8
BLACK
6
CONTINUOUS
10
61.2067
20
-144.856
11
61.0163
21
-144.952
0
LINE
8
BLACK
6
CONTINUOUS
10
61.8734
20
-146.095
11
61.6829
21
-146.19
0
LINE
8
BLACK
6
CONTINUOUS
10
61.6829
20
-146.19
11
61.2067
21
-146.19
0
LINE
8
BLACK
6
CONTINUOUS
10
61.2067
20
-146.19
11
61.0163
21
-146.095
0
LINE
8
BLACK
6
CONTINUOUS
10
61.0163
20
-146.095
11
60.921
21
-145.904
0
LINE
8
BLACK
6
CONTINUOUS
10
60.921
20
-145.904
11
60.921
21
-145.714
0
LINE
8
BLACK
6
CONTINUOUS
10
60.921
20
-145.714
11
61.0163
21
-145.523
0
LINE
8
BLACK
6
CONTINUOUS
10
61.0163
20
-145.523
11
61.2067
21
-145.428
0
LINE
8
BLACK
6
CONTINUOUS
10
61.2067
20
-145.428
11
61.6829
21
-145.428
0
LINE
8
BLACK
6
CONTINUOUS
10
61.6829
20
-145.428
11
61.8734
21
-145.333
0
LINE
8
BLACK
6
CONTINUOUS
10
62.5401
20
-144.856
11
63.302
21
-144.856
0
LINE
8
BLACK
6
CONTINUOUS
10
62.8258
20
-144.19
11
62.8258
21
-145.904
0
LINE
8
BLACK
6
CONTINUOUS
10
62.8258
20
-145.904
11
62.921
21
-146.095
0
LINE
8
BLACK
6
CONTINUOUS
10
62.921
20
-146.095
11
63.1115
21
-146.19
0
LINE
8
BLACK
6
CONTINUOUS
10
63.1115
20
-146.19
11
63.302
21
-146.19
0
LINE
8
BLACK
6
CONTINUOUS
10
64.7305
20
-146.095
11
64.5401
21
-146.19
0
LINE
8
BLACK
6
CONTINUOUS
10
64.5401
20
-146.19
11
64.1591
21
-146.19
0
LINE
8
BLACK
6
CONTINUOUS
10
64.1591
20
-146.19
11
63.9686
21
-146.095
0
LINE
8
BLACK
6
CONTINUOUS
10
63.9686
20
-146.095
11
63.8734
21
-145.904
0
LINE
8
BLACK
6
CONTINUOUS
10
63.8734
20
-145.904
11
63.8734
21
-145.142
0
LINE
8
BLACK
6
CONTINUOUS
10
63.8734
20
-145.142
11
63.9686
21
-144.952
0
LINE
8
BLACK
6
CONTINUOUS
10
63.9686
20
-144.952
11
64.1591
21
-144.856
0
LINE
8
BLACK
6
CONTINUOUS
10
64.1591
20
-144.856
11
64.5401
21
-144.856
0
LINE
8
BLACK
6
CONTINUOUS
10
64.5401
20
-144.856
11
64.7305
21
-144.952
0
LINE
8
BLACK
6
CONTINUOUS
10
64.7305
20
-144.952
11
64.8258
21
-145.142
0
LINE
8
BLACK
6
CONTINUOUS
10
64.8258
20
-145.142
11
64.8258
21
-145.333
0
LINE
8
BLACK
6
CONTINUOUS
10
64.8258
20
-145.333
11
63.8734
21
-145.523
0
LINE
8
BLACK
6
CONTINUOUS
10
66.5401
20
-146.19
11
66.5401
21
-144.19
0
LINE
8
BLACK
6
CONTINUOUS
10
66.5401
20
-146.095
11
66.3496
21
-146.19
0
LINE
8
BLACK
6
CONTINUOUS
10
66.3496
20
-146.19
11
65.9686
21
-146.19
0
LINE
8
BLACK
6
CONTINUOUS
10
65.9686
20
-146.19
11
65.7782
21
-146.095
0
LINE
8
BLACK
6
CONTINUOUS
10
65.7782
20
-146.095
11
65.6829
21
-145.999
0
LINE
8
BLACK
6
CONTINUOUS
10
65.6829
20
-145.999
11
65.5877
21
-145.809
0
LINE
8
BLACK
6
CONTINUOUS
10
65.5877
20
-145.809
11
65.5877
21
-145.237
0
LINE
8
BLACK
6
CONTINUOUS
10
65.5877
20
-145.237
11
65.6829
21
-145.047
0
LINE
8
BLACK
6
CONTINUOUS
10
65.6829
20
-145.047
11
65.7782
21
-144.952
0
LINE
8
BLACK
6
CONTINUOUS
10
65.7782
20
-144.952
11
65.9686
21
-144.856
0
LINE
8
BLACK
6
CONTINUOUS
10
65.9686
20
-144.856
11
66.3496
21
-144.856
0
LINE
8
BLACK
6
CONTINUOUS
10
66.3496
20
-144.856
11
66.5401
21
-144.952
0
LINE
8
BLACK
6
CONTINUOUS
10
67.302
20
-146.952
11
67.3972
21
-146.856
0
LINE
8
BLACK
6
CONTINUOUS
10
67.3972
20
-146.856
11
67.5877
21
-146.571
0
LINE
8
BLACK
6
CONTINUOUS
10
67.5877
20
-146.571
11
67.6829
21
-146.38
0
LINE
8
BLACK
6
CONTINUOUS
10
67.6829
20
-146.38
11
67.7782
21
-146.095
0
LINE
8
BLACK
6
CONTINUOUS
10
67.7782
20
-146.095
11
67.8734
21
-145.618
0
LINE
8
BLACK
6
CONTINUOUS
10
67.8734
20
-145.618
11
67.8734
21
-145.237
0
LINE
8
BLACK
6
CONTINUOUS
10
67.8734
20
-145.237
11
67.7782
21
-144.761
0
LINE
8
BLACK
6
CONTINUOUS
10
67.7782
20
-144.761
11
67.6829
21
-144.475
0
LINE
8
BLACK
6
CONTINUOUS
10
67.6829
20
-144.475
11
67.5877
21
-144.285
0
LINE
8
BLACK
6
CONTINUOUS
10
67.5877
20
-144.285
11
67.3972
21
-143.999
0
LINE
8
BLACK
6
CONTINUOUS
10
67.3972
20
-143.999
11
67.302
21
-143.904
  0
ENDSEC
  0
EOF
