%TF.GenerationSoftware,KiCad,Pcbnew,(6.99.0-4502-gf1556ed801-dirty)*%
%TF.CreationDate,2022-12-16T10:13:54-05:00*%
%TF.ProjectId,necpc8801l,6e656370-6338-4383-9031-6c2e6b696361,rev?*%
%TF.SameCoordinates,Original*%
%TF.FileFunction,Legend,Top*%
%TF.FilePolarity,Positive*%
%FSLAX46Y46*%
G04 Gerber Fmt 4.6, Leading zero omitted, Abs format (unit mm)*
G04 Created by KiCad (PCBNEW (6.99.0-4502-gf1556ed801-dirty)) date 2022-12-16 10:13:54*
%MOMM*%
%LPD*%
G01*
G04 APERTURE LIST*
%ADD10C,0.150000*%
%ADD11C,0.120000*%
%ADD12C,1.750000*%
%ADD13C,3.987800*%
%ADD14O,1.800000X1.070000*%
%ADD15R,1.000000X1.500000*%
%ADD16R,1.800000X1.070000*%
%ADD17C,5.400000*%
%TA.AperFunction,Profile*%
%ADD18C,0.150000*%
%TD*%
%TA.AperFunction,Profile*%
%ADD19C,0.050000*%
%TD*%
G04 APERTURE END LIST*
D10*
%TO.C,LED1*%
X317792380Y-81919047D02*
X317792380Y-82395237D01*
X317792380Y-82395237D02*
X316792380Y-82395237D01*
X317268571Y-81585713D02*
X317268571Y-81252380D01*
X317792380Y-81109523D02*
X317792380Y-81585713D01*
X317792380Y-81585713D02*
X316792380Y-81585713D01*
X316792380Y-81585713D02*
X316792380Y-81109523D01*
X317792380Y-80680951D02*
X316792380Y-80680951D01*
X316792380Y-80680951D02*
X316792380Y-80442856D01*
X316792380Y-80442856D02*
X316840000Y-80299999D01*
X316840000Y-80299999D02*
X316935238Y-80204761D01*
X316935238Y-80204761D02*
X317030476Y-80157142D01*
X317030476Y-80157142D02*
X317220952Y-80109523D01*
X317220952Y-80109523D02*
X317363809Y-80109523D01*
X317363809Y-80109523D02*
X317554285Y-80157142D01*
X317554285Y-80157142D02*
X317649523Y-80204761D01*
X317649523Y-80204761D02*
X317744761Y-80299999D01*
X317744761Y-80299999D02*
X317792380Y-80442856D01*
X317792380Y-80442856D02*
X317792380Y-80680951D01*
X317792380Y-79157142D02*
X317792380Y-79728570D01*
X317792380Y-79442856D02*
X316792380Y-79442856D01*
X316792380Y-79442856D02*
X316935238Y-79538094D01*
X316935238Y-79538094D02*
X317030476Y-79633332D01*
X317030476Y-79633332D02*
X317078095Y-79728570D01*
X319692380Y-84664285D02*
X319692380Y-85235713D01*
X319692380Y-84949999D02*
X318692380Y-84949999D01*
X318692380Y-84949999D02*
X318835238Y-85045237D01*
X318835238Y-85045237D02*
X318930476Y-85140475D01*
X318930476Y-85140475D02*
X318978095Y-85235713D01*
%TO.C,LED2*%
X317792380Y-61919047D02*
X317792380Y-62395237D01*
X317792380Y-62395237D02*
X316792380Y-62395237D01*
X317268571Y-61585713D02*
X317268571Y-61252380D01*
X317792380Y-61109523D02*
X317792380Y-61585713D01*
X317792380Y-61585713D02*
X316792380Y-61585713D01*
X316792380Y-61585713D02*
X316792380Y-61109523D01*
X317792380Y-60680951D02*
X316792380Y-60680951D01*
X316792380Y-60680951D02*
X316792380Y-60442856D01*
X316792380Y-60442856D02*
X316840000Y-60299999D01*
X316840000Y-60299999D02*
X316935238Y-60204761D01*
X316935238Y-60204761D02*
X317030476Y-60157142D01*
X317030476Y-60157142D02*
X317220952Y-60109523D01*
X317220952Y-60109523D02*
X317363809Y-60109523D01*
X317363809Y-60109523D02*
X317554285Y-60157142D01*
X317554285Y-60157142D02*
X317649523Y-60204761D01*
X317649523Y-60204761D02*
X317744761Y-60299999D01*
X317744761Y-60299999D02*
X317792380Y-60442856D01*
X317792380Y-60442856D02*
X317792380Y-60680951D01*
X316887619Y-59728570D02*
X316840000Y-59680951D01*
X316840000Y-59680951D02*
X316792380Y-59585713D01*
X316792380Y-59585713D02*
X316792380Y-59347618D01*
X316792380Y-59347618D02*
X316840000Y-59252380D01*
X316840000Y-59252380D02*
X316887619Y-59204761D01*
X316887619Y-59204761D02*
X316982857Y-59157142D01*
X316982857Y-59157142D02*
X317078095Y-59157142D01*
X317078095Y-59157142D02*
X317220952Y-59204761D01*
X317220952Y-59204761D02*
X317792380Y-59776189D01*
X317792380Y-59776189D02*
X317792380Y-59157142D01*
X319692380Y-64664285D02*
X319692380Y-65235713D01*
X319692380Y-64949999D02*
X318692380Y-64949999D01*
X318692380Y-64949999D02*
X318835238Y-65045237D01*
X318835238Y-65045237D02*
X318930476Y-65140475D01*
X318930476Y-65140475D02*
X318978095Y-65235713D01*
%TO.C,LED3*%
X317792380Y-41919047D02*
X317792380Y-42395237D01*
X317792380Y-42395237D02*
X316792380Y-42395237D01*
X317268571Y-41585713D02*
X317268571Y-41252380D01*
X317792380Y-41109523D02*
X317792380Y-41585713D01*
X317792380Y-41585713D02*
X316792380Y-41585713D01*
X316792380Y-41585713D02*
X316792380Y-41109523D01*
X317792380Y-40680951D02*
X316792380Y-40680951D01*
X316792380Y-40680951D02*
X316792380Y-40442856D01*
X316792380Y-40442856D02*
X316840000Y-40299999D01*
X316840000Y-40299999D02*
X316935238Y-40204761D01*
X316935238Y-40204761D02*
X317030476Y-40157142D01*
X317030476Y-40157142D02*
X317220952Y-40109523D01*
X317220952Y-40109523D02*
X317363809Y-40109523D01*
X317363809Y-40109523D02*
X317554285Y-40157142D01*
X317554285Y-40157142D02*
X317649523Y-40204761D01*
X317649523Y-40204761D02*
X317744761Y-40299999D01*
X317744761Y-40299999D02*
X317792380Y-40442856D01*
X317792380Y-40442856D02*
X317792380Y-40680951D01*
X316792380Y-39776189D02*
X316792380Y-39157142D01*
X316792380Y-39157142D02*
X317173333Y-39490475D01*
X317173333Y-39490475D02*
X317173333Y-39347618D01*
X317173333Y-39347618D02*
X317220952Y-39252380D01*
X317220952Y-39252380D02*
X317268571Y-39204761D01*
X317268571Y-39204761D02*
X317363809Y-39157142D01*
X317363809Y-39157142D02*
X317601904Y-39157142D01*
X317601904Y-39157142D02*
X317697142Y-39204761D01*
X317697142Y-39204761D02*
X317744761Y-39252380D01*
X317744761Y-39252380D02*
X317792380Y-39347618D01*
X317792380Y-39347618D02*
X317792380Y-39633332D01*
X317792380Y-39633332D02*
X317744761Y-39728570D01*
X317744761Y-39728570D02*
X317697142Y-39776189D01*
X319692380Y-44664285D02*
X319692380Y-45235713D01*
X319692380Y-44949999D02*
X318692380Y-44949999D01*
X318692380Y-44949999D02*
X318835238Y-45045237D01*
X318835238Y-45045237D02*
X318930476Y-45140475D01*
X318930476Y-45140475D02*
X318978095Y-45235713D01*
%TO.C,H2*%
X307713095Y-63792380D02*
X307713095Y-62792380D01*
X307713095Y-63268571D02*
X308284523Y-63268571D01*
X308284523Y-63792380D02*
X308284523Y-62792380D01*
X308713095Y-62887619D02*
X308760714Y-62840000D01*
X308760714Y-62840000D02*
X308855952Y-62792380D01*
X308855952Y-62792380D02*
X309094047Y-62792380D01*
X309094047Y-62792380D02*
X309189285Y-62840000D01*
X309189285Y-62840000D02*
X309236904Y-62887619D01*
X309236904Y-62887619D02*
X309284523Y-62982857D01*
X309284523Y-62982857D02*
X309284523Y-63078095D01*
X309284523Y-63078095D02*
X309236904Y-63220952D01*
X309236904Y-63220952D02*
X308665476Y-63792380D01*
X308665476Y-63792380D02*
X309284523Y-63792380D01*
%TO.C,SW1*%
X398441667Y-21969761D02*
X398584524Y-22017380D01*
X398584524Y-22017380D02*
X398822619Y-22017380D01*
X398822619Y-22017380D02*
X398917857Y-21969761D01*
X398917857Y-21969761D02*
X398965476Y-21922142D01*
X398965476Y-21922142D02*
X399013095Y-21826904D01*
X399013095Y-21826904D02*
X399013095Y-21731666D01*
X399013095Y-21731666D02*
X398965476Y-21636428D01*
X398965476Y-21636428D02*
X398917857Y-21588809D01*
X398917857Y-21588809D02*
X398822619Y-21541190D01*
X398822619Y-21541190D02*
X398632143Y-21493571D01*
X398632143Y-21493571D02*
X398536905Y-21445952D01*
X398536905Y-21445952D02*
X398489286Y-21398333D01*
X398489286Y-21398333D02*
X398441667Y-21303095D01*
X398441667Y-21303095D02*
X398441667Y-21207857D01*
X398441667Y-21207857D02*
X398489286Y-21112619D01*
X398489286Y-21112619D02*
X398536905Y-21065000D01*
X398536905Y-21065000D02*
X398632143Y-21017380D01*
X398632143Y-21017380D02*
X398870238Y-21017380D01*
X398870238Y-21017380D02*
X399013095Y-21065000D01*
X399346429Y-21017380D02*
X399584524Y-22017380D01*
X399584524Y-22017380D02*
X399775000Y-21303095D01*
X399775000Y-21303095D02*
X399965476Y-22017380D01*
X399965476Y-22017380D02*
X400203572Y-21017380D01*
X401108333Y-22017380D02*
X400536905Y-22017380D01*
X400822619Y-22017380D02*
X400822619Y-21017380D01*
X400822619Y-21017380D02*
X400727381Y-21160238D01*
X400727381Y-21160238D02*
X400632143Y-21255476D01*
X400632143Y-21255476D02*
X400536905Y-21303095D01*
%TO.C,C1*%
X375866708Y-2849892D02*
X375819089Y-2897511D01*
X375819089Y-2897511D02*
X375676232Y-2945130D01*
X375676232Y-2945130D02*
X375580994Y-2945130D01*
X375580994Y-2945130D02*
X375438137Y-2897511D01*
X375438137Y-2897511D02*
X375342899Y-2802273D01*
X375342899Y-2802273D02*
X375295280Y-2707035D01*
X375295280Y-2707035D02*
X375247661Y-2516559D01*
X375247661Y-2516559D02*
X375247661Y-2373702D01*
X375247661Y-2373702D02*
X375295280Y-2183226D01*
X375295280Y-2183226D02*
X375342899Y-2087988D01*
X375342899Y-2087988D02*
X375438137Y-1992750D01*
X375438137Y-1992750D02*
X375580994Y-1945130D01*
X375580994Y-1945130D02*
X375676232Y-1945130D01*
X375676232Y-1945130D02*
X375819089Y-1992750D01*
X375819089Y-1992750D02*
X375866708Y-2040369D01*
X376819089Y-2945130D02*
X376247661Y-2945130D01*
X376533375Y-2945130D02*
X376533375Y-1945130D01*
X376533375Y-1945130D02*
X376438137Y-2087988D01*
X376438137Y-2087988D02*
X376342899Y-2183226D01*
X376342899Y-2183226D02*
X376247661Y-2230845D01*
%TO.C,C5*%
X358557517Y-17886416D02*
X358605136Y-17934035D01*
X358605136Y-17934035D02*
X358652755Y-18076892D01*
X358652755Y-18076892D02*
X358652755Y-18172130D01*
X358652755Y-18172130D02*
X358605136Y-18314987D01*
X358605136Y-18314987D02*
X358509898Y-18410225D01*
X358509898Y-18410225D02*
X358414660Y-18457844D01*
X358414660Y-18457844D02*
X358224184Y-18505463D01*
X358224184Y-18505463D02*
X358081327Y-18505463D01*
X358081327Y-18505463D02*
X357890851Y-18457844D01*
X357890851Y-18457844D02*
X357795613Y-18410225D01*
X357795613Y-18410225D02*
X357700375Y-18314987D01*
X357700375Y-18314987D02*
X357652755Y-18172130D01*
X357652755Y-18172130D02*
X357652755Y-18076892D01*
X357652755Y-18076892D02*
X357700375Y-17934035D01*
X357700375Y-17934035D02*
X357747994Y-17886416D01*
X357652755Y-16981654D02*
X357652755Y-17457844D01*
X357652755Y-17457844D02*
X358128946Y-17505463D01*
X358128946Y-17505463D02*
X358081327Y-17457844D01*
X358081327Y-17457844D02*
X358033708Y-17362606D01*
X358033708Y-17362606D02*
X358033708Y-17124511D01*
X358033708Y-17124511D02*
X358081327Y-17029273D01*
X358081327Y-17029273D02*
X358128946Y-16981654D01*
X358128946Y-16981654D02*
X358224184Y-16934035D01*
X358224184Y-16934035D02*
X358462279Y-16934035D01*
X358462279Y-16934035D02*
X358557517Y-16981654D01*
X358557517Y-16981654D02*
X358605136Y-17029273D01*
X358605136Y-17029273D02*
X358652755Y-17124511D01*
X358652755Y-17124511D02*
X358652755Y-17362606D01*
X358652755Y-17362606D02*
X358605136Y-17457844D01*
X358605136Y-17457844D02*
X358557517Y-17505463D01*
%TO.C,C6*%
X379802563Y-14487372D02*
X379754944Y-14534991D01*
X379754944Y-14534991D02*
X379612087Y-14582610D01*
X379612087Y-14582610D02*
X379516849Y-14582610D01*
X379516849Y-14582610D02*
X379373992Y-14534991D01*
X379373992Y-14534991D02*
X379278754Y-14439753D01*
X379278754Y-14439753D02*
X379231135Y-14344515D01*
X379231135Y-14344515D02*
X379183516Y-14154039D01*
X379183516Y-14154039D02*
X379183516Y-14011182D01*
X379183516Y-14011182D02*
X379231135Y-13820706D01*
X379231135Y-13820706D02*
X379278754Y-13725468D01*
X379278754Y-13725468D02*
X379373992Y-13630230D01*
X379373992Y-13630230D02*
X379516849Y-13582610D01*
X379516849Y-13582610D02*
X379612087Y-13582610D01*
X379612087Y-13582610D02*
X379754944Y-13630230D01*
X379754944Y-13630230D02*
X379802563Y-13677849D01*
X380659706Y-13582610D02*
X380469230Y-13582610D01*
X380469230Y-13582610D02*
X380373992Y-13630230D01*
X380373992Y-13630230D02*
X380326373Y-13677849D01*
X380326373Y-13677849D02*
X380231135Y-13820706D01*
X380231135Y-13820706D02*
X380183516Y-14011182D01*
X380183516Y-14011182D02*
X380183516Y-14392134D01*
X380183516Y-14392134D02*
X380231135Y-14487372D01*
X380231135Y-14487372D02*
X380278754Y-14534991D01*
X380278754Y-14534991D02*
X380373992Y-14582610D01*
X380373992Y-14582610D02*
X380564468Y-14582610D01*
X380564468Y-14582610D02*
X380659706Y-14534991D01*
X380659706Y-14534991D02*
X380707325Y-14487372D01*
X380707325Y-14487372D02*
X380754944Y-14392134D01*
X380754944Y-14392134D02*
X380754944Y-14154039D01*
X380754944Y-14154039D02*
X380707325Y-14058801D01*
X380707325Y-14058801D02*
X380659706Y-14011182D01*
X380659706Y-14011182D02*
X380564468Y-13963563D01*
X380564468Y-13963563D02*
X380373992Y-13963563D01*
X380373992Y-13963563D02*
X380278754Y-14011182D01*
X380278754Y-14011182D02*
X380231135Y-14058801D01*
X380231135Y-14058801D02*
X380183516Y-14154039D01*
%TO.C,C7*%
X378326517Y-22322916D02*
X378374136Y-22370535D01*
X378374136Y-22370535D02*
X378421755Y-22513392D01*
X378421755Y-22513392D02*
X378421755Y-22608630D01*
X378421755Y-22608630D02*
X378374136Y-22751487D01*
X378374136Y-22751487D02*
X378278898Y-22846725D01*
X378278898Y-22846725D02*
X378183660Y-22894344D01*
X378183660Y-22894344D02*
X377993184Y-22941963D01*
X377993184Y-22941963D02*
X377850327Y-22941963D01*
X377850327Y-22941963D02*
X377659851Y-22894344D01*
X377659851Y-22894344D02*
X377564613Y-22846725D01*
X377564613Y-22846725D02*
X377469375Y-22751487D01*
X377469375Y-22751487D02*
X377421755Y-22608630D01*
X377421755Y-22608630D02*
X377421755Y-22513392D01*
X377421755Y-22513392D02*
X377469375Y-22370535D01*
X377469375Y-22370535D02*
X377516994Y-22322916D01*
X377421755Y-21989582D02*
X377421755Y-21322916D01*
X377421755Y-21322916D02*
X378421755Y-21751487D01*
%TO.C,J1*%
X392036646Y-7733360D02*
X392036646Y-8447646D01*
X392036646Y-8447646D02*
X391989027Y-8590503D01*
X391989027Y-8590503D02*
X391893789Y-8685741D01*
X391893789Y-8685741D02*
X391750932Y-8733360D01*
X391750932Y-8733360D02*
X391655694Y-8733360D01*
X393036646Y-8733360D02*
X392465218Y-8733360D01*
X392750932Y-8733360D02*
X392750932Y-7733360D01*
X392750932Y-7733360D02*
X392655694Y-7876218D01*
X392655694Y-7876218D02*
X392560456Y-7971456D01*
X392560456Y-7971456D02*
X392465218Y-8019075D01*
%TO.C,R3*%
X394802563Y-12602610D02*
X394469230Y-12126420D01*
X394231135Y-12602610D02*
X394231135Y-11602610D01*
X394231135Y-11602610D02*
X394612087Y-11602610D01*
X394612087Y-11602610D02*
X394707325Y-11650230D01*
X394707325Y-11650230D02*
X394754944Y-11697849D01*
X394754944Y-11697849D02*
X394802563Y-11793087D01*
X394802563Y-11793087D02*
X394802563Y-11935944D01*
X394802563Y-11935944D02*
X394754944Y-12031182D01*
X394754944Y-12031182D02*
X394707325Y-12078801D01*
X394707325Y-12078801D02*
X394612087Y-12126420D01*
X394612087Y-12126420D02*
X394231135Y-12126420D01*
X395135897Y-11602610D02*
X395754944Y-11602610D01*
X395754944Y-11602610D02*
X395421611Y-11983563D01*
X395421611Y-11983563D02*
X395564468Y-11983563D01*
X395564468Y-11983563D02*
X395659706Y-12031182D01*
X395659706Y-12031182D02*
X395707325Y-12078801D01*
X395707325Y-12078801D02*
X395754944Y-12174039D01*
X395754944Y-12174039D02*
X395754944Y-12412134D01*
X395754944Y-12412134D02*
X395707325Y-12507372D01*
X395707325Y-12507372D02*
X395659706Y-12554991D01*
X395659706Y-12554991D02*
X395564468Y-12602610D01*
X395564468Y-12602610D02*
X395278754Y-12602610D01*
X395278754Y-12602610D02*
X395183516Y-12554991D01*
X395183516Y-12554991D02*
X395135897Y-12507372D01*
%TO.C,R4*%
X359902208Y-4753130D02*
X359568875Y-4276940D01*
X359330780Y-4753130D02*
X359330780Y-3753130D01*
X359330780Y-3753130D02*
X359711732Y-3753130D01*
X359711732Y-3753130D02*
X359806970Y-3800750D01*
X359806970Y-3800750D02*
X359854589Y-3848369D01*
X359854589Y-3848369D02*
X359902208Y-3943607D01*
X359902208Y-3943607D02*
X359902208Y-4086464D01*
X359902208Y-4086464D02*
X359854589Y-4181702D01*
X359854589Y-4181702D02*
X359806970Y-4229321D01*
X359806970Y-4229321D02*
X359711732Y-4276940D01*
X359711732Y-4276940D02*
X359330780Y-4276940D01*
X360759351Y-4086464D02*
X360759351Y-4753130D01*
X360521256Y-3705511D02*
X360283161Y-4419797D01*
X360283161Y-4419797D02*
X360902208Y-4419797D01*
%TO.C,Y1*%
X368760684Y-24341190D02*
X368760684Y-24817380D01*
X368427351Y-23817380D02*
X368760684Y-24341190D01*
X368760684Y-24341190D02*
X369094017Y-23817380D01*
X369951160Y-24817380D02*
X369379732Y-24817380D01*
X369665446Y-24817380D02*
X369665446Y-23817380D01*
X369665446Y-23817380D02*
X369570208Y-23960238D01*
X369570208Y-23960238D02*
X369474970Y-24055476D01*
X369474970Y-24055476D02*
X369379732Y-24103095D01*
%TO.C,C3*%
X364399517Y-24678416D02*
X364447136Y-24726035D01*
X364447136Y-24726035D02*
X364494755Y-24868892D01*
X364494755Y-24868892D02*
X364494755Y-24964130D01*
X364494755Y-24964130D02*
X364447136Y-25106987D01*
X364447136Y-25106987D02*
X364351898Y-25202225D01*
X364351898Y-25202225D02*
X364256660Y-25249844D01*
X364256660Y-25249844D02*
X364066184Y-25297463D01*
X364066184Y-25297463D02*
X363923327Y-25297463D01*
X363923327Y-25297463D02*
X363732851Y-25249844D01*
X363732851Y-25249844D02*
X363637613Y-25202225D01*
X363637613Y-25202225D02*
X363542375Y-25106987D01*
X363542375Y-25106987D02*
X363494755Y-24964130D01*
X363494755Y-24964130D02*
X363494755Y-24868892D01*
X363494755Y-24868892D02*
X363542375Y-24726035D01*
X363542375Y-24726035D02*
X363589994Y-24678416D01*
X363494755Y-24345082D02*
X363494755Y-23726035D01*
X363494755Y-23726035D02*
X363875708Y-24059368D01*
X363875708Y-24059368D02*
X363875708Y-23916511D01*
X363875708Y-23916511D02*
X363923327Y-23821273D01*
X363923327Y-23821273D02*
X363970946Y-23773654D01*
X363970946Y-23773654D02*
X364066184Y-23726035D01*
X364066184Y-23726035D02*
X364304279Y-23726035D01*
X364304279Y-23726035D02*
X364399517Y-23773654D01*
X364399517Y-23773654D02*
X364447136Y-23821273D01*
X364447136Y-23821273D02*
X364494755Y-23916511D01*
X364494755Y-23916511D02*
X364494755Y-24202225D01*
X364494755Y-24202225D02*
X364447136Y-24297463D01*
X364447136Y-24297463D02*
X364399517Y-24345082D01*
%TO.C,C4*%
X375464017Y-22322916D02*
X375511636Y-22370535D01*
X375511636Y-22370535D02*
X375559255Y-22513392D01*
X375559255Y-22513392D02*
X375559255Y-22608630D01*
X375559255Y-22608630D02*
X375511636Y-22751487D01*
X375511636Y-22751487D02*
X375416398Y-22846725D01*
X375416398Y-22846725D02*
X375321160Y-22894344D01*
X375321160Y-22894344D02*
X375130684Y-22941963D01*
X375130684Y-22941963D02*
X374987827Y-22941963D01*
X374987827Y-22941963D02*
X374797351Y-22894344D01*
X374797351Y-22894344D02*
X374702113Y-22846725D01*
X374702113Y-22846725D02*
X374606875Y-22751487D01*
X374606875Y-22751487D02*
X374559255Y-22608630D01*
X374559255Y-22608630D02*
X374559255Y-22513392D01*
X374559255Y-22513392D02*
X374606875Y-22370535D01*
X374606875Y-22370535D02*
X374654494Y-22322916D01*
X374892589Y-21465773D02*
X375559255Y-21465773D01*
X374511636Y-21703868D02*
X375225922Y-21941963D01*
X375225922Y-21941963D02*
X375225922Y-21322916D01*
D11*
%TO.C,LED1*%
X323675000Y-84450000D02*
X323675000Y-77150000D01*
X323675000Y-77150000D02*
X322525000Y-77150000D01*
X318175000Y-84450000D02*
X318175000Y-77150000D01*
%TO.C,LED2*%
X323675000Y-64450000D02*
X323675000Y-57150000D01*
X323675000Y-57150000D02*
X322525000Y-57150000D01*
X318175000Y-64450000D02*
X318175000Y-57150000D01*
%TO.C,LED3*%
X323675000Y-44450000D02*
X323675000Y-37150000D01*
X323675000Y-37150000D02*
X322525000Y-37150000D01*
X318175000Y-44450000D02*
X318175000Y-37150000D01*
%TD*%
%LPC*%
D12*
%TO.C,SW_Z_1*%
X53640000Y-97550000D03*
D13*
X58720000Y-97550000D03*
D12*
X63800000Y-97550000D03*
%TD*%
%TO.C,SW_Y_1*%
X134290000Y-59525000D03*
D13*
X139370000Y-59525000D03*
D12*
X144450000Y-59525000D03*
%TD*%
%TO.C,SW_YEN_1*%
X258120000Y-40550000D03*
D13*
X263200000Y-40550000D03*
D12*
X268280000Y-40550000D03*
%TD*%
%TO.C,SW_X_1*%
X72640000Y-97550000D03*
D13*
X77720000Y-97550000D03*
D12*
X82800000Y-97550000D03*
%TD*%
%TO.C,SW_W_1*%
X58290000Y-59525000D03*
D13*
X63370000Y-59525000D03*
D12*
X68450000Y-59525000D03*
%TD*%
%TO.C,SW_WE_1*%
X253140000Y-78550000D03*
D13*
X258220000Y-78550000D03*
D12*
X263300000Y-78550000D03*
%TD*%
%TO.C,SW_V_1*%
X110640000Y-97550000D03*
D13*
X115720000Y-97550000D03*
D12*
X120800000Y-97550000D03*
%TD*%
%TO.C,SW_U_1*%
X153290000Y-59525000D03*
D13*
X158370000Y-59525000D03*
D12*
X163450000Y-59525000D03*
%TD*%
%TO.C,SW_UP_1*%
X300640000Y-97550000D03*
D13*
X305720000Y-97550000D03*
D12*
X310800000Y-97550000D03*
%TD*%
%TO.C,SW_T_1*%
X115290000Y-59525000D03*
D13*
X120370000Y-59525000D03*
D12*
X125450000Y-59525000D03*
%TD*%
%TO.C,SW_TAB_1*%
X13165000Y-59525000D03*
D13*
X18245000Y-59525000D03*
D12*
X23325000Y-59525000D03*
%TD*%
%TO.C,SW_S_1*%
X63140000Y-78550000D03*
D13*
X68220000Y-78550000D03*
D12*
X73300000Y-78550000D03*
%TD*%
%TO.C,SW_SUP_1*%
X53640000Y-116650000D03*
D13*
X58720000Y-116650000D03*
D12*
X63800000Y-116650000D03*
%TD*%
%TO.C,SW_STP_1*%
X6140000Y-12050000D03*
D13*
X11220000Y-12050000D03*
D12*
X16300000Y-12050000D03*
%TD*%
%TO.C,SW_SP2_1*%
X167640000Y-116650000D03*
D13*
X172720000Y-116650000D03*
D12*
X177800000Y-116650000D03*
%TD*%
%TO.C,SW_SP1_1*%
X148640000Y-116650000D03*
D13*
X153720000Y-116650000D03*
D12*
X158800000Y-116650000D03*
%TD*%
%TO.C,SW_SMI_1*%
X215140000Y-78550000D03*
D13*
X220220000Y-78550000D03*
D12*
X225300000Y-78550000D03*
%TD*%
%TO.C,SW_SLS_1*%
X224640000Y-97550000D03*
D13*
X229720000Y-97550000D03*
D12*
X234800000Y-97550000D03*
%TD*%
%TO.C,SW_R_1*%
X96290000Y-59525000D03*
D13*
X101370000Y-59525000D03*
D12*
X106450000Y-59525000D03*
%TD*%
%TO.C,SW_RSH_ALIAS_1*%
X291760000Y-97475000D03*
D13*
X286680000Y-97475000D03*
D12*
X281600000Y-97475000D03*
%TD*%
%TO.C,SW_RSH_1*%
X272140000Y-97550000D03*
D13*
X277220000Y-97550000D03*
D12*
X282300000Y-97550000D03*
%TD*%
%TO.C,SW_RLU_1*%
X262740000Y-12050000D03*
D13*
X267820000Y-12050000D03*
D12*
X272900000Y-12050000D03*
%TD*%
%TO.C,SW_RLD_1*%
X281740000Y-12050000D03*
D13*
X286820000Y-12050000D03*
D12*
X291900000Y-12050000D03*
%TD*%
%TO.C,SW_RIGHT_1*%
X281640000Y-116550000D03*
D13*
X286720000Y-116550000D03*
D12*
X291800000Y-116550000D03*
%TD*%
%TO.C,SW_Q_1*%
X39290000Y-59525000D03*
D13*
X44370000Y-59525000D03*
D12*
X49450000Y-59525000D03*
%TD*%
%TO.C,SW_P_1*%
X210290000Y-59525000D03*
D13*
X215370000Y-59525000D03*
D12*
X220450000Y-59525000D03*
%TD*%
%TO.C,SW_O_1*%
X191290000Y-59525000D03*
D13*
X196370000Y-59525000D03*
D12*
X201450000Y-59525000D03*
%TD*%
%TO.C,SW_N_1*%
X148640000Y-97550000D03*
D13*
X153720000Y-97550000D03*
D12*
X158800000Y-97550000D03*
%TD*%
%TO.C,SW_M_1*%
X167640000Y-97550000D03*
D13*
X172720000Y-97550000D03*
D12*
X177800000Y-97550000D03*
%TD*%
%TO.C,SW_MN_1*%
X220120000Y-40550000D03*
D13*
X225200000Y-40550000D03*
D12*
X230280000Y-40550000D03*
%TD*%
%TO.C,SW_L_1*%
X196140000Y-78550000D03*
D13*
X201220000Y-78550000D03*
D12*
X206300000Y-78550000D03*
%TD*%
%TO.C,SW_LT_1*%
X186640000Y-97550000D03*
D13*
X191720000Y-97550000D03*
D12*
X196800000Y-97550000D03*
%TD*%
%TO.C,SW_LS2_1*%
X34640000Y-97550000D03*
D13*
X39720000Y-97550000D03*
D12*
X44800000Y-97550000D03*
%TD*%
%TO.C,SW_LS1_1*%
X6140000Y-97550000D03*
D13*
X11220000Y-97550000D03*
D12*
X16300000Y-97550000D03*
%TD*%
%TO.C,SW_LEFT_1*%
X262640000Y-116550000D03*
D13*
X267720000Y-116550000D03*
D12*
X272800000Y-116550000D03*
%TD*%
%TO.C,SW_K_1*%
X177140000Y-78550000D03*
D13*
X182220000Y-78550000D03*
D12*
X187300000Y-78550000D03*
%TD*%
%TO.C,SW_KPPLUS_1*%
X390120000Y-78550000D03*
D13*
X395200000Y-78550000D03*
D12*
X400280000Y-78550000D03*
%TD*%
%TO.C,SW_KPPER_1*%
X371120000Y-116550000D03*
D13*
X376200000Y-116550000D03*
D12*
X381280000Y-116550000D03*
%TD*%
%TO.C,SW_KPMULT_1*%
X390120000Y-59550000D03*
D13*
X395200000Y-59550000D03*
D12*
X400280000Y-59550000D03*
%TD*%
%TO.C,SW_KPMIN_1*%
X371120000Y-40550000D03*
D13*
X376200000Y-40550000D03*
D12*
X381280000Y-40550000D03*
%TD*%
%TO.C,SW_KPHOME_1*%
X333120000Y-40550000D03*
D13*
X338200000Y-40550000D03*
D12*
X343280000Y-40550000D03*
%TD*%
%TO.C,SW_KPHELP1*%
X352120000Y-40550000D03*
D13*
X357200000Y-40550000D03*
D12*
X362280000Y-40550000D03*
%TD*%
%TO.C,SW_KPEQ_1*%
X390120000Y-97550000D03*
D13*
X395200000Y-97550000D03*
D12*
X400280000Y-97550000D03*
%TD*%
%TO.C,SW_KPENT_1*%
X390120000Y-116550000D03*
D13*
X395200000Y-116550000D03*
D12*
X400280000Y-116550000D03*
%TD*%
%TO.C,SW_KPDIV_1*%
X390120000Y-40550000D03*
D13*
X395200000Y-40550000D03*
D12*
X400280000Y-40550000D03*
%TD*%
%TO.C,SW_KPCOM_1*%
X352120000Y-116550000D03*
D13*
X357200000Y-116550000D03*
D12*
X362280000Y-116550000D03*
%TD*%
%TO.C,SW_KP9_1*%
X371120000Y-59550000D03*
D13*
X376200000Y-59550000D03*
D12*
X381280000Y-59550000D03*
%TD*%
%TO.C,SW_KP8_1*%
X352120000Y-59550000D03*
D13*
X357200000Y-59550000D03*
D12*
X362280000Y-59550000D03*
%TD*%
%TO.C,SW_KP7_1*%
X333120000Y-59550000D03*
D13*
X338200000Y-59550000D03*
D12*
X343280000Y-59550000D03*
%TD*%
%TO.C,SW_KP6_1*%
X371120000Y-78550000D03*
D13*
X376200000Y-78550000D03*
D12*
X381280000Y-78550000D03*
%TD*%
%TO.C,SW_KP5_1*%
X352120000Y-78550000D03*
D13*
X357200000Y-78550000D03*
D12*
X362280000Y-78550000D03*
%TD*%
%TO.C,SW_KP4_1*%
X333120000Y-78550000D03*
D13*
X338200000Y-78550000D03*
D12*
X343280000Y-78550000D03*
%TD*%
%TO.C,SW_KP3_1*%
X371120000Y-97550000D03*
D13*
X376200000Y-97550000D03*
D12*
X381280000Y-97550000D03*
%TD*%
%TO.C,SW_KP2_1*%
X352120000Y-97550000D03*
D13*
X357200000Y-97550000D03*
D12*
X362280000Y-97550000D03*
%TD*%
%TO.C,SW_KP1_1*%
X333120000Y-97550000D03*
D13*
X338200000Y-97550000D03*
D12*
X343280000Y-97550000D03*
%TD*%
%TO.C,SW_KP0_1*%
X333120000Y-116550000D03*
D13*
X338200000Y-116550000D03*
D12*
X343280000Y-116550000D03*
%TD*%
%TO.C,SW_J_1*%
X158140000Y-78550000D03*
D13*
X163220000Y-78550000D03*
D12*
X168300000Y-78550000D03*
%TD*%
%TO.C,SW_I_1*%
X172290000Y-59525000D03*
D13*
X177370000Y-59525000D03*
D12*
X182450000Y-59525000D03*
%TD*%
%TO.C,SW_H_1*%
X139140000Y-78550000D03*
D13*
X144220000Y-78550000D03*
D12*
X149300000Y-78550000D03*
%TD*%
%TO.C,SW_G_1*%
X120140000Y-78550000D03*
D13*
X125220000Y-78550000D03*
D12*
X130300000Y-78550000D03*
%TD*%
%TO.C,SW_GT_1*%
X205640000Y-97550000D03*
D13*
X210720000Y-97550000D03*
D12*
X215800000Y-97550000D03*
%TD*%
%TO.C,SW_F_1*%
X101140000Y-78550000D03*
D13*
X106220000Y-78550000D03*
D12*
X111300000Y-78550000D03*
%TD*%
%TO.C,SW_FC_1*%
X248290000Y-59525000D03*
D13*
X253370000Y-59525000D03*
D12*
X258450000Y-59525000D03*
%TD*%
%TO.C,SW_F5_1*%
X219940000Y-12050000D03*
D13*
X225020000Y-12050000D03*
D12*
X230100000Y-12050000D03*
%TD*%
%TO.C,SW_F4_1*%
X181940000Y-12050000D03*
D13*
X187020000Y-12050000D03*
D12*
X192100000Y-12050000D03*
%TD*%
%TO.C,SW_F3_1*%
X143940000Y-12050000D03*
D13*
X149020000Y-12050000D03*
D12*
X154100000Y-12050000D03*
%TD*%
%TO.C,SW_F2_1*%
X105940000Y-12050000D03*
D13*
X111020000Y-12050000D03*
D12*
X116100000Y-12050000D03*
%TD*%
%TO.C,SW_F1_1*%
X67940000Y-12050000D03*
D13*
X73020000Y-12050000D03*
D12*
X78100000Y-12050000D03*
%TD*%
%TO.C,SW_E_1*%
X77290000Y-59525000D03*
D13*
X82370000Y-59525000D03*
D12*
X87450000Y-59525000D03*
%TD*%
%TO.C,SW_ET_1*%
X274415000Y-59525000D03*
D13*
X279495000Y-59525000D03*
D12*
X284575000Y-59525000D03*
%TD*%
%TO.C,SW_ESC_1*%
X8420000Y-40550000D03*
D13*
X13500000Y-40550000D03*
D12*
X18580000Y-40550000D03*
%TD*%
%TO.C,SW_ED_1*%
X276890000Y-78550000D03*
D13*
X281970000Y-78550000D03*
D12*
X287050000Y-78550000D03*
%TD*%
%TO.C,SW_D_1*%
X82140000Y-78550000D03*
D13*
X87220000Y-78550000D03*
D12*
X92300000Y-78550000D03*
%TD*%
%TO.C,SW_DOWN_1*%
X300640000Y-116550000D03*
D13*
X305720000Y-116550000D03*
D12*
X310800000Y-116550000D03*
%TD*%
%TO.C,SW_DEL_1*%
X279495000Y-40550000D03*
D13*
X284575000Y-40550000D03*
D12*
X289655000Y-40550000D03*
%TD*%
%TO.C,SW_C_1*%
X91640000Y-97550000D03*
D13*
X96720000Y-97550000D03*
D12*
X101800000Y-97550000D03*
%TD*%
%TO.C,SW_CTRL_1*%
X6140000Y-78550000D03*
D13*
X11220000Y-78550000D03*
D12*
X16300000Y-78550000D03*
%TD*%
%TO.C,SW_CPY_1*%
X25140000Y-12050000D03*
D13*
X30220000Y-12050000D03*
D12*
X35300000Y-12050000D03*
%TD*%
%TO.C,SW_COL_1*%
X234140000Y-78550000D03*
D13*
X239220000Y-78550000D03*
D12*
X244300000Y-78550000D03*
%TD*%
%TO.C,SW_CAR_1*%
X239120000Y-40550000D03*
D13*
X244200000Y-40550000D03*
D12*
X249280000Y-40550000D03*
%TD*%
%TO.C,SW_CAPS_1*%
X25140000Y-78550000D03*
D13*
X30220000Y-78550000D03*
D12*
X35300000Y-78550000D03*
%TD*%
%TO.C,SW_B_1*%
X129640000Y-97550000D03*
D13*
X134720000Y-97550000D03*
D12*
X139800000Y-97550000D03*
%TD*%
%TO.C,SW_A_1*%
X44140000Y-78550000D03*
D13*
X49220000Y-78550000D03*
D12*
X54300000Y-78550000D03*
%TD*%
%TO.C,SW_AT_1*%
X229290000Y-59525000D03*
D13*
X234370000Y-59525000D03*
D12*
X239450000Y-59525000D03*
%TD*%
%TO.C,SW_AMG_1*%
X243640000Y-97550000D03*
D13*
X248720000Y-97550000D03*
D12*
X253800000Y-97550000D03*
%TD*%
%TO.C,SW_ALT_1*%
X72640000Y-116650000D03*
D13*
X77720000Y-116650000D03*
D12*
X82800000Y-116650000D03*
%TD*%
%TO.C,SW_9_1*%
X182120000Y-40550000D03*
D13*
X187200000Y-40550000D03*
D12*
X192280000Y-40550000D03*
%TD*%
%TO.C,SW_8_1*%
X163120000Y-40550000D03*
D13*
X168200000Y-40550000D03*
D12*
X173280000Y-40550000D03*
%TD*%
%TO.C,SW_7_1*%
X144120000Y-40550000D03*
D13*
X149200000Y-40550000D03*
D12*
X154280000Y-40550000D03*
%TD*%
%TO.C,SW_6_1*%
X125120000Y-40550000D03*
D13*
X130200000Y-40550000D03*
D12*
X135280000Y-40550000D03*
%TD*%
%TO.C,SW_5_1*%
X106120000Y-40550000D03*
D13*
X111200000Y-40550000D03*
D12*
X116280000Y-40550000D03*
%TD*%
%TO.C,SW_4_1*%
X87120000Y-40550000D03*
D13*
X92200000Y-40550000D03*
D12*
X97280000Y-40550000D03*
%TD*%
%TO.C,SW_3_1*%
X68120000Y-40550000D03*
D13*
X73200000Y-40550000D03*
D12*
X78280000Y-40550000D03*
%TD*%
%TO.C,SW_2_1*%
X49120000Y-40550000D03*
D13*
X54200000Y-40550000D03*
D12*
X59280000Y-40550000D03*
%TD*%
%TO.C,SW_1_1*%
X30120000Y-40550000D03*
D13*
X35200000Y-40550000D03*
D12*
X40280000Y-40550000D03*
%TD*%
%TO.C,SW_0_1*%
X201120000Y-40550000D03*
D13*
X206200000Y-40550000D03*
D12*
X211280000Y-40550000D03*
%TD*%
D14*
%TO.C,LED1*%
X320924999Y-80164999D03*
D15*
X319324999Y-83249999D03*
D14*
X320924999Y-82704999D03*
D15*
X322524999Y-83249999D03*
D16*
X320924999Y-81434999D03*
D15*
X322524999Y-78349999D03*
D14*
X320924999Y-78894999D03*
D15*
X319324999Y-78349999D03*
%TD*%
D14*
%TO.C,LED2*%
X320924999Y-60164999D03*
D15*
X319324999Y-63249999D03*
D14*
X320924999Y-62704999D03*
D15*
X322524999Y-63249999D03*
D16*
X320924999Y-61434999D03*
D15*
X322524999Y-58349999D03*
D14*
X320924999Y-58894999D03*
D15*
X319324999Y-58349999D03*
%TD*%
D14*
%TO.C,LED3*%
X320924999Y-40164999D03*
D15*
X319324999Y-43249999D03*
D14*
X320924999Y-42704999D03*
D15*
X322524999Y-43249999D03*
D16*
X320924999Y-41434999D03*
D15*
X322524999Y-38349999D03*
D14*
X320924999Y-38894999D03*
D15*
X319324999Y-38349999D03*
%TD*%
D17*
%TO.C,H2*%
X308475000Y-67125000D03*
%TD*%
D18*
X401934500Y-128030000D02*
G75*
G03*
X404982500Y-124982000I0J3048000D01*
G01*
X3034500Y-32000D02*
G75*
G03*
X-13500Y-3080000I2J-3048002D01*
G01*
X-13500Y-124982000D02*
G75*
G03*
X3034500Y-128030000I3048000J0D01*
G01*
D19*
X3034500Y-128030000D02*
X401934500Y-128030000D01*
X404982500Y-124982000D02*
X404982500Y-3080000D01*
X-13500Y-3080000D02*
X-13500Y-124982000D01*
X255507999Y-31999D02*
X3034500Y-32000D01*
X255507999Y-31999D02*
X401934500Y-32000D01*
X395225192Y-21600000D02*
G75*
G03*
X395225192Y-21600000I-1625192J0D01*
G01*
X149225192Y-26605000D02*
G75*
G03*
X149225192Y-26605000I-1625192J0D01*
G01*
X30725192Y-26605000D02*
G75*
G03*
X30725192Y-26605000I-1625192J0D01*
G01*
X322225192Y-96605000D02*
G75*
G03*
X322225192Y-96605000I-1625192J0D01*
G01*
X287225192Y-26605000D02*
G75*
G03*
X287225192Y-26605000I-1625192J0D01*
G01*
D18*
X404982500Y-3080000D02*
G75*
G03*
X401934500Y-32000I-3048000J0D01*
G01*
D19*
X35225192Y-116605000D02*
G75*
G03*
X35225192Y-116605000I-1625192J0D01*
G01*
M02*
