%TF.GenerationSoftware,KiCad,Pcbnew,(6.99.0-4502-gf1556ed801-dirty)*%
%TF.CreationDate,2022-12-15T21:42:20-05:00*%
%TF.ProjectId,necpc8801l,6e656370-6338-4383-9031-6c2e6b696361,rev?*%
%TF.SameCoordinates,Original*%
%TF.FileFunction,Soldermask,Bot*%
%TF.FilePolarity,Negative*%
%FSLAX46Y46*%
G04 Gerber Fmt 4.6, Leading zero omitted, Abs format (unit mm)*
G04 Created by KiCad (PCBNEW (6.99.0-4502-gf1556ed801-dirty)) date 2022-12-15 21:42:20*
%MOMM*%
%LPD*%
G01*
G04 APERTURE LIST*
G04 Aperture macros list*
%AMRoundRect*
0 Rectangle with rounded corners*
0 $1 Rounding radius*
0 $2 $3 $4 $5 $6 $7 $8 $9 X,Y pos of 4 corners*
0 Add a 4 corners polygon primitive as box body*
4,1,4,$2,$3,$4,$5,$6,$7,$8,$9,$2,$3,0*
0 Add four circle primitives for the rounded corners*
1,1,$1+$1,$2,$3*
1,1,$1+$1,$4,$5*
1,1,$1+$1,$6,$7*
1,1,$1+$1,$8,$9*
0 Add four rect primitives between the rounded corners*
20,1,$1+$1,$2,$3,$4,$5,0*
20,1,$1+$1,$4,$5,$6,$7,0*
20,1,$1+$1,$6,$7,$8,$9,0*
20,1,$1+$1,$8,$9,$2,$3,0*%
G04 Aperture macros list end*
%ADD10O,1.800000X1.070000*%
%ADD11R,1.800000X1.070000*%
%ADD12C,5.400000*%
%ADD13C,1.750000*%
%ADD14C,3.987800*%
%ADD15C,3.000000*%
%ADD16C,2.250000*%
%ADD17R,1.200000X0.900000*%
%ADD18RoundRect,0.250000X-0.475000X0.250000X-0.475000X-0.250000X0.475000X-0.250000X0.475000X0.250000X0*%
%ADD19RoundRect,0.250000X0.262500X0.450000X-0.262500X0.450000X-0.262500X-0.450000X0.262500X-0.450000X0*%
%ADD20R,1.800000X1.100000*%
%ADD21RoundRect,0.250000X0.250000X0.475000X-0.250000X0.475000X-0.250000X-0.475000X0.250000X-0.475000X0*%
%ADD22RoundRect,0.250000X-0.250000X-0.475000X0.250000X-0.475000X0.250000X0.475000X-0.250000X0.475000X0*%
%ADD23RoundRect,0.250000X0.475000X-0.250000X0.475000X0.250000X-0.475000X0.250000X-0.475000X-0.250000X0*%
%ADD24RoundRect,0.150000X-0.150000X-0.625000X0.150000X-0.625000X0.150000X0.625000X-0.150000X0.625000X0*%
%ADD25RoundRect,0.250000X-0.350000X-0.650000X0.350000X-0.650000X0.350000X0.650000X-0.350000X0.650000X0*%
%ADD26R,1.500000X0.550000*%
%ADD27RoundRect,0.062500X0.475000X0.062500X-0.475000X0.062500X-0.475000X-0.062500X0.475000X-0.062500X0*%
%ADD28R,0.550000X1.500000*%
%ADD29RoundRect,0.062500X0.062500X0.475000X-0.062500X0.475000X-0.062500X-0.475000X0.062500X-0.475000X0*%
%ADD30R,5.200000X5.200000*%
%ADD31R,1.400000X1.200000*%
%ADD32RoundRect,0.250000X-0.262500X-0.450000X0.262500X-0.450000X0.262500X0.450000X-0.262500X0.450000X0*%
%ADD33R,2.200000X2.200000*%
%ADD34C,0.150000*%
%TA.AperFunction,Profile*%
%ADD35C,0.150000*%
%TD*%
%TA.AperFunction,Profile*%
%ADD36C,0.050000*%
%TD*%
G04 APERTURE END LIST*
D10*
%TO.C,LED1*%
X320924999Y-80164999D03*
X320924999Y-82704999D03*
D11*
X320924999Y-81434999D03*
D10*
X320924999Y-78894999D03*
%TD*%
%TO.C,LED2*%
X320924999Y-60164999D03*
X320924999Y-62704999D03*
D11*
X320924999Y-61434999D03*
D10*
X320924999Y-58894999D03*
%TD*%
%TO.C,LED3*%
X320924999Y-40164999D03*
X320924999Y-42704999D03*
D11*
X320924999Y-41434999D03*
D10*
X320924999Y-38894999D03*
%TD*%
D12*
%TO.C,H2*%
X308475000Y-67125000D03*
%TD*%
D13*
%TO.C,SW_STP_1*%
X6140000Y-12050000D03*
D14*
X11220000Y-12050000D03*
D13*
X16300000Y-12050000D03*
D15*
X6270000Y-8000000D03*
D16*
X7410000Y-9510000D03*
X13760000Y-6970000D03*
D15*
X14270000Y-7000000D03*
%TD*%
D13*
%TO.C,SW_KPMULT_1*%
X390120000Y-59550000D03*
D14*
X395200000Y-59550000D03*
D13*
X400280000Y-59550000D03*
D15*
X390250000Y-55500000D03*
D16*
X391390000Y-57010000D03*
X397740000Y-54470000D03*
D15*
X398250000Y-54500000D03*
%TD*%
D13*
%TO.C,SW_RLD_1*%
X281740000Y-12050000D03*
D14*
X286820000Y-12050000D03*
D13*
X291900000Y-12050000D03*
D15*
X281870000Y-8000000D03*
D16*
X283010000Y-9510000D03*
X289360000Y-6970000D03*
D15*
X289870000Y-7000000D03*
%TD*%
D13*
%TO.C,SW_LS2_1*%
X34640000Y-97550000D03*
D14*
X39720000Y-97550000D03*
D13*
X44800000Y-97550000D03*
D15*
X34770000Y-93500000D03*
D16*
X35910000Y-95010000D03*
X42260000Y-92470000D03*
D15*
X42770000Y-92500000D03*
%TD*%
D13*
%TO.C,SW_F3_1*%
X143940000Y-12050000D03*
D14*
X149020000Y-12050000D03*
D13*
X154100000Y-12050000D03*
D15*
X144070000Y-8000000D03*
D16*
X145210000Y-9510000D03*
X151560000Y-6970000D03*
D15*
X152070000Y-7000000D03*
%TD*%
D13*
%TO.C,SW_KP2_1*%
X352120000Y-97550000D03*
D14*
X357200000Y-97550000D03*
D13*
X362280000Y-97550000D03*
D15*
X352250000Y-93500000D03*
D16*
X353390000Y-95010000D03*
X359740000Y-92470000D03*
D15*
X360250000Y-92500000D03*
%TD*%
D13*
%TO.C,SW_WE_1*%
X253140000Y-78550000D03*
D14*
X258220000Y-78550000D03*
D13*
X263300000Y-78550000D03*
D15*
X253270000Y-74500000D03*
D16*
X254410000Y-76010000D03*
X260760000Y-73470000D03*
D15*
X261270000Y-73500000D03*
%TD*%
D13*
%TO.C,SW_F5_1*%
X219940000Y-12050000D03*
D14*
X225020000Y-12050000D03*
D13*
X230100000Y-12050000D03*
D15*
X220070000Y-8000000D03*
D16*
X221210000Y-9510000D03*
X227560000Y-6970000D03*
D15*
X228070000Y-7000000D03*
%TD*%
D13*
%TO.C,SW_LT_1*%
X186640000Y-97550000D03*
D14*
X191720000Y-97550000D03*
D13*
X196800000Y-97550000D03*
D15*
X186770000Y-93500000D03*
D16*
X187910000Y-95010000D03*
X194260000Y-92470000D03*
D15*
X194770000Y-92500000D03*
%TD*%
D13*
%TO.C,SW_KP4_1*%
X333120000Y-78550000D03*
D14*
X338200000Y-78550000D03*
D13*
X343280000Y-78550000D03*
D15*
X333250000Y-74500000D03*
D16*
X334390000Y-76010000D03*
X340740000Y-73470000D03*
D15*
X341250000Y-73500000D03*
%TD*%
D13*
%TO.C,SW_CAR_1*%
X239120000Y-40550000D03*
D14*
X244200000Y-40550000D03*
D13*
X249280000Y-40550000D03*
D15*
X239250000Y-36500000D03*
D16*
X240390000Y-38010000D03*
X246740000Y-35470000D03*
D15*
X247250000Y-35500000D03*
%TD*%
D13*
%TO.C,SW_SUP_1*%
X53640000Y-116650000D03*
D14*
X58720000Y-116650000D03*
D13*
X63800000Y-116650000D03*
D15*
X53770000Y-112600000D03*
D16*
X54910000Y-114110000D03*
X61260000Y-111570000D03*
D15*
X61770000Y-111600000D03*
%TD*%
D13*
%TO.C,SW_RLU_1*%
X262740000Y-12050000D03*
D14*
X267820000Y-12050000D03*
D13*
X272900000Y-12050000D03*
D15*
X262870000Y-8000000D03*
D16*
X264010000Y-9510000D03*
X270360000Y-6970000D03*
D15*
X270870000Y-7000000D03*
%TD*%
D13*
%TO.C,SW_DEL_1*%
X279495000Y-40550000D03*
D14*
X284575000Y-40550000D03*
D13*
X289655000Y-40550000D03*
D15*
X279625000Y-36500000D03*
D16*
X280765000Y-38010000D03*
X287115000Y-35470000D03*
D15*
X287625000Y-35500000D03*
%TD*%
D13*
%TO.C,SW_J_1*%
X158140000Y-78550000D03*
D14*
X163220000Y-78550000D03*
D13*
X168300000Y-78550000D03*
D15*
X158270000Y-74500000D03*
D16*
X159410000Y-76010000D03*
X165760000Y-73470000D03*
D15*
X166270000Y-73500000D03*
%TD*%
D13*
%TO.C,SW_KPEQ_1*%
X390120000Y-97550000D03*
D14*
X395200000Y-97550000D03*
D13*
X400280000Y-97550000D03*
D15*
X390250000Y-93500000D03*
D16*
X391390000Y-95010000D03*
X397740000Y-92470000D03*
D15*
X398250000Y-92500000D03*
%TD*%
D13*
%TO.C,SW_KP3_1*%
X371120000Y-97550000D03*
D14*
X376200000Y-97550000D03*
D13*
X381280000Y-97550000D03*
D15*
X371250000Y-93500000D03*
D16*
X372390000Y-95010000D03*
X378740000Y-92470000D03*
D15*
X379250000Y-92500000D03*
%TD*%
D13*
%TO.C,SW_K_1*%
X177140000Y-78550000D03*
D14*
X182220000Y-78550000D03*
D13*
X187300000Y-78550000D03*
D15*
X177270000Y-74500000D03*
D16*
X178410000Y-76010000D03*
X184760000Y-73470000D03*
D15*
X185270000Y-73500000D03*
%TD*%
D13*
%TO.C,SW_SP2_1*%
X167640000Y-116650000D03*
D14*
X172720000Y-116650000D03*
D13*
X177800000Y-116650000D03*
D15*
X167770000Y-112600000D03*
D16*
X168910000Y-114110000D03*
X175260000Y-111570000D03*
D15*
X175770000Y-111600000D03*
%TD*%
D13*
%TO.C,SW_F1_1*%
X67940000Y-12050000D03*
D14*
X73020000Y-12050000D03*
D13*
X78100000Y-12050000D03*
D15*
X68070000Y-8000000D03*
D16*
X69210000Y-9510000D03*
X75560000Y-6970000D03*
D15*
X76070000Y-7000000D03*
%TD*%
D13*
%TO.C,SW_CPY_1*%
X25140000Y-12050000D03*
D14*
X30220000Y-12050000D03*
D13*
X35300000Y-12050000D03*
D15*
X25270000Y-8000000D03*
D16*
X26410000Y-9510000D03*
X32760000Y-6970000D03*
D15*
X33270000Y-7000000D03*
%TD*%
D13*
%TO.C,SW_SP1_1*%
X148640000Y-116650000D03*
D14*
X153720000Y-116650000D03*
D13*
X158800000Y-116650000D03*
D15*
X148770000Y-112600000D03*
D16*
X149910000Y-114110000D03*
X156260000Y-111570000D03*
D15*
X156770000Y-111600000D03*
%TD*%
D13*
%TO.C,SW_D_1*%
X82140000Y-78550000D03*
D14*
X87220000Y-78550000D03*
D13*
X92300000Y-78550000D03*
D15*
X82270000Y-74500000D03*
D16*
X83410000Y-76010000D03*
X89760000Y-73470000D03*
D15*
X90270000Y-73500000D03*
%TD*%
D13*
%TO.C,SW_RSH_ALIAS_1*%
X291760000Y-97475000D03*
D14*
X286680000Y-97475000D03*
D13*
X281600000Y-97475000D03*
D15*
X291630000Y-101525000D03*
D16*
X290490000Y-100015000D03*
X284140000Y-102555000D03*
D15*
X283630000Y-102525000D03*
%TD*%
D13*
%TO.C,SW_A_1*%
X44140000Y-78550000D03*
D14*
X49220000Y-78550000D03*
D13*
X54300000Y-78550000D03*
D15*
X44270000Y-74500000D03*
D16*
X45410000Y-76010000D03*
X51760000Y-73470000D03*
D15*
X52270000Y-73500000D03*
%TD*%
D13*
%TO.C,SW_KPPER_1*%
X371120000Y-116550000D03*
D14*
X376200000Y-116550000D03*
D13*
X381280000Y-116550000D03*
D15*
X371250000Y-112500000D03*
D16*
X372390000Y-114010000D03*
X378740000Y-111470000D03*
D15*
X379250000Y-111500000D03*
%TD*%
D13*
%TO.C,SW_6_1*%
X125120000Y-40550000D03*
D14*
X130200000Y-40550000D03*
D13*
X135280000Y-40550000D03*
D15*
X125250000Y-36500000D03*
D16*
X126390000Y-38010000D03*
X132740000Y-35470000D03*
D15*
X133250000Y-35500000D03*
%TD*%
D13*
%TO.C,SW_KP6_1*%
X371120000Y-78550000D03*
D14*
X376200000Y-78550000D03*
D13*
X381280000Y-78550000D03*
D15*
X371250000Y-74500000D03*
D16*
X372390000Y-76010000D03*
X378740000Y-73470000D03*
D15*
X379250000Y-73500000D03*
%TD*%
D13*
%TO.C,SW_9_1*%
X182120000Y-40550000D03*
D14*
X187200000Y-40550000D03*
D13*
X192280000Y-40550000D03*
D15*
X182250000Y-36500000D03*
D16*
X183390000Y-38010000D03*
X189740000Y-35470000D03*
D15*
X190250000Y-35500000D03*
%TD*%
D13*
%TO.C,SW_CTRL_1*%
X6140000Y-78550000D03*
D14*
X11220000Y-78550000D03*
D13*
X16300000Y-78550000D03*
D15*
X6270000Y-74500000D03*
D16*
X7410000Y-76010000D03*
X13760000Y-73470000D03*
D15*
X14270000Y-73500000D03*
%TD*%
D13*
%TO.C,SW_KP7_1*%
X333120000Y-59550000D03*
D14*
X338200000Y-59550000D03*
D13*
X343280000Y-59550000D03*
D15*
X333250000Y-55500000D03*
D16*
X334390000Y-57010000D03*
X340740000Y-54470000D03*
D15*
X341250000Y-54500000D03*
%TD*%
D13*
%TO.C,SW_F4_1*%
X181940000Y-12050000D03*
D14*
X187020000Y-12050000D03*
D13*
X192100000Y-12050000D03*
D15*
X182070000Y-8000000D03*
D16*
X183210000Y-9510000D03*
X189560000Y-6970000D03*
D15*
X190070000Y-7000000D03*
%TD*%
D13*
%TO.C,SW_S_1*%
X63140000Y-78550000D03*
D14*
X68220000Y-78550000D03*
D13*
X73300000Y-78550000D03*
D15*
X63270000Y-74500000D03*
D16*
X64410000Y-76010000D03*
X70760000Y-73470000D03*
D15*
X71270000Y-73500000D03*
%TD*%
D13*
%TO.C,SW_KPHELP1*%
X352120000Y-40550000D03*
D14*
X357200000Y-40550000D03*
D13*
X362280000Y-40550000D03*
D15*
X352250000Y-36500000D03*
D16*
X353390000Y-38010000D03*
X359740000Y-35470000D03*
D15*
X360250000Y-35500000D03*
%TD*%
D13*
%TO.C,SW_2_1*%
X49120000Y-40550000D03*
D14*
X54200000Y-40550000D03*
D13*
X59280000Y-40550000D03*
D15*
X49250000Y-36500000D03*
D16*
X50390000Y-38010000D03*
X56740000Y-35470000D03*
D15*
X57250000Y-35500000D03*
%TD*%
D13*
%TO.C,SW_W_1*%
X58290000Y-59525000D03*
D14*
X63370000Y-59525000D03*
D13*
X68450000Y-59525000D03*
D15*
X58420000Y-55475000D03*
D16*
X59560000Y-56985000D03*
X65910000Y-54445000D03*
D15*
X66420000Y-54475000D03*
%TD*%
D13*
%TO.C,SW_X_1*%
X72640000Y-97550000D03*
D14*
X77720000Y-97550000D03*
D13*
X82800000Y-97550000D03*
D15*
X72770000Y-93500000D03*
D16*
X73910000Y-95010000D03*
X80260000Y-92470000D03*
D15*
X80770000Y-92500000D03*
%TD*%
D13*
%TO.C,SW_G_1*%
X120140000Y-78550000D03*
D14*
X125220000Y-78550000D03*
D13*
X130300000Y-78550000D03*
D15*
X120270000Y-74500000D03*
D16*
X121410000Y-76010000D03*
X127760000Y-73470000D03*
D15*
X128270000Y-73500000D03*
%TD*%
D13*
%TO.C,SW_E_1*%
X77290000Y-59525000D03*
D14*
X82370000Y-59525000D03*
D13*
X87450000Y-59525000D03*
D15*
X77420000Y-55475000D03*
D16*
X78560000Y-56985000D03*
X84910000Y-54445000D03*
D15*
X85420000Y-54475000D03*
%TD*%
D13*
%TO.C,SW_5_1*%
X106120000Y-40550000D03*
D14*
X111200000Y-40550000D03*
D13*
X116280000Y-40550000D03*
D15*
X106250000Y-36500000D03*
D16*
X107390000Y-38010000D03*
X113740000Y-35470000D03*
D15*
X114250000Y-35500000D03*
%TD*%
D13*
%TO.C,SW_I_1*%
X172290000Y-59525000D03*
D14*
X177370000Y-59525000D03*
D13*
X182450000Y-59525000D03*
D15*
X172420000Y-55475000D03*
D16*
X173560000Y-56985000D03*
X179910000Y-54445000D03*
D15*
X180420000Y-54475000D03*
%TD*%
D13*
%TO.C,SW_1_1*%
X30120000Y-40550000D03*
D14*
X35200000Y-40550000D03*
D13*
X40280000Y-40550000D03*
D15*
X30250000Y-36500000D03*
D16*
X31390000Y-38010000D03*
X37740000Y-35470000D03*
D15*
X38250000Y-35500000D03*
%TD*%
D13*
%TO.C,SW_AMG_1*%
X243640000Y-97550000D03*
D14*
X248720000Y-97550000D03*
D13*
X253800000Y-97550000D03*
D15*
X243770000Y-93500000D03*
D16*
X244910000Y-95010000D03*
X251260000Y-92470000D03*
D15*
X251770000Y-92500000D03*
%TD*%
D13*
%TO.C,SW_V_1*%
X110640000Y-97550000D03*
D14*
X115720000Y-97550000D03*
D13*
X120800000Y-97550000D03*
D15*
X110770000Y-93500000D03*
D16*
X111910000Y-95010000D03*
X118260000Y-92470000D03*
D15*
X118770000Y-92500000D03*
%TD*%
D13*
%TO.C,SW_L_1*%
X196140000Y-78550000D03*
D14*
X201220000Y-78550000D03*
D13*
X206300000Y-78550000D03*
D15*
X196270000Y-74500000D03*
D16*
X197410000Y-76010000D03*
X203760000Y-73470000D03*
D15*
X204270000Y-73500000D03*
%TD*%
D13*
%TO.C,SW_YEN_1*%
X258120000Y-40550000D03*
D14*
X263200000Y-40550000D03*
D13*
X268280000Y-40550000D03*
D15*
X258250000Y-36500000D03*
D16*
X259390000Y-38010000D03*
X265740000Y-35470000D03*
D15*
X266250000Y-35500000D03*
%TD*%
D13*
%TO.C,SW_M_1*%
X167640000Y-97550000D03*
D14*
X172720000Y-97550000D03*
D13*
X177800000Y-97550000D03*
D15*
X167770000Y-93500000D03*
D16*
X168910000Y-95010000D03*
X175260000Y-92470000D03*
D15*
X175770000Y-92500000D03*
%TD*%
D13*
%TO.C,SW_F2_1*%
X105940000Y-12050000D03*
D14*
X111020000Y-12050000D03*
D13*
X116100000Y-12050000D03*
D15*
X106070000Y-8000000D03*
D16*
X107210000Y-9510000D03*
X113560000Y-6970000D03*
D15*
X114070000Y-7000000D03*
%TD*%
D13*
%TO.C,SW_KP9_1*%
X371120000Y-59550000D03*
D14*
X376200000Y-59550000D03*
D13*
X381280000Y-59550000D03*
D15*
X371250000Y-55500000D03*
D16*
X372390000Y-57010000D03*
X378740000Y-54470000D03*
D15*
X379250000Y-54500000D03*
%TD*%
D13*
%TO.C,SW_KPHOME_1*%
X333120000Y-40550000D03*
D14*
X338200000Y-40550000D03*
D13*
X343280000Y-40550000D03*
D15*
X333250000Y-36500000D03*
D16*
X334390000Y-38010000D03*
X340740000Y-35470000D03*
D15*
X341250000Y-35500000D03*
%TD*%
D13*
%TO.C,SW_CAPS_1*%
X25140000Y-78550000D03*
D14*
X30220000Y-78550000D03*
D13*
X35300000Y-78550000D03*
D15*
X25270000Y-74500000D03*
D16*
X26410000Y-76010000D03*
X32760000Y-73470000D03*
D15*
X33270000Y-73500000D03*
%TD*%
D13*
%TO.C,SW_KPDIV_1*%
X390120000Y-40550000D03*
D14*
X395200000Y-40550000D03*
D13*
X400280000Y-40550000D03*
D15*
X390250000Y-36500000D03*
D16*
X391390000Y-38010000D03*
X397740000Y-35470000D03*
D15*
X398250000Y-35500000D03*
%TD*%
D13*
%TO.C,SW_C_1*%
X91640000Y-97550000D03*
D14*
X96720000Y-97550000D03*
D13*
X101800000Y-97550000D03*
D15*
X91770000Y-93500000D03*
D16*
X92910000Y-95010000D03*
X99260000Y-92470000D03*
D15*
X99770000Y-92500000D03*
%TD*%
D13*
%TO.C,SW_Q_1*%
X39290000Y-59525000D03*
D14*
X44370000Y-59525000D03*
D13*
X49450000Y-59525000D03*
D15*
X39420000Y-55475000D03*
D16*
X40560000Y-56985000D03*
X46910000Y-54445000D03*
D15*
X47420000Y-54475000D03*
%TD*%
D13*
%TO.C,SW_MN_1*%
X220120000Y-40550000D03*
D14*
X225200000Y-40550000D03*
D13*
X230280000Y-40550000D03*
D15*
X220250000Y-36500000D03*
D16*
X221390000Y-38010000D03*
X227740000Y-35470000D03*
D15*
X228250000Y-35500000D03*
%TD*%
D13*
%TO.C,SW_DOWN_1*%
X300640000Y-116550000D03*
D14*
X305720000Y-116550000D03*
D13*
X310800000Y-116550000D03*
D15*
X300770000Y-112500000D03*
D16*
X301910000Y-114010000D03*
X308260000Y-111470000D03*
D15*
X308770000Y-111500000D03*
%TD*%
D13*
%TO.C,SW_3_1*%
X68120000Y-40550000D03*
D14*
X73200000Y-40550000D03*
D13*
X78280000Y-40550000D03*
D15*
X68250000Y-36500000D03*
D16*
X69390000Y-38010000D03*
X75740000Y-35470000D03*
D15*
X76250000Y-35500000D03*
%TD*%
D13*
%TO.C,SW_AT_1*%
X229290000Y-59525000D03*
D14*
X234370000Y-59525000D03*
D13*
X239450000Y-59525000D03*
D15*
X229420000Y-55475000D03*
D16*
X230560000Y-56985000D03*
X236910000Y-54445000D03*
D15*
X237420000Y-54475000D03*
%TD*%
D13*
%TO.C,SW_GT_1*%
X205640000Y-97550000D03*
D14*
X210720000Y-97550000D03*
D13*
X215800000Y-97550000D03*
D15*
X205770000Y-93500000D03*
D16*
X206910000Y-95010000D03*
X213260000Y-92470000D03*
D15*
X213770000Y-92500000D03*
%TD*%
D13*
%TO.C,SW_Z_1*%
X53640000Y-97550000D03*
D14*
X58720000Y-97550000D03*
D13*
X63800000Y-97550000D03*
D15*
X53770000Y-93500000D03*
D16*
X54910000Y-95010000D03*
X61260000Y-92470000D03*
D15*
X61770000Y-92500000D03*
%TD*%
D13*
%TO.C,SW_O_1*%
X191290000Y-59525000D03*
D14*
X196370000Y-59525000D03*
D13*
X201450000Y-59525000D03*
D15*
X191420000Y-55475000D03*
D16*
X192560000Y-56985000D03*
X198910000Y-54445000D03*
D15*
X199420000Y-54475000D03*
%TD*%
D13*
%TO.C,SW_H_1*%
X139140000Y-78550000D03*
D14*
X144220000Y-78550000D03*
D13*
X149300000Y-78550000D03*
D15*
X139270000Y-74500000D03*
D16*
X140410000Y-76010000D03*
X146760000Y-73470000D03*
D15*
X147270000Y-73500000D03*
%TD*%
D13*
%TO.C,SW_FC_1*%
X248290000Y-59525000D03*
D14*
X253370000Y-59525000D03*
D13*
X258450000Y-59525000D03*
D15*
X248420000Y-55475000D03*
D16*
X249560000Y-56985000D03*
X255910000Y-54445000D03*
D15*
X256420000Y-54475000D03*
%TD*%
D13*
%TO.C,SW_KPENT_1*%
X390120000Y-116550000D03*
D14*
X395200000Y-116550000D03*
D13*
X400280000Y-116550000D03*
D15*
X390250000Y-112500000D03*
D16*
X391390000Y-114010000D03*
X397740000Y-111470000D03*
D15*
X398250000Y-111500000D03*
%TD*%
D13*
%TO.C,SW_B_1*%
X129640000Y-97550000D03*
D14*
X134720000Y-97550000D03*
D13*
X139800000Y-97550000D03*
D15*
X129770000Y-93500000D03*
D16*
X130910000Y-95010000D03*
X137260000Y-92470000D03*
D15*
X137770000Y-92500000D03*
%TD*%
D13*
%TO.C,SW_R_1*%
X96290000Y-59525000D03*
D14*
X101370000Y-59525000D03*
D13*
X106450000Y-59525000D03*
D15*
X96420000Y-55475000D03*
D16*
X97560000Y-56985000D03*
X103910000Y-54445000D03*
D15*
X104420000Y-54475000D03*
%TD*%
D13*
%TO.C,SW_0_1*%
X201120000Y-40550000D03*
D14*
X206200000Y-40550000D03*
D13*
X211280000Y-40550000D03*
D15*
X201250000Y-36500000D03*
D16*
X202390000Y-38010000D03*
X208740000Y-35470000D03*
D15*
X209250000Y-35500000D03*
%TD*%
D13*
%TO.C,SW_8_1*%
X163120000Y-40550000D03*
D14*
X168200000Y-40550000D03*
D13*
X173280000Y-40550000D03*
D15*
X163250000Y-36500000D03*
D16*
X164390000Y-38010000D03*
X170740000Y-35470000D03*
D15*
X171250000Y-35500000D03*
%TD*%
D13*
%TO.C,SW_RIGHT_1*%
X281640000Y-116550000D03*
D14*
X286720000Y-116550000D03*
D13*
X291800000Y-116550000D03*
D15*
X281770000Y-112500000D03*
D16*
X282910000Y-114010000D03*
X289260000Y-111470000D03*
D15*
X289770000Y-111500000D03*
%TD*%
D13*
%TO.C,SW_KP0_1*%
X333120000Y-116550000D03*
D14*
X338200000Y-116550000D03*
D13*
X343280000Y-116550000D03*
D15*
X333250000Y-112500000D03*
D16*
X334390000Y-114010000D03*
X340740000Y-111470000D03*
D15*
X341250000Y-111500000D03*
%TD*%
D13*
%TO.C,SW_Y_1*%
X134290000Y-59525000D03*
D14*
X139370000Y-59525000D03*
D13*
X144450000Y-59525000D03*
D15*
X134420000Y-55475000D03*
D16*
X135560000Y-56985000D03*
X141910000Y-54445000D03*
D15*
X142420000Y-54475000D03*
%TD*%
D13*
%TO.C,SW_RSH_1*%
X272140000Y-97550000D03*
D14*
X277220000Y-97550000D03*
D13*
X282300000Y-97550000D03*
D15*
X272270000Y-93500000D03*
D16*
X273410000Y-95010000D03*
X279760000Y-92470000D03*
D15*
X280270000Y-92500000D03*
%TD*%
D13*
%TO.C,SW_COL_1*%
X234140000Y-78550000D03*
D14*
X239220000Y-78550000D03*
D13*
X244300000Y-78550000D03*
D15*
X234270000Y-74500000D03*
D16*
X235410000Y-76010000D03*
X241760000Y-73470000D03*
D15*
X242270000Y-73500000D03*
%TD*%
D13*
%TO.C,SW_ED_1*%
X276890000Y-78550000D03*
D14*
X281970000Y-78550000D03*
D13*
X287050000Y-78550000D03*
D15*
X277020000Y-74500000D03*
D16*
X278160000Y-76010000D03*
X284510000Y-73470000D03*
D15*
X285020000Y-73500000D03*
%TD*%
D13*
%TO.C,SW_LS1_1*%
X6140000Y-97550000D03*
D14*
X11220000Y-97550000D03*
D13*
X16300000Y-97550000D03*
D15*
X6270000Y-93500000D03*
D16*
X7410000Y-95010000D03*
X13760000Y-92470000D03*
D15*
X14270000Y-92500000D03*
%TD*%
D13*
%TO.C,SW_4_1*%
X87120000Y-40550000D03*
D14*
X92200000Y-40550000D03*
D13*
X97280000Y-40550000D03*
D15*
X87250000Y-36500000D03*
D16*
X88390000Y-38010000D03*
X94740000Y-35470000D03*
D15*
X95250000Y-35500000D03*
%TD*%
D13*
%TO.C,SW_LEFT_1*%
X262640000Y-116550000D03*
D14*
X267720000Y-116550000D03*
D13*
X272800000Y-116550000D03*
D15*
X262770000Y-112500000D03*
D16*
X263910000Y-114010000D03*
X270260000Y-111470000D03*
D15*
X270770000Y-111500000D03*
%TD*%
D13*
%TO.C,SW_KPMIN_1*%
X371120000Y-40550000D03*
D14*
X376200000Y-40550000D03*
D13*
X381280000Y-40550000D03*
D15*
X371250000Y-36500000D03*
D16*
X372390000Y-38010000D03*
X378740000Y-35470000D03*
D15*
X379250000Y-35500000D03*
%TD*%
D13*
%TO.C,SW_U_1*%
X153290000Y-59525000D03*
D14*
X158370000Y-59525000D03*
D13*
X163450000Y-59525000D03*
D15*
X153420000Y-55475000D03*
D16*
X154560000Y-56985000D03*
X160910000Y-54445000D03*
D15*
X161420000Y-54475000D03*
%TD*%
D13*
%TO.C,SW_ET_1*%
X274415000Y-59525000D03*
D14*
X279495000Y-59525000D03*
D13*
X284575000Y-59525000D03*
D15*
X274545000Y-55475000D03*
D16*
X275685000Y-56985000D03*
X282035000Y-54445000D03*
D15*
X282545000Y-54475000D03*
%TD*%
D13*
%TO.C,SW_KPCOM_1*%
X352120000Y-116550000D03*
D14*
X357200000Y-116550000D03*
D13*
X362280000Y-116550000D03*
D15*
X352250000Y-112500000D03*
D16*
X353390000Y-114010000D03*
X359740000Y-111470000D03*
D15*
X360250000Y-111500000D03*
%TD*%
D13*
%TO.C,SW_KP5_1*%
X352120000Y-78550000D03*
D14*
X357200000Y-78550000D03*
D13*
X362280000Y-78550000D03*
D15*
X352250000Y-74500000D03*
D16*
X353390000Y-76010000D03*
X359740000Y-73470000D03*
D15*
X360250000Y-73500000D03*
%TD*%
D13*
%TO.C,SW_KP8_1*%
X352120000Y-59550000D03*
D14*
X357200000Y-59550000D03*
D13*
X362280000Y-59550000D03*
D15*
X352250000Y-55500000D03*
D16*
X353390000Y-57010000D03*
X359740000Y-54470000D03*
D15*
X360250000Y-54500000D03*
%TD*%
D13*
%TO.C,SW_T_1*%
X115290000Y-59525000D03*
D14*
X120370000Y-59525000D03*
D13*
X125450000Y-59525000D03*
D15*
X115420000Y-55475000D03*
D16*
X116560000Y-56985000D03*
X122910000Y-54445000D03*
D15*
X123420000Y-54475000D03*
%TD*%
D13*
%TO.C,SW_P_1*%
X210290000Y-59525000D03*
D14*
X215370000Y-59525000D03*
D13*
X220450000Y-59525000D03*
D15*
X210420000Y-55475000D03*
D16*
X211560000Y-56985000D03*
X217910000Y-54445000D03*
D15*
X218420000Y-54475000D03*
%TD*%
D13*
%TO.C,SW_KP1_1*%
X333120000Y-97550000D03*
D14*
X338200000Y-97550000D03*
D13*
X343280000Y-97550000D03*
D15*
X333250000Y-93500000D03*
D16*
X334390000Y-95010000D03*
X340740000Y-92470000D03*
D15*
X341250000Y-92500000D03*
%TD*%
D13*
%TO.C,SW_TAB_1*%
X13165000Y-59525000D03*
D14*
X18245000Y-59525000D03*
D13*
X23325000Y-59525000D03*
D15*
X13295000Y-55475000D03*
D16*
X14435000Y-56985000D03*
X20785000Y-54445000D03*
D15*
X21295000Y-54475000D03*
%TD*%
D13*
%TO.C,SW_UP_1*%
X300640000Y-97550000D03*
D14*
X305720000Y-97550000D03*
D13*
X310800000Y-97550000D03*
D15*
X300770000Y-93500000D03*
D16*
X301910000Y-95010000D03*
X308260000Y-92470000D03*
D15*
X308770000Y-92500000D03*
%TD*%
D13*
%TO.C,SW_ESC_1*%
X8420000Y-40550000D03*
D14*
X13500000Y-40550000D03*
D13*
X18580000Y-40550000D03*
D15*
X8550000Y-36500000D03*
D16*
X9690000Y-38010000D03*
X16040000Y-35470000D03*
D15*
X16550000Y-35500000D03*
%TD*%
D13*
%TO.C,SW_KPPLUS_1*%
X390120000Y-78550000D03*
D14*
X395200000Y-78550000D03*
D13*
X400280000Y-78550000D03*
D15*
X390250000Y-74500000D03*
D16*
X391390000Y-76010000D03*
X397740000Y-73470000D03*
D15*
X398250000Y-73500000D03*
%TD*%
D13*
%TO.C,SW_N_1*%
X148640000Y-97550000D03*
D14*
X153720000Y-97550000D03*
D13*
X158800000Y-97550000D03*
D15*
X148770000Y-93500000D03*
D16*
X149910000Y-95010000D03*
X156260000Y-92470000D03*
D15*
X156770000Y-92500000D03*
%TD*%
D13*
%TO.C,SW_7_1*%
X144120000Y-40550000D03*
D14*
X149200000Y-40550000D03*
D13*
X154280000Y-40550000D03*
D15*
X144250000Y-36500000D03*
D16*
X145390000Y-38010000D03*
X151740000Y-35470000D03*
D15*
X152250000Y-35500000D03*
%TD*%
D13*
%TO.C,SW_F_1*%
X101140000Y-78550000D03*
D14*
X106220000Y-78550000D03*
D13*
X111300000Y-78550000D03*
D15*
X101270000Y-74500000D03*
D16*
X102410000Y-76010000D03*
X108760000Y-73470000D03*
D15*
X109270000Y-73500000D03*
%TD*%
D13*
%TO.C,SW_SLS_1*%
X224640000Y-97550000D03*
D14*
X229720000Y-97550000D03*
D13*
X234800000Y-97550000D03*
D15*
X224770000Y-93500000D03*
D16*
X225910000Y-95010000D03*
X232260000Y-92470000D03*
D15*
X232770000Y-92500000D03*
%TD*%
D13*
%TO.C,SW_SMI_1*%
X215140000Y-78550000D03*
D14*
X220220000Y-78550000D03*
D13*
X225300000Y-78550000D03*
D15*
X215270000Y-74500000D03*
D16*
X216410000Y-76010000D03*
X222760000Y-73470000D03*
D15*
X223270000Y-73500000D03*
%TD*%
D13*
%TO.C,SW_ALT_1*%
X72640000Y-116650000D03*
D14*
X77720000Y-116650000D03*
D13*
X82800000Y-116650000D03*
D15*
X72770000Y-112600000D03*
D16*
X73910000Y-114110000D03*
X80260000Y-111570000D03*
D15*
X80770000Y-111600000D03*
%TD*%
D17*
%TO.C,D16*%
X68274999Y-92799999D03*
X68274999Y-89499999D03*
%TD*%
D18*
%TO.C,C8*%
X320595000Y-66736000D03*
X320595000Y-68636000D03*
%TD*%
%TO.C,C9*%
X315261000Y-79944000D03*
X315261000Y-81844000D03*
%TD*%
%TO.C,C10*%
X316785000Y-42606000D03*
X316785000Y-44506000D03*
%TD*%
D19*
%TO.C,R1*%
X325075000Y-34050000D03*
X323250000Y-34050000D03*
%TD*%
D20*
%TO.C,SW1*%
X396899999Y-19899999D03*
X403099999Y-16199999D03*
X396899999Y-16199999D03*
X403099999Y-19899999D03*
%TD*%
D21*
%TO.C,C1*%
X376983375Y-4257750D03*
X375083375Y-4257750D03*
%TD*%
D18*
%TO.C,C2*%
X357584125Y-16769750D03*
X357584125Y-18669750D03*
%TD*%
%TO.C,C5*%
X359965375Y-16769750D03*
X359965375Y-18669750D03*
%TD*%
D22*
%TO.C,C6*%
X379019230Y-12535230D03*
X380919230Y-12535230D03*
%TD*%
D23*
%TO.C,C7*%
X376374375Y-23106250D03*
X376374375Y-21206250D03*
%TD*%
D17*
%TO.C,D1*%
X20799999Y-6899999D03*
X20799999Y-3599999D03*
%TD*%
%TO.C,D2*%
X22779999Y-35349999D03*
X22779999Y-32049999D03*
%TD*%
%TO.C,D3*%
X27599999Y-54049999D03*
X27599999Y-50749999D03*
%TD*%
%TO.C,D4*%
X20474999Y-73424999D03*
X20474999Y-70124999D03*
%TD*%
%TO.C,D5*%
X20824999Y-92374999D03*
X20824999Y-89074999D03*
%TD*%
%TO.C,D6*%
X49499999Y-92474999D03*
X49499999Y-89174999D03*
%TD*%
%TO.C,D7*%
X39699999Y-73574999D03*
X39699999Y-70274999D03*
%TD*%
%TO.C,D8*%
X53849999Y-54124999D03*
X53849999Y-50824999D03*
%TD*%
%TO.C,D9*%
X44529999Y-35449999D03*
X44529999Y-32149999D03*
%TD*%
%TO.C,D10*%
X39774999Y-6924999D03*
X39774999Y-3624999D03*
%TD*%
%TO.C,D12*%
X82799999Y-6999999D03*
X82799999Y-3699999D03*
%TD*%
%TO.C,D13*%
X63279999Y-35999999D03*
X63279999Y-32699999D03*
%TD*%
%TO.C,D14*%
X72924999Y-54599999D03*
X72924999Y-51299999D03*
%TD*%
%TO.C,D15*%
X58999999Y-73449999D03*
X58999999Y-70149999D03*
%TD*%
%TO.C,D17*%
X68174999Y-111724999D03*
X68174999Y-108424999D03*
%TD*%
%TO.C,D18*%
X86874999Y-92549999D03*
X86874999Y-89249999D03*
%TD*%
%TO.C,D19*%
X77799999Y-73224999D03*
X77799999Y-69924999D03*
%TD*%
%TO.C,D20*%
X91799999Y-54174999D03*
X91799999Y-50874999D03*
%TD*%
%TO.C,D21*%
X82329999Y-35999999D03*
X82329999Y-32699999D03*
%TD*%
%TO.C,D23*%
X120699999Y-7149999D03*
X120699999Y-3849999D03*
%TD*%
%TO.C,D24*%
X101379999Y-35999999D03*
X101379999Y-32699999D03*
%TD*%
%TO.C,D25*%
X111024999Y-54249999D03*
X111024999Y-50949999D03*
%TD*%
%TO.C,D26*%
X96699999Y-73224999D03*
X96699999Y-69924999D03*
%TD*%
%TO.C,D27*%
X105949999Y-92349999D03*
X105949999Y-89049999D03*
%TD*%
%TO.C,D28*%
X87324999Y-111624999D03*
X87324999Y-108324999D03*
%TD*%
%TO.C,D29*%
X125124999Y-92624999D03*
X125124999Y-89324999D03*
%TD*%
%TO.C,D30*%
X115499999Y-73224999D03*
X115499999Y-69924999D03*
%TD*%
%TO.C,D31*%
X129899999Y-54124999D03*
X129899999Y-50824999D03*
%TD*%
%TO.C,D32*%
X120429999Y-35999999D03*
X120429999Y-32699999D03*
%TD*%
%TO.C,D34*%
X158699999Y-7049999D03*
X158699999Y-3749999D03*
%TD*%
%TO.C,D35*%
X139579999Y-35649999D03*
X139579999Y-32349999D03*
%TD*%
%TO.C,D36*%
X148949999Y-54124999D03*
X148949999Y-50824999D03*
%TD*%
%TO.C,D37*%
X134949999Y-73224999D03*
X134949999Y-69924999D03*
%TD*%
%TO.C,D38*%
X144199999Y-92174999D03*
X144199999Y-88874999D03*
%TD*%
%TO.C,D39*%
X162974999Y-111624999D03*
X162974999Y-108324999D03*
%TD*%
%TO.C,D40*%
X163099999Y-92324999D03*
X163099999Y-89024999D03*
%TD*%
%TO.C,D41*%
X153974999Y-73424999D03*
X153974999Y-70124999D03*
%TD*%
%TO.C,D42*%
X167849999Y-53874999D03*
X167849999Y-50574999D03*
%TD*%
%TO.C,D44*%
X158779999Y-35449999D03*
X158779999Y-32149999D03*
%TD*%
%TO.C,D45*%
X196299999Y-6949999D03*
X196299999Y-3649999D03*
%TD*%
%TO.C,D46*%
X177679999Y-35649999D03*
X177679999Y-32349999D03*
%TD*%
%TO.C,D47*%
X186849999Y-54374999D03*
X186849999Y-51074999D03*
%TD*%
%TO.C,D48*%
X172774999Y-73549999D03*
X172774999Y-70249999D03*
%TD*%
%TO.C,D49*%
X182199999Y-92374999D03*
X182199999Y-89074999D03*
%TD*%
%TO.C,D50*%
X182049999Y-111999999D03*
X182049999Y-108699999D03*
%TD*%
%TO.C,D51*%
X201324999Y-92549999D03*
X201324999Y-89249999D03*
%TD*%
%TO.C,D52*%
X191999999Y-73224999D03*
X191999999Y-69924999D03*
%TD*%
%TO.C,D53*%
X205749999Y-54274999D03*
X205749999Y-50974999D03*
%TD*%
%TO.C,D54*%
X196729999Y-35649999D03*
X196729999Y-32349999D03*
%TD*%
%TO.C,D56*%
X234599999Y-7449999D03*
X234599999Y-4149999D03*
%TD*%
%TO.C,D57*%
X215579999Y-35449999D03*
X215579999Y-32149999D03*
%TD*%
%TO.C,D58*%
X224674999Y-54674999D03*
X224674999Y-51374999D03*
%TD*%
%TO.C,D59*%
X210799999Y-73224999D03*
X210799999Y-69924999D03*
%TD*%
%TO.C,D60*%
X220499999Y-92649999D03*
X220499999Y-89349999D03*
%TD*%
%TO.C,D61*%
X239174999Y-92199999D03*
X239174999Y-88899999D03*
%TD*%
%TO.C,D62*%
X229549999Y-73174999D03*
X229549999Y-69874999D03*
%TD*%
%TO.C,D63*%
X243424999Y-54774999D03*
X243424999Y-51474999D03*
%TD*%
%TO.C,D64*%
X234379999Y-35599999D03*
X234379999Y-32299999D03*
%TD*%
%TO.C,D65*%
X253379999Y-35449999D03*
X253379999Y-32149999D03*
%TD*%
%TO.C,D67*%
X277199999Y-7449999D03*
X277199999Y-4149999D03*
%TD*%
%TO.C,D68*%
X272374999Y-35299999D03*
X272374999Y-31999999D03*
%TD*%
%TO.C,D69*%
X263074999Y-54099999D03*
X263074999Y-50799999D03*
%TD*%
%TO.C,D70*%
X248724999Y-73374999D03*
X248724999Y-70074999D03*
%TD*%
%TO.C,D71*%
X258399999Y-92474999D03*
X258399999Y-89174999D03*
%TD*%
%TO.C,D72*%
X276974999Y-111449999D03*
X276974999Y-108149999D03*
%TD*%
%TO.C,D73*%
X267449999Y-73424999D03*
X267449999Y-70124999D03*
%TD*%
%TO.C,D75*%
X289049999Y-54299999D03*
X289049999Y-50999999D03*
%TD*%
%TO.C,D76*%
X293824999Y-35349999D03*
X293824999Y-32049999D03*
%TD*%
%TO.C,D78*%
X296599999Y-7349999D03*
X296599999Y-4049999D03*
%TD*%
%TO.C,D81*%
X291724999Y-73274999D03*
X291724999Y-69974999D03*
%TD*%
%TO.C,D82*%
X266499999Y-94074999D03*
X266499999Y-90774999D03*
%TD*%
%TO.C,D83*%
X296224999Y-111399999D03*
X296224999Y-108099999D03*
%TD*%
%TO.C,D84*%
X315374999Y-111599999D03*
X315374999Y-108299999D03*
%TD*%
%TO.C,D85*%
X315249999Y-92224999D03*
X315249999Y-88924999D03*
%TD*%
%TO.C,D89*%
X347749999Y-35174999D03*
X347749999Y-31874999D03*
%TD*%
%TO.C,D90*%
X346899999Y-54324999D03*
X346899999Y-51024999D03*
%TD*%
%TO.C,D91*%
X347549999Y-73474999D03*
X347549999Y-70174999D03*
%TD*%
%TO.C,D92*%
X347874999Y-92399999D03*
X347874999Y-89099999D03*
%TD*%
%TO.C,D93*%
X346449999Y-111374999D03*
X346449999Y-108074999D03*
%TD*%
%TO.C,D94*%
X365899999Y-111474999D03*
X365899999Y-108174999D03*
%TD*%
%TO.C,D95*%
X365249999Y-92574999D03*
X365249999Y-89274999D03*
%TD*%
%TO.C,D96*%
X365349999Y-73349999D03*
X365349999Y-70049999D03*
%TD*%
%TO.C,D97*%
X365799999Y-54649999D03*
X365799999Y-51349999D03*
%TD*%
%TO.C,D99*%
X384049999Y-35624999D03*
X384049999Y-32324999D03*
%TD*%
%TO.C,D101*%
X385249999Y-54649999D03*
X385249999Y-51349999D03*
%TD*%
%TO.C,D102*%
X385574999Y-72999999D03*
X385574999Y-69699999D03*
%TD*%
%TO.C,D103*%
X384699999Y-92699999D03*
X384699999Y-89399999D03*
%TD*%
%TO.C,D104*%
X385024999Y-111274999D03*
X385024999Y-107974999D03*
%TD*%
%TO.C,D109*%
X386124999Y-62524999D03*
X386124999Y-59224999D03*
%TD*%
%TO.C,D110*%
X396349999Y-27899999D03*
X396349999Y-31199999D03*
%TD*%
D24*
%TO.C,J1*%
X390869980Y-6385980D03*
X391869980Y-6385980D03*
X392869980Y-6385980D03*
X393869980Y-6385980D03*
D25*
X389569980Y-2510980D03*
X395169980Y-2510980D03*
%TD*%
D19*
%TO.C,R3*%
X395881730Y-13885230D03*
X394056730Y-13885230D03*
%TD*%
%TO.C,R4*%
X360981375Y-6035750D03*
X359156375Y-6035750D03*
%TD*%
D26*
%TO.C,U1*%
X374449374Y-8474999D03*
D27*
X372086875Y-9975000D03*
D26*
X374449374Y-9274999D03*
D27*
X372086875Y-10475000D03*
D26*
X374449374Y-10074999D03*
D27*
X372086875Y-10975000D03*
D26*
X374449374Y-10874999D03*
D27*
X372086875Y-11475000D03*
D26*
X374449374Y-11674999D03*
D27*
X372086875Y-11975000D03*
D26*
X374449374Y-12474999D03*
D27*
X372086875Y-12475000D03*
D26*
X374449374Y-13274999D03*
D27*
X372086875Y-12975000D03*
D26*
X374449374Y-14074999D03*
D27*
X372086875Y-13475000D03*
D26*
X374449374Y-14874999D03*
D27*
X372086875Y-13975000D03*
D26*
X374449374Y-15674999D03*
D27*
X372086875Y-14475000D03*
D26*
X374449374Y-16474999D03*
D27*
X372086875Y-14975000D03*
D28*
X372749374Y-18174999D03*
D29*
X371249375Y-15812500D03*
D28*
X371949374Y-18174999D03*
D29*
X370749375Y-15812500D03*
D28*
X371149374Y-18174999D03*
D29*
X370249375Y-15812500D03*
D28*
X370349374Y-18174999D03*
D29*
X369749375Y-15812500D03*
D28*
X369549374Y-18174999D03*
D29*
X369249375Y-15812500D03*
D28*
X368749374Y-18174999D03*
D29*
X368749375Y-15812500D03*
X368249375Y-15812500D03*
D28*
X367949374Y-18174999D03*
D29*
X367749375Y-15812500D03*
D28*
X367149374Y-18174999D03*
D29*
X367249375Y-15812500D03*
D28*
X366349374Y-18174999D03*
D29*
X366749375Y-15812500D03*
D28*
X365549374Y-18174999D03*
D29*
X366249375Y-15812500D03*
D28*
X364749374Y-18174999D03*
D27*
X365411875Y-14975000D03*
D26*
X363049374Y-16474999D03*
D27*
X365411875Y-14475000D03*
D26*
X363049374Y-15674999D03*
D27*
X365411875Y-13975000D03*
D26*
X363049374Y-14874999D03*
D27*
X365411875Y-13475000D03*
D26*
X363049374Y-14074999D03*
D27*
X365411875Y-12975000D03*
D26*
X363049374Y-13274999D03*
D27*
X365411875Y-12475000D03*
D26*
X363049374Y-12474999D03*
D27*
X365411875Y-11975000D03*
D26*
X363049374Y-11674999D03*
D27*
X365411875Y-11475000D03*
D26*
X363049374Y-10874999D03*
D27*
X365411875Y-10975000D03*
D26*
X363049374Y-10074999D03*
D27*
X365411875Y-10475000D03*
D26*
X363049374Y-9274999D03*
D27*
X365411875Y-9975000D03*
D26*
X363049374Y-8474999D03*
D29*
X366249375Y-9137500D03*
D28*
X364749374Y-6774999D03*
D29*
X366749375Y-9137500D03*
D28*
X365549374Y-6774999D03*
D29*
X367249375Y-9137500D03*
D28*
X366349374Y-6774999D03*
D29*
X367749375Y-9137500D03*
D28*
X367149374Y-6774999D03*
D29*
X368249375Y-9137500D03*
D28*
X367949374Y-6774999D03*
D29*
X368749375Y-9137500D03*
D28*
X368749374Y-6774999D03*
X369549374Y-6774999D03*
D29*
X369249375Y-9137500D03*
D28*
X370349374Y-6774999D03*
D29*
X369749375Y-9137500D03*
D28*
X371149374Y-6774999D03*
D29*
X370249375Y-9137500D03*
D28*
X371949374Y-6774999D03*
D29*
X370749375Y-9137500D03*
D28*
X372749374Y-6774999D03*
D29*
X371249375Y-9137500D03*
D30*
X368749374Y-12474999D03*
%TD*%
D31*
%TO.C,Y1*%
X368136874Y-21149999D03*
X370336874Y-21149999D03*
X370336874Y-22849999D03*
X368136874Y-22849999D03*
%TD*%
D18*
%TO.C,C3*%
X365807375Y-23561750D03*
X365807375Y-25461750D03*
%TD*%
D23*
%TO.C,C4*%
X373511875Y-23106250D03*
X373511875Y-21206250D03*
%TD*%
D17*
%TO.C,D98*%
X366674999Y-35349999D03*
X366674999Y-32049999D03*
%TD*%
%TO.C,D106*%
X385474999Y-101999999D03*
X385474999Y-98699999D03*
%TD*%
%TO.C,D105*%
X399849999Y-128424999D03*
X399849999Y-125124999D03*
%TD*%
D22*
%TO.C,C11*%
X333769230Y-13185230D03*
X335669230Y-13185230D03*
%TD*%
D32*
%TO.C,R5*%
X385346230Y-10727230D03*
X387171230Y-10727230D03*
%TD*%
%TO.C,R2*%
X385299230Y-8695230D03*
X387124230Y-8695230D03*
%TD*%
D17*
%TO.C,D43*%
X385724999Y-79574999D03*
X385724999Y-76274999D03*
%TD*%
D32*
%TO.C,R6*%
X329808730Y-13185230D03*
X331633730Y-13185230D03*
%TD*%
D33*
%TO.C,BUZ1*%
X313644229Y-13335229D03*
X326844229Y-13335229D03*
%TD*%
D34*
X329466666Y-128907380D02*
X329466666Y-127907380D01*
X329466666Y-128859761D02*
X329371428Y-128907380D01*
X329371428Y-128907380D02*
X329180952Y-128907380D01*
X329180952Y-128907380D02*
X329085714Y-128859761D01*
X329085714Y-128859761D02*
X329038095Y-128812142D01*
X329038095Y-128812142D02*
X328990476Y-128716904D01*
X328990476Y-128716904D02*
X328990476Y-128431190D01*
X328990476Y-128431190D02*
X329038095Y-128335952D01*
X329038095Y-128335952D02*
X329085714Y-128288333D01*
X329085714Y-128288333D02*
X329180952Y-128240714D01*
X329180952Y-128240714D02*
X329371428Y-128240714D01*
X329371428Y-128240714D02*
X329466666Y-128288333D01*
X329942857Y-128240714D02*
X329942857Y-129097857D01*
X329942857Y-129097857D02*
X329895238Y-129193095D01*
X329895238Y-129193095D02*
X329800000Y-129240714D01*
X329800000Y-129240714D02*
X329752381Y-129240714D01*
X329942857Y-127907380D02*
X329895238Y-127955000D01*
X329895238Y-127955000D02*
X329942857Y-128002619D01*
X329942857Y-128002619D02*
X329990476Y-127955000D01*
X329990476Y-127955000D02*
X329942857Y-127907380D01*
X329942857Y-127907380D02*
X329942857Y-128002619D01*
X330323809Y-128240714D02*
X330561904Y-128907380D01*
X330561904Y-128907380D02*
X330799999Y-128240714D01*
X331133333Y-128859761D02*
X331228571Y-128907380D01*
X331228571Y-128907380D02*
X331419047Y-128907380D01*
X331419047Y-128907380D02*
X331514285Y-128859761D01*
X331514285Y-128859761D02*
X331561904Y-128764523D01*
X331561904Y-128764523D02*
X331561904Y-128716904D01*
X331561904Y-128716904D02*
X331514285Y-128621666D01*
X331514285Y-128621666D02*
X331419047Y-128574047D01*
X331419047Y-128574047D02*
X331276190Y-128574047D01*
X331276190Y-128574047D02*
X331180952Y-128526428D01*
X331180952Y-128526428D02*
X331133333Y-128431190D01*
X331133333Y-128431190D02*
X331133333Y-128383571D01*
X331133333Y-128383571D02*
X331180952Y-128288333D01*
X331180952Y-128288333D02*
X331276190Y-128240714D01*
X331276190Y-128240714D02*
X331419047Y-128240714D01*
X331419047Y-128240714D02*
X331514285Y-128288333D01*
X332590476Y-128240714D02*
X332590476Y-128907380D01*
X332590476Y-128335952D02*
X332638095Y-128288333D01*
X332638095Y-128288333D02*
X332733333Y-128240714D01*
X332733333Y-128240714D02*
X332876190Y-128240714D01*
X332876190Y-128240714D02*
X332971428Y-128288333D01*
X332971428Y-128288333D02*
X333019047Y-128383571D01*
X333019047Y-128383571D02*
X333019047Y-128907380D01*
X333876190Y-128859761D02*
X333780952Y-128907380D01*
X333780952Y-128907380D02*
X333590476Y-128907380D01*
X333590476Y-128907380D02*
X333495238Y-128859761D01*
X333495238Y-128859761D02*
X333447619Y-128764523D01*
X333447619Y-128764523D02*
X333447619Y-128383571D01*
X333447619Y-128383571D02*
X333495238Y-128288333D01*
X333495238Y-128288333D02*
X333590476Y-128240714D01*
X333590476Y-128240714D02*
X333780952Y-128240714D01*
X333780952Y-128240714D02*
X333876190Y-128288333D01*
X333876190Y-128288333D02*
X333923809Y-128383571D01*
X333923809Y-128383571D02*
X333923809Y-128478809D01*
X333923809Y-128478809D02*
X333447619Y-128574047D01*
X334780952Y-128859761D02*
X334685714Y-128907380D01*
X334685714Y-128907380D02*
X334495238Y-128907380D01*
X334495238Y-128907380D02*
X334400000Y-128859761D01*
X334400000Y-128859761D02*
X334352381Y-128812142D01*
X334352381Y-128812142D02*
X334304762Y-128716904D01*
X334304762Y-128716904D02*
X334304762Y-128431190D01*
X334304762Y-128431190D02*
X334352381Y-128335952D01*
X334352381Y-128335952D02*
X334400000Y-128288333D01*
X334400000Y-128288333D02*
X334495238Y-128240714D01*
X334495238Y-128240714D02*
X334685714Y-128240714D01*
X334685714Y-128240714D02*
X334780952Y-128288333D01*
X335809524Y-128240714D02*
X335809524Y-129240714D01*
X335809524Y-128288333D02*
X335904762Y-128240714D01*
X335904762Y-128240714D02*
X336095238Y-128240714D01*
X336095238Y-128240714D02*
X336190476Y-128288333D01*
X336190476Y-128288333D02*
X336238095Y-128335952D01*
X336238095Y-128335952D02*
X336285714Y-128431190D01*
X336285714Y-128431190D02*
X336285714Y-128716904D01*
X336285714Y-128716904D02*
X336238095Y-128812142D01*
X336238095Y-128812142D02*
X336190476Y-128859761D01*
X336190476Y-128859761D02*
X336095238Y-128907380D01*
X336095238Y-128907380D02*
X335904762Y-128907380D01*
X335904762Y-128907380D02*
X335809524Y-128859761D01*
X337142857Y-128859761D02*
X337047619Y-128907380D01*
X337047619Y-128907380D02*
X336857143Y-128907380D01*
X336857143Y-128907380D02*
X336761905Y-128859761D01*
X336761905Y-128859761D02*
X336714286Y-128812142D01*
X336714286Y-128812142D02*
X336666667Y-128716904D01*
X336666667Y-128716904D02*
X336666667Y-128431190D01*
X336666667Y-128431190D02*
X336714286Y-128335952D01*
X336714286Y-128335952D02*
X336761905Y-128288333D01*
X336761905Y-128288333D02*
X336857143Y-128240714D01*
X336857143Y-128240714D02*
X337047619Y-128240714D01*
X337047619Y-128240714D02*
X337142857Y-128288333D01*
X338314286Y-128335952D02*
X338219048Y-128288333D01*
X338219048Y-128288333D02*
X338171429Y-128240714D01*
X338171429Y-128240714D02*
X338123810Y-128145476D01*
X338123810Y-128145476D02*
X338123810Y-128097857D01*
X338123810Y-128097857D02*
X338171429Y-128002619D01*
X338171429Y-128002619D02*
X338219048Y-127955000D01*
X338219048Y-127955000D02*
X338314286Y-127907380D01*
X338314286Y-127907380D02*
X338504762Y-127907380D01*
X338504762Y-127907380D02*
X338600000Y-127955000D01*
X338600000Y-127955000D02*
X338647619Y-128002619D01*
X338647619Y-128002619D02*
X338695238Y-128097857D01*
X338695238Y-128097857D02*
X338695238Y-128145476D01*
X338695238Y-128145476D02*
X338647619Y-128240714D01*
X338647619Y-128240714D02*
X338600000Y-128288333D01*
X338600000Y-128288333D02*
X338504762Y-128335952D01*
X338504762Y-128335952D02*
X338314286Y-128335952D01*
X338314286Y-128335952D02*
X338219048Y-128383571D01*
X338219048Y-128383571D02*
X338171429Y-128431190D01*
X338171429Y-128431190D02*
X338123810Y-128526428D01*
X338123810Y-128526428D02*
X338123810Y-128716904D01*
X338123810Y-128716904D02*
X338171429Y-128812142D01*
X338171429Y-128812142D02*
X338219048Y-128859761D01*
X338219048Y-128859761D02*
X338314286Y-128907380D01*
X338314286Y-128907380D02*
X338504762Y-128907380D01*
X338504762Y-128907380D02*
X338600000Y-128859761D01*
X338600000Y-128859761D02*
X338647619Y-128812142D01*
X338647619Y-128812142D02*
X338695238Y-128716904D01*
X338695238Y-128716904D02*
X338695238Y-128526428D01*
X338695238Y-128526428D02*
X338647619Y-128431190D01*
X338647619Y-128431190D02*
X338600000Y-128383571D01*
X338600000Y-128383571D02*
X338504762Y-128335952D01*
X339266667Y-128335952D02*
X339171429Y-128288333D01*
X339171429Y-128288333D02*
X339123810Y-128240714D01*
X339123810Y-128240714D02*
X339076191Y-128145476D01*
X339076191Y-128145476D02*
X339076191Y-128097857D01*
X339076191Y-128097857D02*
X339123810Y-128002619D01*
X339123810Y-128002619D02*
X339171429Y-127955000D01*
X339171429Y-127955000D02*
X339266667Y-127907380D01*
X339266667Y-127907380D02*
X339457143Y-127907380D01*
X339457143Y-127907380D02*
X339552381Y-127955000D01*
X339552381Y-127955000D02*
X339600000Y-128002619D01*
X339600000Y-128002619D02*
X339647619Y-128097857D01*
X339647619Y-128097857D02*
X339647619Y-128145476D01*
X339647619Y-128145476D02*
X339600000Y-128240714D01*
X339600000Y-128240714D02*
X339552381Y-128288333D01*
X339552381Y-128288333D02*
X339457143Y-128335952D01*
X339457143Y-128335952D02*
X339266667Y-128335952D01*
X339266667Y-128335952D02*
X339171429Y-128383571D01*
X339171429Y-128383571D02*
X339123810Y-128431190D01*
X339123810Y-128431190D02*
X339076191Y-128526428D01*
X339076191Y-128526428D02*
X339076191Y-128716904D01*
X339076191Y-128716904D02*
X339123810Y-128812142D01*
X339123810Y-128812142D02*
X339171429Y-128859761D01*
X339171429Y-128859761D02*
X339266667Y-128907380D01*
X339266667Y-128907380D02*
X339457143Y-128907380D01*
X339457143Y-128907380D02*
X339552381Y-128859761D01*
X339552381Y-128859761D02*
X339600000Y-128812142D01*
X339600000Y-128812142D02*
X339647619Y-128716904D01*
X339647619Y-128716904D02*
X339647619Y-128526428D01*
X339647619Y-128526428D02*
X339600000Y-128431190D01*
X339600000Y-128431190D02*
X339552381Y-128383571D01*
X339552381Y-128383571D02*
X339457143Y-128335952D01*
X340266667Y-127907380D02*
X340361905Y-127907380D01*
X340361905Y-127907380D02*
X340457143Y-127955000D01*
X340457143Y-127955000D02*
X340504762Y-128002619D01*
X340504762Y-128002619D02*
X340552381Y-128097857D01*
X340552381Y-128097857D02*
X340600000Y-128288333D01*
X340600000Y-128288333D02*
X340600000Y-128526428D01*
X340600000Y-128526428D02*
X340552381Y-128716904D01*
X340552381Y-128716904D02*
X340504762Y-128812142D01*
X340504762Y-128812142D02*
X340457143Y-128859761D01*
X340457143Y-128859761D02*
X340361905Y-128907380D01*
X340361905Y-128907380D02*
X340266667Y-128907380D01*
X340266667Y-128907380D02*
X340171429Y-128859761D01*
X340171429Y-128859761D02*
X340123810Y-128812142D01*
X340123810Y-128812142D02*
X340076191Y-128716904D01*
X340076191Y-128716904D02*
X340028572Y-128526428D01*
X340028572Y-128526428D02*
X340028572Y-128288333D01*
X340028572Y-128288333D02*
X340076191Y-128097857D01*
X340076191Y-128097857D02*
X340123810Y-128002619D01*
X340123810Y-128002619D02*
X340171429Y-127955000D01*
X340171429Y-127955000D02*
X340266667Y-127907380D01*
X341552381Y-128907380D02*
X340980953Y-128907380D01*
X341266667Y-128907380D02*
X341266667Y-127907380D01*
X341266667Y-127907380D02*
X341171429Y-128050238D01*
X341171429Y-128050238D02*
X341076191Y-128145476D01*
X341076191Y-128145476D02*
X340980953Y-128193095D01*
X342723810Y-128907380D02*
X342628572Y-128859761D01*
X342628572Y-128859761D02*
X342580953Y-128764523D01*
X342580953Y-128764523D02*
X342580953Y-127907380D01*
X343104763Y-128907380D02*
X343104763Y-128240714D01*
X343104763Y-127907380D02*
X343057144Y-127955000D01*
X343057144Y-127955000D02*
X343104763Y-128002619D01*
X343104763Y-128002619D02*
X343152382Y-127955000D01*
X343152382Y-127955000D02*
X343104763Y-127907380D01*
X343104763Y-127907380D02*
X343104763Y-128002619D01*
X343580953Y-128240714D02*
X343580953Y-128907380D01*
X343580953Y-128335952D02*
X343628572Y-128288333D01*
X343628572Y-128288333D02*
X343723810Y-128240714D01*
X343723810Y-128240714D02*
X343866667Y-128240714D01*
X343866667Y-128240714D02*
X343961905Y-128288333D01*
X343961905Y-128288333D02*
X344009524Y-128383571D01*
X344009524Y-128383571D02*
X344009524Y-128907380D01*
X344866667Y-128859761D02*
X344771429Y-128907380D01*
X344771429Y-128907380D02*
X344580953Y-128907380D01*
X344580953Y-128907380D02*
X344485715Y-128859761D01*
X344485715Y-128859761D02*
X344438096Y-128764523D01*
X344438096Y-128764523D02*
X344438096Y-128383571D01*
X344438096Y-128383571D02*
X344485715Y-128288333D01*
X344485715Y-128288333D02*
X344580953Y-128240714D01*
X344580953Y-128240714D02*
X344771429Y-128240714D01*
X344771429Y-128240714D02*
X344866667Y-128288333D01*
X344866667Y-128288333D02*
X344914286Y-128383571D01*
X344914286Y-128383571D02*
X344914286Y-128478809D01*
X344914286Y-128478809D02*
X344438096Y-128574047D01*
X345771429Y-128907380D02*
X345771429Y-128383571D01*
X345771429Y-128383571D02*
X345723810Y-128288333D01*
X345723810Y-128288333D02*
X345628572Y-128240714D01*
X345628572Y-128240714D02*
X345438096Y-128240714D01*
X345438096Y-128240714D02*
X345342858Y-128288333D01*
X345771429Y-128859761D02*
X345676191Y-128907380D01*
X345676191Y-128907380D02*
X345438096Y-128907380D01*
X345438096Y-128907380D02*
X345342858Y-128859761D01*
X345342858Y-128859761D02*
X345295239Y-128764523D01*
X345295239Y-128764523D02*
X345295239Y-128669285D01*
X345295239Y-128669285D02*
X345342858Y-128574047D01*
X345342858Y-128574047D02*
X345438096Y-128526428D01*
X345438096Y-128526428D02*
X345676191Y-128526428D01*
X345676191Y-128526428D02*
X345771429Y-128478809D01*
X346247620Y-128907380D02*
X346247620Y-128240714D01*
X346247620Y-128431190D02*
X346295239Y-128335952D01*
X346295239Y-128335952D02*
X346342858Y-128288333D01*
X346342858Y-128288333D02*
X346438096Y-128240714D01*
X346438096Y-128240714D02*
X346533334Y-128240714D01*
X347419049Y-128002619D02*
X347466668Y-127955000D01*
X347466668Y-127955000D02*
X347561906Y-127907380D01*
X347561906Y-127907380D02*
X347800001Y-127907380D01*
X347800001Y-127907380D02*
X347895239Y-127955000D01*
X347895239Y-127955000D02*
X347942858Y-128002619D01*
X347942858Y-128002619D02*
X347990477Y-128097857D01*
X347990477Y-128097857D02*
X347990477Y-128193095D01*
X347990477Y-128193095D02*
X347942858Y-128335952D01*
X347942858Y-128335952D02*
X347371430Y-128907380D01*
X347371430Y-128907380D02*
X347990477Y-128907380D01*
X348609525Y-127907380D02*
X348704763Y-127907380D01*
X348704763Y-127907380D02*
X348800001Y-127955000D01*
X348800001Y-127955000D02*
X348847620Y-128002619D01*
X348847620Y-128002619D02*
X348895239Y-128097857D01*
X348895239Y-128097857D02*
X348942858Y-128288333D01*
X348942858Y-128288333D02*
X348942858Y-128526428D01*
X348942858Y-128526428D02*
X348895239Y-128716904D01*
X348895239Y-128716904D02*
X348847620Y-128812142D01*
X348847620Y-128812142D02*
X348800001Y-128859761D01*
X348800001Y-128859761D02*
X348704763Y-128907380D01*
X348704763Y-128907380D02*
X348609525Y-128907380D01*
X348609525Y-128907380D02*
X348514287Y-128859761D01*
X348514287Y-128859761D02*
X348466668Y-128812142D01*
X348466668Y-128812142D02*
X348419049Y-128716904D01*
X348419049Y-128716904D02*
X348371430Y-128526428D01*
X348371430Y-128526428D02*
X348371430Y-128288333D01*
X348371430Y-128288333D02*
X348419049Y-128097857D01*
X348419049Y-128097857D02*
X348466668Y-128002619D01*
X348466668Y-128002619D02*
X348514287Y-127955000D01*
X348514287Y-127955000D02*
X348609525Y-127907380D01*
X349323811Y-128002619D02*
X349371430Y-127955000D01*
X349371430Y-127955000D02*
X349466668Y-127907380D01*
X349466668Y-127907380D02*
X349704763Y-127907380D01*
X349704763Y-127907380D02*
X349800001Y-127955000D01*
X349800001Y-127955000D02*
X349847620Y-128002619D01*
X349847620Y-128002619D02*
X349895239Y-128097857D01*
X349895239Y-128097857D02*
X349895239Y-128193095D01*
X349895239Y-128193095D02*
X349847620Y-128335952D01*
X349847620Y-128335952D02*
X349276192Y-128907380D01*
X349276192Y-128907380D02*
X349895239Y-128907380D01*
X350276192Y-128002619D02*
X350323811Y-127955000D01*
X350323811Y-127955000D02*
X350419049Y-127907380D01*
X350419049Y-127907380D02*
X350657144Y-127907380D01*
X350657144Y-127907380D02*
X350752382Y-127955000D01*
X350752382Y-127955000D02*
X350800001Y-128002619D01*
X350800001Y-128002619D02*
X350847620Y-128097857D01*
X350847620Y-128097857D02*
X350847620Y-128193095D01*
X350847620Y-128193095D02*
X350800001Y-128335952D01*
X350800001Y-128335952D02*
X350228573Y-128907380D01*
X350228573Y-128907380D02*
X350847620Y-128907380D01*
X351780954Y-128240714D02*
X352019049Y-128907380D01*
X352019049Y-128907380D02*
X352257144Y-128240714D01*
X352828573Y-127907380D02*
X352923811Y-127907380D01*
X352923811Y-127907380D02*
X353019049Y-127955000D01*
X353019049Y-127955000D02*
X353066668Y-128002619D01*
X353066668Y-128002619D02*
X353114287Y-128097857D01*
X353114287Y-128097857D02*
X353161906Y-128288333D01*
X353161906Y-128288333D02*
X353161906Y-128526428D01*
X353161906Y-128526428D02*
X353114287Y-128716904D01*
X353114287Y-128716904D02*
X353066668Y-128812142D01*
X353066668Y-128812142D02*
X353019049Y-128859761D01*
X353019049Y-128859761D02*
X352923811Y-128907380D01*
X352923811Y-128907380D02*
X352828573Y-128907380D01*
X352828573Y-128907380D02*
X352733335Y-128859761D01*
X352733335Y-128859761D02*
X352685716Y-128812142D01*
X352685716Y-128812142D02*
X352638097Y-128716904D01*
X352638097Y-128716904D02*
X352590478Y-128526428D01*
X352590478Y-128526428D02*
X352590478Y-128288333D01*
X352590478Y-128288333D02*
X352638097Y-128097857D01*
X352638097Y-128097857D02*
X352685716Y-128002619D01*
X352685716Y-128002619D02*
X352733335Y-127955000D01*
X352733335Y-127955000D02*
X352828573Y-127907380D01*
X353590478Y-128812142D02*
X353638097Y-128859761D01*
X353638097Y-128859761D02*
X353590478Y-128907380D01*
X353590478Y-128907380D02*
X353542859Y-128859761D01*
X353542859Y-128859761D02*
X353590478Y-128812142D01*
X353590478Y-128812142D02*
X353590478Y-128907380D01*
X354590477Y-128907380D02*
X354019049Y-128907380D01*
X354304763Y-128907380D02*
X354304763Y-127907380D01*
X354304763Y-127907380D02*
X354209525Y-128050238D01*
X354209525Y-128050238D02*
X354114287Y-128145476D01*
X354114287Y-128145476D02*
X354019049Y-128193095D01*
D35*
X401934500Y-136030000D02*
G75*
G03*
X404982500Y-132982000I0J3048000D01*
G01*
X3034500Y-32000D02*
G75*
G03*
X-13500Y-3080000I2J-3048002D01*
G01*
X-13500Y-132982000D02*
G75*
G03*
X3034500Y-136030000I3048000J0D01*
G01*
D36*
X3034500Y-136030000D02*
X401934500Y-136030000D01*
X404982500Y-132982000D02*
X404982500Y-3080000D01*
X-13500Y-3080000D02*
X-13500Y-132982000D01*
X255507999Y-31999D02*
X3034500Y-32000D01*
X255507999Y-31999D02*
X401934500Y-32000D01*
X376225192Y-129605000D02*
G75*
G03*
X376225192Y-129605000I-1625192J0D01*
G01*
X395225192Y-21600000D02*
G75*
G03*
X395225192Y-21600000I-1625192J0D01*
G01*
X149225192Y-26605000D02*
G75*
G03*
X149225192Y-26605000I-1625192J0D01*
G01*
X30725192Y-26605000D02*
G75*
G03*
X30725192Y-26605000I-1625192J0D01*
G01*
X322225192Y-96605000D02*
G75*
G03*
X322225192Y-96605000I-1625192J0D01*
G01*
X287225192Y-26605000D02*
G75*
G03*
X287225192Y-26605000I-1625192J0D01*
G01*
D35*
X404982500Y-3080000D02*
G75*
G03*
X401934500Y-32000I-3048000J0D01*
G01*
D36*
X35225192Y-116605000D02*
G75*
G03*
X35225192Y-116605000I-1625192J0D01*
G01*
M02*
