M48
; DRILL file {KiCad (6.99.0-4502-gf1556ed801-dirty)} date Thu 15 Dec 2022 08:46:35 PM EST
; FORMAT={-:-/ absolute / metric / decimal}
; #@! TF.CreationDate,2022-12-15T20:46:35-05:00
; #@! TF.GenerationSoftware,Kicad,Pcbnew,(6.99.0-4502-gf1556ed801-dirty)
; #@! TF.FileFunction,Plated,1,2,PTH
FMAT,2
METRIC
; #@! TA.AperFunction,Plated,PTH,ViaDrill
T1C0.400
; #@! TA.AperFunction,Plated,PTH,ComponentDrill
T2C0.900
; #@! TA.AperFunction,Plated,PTH,ComponentDrill
T3C1.470
; #@! TA.AperFunction,Plated,PTH,ViaDrill
T4C1.500
; #@! TA.AperFunction,Plated,PTH,ComponentDrill
T5C2.000
; #@! TA.AperFunction,Plated,PTH,ComponentDrill
T6C2.700
%
G90
G05
T1
X10.225Y-7.05
X13.275Y-26.475
X15.825Y-47.525
X16.725Y-3.525
X17.2Y-24.525
X21.925Y-65.475
X25.08Y-29.5
X26.7Y-89.3
X27.58Y-29.5
X29.175Y-91.325
X31.825Y-48.25
X33.525Y-50.15
X37.525Y-25.425
X42.6Y-43.675
X47.025Y-106.05
X48.8Y-7.225
X49.925Y-45.05
X50.425Y-46.825
X51.225Y-24.3
X52.2Y-108.3
X54.25Y-47.45
X55.825Y-75.25
X56.425Y-81.725
X56.55Y-20.675
X60.65Y-75.325
X61.7Y-69.8
X61.725Y-68.15
X62.0Y-89.25
X63.3Y-108.575
X63.675Y-69.875
X63.725Y-66.2
X65.55Y-110.475
X66.4Y-84.9
X67.325Y-49.25
X68.8Y-26.475
X68.8Y-30.825
X69.9Y-87.85
X70.95Y-44.5
X71.708Y-47.642
X74.25Y-52.775
X75.25Y-45.95
X75.9Y-106.575
X79.65Y-70.15
X79.775Y-67.25
X79.85Y-43.125
X79.875Y-81.35
X80.0Y-107.35
X81.825Y-107.475
X83.5Y-65.325
X84.95Y-109.575
X86.925Y-30.825
X86.95Y-85.95
X87.0Y-27.65
X87.475Y-1.875
X87.525Y-49.05
X87.55Y-4.35
X88.1Y-43.95
X88.55Y-88.725
X92.0Y-84.6
X92.025Y-88.4
X92.475Y-22.55
X93.4Y-7.75
X97.81Y-37.8
X98.225Y-43.025
X98.975Y-82.65
X99.175Y-16.7
X99.175Y-69.75
X99.3Y-68.15
X101.25Y-66.4
X101.27Y-69.67
X102.91Y-37.89
X103.5Y-65.175
X104.85Y-43.85
X106.0Y-47.45
X106.36Y-33.18
X107.2Y-84.725
X108.9Y-45.95
X109.0Y-44.75
X109.525Y-25.25
X109.55Y-30.775
X109.6Y-47.525
X109.7Y-61.6
X111.475Y-47.45
X116.65Y-43.75
X117.425Y-69.825
X117.6Y-67.3
X118.775Y-83.6
X122.425Y-1.775
X122.425Y-64.925
X122.5Y-4.35
X124.25Y-31.225
X124.275Y-27.65
X124.475Y-43.85
X127.225Y-6.4
X127.25Y-87.525
X127.375Y-85.9
X130.25Y-63.925
X130.375Y-19.85
X132.525Y-75.275
X132.95Y-82.35
X133.675Y-48.0
X133.725Y-44.875
X135.15Y-37.68
X136.925Y-65.725
X137.125Y-69.725
X137.7Y-43.8
X137.7Y-82.65
X140.675Y-18.575
X140.92Y-37.59
X142.75Y-44.175
X144.16Y-23.52
X144.175Y-26.825
X144.175Y-31.075
X144.35Y-62.9
X145.025Y-21.075
X148.725Y-88.0
X148.775Y-84.625
X151.07Y-104.69
X151.45Y-45.95
X152.075Y-81.1
X153.3Y-47.275
X155.75Y-43.7
X155.925Y-70.15
X156.05Y-67.375
X156.225Y-19.625
X157.39Y-105.65
X157.725Y-82.1
X159.125Y-64.925
X159.41Y-120.7
X160.45Y-26.325
X160.65Y-31.25
X160.9Y-28.8
X161.6Y-4.3
X161.625Y-1.925
X161.875Y-13.475
X162.175Y-43.325
X164.97Y-120.44
X165.225Y-87.85
X165.375Y-85.8
X167.475Y-87.424
X167.675Y-7.3
X169.15Y-84.35
X169.925Y-50.875
X170.2Y-75.5
X170.36Y-105.11
X170.775Y-63.525
X171.35Y-46.674
X172.975Y-26.325
X173.535Y-47.365
X173.675Y-13.0
X173.825Y-75.55
X174.0Y-37.47
X175.125Y-43.6
X175.125Y-65.8
X175.75Y-81.475
X175.95Y-68.874
X176.6Y-105.74
X177.02Y-43.72
X177.75Y-37.38
X177.75Y-64.175
X179.875Y-43.8
X180.68Y-119.77
X182.35Y-21.05
X182.35Y-27.75
X182.4Y-24.249
X182.4Y-30.675
X185.19Y-120.19
X187.65Y-45.475
X187.725Y-47.425
X190.075Y-63.35
X190.71Y-104.48
X192.65Y-26.575
X194.5Y-105.53
X194.65Y-43.5
X195.688Y-69.537
X195.975Y-67.225
X198.6Y-2.025
X198.6Y-4.25
X199.25Y-28.8
X199.4Y-31.175
X199.6Y-43.8
X201.5Y-12.925
X203.1Y-85.825
X203.325Y-88.575
X204.075Y-82.9
X207.725Y-5.875
X208.87Y-105.57
X209.375Y-62.775
X211.475Y-88.05
X211.7Y-84.875
X212.7Y-26.575
X213.05Y-68.15
X213.05Y-70.25
X213.95Y-38.225
X213.97Y-106.41
X214.575Y-12.925
X215.4Y-66.925
X215.825Y-70.575
X219.425Y-43.95
X220.45Y-20.45
X220.45Y-24.4
X220.525Y-27.55
X220.65Y-31.4
X221.85Y-63.925
X222.025Y-90.1
X223.975Y-88.475
X224.737Y-47.812
X225.22Y-105.91
X227.85Y-45.475
X227.875Y-47.625
X228.712Y-51.787
X229.56Y-104.1
X230.1Y-64.675
X231.925Y-43.7
X234.15Y-46.525
X234.175Y-44.475
X234.4Y-83.975
X235.625Y-27.525
X236.775Y-4.1
X236.825Y-2.151
X237.45Y-43.8
X237.775Y-31.825
X239.125Y-64.8
X240.05Y-83.525
X240.5Y-14.0
X240.6Y-100.05
X241.325Y-25.65
X241.725Y-88.7
X242.175Y-69.15
X242.3Y-67.375
X243.85Y-99.95
X249.75Y-25.875
X250.725Y-68.15
X250.725Y-70.3
X251.45Y-43.275
X252.75Y-66.725
X253.175Y-70.475
X254.05Y-14.15
X254.7Y-23.525
X254.825Y-47.25
X254.9Y-44.2
X254.95Y-22.4
X255.175Y-66.225
X255.52Y-21.2
X255.6Y-28.825
X255.7Y-31.25
X256.525Y-27.375
X258.18Y-26.09
X258.196Y-23.542
X258.275Y-31.6
X258.325Y-83.65
X258.35Y-28.925
X258.45Y-22.575
X258.59Y-98.87
X258.675Y-42.925
X258.85Y-21.62
X259.6Y-27.3
X260.775Y-34.7
X262.725Y-89.25
X262.775Y-35.3
X262.775Y-86.7
X263.14Y-98.66
X264.875Y-63.35
X265.38Y-28.73
X267.0Y-57.525
X267.05Y-24.975
X268.225Y-84.825
X269.6Y-47.65
X269.675Y-45.475
X269.8Y-83.7
X270.075Y-90.575
X271.5Y-108.25
X271.825Y-42.675
X272.775Y-73.775
X273.5Y-18.8
X273.775Y-90.575
X273.85Y-109.75
X274.5Y-87.775
X274.825Y-84.15
X275.275Y-64.225
X275.775Y-47.9
X275.8Y-44.55
X277.02Y-28.42
X279.05Y-1.95
X279.2Y-4.1
X284.3Y-21.46
X284.625Y-99.2
X284.975Y-22.475
X285.25Y-68.874
X285.443Y-23.358
X286.775Y-86.7
X286.825Y-84.55
X287.3Y-66.775
X287.375Y-82.025
X287.95Y-83.825
X287.95Y-86.15
X288.025Y-20.583
X288.6Y-21.4
X289.375Y-22.1
X291.42Y-29.375
X292.025Y-22.9
X292.025Y-65.975
X292.875Y-59.65
X293.89Y-40.22
X293.94Y-67.28
X294.075Y-68.99
X294.225Y-24.55
X294.525Y-83.55
X294.525Y-111.575
X294.525Y-114.075
X294.929Y-67.425
X295.073Y-68.958
X295.3Y-31.025
X295.74Y-86.22
X296.125Y-47.95
X296.4Y-29.375
X296.5Y-19.475
X296.625Y-16.066
X296.66Y-63.76
X296.85Y-31.425
X296.85Y-42.9
X297.275Y-26.875
X297.45Y-25.15
X297.45Y-48.55
X297.575Y-32.145
X297.91Y-45.26
X298.174Y-49.29
X298.233Y-26.59
X298.299Y-32.966
X298.387Y-46.138
X298.55Y-10.525
X298.925Y-49.951
X299.008Y-46.922
X299.1Y-4.275
X299.242Y-32.492
X299.575Y-109.325
X299.725Y-2.151
X299.875Y-26.625
X300.22Y-32.287
X300.775Y-103.425
X301.425Y-61.225
X301.5Y-99.925
X301.566Y-28.016
X302.25Y-109.175
X302.528Y-28.29
X303.3Y-105.025
X304.025Y-31.4
X306.8Y-59.525
X308.49Y-86.44
X308.925Y-105.125
X312.13Y-94.52
X316.175Y-54.55
X316.277Y-70.48
X316.28Y-55.93
X317.125Y-106.2
X317.35Y-31.425
X318.055Y-60.066
X318.055Y-63.368
X318.055Y-80.132
X318.275Y-44.975
X319.175Y-28.538
X319.175Y-31.525
X319.325Y-56.72
X319.325Y-70.48
X319.325Y-88.875
X319.35Y-110.8
X320.89Y-76.785
X321.01Y-101.72
X321.62Y-55.98
X322.175Y-44.875
X322.37Y-106.13
X322.525Y-64.82
X322.725Y-108.45
X323.475Y-10.925
X323.55Y-13.35
X324.65Y-58.35
X324.79Y-96.34
X324.8Y-31.0
X325.1Y-91.05
X326.07Y-31.38
X326.6Y-27.738
X326.79Y-53.76
X326.79Y-56.79
X327.25Y-87.55
X327.34Y-93.83
X327.8Y-59.2
X328.05Y-35.65
X328.36Y-49.78
X328.53Y-30.22
X329.6Y-32.45
X330.1Y-96.14
X330.625Y-39.8
X330.73Y-100.56
X331.95Y-31.325
X332.95Y-49.3
X333.2Y-104.725
X333.225Y-101.725
X335.2Y-88.95
X335.3Y-46.2
X335.3Y-85.275
X335.9Y-71.05
X336.22Y-65.94
X337.56Y-54.91
X339.69Y-51.2
X339.93Y-101.23
X340.58Y-68.39
X341.825Y-46.825
X342.53Y-49.09
X343.1Y-50.675
X344.26Y-37.41
X344.566Y-26.066
X344.7Y-51.75
X345.25Y-28.538
X345.25Y-30.12
X345.55Y-33.075
X345.63Y-37.41
X345.847Y-27.737
X346.175Y-82.15
X346.55Y-119.45
X346.71Y-99.37
X347.975Y-30.1
X348.95Y-50.89
X348.95Y-55.79
X348.98Y-48.05
X348.98Y-53.23
X349.23Y-104.54
X349.28Y-62.85
X349.47Y-101.63
X349.58Y-38.25
X349.69Y-35.04
X349.925Y-46.575
X350.775Y-30.1
X350.83Y-51.14
X351.31Y-62.1
X351.65Y-86.0
X351.925Y-88.5
X352.125Y-100.45
X352.549Y-63.197
X353.01Y-49.04
X353.225Y-89.5
X353.4Y-85.8
X354.025Y-70.525
X354.125Y-51.6
X354.3Y-65.4
X355.51Y-48.87
X356.175Y-84.075
X356.65Y-35.62
X356.675Y-93.125
X357.18Y-45.62
X357.325Y-65.475
X357.933Y-8.068
X361.35Y-86.52
X361.39Y-46.3
X361.55Y-16.174
X362.17Y-51.14
X362.175Y-32.314
X362.3Y-28.538
X362.61Y-55.71
X362.825Y-95.3
X362.86Y-54.52
X363.376Y-31.402
X363.54Y-28.538
X363.897Y-6.322
X364.54Y-28.538
X364.59Y-33.29
X365.34Y-40.24
X365.6Y-119.65
X365.7Y-122.425
X365.84Y-27.46
X366.05Y-102.175
X367.55Y-73.72
X367.67Y-67.13
X367.81Y-69.62
X367.85Y-78.39
X367.87Y-89.41
X367.97Y-76.23
X368.05Y-86.88
X368.13Y-53.36
X368.22Y-51.17
X368.3Y-82.97
X368.775Y-102.225
X368.975Y-58.45
X369.26Y-44.22
X369.75Y-62.525
X369.81Y-30.44
X369.975Y-52.375
X369.975Y-67.45
X370.035Y-80.575
X371.775Y-24.575
X371.797Y-21.822
X371.975Y-67.625
X372.047Y-20.293
X372.06Y-31.67
X372.4Y-62.475
X372.475Y-52.375
X373.368Y-5.342
X373.6Y-41.275
X374.197Y-6.122
X375.083Y-4.258
X375.5Y-65.575
X375.597Y-13.322
X375.61Y-29.12
X376.65Y-47.875
X376.797Y-8.022
X377.897Y-21.522
X378.028Y-9.194
X378.397Y-11.222
X378.77Y-29.36
X379.5Y-61.175
X379.894Y-9.76
X381.95Y-3.0
X382.225Y-56.0
X382.35Y-29.64
X382.425Y-23.6
X382.53Y-32.38
X382.575Y-57.725
X383.275Y-63.5
X383.425Y-52.9
X383.425Y-68.575
X383.5Y-50.35
X383.5Y-61.55
X383.825Y-71.1
X384.0Y-26.775
X384.55Y-57.625
X385.225Y-39.05
X385.348Y-37.136
X386.325Y-36.925
X386.475Y-38.8
X387.575Y-23.825
X388.325Y-29.65
X389.275Y-17.9
X389.55Y-24.575
X389.825Y-14.825
X390.425Y-19.25
X392.2Y-47.15
X392.4Y-9.425
X393.475Y-72.95
X394.325Y-54.1
X395.325Y-9.5
X395.975Y-47.125
X402.2Y-56.15
T2
X320.925Y-38.895
X320.925Y-40.165
X320.925Y-41.435
X320.925Y-42.705
X320.925Y-58.895
X320.925Y-60.165
X320.925Y-61.435
X320.925Y-62.705
X320.925Y-78.895
X320.925Y-80.165
X320.925Y-81.435
X320.925Y-82.705
T3
X7.41Y-9.51
X7.41Y-76.01
X7.41Y-95.01
X9.69Y-38.01
X13.76Y-6.97
X13.76Y-73.47
X13.76Y-92.47
X14.435Y-56.985
X16.04Y-35.47
X20.785Y-54.445
X26.41Y-9.51
X26.41Y-76.01
X31.39Y-38.01
X32.76Y-6.97
X32.76Y-73.47
X35.91Y-95.01
X37.74Y-35.47
X40.56Y-56.985
X42.26Y-92.47
X45.41Y-76.01
X46.91Y-54.445
X50.39Y-38.01
X51.76Y-73.47
X54.91Y-95.01
X54.91Y-114.11
X56.74Y-35.47
X59.56Y-56.985
X61.26Y-92.47
X61.26Y-111.57
X64.41Y-76.01
X65.91Y-54.445
X69.21Y-9.51
X69.39Y-38.01
X70.76Y-73.47
X73.91Y-95.01
X73.91Y-114.11
X75.56Y-6.97
X75.74Y-35.47
X78.56Y-56.985
X80.26Y-92.47
X80.26Y-111.57
X83.41Y-76.01
X84.91Y-54.445
X88.39Y-38.01
X89.76Y-73.47
X92.91Y-95.01
X94.74Y-35.47
X97.56Y-56.985
X99.26Y-92.47
X102.41Y-76.01
X103.91Y-54.445
X107.21Y-9.51
X107.39Y-38.01
X108.76Y-73.47
X111.91Y-95.01
X113.56Y-6.97
X113.74Y-35.47
X116.56Y-56.985
X118.26Y-92.47
X121.41Y-76.01
X122.91Y-54.445
X126.39Y-38.01
X127.76Y-73.47
X130.91Y-95.01
X132.74Y-35.47
X135.56Y-56.985
X137.26Y-92.47
X140.41Y-76.01
X141.91Y-54.445
X145.21Y-9.51
X145.39Y-38.01
X146.76Y-73.47
X149.91Y-95.01
X149.91Y-114.11
X151.56Y-6.97
X151.74Y-35.47
X154.56Y-56.985
X156.26Y-92.47
X156.26Y-111.57
X159.41Y-76.01
X160.91Y-54.445
X164.39Y-38.01
X165.76Y-73.47
X168.91Y-95.01
X168.91Y-114.11
X170.74Y-35.47
X173.56Y-56.985
X175.26Y-92.47
X175.26Y-111.57
X178.41Y-76.01
X179.91Y-54.445
X183.21Y-9.51
X183.39Y-38.01
X184.76Y-73.47
X187.91Y-95.01
X189.56Y-6.97
X189.74Y-35.47
X192.56Y-56.985
X194.26Y-92.47
X197.41Y-76.01
X198.91Y-54.445
X202.39Y-38.01
X203.76Y-73.47
X206.91Y-95.01
X208.74Y-35.47
X211.56Y-56.985
X213.26Y-92.47
X216.41Y-76.01
X217.91Y-54.445
X221.21Y-9.51
X221.39Y-38.01
X222.76Y-73.47
X225.91Y-95.01
X227.56Y-6.97
X227.74Y-35.47
X230.56Y-56.985
X232.26Y-92.47
X235.41Y-76.01
X236.91Y-54.445
X240.39Y-38.01
X241.76Y-73.47
X244.91Y-95.01
X246.74Y-35.47
X249.56Y-56.985
X251.26Y-92.47
X254.41Y-76.01
X255.91Y-54.445
X259.39Y-38.01
X260.76Y-73.47
X263.91Y-114.01
X264.01Y-9.51
X265.74Y-35.47
X270.26Y-111.47
X270.36Y-6.97
X273.41Y-95.01
X275.685Y-56.985
X278.16Y-76.01
X279.76Y-92.47
X280.765Y-38.01
X282.035Y-54.445
X282.91Y-114.01
X283.01Y-9.51
X284.14Y-102.555
X284.51Y-73.47
X287.115Y-35.47
X289.26Y-111.47
X289.36Y-6.97
X290.49Y-100.015
X301.91Y-95.01
X301.91Y-114.01
X308.26Y-92.47
X308.26Y-111.47
X334.39Y-38.01
X334.39Y-57.01
X334.39Y-76.01
X334.39Y-95.01
X334.39Y-114.01
X340.74Y-35.47
X340.74Y-54.47
X340.74Y-73.47
X340.74Y-92.47
X340.74Y-111.47
X353.39Y-38.01
X353.39Y-57.01
X353.39Y-76.01
X353.39Y-95.01
X353.39Y-114.01
X359.74Y-35.47
X359.74Y-54.47
X359.74Y-73.47
X359.74Y-92.47
X359.74Y-111.47
X372.39Y-38.01
X372.39Y-57.01
X372.39Y-76.01
X372.39Y-95.01
X372.39Y-114.01
X378.74Y-35.47
X378.74Y-54.47
X378.74Y-73.47
X378.74Y-92.47
X378.74Y-111.47
X391.39Y-38.01
X391.39Y-57.01
X391.39Y-76.01
X391.39Y-95.01
X391.39Y-114.01
X397.74Y-35.47
X397.74Y-54.47
X397.74Y-73.47
X397.74Y-92.47
X397.74Y-111.47
T4
X384.05Y-2.975
X387.15Y-3.0
X398.15Y-3.05
X400.6Y-3.05
T5
X6.27Y-8.0
X6.27Y-74.5
X6.27Y-93.5
X8.55Y-36.5
X13.295Y-55.475
X14.27Y-7.0
X14.27Y-73.5
X14.27Y-92.5
X16.55Y-35.5
X21.295Y-54.475
X25.27Y-8.0
X25.27Y-74.5
X30.25Y-36.5
X33.27Y-7.0
X33.27Y-73.5
X34.77Y-93.5
X38.25Y-35.5
X39.42Y-55.475
X42.77Y-92.5
X44.27Y-74.5
X47.42Y-54.475
X49.25Y-36.5
X52.27Y-73.5
X53.77Y-93.5
X53.77Y-112.6
X57.25Y-35.5
X58.42Y-55.475
X61.77Y-92.5
X61.77Y-111.6
X63.27Y-74.5
X66.42Y-54.475
X68.07Y-8.0
X68.25Y-36.5
X71.27Y-73.5
X72.77Y-93.5
X72.77Y-112.6
X76.07Y-7.0
X76.25Y-35.5
X77.42Y-55.475
X80.77Y-92.5
X80.77Y-111.6
X82.27Y-74.5
X85.42Y-54.475
X87.25Y-36.5
X90.27Y-73.5
X91.77Y-93.5
X95.25Y-35.5
X96.42Y-55.475
X99.77Y-92.5
X101.27Y-74.5
X104.42Y-54.475
X106.07Y-8.0
X106.25Y-36.5
X109.27Y-73.5
X110.77Y-93.5
X114.07Y-7.0
X114.25Y-35.5
X115.42Y-55.475
X118.77Y-92.5
X120.27Y-74.5
X123.42Y-54.475
X125.25Y-36.5
X128.27Y-73.5
X129.77Y-93.5
X133.25Y-35.5
X134.42Y-55.475
X137.77Y-92.5
X139.27Y-74.5
X142.42Y-54.475
X144.07Y-8.0
X144.25Y-36.5
X147.27Y-73.5
X148.77Y-93.5
X148.77Y-112.6
X152.07Y-7.0
X152.25Y-35.5
X153.42Y-55.475
X156.77Y-92.5
X156.77Y-111.6
X158.27Y-74.5
X161.42Y-54.475
X163.25Y-36.5
X166.27Y-73.5
X167.77Y-93.5
X167.77Y-112.6
X171.25Y-35.5
X172.42Y-55.475
X175.77Y-92.5
X175.77Y-111.6
X177.27Y-74.5
X180.42Y-54.475
X182.07Y-8.0
X182.25Y-36.5
X185.27Y-73.5
X186.77Y-93.5
X190.07Y-7.0
X190.25Y-35.5
X191.42Y-55.475
X194.77Y-92.5
X196.27Y-74.5
X199.42Y-54.475
X201.25Y-36.5
X204.27Y-73.5
X205.77Y-93.5
X209.25Y-35.5
X210.42Y-55.475
X213.77Y-92.5
X215.27Y-74.5
X218.42Y-54.475
X220.07Y-8.0
X220.25Y-36.5
X223.27Y-73.5
X224.77Y-93.5
X228.07Y-7.0
X228.25Y-35.5
X229.42Y-55.475
X232.77Y-92.5
X234.27Y-74.5
X237.42Y-54.475
X239.25Y-36.5
X242.27Y-73.5
X243.77Y-93.5
X247.25Y-35.5
X248.42Y-55.475
X251.77Y-92.5
X253.27Y-74.5
X256.42Y-54.475
X258.25Y-36.5
X261.27Y-73.5
X262.77Y-112.5
X262.87Y-8.0
X266.25Y-35.5
X270.77Y-111.5
X270.87Y-7.0
X272.27Y-93.5
X274.545Y-55.475
X277.02Y-74.5
X279.625Y-36.5
X280.27Y-92.5
X281.77Y-112.5
X281.87Y-8.0
X282.545Y-54.475
X283.63Y-102.525
X285.02Y-73.5
X287.625Y-35.5
X289.77Y-111.5
X289.87Y-7.0
X291.63Y-101.525
X300.77Y-93.5
X300.77Y-112.5
X308.77Y-92.5
X308.77Y-111.5
X333.25Y-36.5
X333.25Y-55.5
X333.25Y-74.5
X333.25Y-93.5
X333.25Y-112.5
X341.25Y-35.5
X341.25Y-54.5
X341.25Y-73.5
X341.25Y-92.5
X341.25Y-111.5
X352.25Y-36.5
X352.25Y-55.5
X352.25Y-74.5
X352.25Y-93.5
X352.25Y-112.5
X360.25Y-35.5
X360.25Y-54.5
X360.25Y-73.5
X360.25Y-92.5
X360.25Y-111.5
X371.25Y-36.5
X371.25Y-55.5
X371.25Y-74.5
X371.25Y-93.5
X371.25Y-112.5
X379.25Y-35.5
X379.25Y-54.5
X379.25Y-73.5
X379.25Y-92.5
X379.25Y-111.5
X390.25Y-36.5
X390.25Y-55.5
X390.25Y-74.5
X390.25Y-93.5
X390.25Y-112.5
X398.25Y-35.5
X398.25Y-54.5
X398.25Y-73.5
X398.25Y-92.5
X398.25Y-111.5
T6
X308.475Y-67.125
T0
M30
