%TF.GenerationSoftware,KiCad,Pcbnew,(6.99.0-4502-gf1556ed801-dirty)*%
%TF.CreationDate,2022-12-15T22:05:31-05:00*%
%TF.ProjectId,necpc8801l,6e656370-6338-4383-9031-6c2e6b696361,rev?*%
%TF.SameCoordinates,Original*%
%TF.FileFunction,Soldermask,Top*%
%TF.FilePolarity,Negative*%
%FSLAX46Y46*%
G04 Gerber Fmt 4.6, Leading zero omitted, Abs format (unit mm)*
G04 Created by KiCad (PCBNEW (6.99.0-4502-gf1556ed801-dirty)) date 2022-12-15 22:05:31*
%MOMM*%
%LPD*%
G01*
G04 APERTURE LIST*
%ADD10R,1.000000X1.500000*%
%ADD11O,1.800000X1.070000*%
%ADD12R,1.800000X1.070000*%
%ADD13C,5.400000*%
%ADD14C,1.750000*%
%ADD15C,3.987800*%
%TA.AperFunction,Profile*%
%ADD16C,0.150000*%
%TD*%
%TA.AperFunction,Profile*%
%ADD17C,0.050000*%
%TD*%
G04 APERTURE END LIST*
D10*
%TO.C,LED1*%
X319324999Y-83249999D03*
D11*
X320924999Y-80164999D03*
D10*
X322524999Y-83249999D03*
D11*
X320924999Y-82704999D03*
D12*
X320924999Y-81434999D03*
D10*
X322524999Y-78349999D03*
D11*
X320924999Y-78894999D03*
D10*
X319324999Y-78349999D03*
%TD*%
%TO.C,LED2*%
X319324999Y-63249999D03*
D11*
X320924999Y-60164999D03*
D10*
X322524999Y-63249999D03*
D11*
X320924999Y-62704999D03*
D12*
X320924999Y-61434999D03*
D10*
X322524999Y-58349999D03*
D11*
X320924999Y-58894999D03*
D10*
X319324999Y-58349999D03*
%TD*%
%TO.C,LED3*%
X319324999Y-43249999D03*
D11*
X320924999Y-40164999D03*
D10*
X322524999Y-43249999D03*
D11*
X320924999Y-42704999D03*
D12*
X320924999Y-41434999D03*
D10*
X322524999Y-38349999D03*
D11*
X320924999Y-38894999D03*
D10*
X319324999Y-38349999D03*
%TD*%
D13*
%TO.C,H2*%
X308475000Y-67125000D03*
%TD*%
D14*
%TO.C,SW_STP_1*%
X6140000Y-12050000D03*
D15*
X11220000Y-12050000D03*
D14*
X16300000Y-12050000D03*
%TD*%
%TO.C,SW_KPMULT_1*%
X390120000Y-59550000D03*
D15*
X395200000Y-59550000D03*
D14*
X400280000Y-59550000D03*
%TD*%
%TO.C,SW_RLD_1*%
X281740000Y-12050000D03*
D15*
X286820000Y-12050000D03*
D14*
X291900000Y-12050000D03*
%TD*%
%TO.C,SW_LS2_1*%
X34640000Y-97550000D03*
D15*
X39720000Y-97550000D03*
D14*
X44800000Y-97550000D03*
%TD*%
%TO.C,SW_F3_1*%
X143940000Y-12050000D03*
D15*
X149020000Y-12050000D03*
D14*
X154100000Y-12050000D03*
%TD*%
%TO.C,SW_KP2_1*%
X352120000Y-97550000D03*
D15*
X357200000Y-97550000D03*
D14*
X362280000Y-97550000D03*
%TD*%
%TO.C,SW_WE_1*%
X253140000Y-78550000D03*
D15*
X258220000Y-78550000D03*
D14*
X263300000Y-78550000D03*
%TD*%
%TO.C,SW_F5_1*%
X219940000Y-12050000D03*
D15*
X225020000Y-12050000D03*
D14*
X230100000Y-12050000D03*
%TD*%
%TO.C,SW_LT_1*%
X186640000Y-97550000D03*
D15*
X191720000Y-97550000D03*
D14*
X196800000Y-97550000D03*
%TD*%
%TO.C,SW_KP4_1*%
X333120000Y-78550000D03*
D15*
X338200000Y-78550000D03*
D14*
X343280000Y-78550000D03*
%TD*%
%TO.C,SW_CAR_1*%
X239120000Y-40550000D03*
D15*
X244200000Y-40550000D03*
D14*
X249280000Y-40550000D03*
%TD*%
%TO.C,SW_SUP_1*%
X53640000Y-116650000D03*
D15*
X58720000Y-116650000D03*
D14*
X63800000Y-116650000D03*
%TD*%
%TO.C,SW_RLU_1*%
X262740000Y-12050000D03*
D15*
X267820000Y-12050000D03*
D14*
X272900000Y-12050000D03*
%TD*%
%TO.C,SW_DEL_1*%
X279495000Y-40550000D03*
D15*
X284575000Y-40550000D03*
D14*
X289655000Y-40550000D03*
%TD*%
%TO.C,SW_J_1*%
X158140000Y-78550000D03*
D15*
X163220000Y-78550000D03*
D14*
X168300000Y-78550000D03*
%TD*%
%TO.C,SW_KPEQ_1*%
X390120000Y-97550000D03*
D15*
X395200000Y-97550000D03*
D14*
X400280000Y-97550000D03*
%TD*%
%TO.C,SW_KP3_1*%
X371120000Y-97550000D03*
D15*
X376200000Y-97550000D03*
D14*
X381280000Y-97550000D03*
%TD*%
%TO.C,SW_K_1*%
X177140000Y-78550000D03*
D15*
X182220000Y-78550000D03*
D14*
X187300000Y-78550000D03*
%TD*%
%TO.C,SW_SP2_1*%
X167640000Y-116650000D03*
D15*
X172720000Y-116650000D03*
D14*
X177800000Y-116650000D03*
%TD*%
%TO.C,SW_F1_1*%
X67940000Y-12050000D03*
D15*
X73020000Y-12050000D03*
D14*
X78100000Y-12050000D03*
%TD*%
%TO.C,SW_CPY_1*%
X25140000Y-12050000D03*
D15*
X30220000Y-12050000D03*
D14*
X35300000Y-12050000D03*
%TD*%
%TO.C,SW_SP1_1*%
X148640000Y-116650000D03*
D15*
X153720000Y-116650000D03*
D14*
X158800000Y-116650000D03*
%TD*%
%TO.C,SW_D_1*%
X82140000Y-78550000D03*
D15*
X87220000Y-78550000D03*
D14*
X92300000Y-78550000D03*
%TD*%
%TO.C,SW_RSH_ALIAS_1*%
X291760000Y-97475000D03*
D15*
X286680000Y-97475000D03*
D14*
X281600000Y-97475000D03*
%TD*%
%TO.C,SW_A_1*%
X44140000Y-78550000D03*
D15*
X49220000Y-78550000D03*
D14*
X54300000Y-78550000D03*
%TD*%
%TO.C,SW_KPPER_1*%
X371120000Y-116550000D03*
D15*
X376200000Y-116550000D03*
D14*
X381280000Y-116550000D03*
%TD*%
%TO.C,SW_6_1*%
X125120000Y-40550000D03*
D15*
X130200000Y-40550000D03*
D14*
X135280000Y-40550000D03*
%TD*%
%TO.C,SW_KP6_1*%
X371120000Y-78550000D03*
D15*
X376200000Y-78550000D03*
D14*
X381280000Y-78550000D03*
%TD*%
%TO.C,SW_9_1*%
X182120000Y-40550000D03*
D15*
X187200000Y-40550000D03*
D14*
X192280000Y-40550000D03*
%TD*%
%TO.C,SW_CTRL_1*%
X6140000Y-78550000D03*
D15*
X11220000Y-78550000D03*
D14*
X16300000Y-78550000D03*
%TD*%
%TO.C,SW_KP7_1*%
X333120000Y-59550000D03*
D15*
X338200000Y-59550000D03*
D14*
X343280000Y-59550000D03*
%TD*%
%TO.C,SW_F4_1*%
X181940000Y-12050000D03*
D15*
X187020000Y-12050000D03*
D14*
X192100000Y-12050000D03*
%TD*%
%TO.C,SW_S_1*%
X63140000Y-78550000D03*
D15*
X68220000Y-78550000D03*
D14*
X73300000Y-78550000D03*
%TD*%
%TO.C,SW_KPHELP1*%
X352120000Y-40550000D03*
D15*
X357200000Y-40550000D03*
D14*
X362280000Y-40550000D03*
%TD*%
%TO.C,SW_2_1*%
X49120000Y-40550000D03*
D15*
X54200000Y-40550000D03*
D14*
X59280000Y-40550000D03*
%TD*%
%TO.C,SW_W_1*%
X58290000Y-59525000D03*
D15*
X63370000Y-59525000D03*
D14*
X68450000Y-59525000D03*
%TD*%
%TO.C,SW_X_1*%
X72640000Y-97550000D03*
D15*
X77720000Y-97550000D03*
D14*
X82800000Y-97550000D03*
%TD*%
%TO.C,SW_G_1*%
X120140000Y-78550000D03*
D15*
X125220000Y-78550000D03*
D14*
X130300000Y-78550000D03*
%TD*%
%TO.C,SW_E_1*%
X77290000Y-59525000D03*
D15*
X82370000Y-59525000D03*
D14*
X87450000Y-59525000D03*
%TD*%
%TO.C,SW_5_1*%
X106120000Y-40550000D03*
D15*
X111200000Y-40550000D03*
D14*
X116280000Y-40550000D03*
%TD*%
%TO.C,SW_I_1*%
X172290000Y-59525000D03*
D15*
X177370000Y-59525000D03*
D14*
X182450000Y-59525000D03*
%TD*%
%TO.C,SW_1_1*%
X30120000Y-40550000D03*
D15*
X35200000Y-40550000D03*
D14*
X40280000Y-40550000D03*
%TD*%
%TO.C,SW_AMG_1*%
X243640000Y-97550000D03*
D15*
X248720000Y-97550000D03*
D14*
X253800000Y-97550000D03*
%TD*%
%TO.C,SW_V_1*%
X110640000Y-97550000D03*
D15*
X115720000Y-97550000D03*
D14*
X120800000Y-97550000D03*
%TD*%
%TO.C,SW_L_1*%
X196140000Y-78550000D03*
D15*
X201220000Y-78550000D03*
D14*
X206300000Y-78550000D03*
%TD*%
%TO.C,SW_YEN_1*%
X258120000Y-40550000D03*
D15*
X263200000Y-40550000D03*
D14*
X268280000Y-40550000D03*
%TD*%
%TO.C,SW_M_1*%
X167640000Y-97550000D03*
D15*
X172720000Y-97550000D03*
D14*
X177800000Y-97550000D03*
%TD*%
%TO.C,SW_F2_1*%
X105940000Y-12050000D03*
D15*
X111020000Y-12050000D03*
D14*
X116100000Y-12050000D03*
%TD*%
%TO.C,SW_KP9_1*%
X371120000Y-59550000D03*
D15*
X376200000Y-59550000D03*
D14*
X381280000Y-59550000D03*
%TD*%
%TO.C,SW_KPHOME_1*%
X333120000Y-40550000D03*
D15*
X338200000Y-40550000D03*
D14*
X343280000Y-40550000D03*
%TD*%
%TO.C,SW_CAPS_1*%
X25140000Y-78550000D03*
D15*
X30220000Y-78550000D03*
D14*
X35300000Y-78550000D03*
%TD*%
%TO.C,SW_KPDIV_1*%
X390120000Y-40550000D03*
D15*
X395200000Y-40550000D03*
D14*
X400280000Y-40550000D03*
%TD*%
%TO.C,SW_C_1*%
X91640000Y-97550000D03*
D15*
X96720000Y-97550000D03*
D14*
X101800000Y-97550000D03*
%TD*%
%TO.C,SW_Q_1*%
X39290000Y-59525000D03*
D15*
X44370000Y-59525000D03*
D14*
X49450000Y-59525000D03*
%TD*%
%TO.C,SW_MN_1*%
X220120000Y-40550000D03*
D15*
X225200000Y-40550000D03*
D14*
X230280000Y-40550000D03*
%TD*%
%TO.C,SW_DOWN_1*%
X300640000Y-116550000D03*
D15*
X305720000Y-116550000D03*
D14*
X310800000Y-116550000D03*
%TD*%
%TO.C,SW_3_1*%
X68120000Y-40550000D03*
D15*
X73200000Y-40550000D03*
D14*
X78280000Y-40550000D03*
%TD*%
%TO.C,SW_AT_1*%
X229290000Y-59525000D03*
D15*
X234370000Y-59525000D03*
D14*
X239450000Y-59525000D03*
%TD*%
%TO.C,SW_GT_1*%
X205640000Y-97550000D03*
D15*
X210720000Y-97550000D03*
D14*
X215800000Y-97550000D03*
%TD*%
%TO.C,SW_Z_1*%
X53640000Y-97550000D03*
D15*
X58720000Y-97550000D03*
D14*
X63800000Y-97550000D03*
%TD*%
%TO.C,SW_O_1*%
X191290000Y-59525000D03*
D15*
X196370000Y-59525000D03*
D14*
X201450000Y-59525000D03*
%TD*%
%TO.C,SW_H_1*%
X139140000Y-78550000D03*
D15*
X144220000Y-78550000D03*
D14*
X149300000Y-78550000D03*
%TD*%
%TO.C,SW_FC_1*%
X248290000Y-59525000D03*
D15*
X253370000Y-59525000D03*
D14*
X258450000Y-59525000D03*
%TD*%
%TO.C,SW_KPENT_1*%
X390120000Y-116550000D03*
D15*
X395200000Y-116550000D03*
D14*
X400280000Y-116550000D03*
%TD*%
%TO.C,SW_B_1*%
X129640000Y-97550000D03*
D15*
X134720000Y-97550000D03*
D14*
X139800000Y-97550000D03*
%TD*%
%TO.C,SW_R_1*%
X96290000Y-59525000D03*
D15*
X101370000Y-59525000D03*
D14*
X106450000Y-59525000D03*
%TD*%
%TO.C,SW_0_1*%
X201120000Y-40550000D03*
D15*
X206200000Y-40550000D03*
D14*
X211280000Y-40550000D03*
%TD*%
%TO.C,SW_8_1*%
X163120000Y-40550000D03*
D15*
X168200000Y-40550000D03*
D14*
X173280000Y-40550000D03*
%TD*%
%TO.C,SW_RIGHT_1*%
X281640000Y-116550000D03*
D15*
X286720000Y-116550000D03*
D14*
X291800000Y-116550000D03*
%TD*%
%TO.C,SW_KP0_1*%
X333120000Y-116550000D03*
D15*
X338200000Y-116550000D03*
D14*
X343280000Y-116550000D03*
%TD*%
%TO.C,SW_Y_1*%
X134290000Y-59525000D03*
D15*
X139370000Y-59525000D03*
D14*
X144450000Y-59525000D03*
%TD*%
%TO.C,SW_RSH_1*%
X272140000Y-97550000D03*
D15*
X277220000Y-97550000D03*
D14*
X282300000Y-97550000D03*
%TD*%
%TO.C,SW_COL_1*%
X234140000Y-78550000D03*
D15*
X239220000Y-78550000D03*
D14*
X244300000Y-78550000D03*
%TD*%
%TO.C,SW_ED_1*%
X276890000Y-78550000D03*
D15*
X281970000Y-78550000D03*
D14*
X287050000Y-78550000D03*
%TD*%
%TO.C,SW_LS1_1*%
X6140000Y-97550000D03*
D15*
X11220000Y-97550000D03*
D14*
X16300000Y-97550000D03*
%TD*%
%TO.C,SW_4_1*%
X87120000Y-40550000D03*
D15*
X92200000Y-40550000D03*
D14*
X97280000Y-40550000D03*
%TD*%
%TO.C,SW_LEFT_1*%
X262640000Y-116550000D03*
D15*
X267720000Y-116550000D03*
D14*
X272800000Y-116550000D03*
%TD*%
%TO.C,SW_KPMIN_1*%
X371120000Y-40550000D03*
D15*
X376200000Y-40550000D03*
D14*
X381280000Y-40550000D03*
%TD*%
%TO.C,SW_U_1*%
X153290000Y-59525000D03*
D15*
X158370000Y-59525000D03*
D14*
X163450000Y-59525000D03*
%TD*%
%TO.C,SW_ET_1*%
X274415000Y-59525000D03*
D15*
X279495000Y-59525000D03*
D14*
X284575000Y-59525000D03*
%TD*%
%TO.C,SW_KPCOM_1*%
X352120000Y-116550000D03*
D15*
X357200000Y-116550000D03*
D14*
X362280000Y-116550000D03*
%TD*%
%TO.C,SW_KP5_1*%
X352120000Y-78550000D03*
D15*
X357200000Y-78550000D03*
D14*
X362280000Y-78550000D03*
%TD*%
%TO.C,SW_KP8_1*%
X352120000Y-59550000D03*
D15*
X357200000Y-59550000D03*
D14*
X362280000Y-59550000D03*
%TD*%
%TO.C,SW_T_1*%
X115290000Y-59525000D03*
D15*
X120370000Y-59525000D03*
D14*
X125450000Y-59525000D03*
%TD*%
%TO.C,SW_P_1*%
X210290000Y-59525000D03*
D15*
X215370000Y-59525000D03*
D14*
X220450000Y-59525000D03*
%TD*%
%TO.C,SW_KP1_1*%
X333120000Y-97550000D03*
D15*
X338200000Y-97550000D03*
D14*
X343280000Y-97550000D03*
%TD*%
%TO.C,SW_TAB_1*%
X13165000Y-59525000D03*
D15*
X18245000Y-59525000D03*
D14*
X23325000Y-59525000D03*
%TD*%
%TO.C,SW_UP_1*%
X300640000Y-97550000D03*
D15*
X305720000Y-97550000D03*
D14*
X310800000Y-97550000D03*
%TD*%
%TO.C,SW_ESC_1*%
X8420000Y-40550000D03*
D15*
X13500000Y-40550000D03*
D14*
X18580000Y-40550000D03*
%TD*%
%TO.C,SW_KPPLUS_1*%
X390120000Y-78550000D03*
D15*
X395200000Y-78550000D03*
D14*
X400280000Y-78550000D03*
%TD*%
%TO.C,SW_N_1*%
X148640000Y-97550000D03*
D15*
X153720000Y-97550000D03*
D14*
X158800000Y-97550000D03*
%TD*%
%TO.C,SW_7_1*%
X144120000Y-40550000D03*
D15*
X149200000Y-40550000D03*
D14*
X154280000Y-40550000D03*
%TD*%
%TO.C,SW_F_1*%
X101140000Y-78550000D03*
D15*
X106220000Y-78550000D03*
D14*
X111300000Y-78550000D03*
%TD*%
%TO.C,SW_SLS_1*%
X224640000Y-97550000D03*
D15*
X229720000Y-97550000D03*
D14*
X234800000Y-97550000D03*
%TD*%
%TO.C,SW_SMI_1*%
X215140000Y-78550000D03*
D15*
X220220000Y-78550000D03*
D14*
X225300000Y-78550000D03*
%TD*%
%TO.C,SW_ALT_1*%
X72640000Y-116650000D03*
D15*
X77720000Y-116650000D03*
D14*
X82800000Y-116650000D03*
%TD*%
D16*
X401934500Y-128030000D02*
G75*
G03*
X404982500Y-124982000I0J3048000D01*
G01*
X3034500Y-32000D02*
G75*
G03*
X-13500Y-3080000I2J-3048002D01*
G01*
X-13500Y-124982000D02*
G75*
G03*
X3034500Y-128030000I3048000J0D01*
G01*
D17*
X3034500Y-128030000D02*
X401934500Y-128030000D01*
X404982500Y-124982000D02*
X404982500Y-3080000D01*
X-13500Y-3080000D02*
X-13500Y-124982000D01*
X255507999Y-31999D02*
X3034500Y-32000D01*
X255507999Y-31999D02*
X401934500Y-32000D01*
X395225192Y-21600000D02*
G75*
G03*
X395225192Y-21600000I-1625192J0D01*
G01*
X149225192Y-26605000D02*
G75*
G03*
X149225192Y-26605000I-1625192J0D01*
G01*
X30725192Y-26605000D02*
G75*
G03*
X30725192Y-26605000I-1625192J0D01*
G01*
X322225192Y-96605000D02*
G75*
G03*
X322225192Y-96605000I-1625192J0D01*
G01*
X287225192Y-26605000D02*
G75*
G03*
X287225192Y-26605000I-1625192J0D01*
G01*
D16*
X404982500Y-3080000D02*
G75*
G03*
X401934500Y-32000I-3048000J0D01*
G01*
D17*
X35225192Y-116605000D02*
G75*
G03*
X35225192Y-116605000I-1625192J0D01*
G01*
M02*
