  0
SECTION
  2
HEADER
  9
$ANGBASE
  50
0.0
  9
$ANGDIR
  70
1
  9
$MEASUREMENT
  70
0
  0
ENDSEC
  0
SECTION
  2
TABLES
  0
TABLE
  2
LTYPE
  70
4
  0
LTYPE
  5
40F
  2
CONTINUOUS
  70
0
  3
Solid line
  72
65
  73
0
  40
0.0
  0
LTYPE
  5
410
  2
DASHDOT
 70
0
  3
Dash Dot ____ _ ____ _
 72
65
 73
4
 40
2.0
 49
1.25
 49
-0.25
 49
0.25
 49
-0.25
  0
LTYPE
  5
411
  2
DASHED
 70
0
  3
Dashed __ __ __ __ __
 72
65
 73
2
 40
0.75
 49
0.5
 49
-0.25
  0
LTYPE
  5
43B
  2
DOTTED
 70
0
  3
Dotted .  .  .  .
 72
65
 73
2
 40
0.2
 49
0.0
 49
-0.2
  0
ENDTAB
  0
TABLE
  2
STYLE
  70
4
  0
STYLE
  2
KICAD
  70
0
  40
0
  41
1
  42
1
  50
0
  71
0
  3
isocp.shx
  0
STYLE
  2
KICADB
  70
0
  40
0
  41
1
  42
1
  50
0
  71
0
  3
isocp.shx
  0
STYLE
  2
KICADI
  70
0
  40
0
  41
1
  42
1
  50
15
  71
0
  3
isocp.shx
  0
STYLE
  2
KICADBI
  70
0
  40
0
  41
1
  42
1
  50
15
  71
0
  3
isocp.shx
  0
ENDTAB
  0
TABLE
  2
LAYER
  70
1
  0
LAYER
  2
BLACK
  70
0
  62
7
  6
CONTINUOUS
  0
ENDTAB
  0
ENDSEC
  0
SECTION
  2
ENTITIES
0
ARC
8
BLACK
10
15.8242
20
-5.23551
40
0.12
50
-90
51
-0
0
ARC
8
BLACK
10
0.119469
20
-0.12126
40
0.12
50
90
51
180
0
ARC
8
BLACK
10
0.119469
20
-5.23551
40
0.12
50
-180
51
-90
0
LINE
8
BLACK
6
CONTINUOUS
10
0.119469
20
-5.35551
11
15.8242
21
-5.35551
0
LINE
8
BLACK
6
CONTINUOUS
10
15.9442
20
-5.23551
11
15.9442
21
-0.12126
0
LINE
8
BLACK
6
CONTINUOUS
10
-0.000531496
20
-0.12126
11
-0.000531496
21
-5.23551
0
LINE
8
BLACK
6
CONTINUOUS
10
10.0594
20
-0.0012598
11
0.119469
21
-0.00125984
0
LINE
8
BLACK
6
CONTINUOUS
10
10.0594
20
-0.0012598
11
15.8242
21
-0.00125984
0
CIRCLE
8
BLACK
10
14.748
20
-5.10256
40
0.0639839
0
CIRCLE
8
BLACK
10
15.4961
20
-0.850394
40
0.0639839
0
CIRCLE
8
BLACK
10
5.81102
20
-1.04744
40
0.0639839
0
CIRCLE
8
BLACK
10
1.14567
20
-1.04744
40
0.0639839
0
CIRCLE
8
BLACK
10
12.622
20
-3.80335
40
0.0639839
0
CIRCLE
8
BLACK
10
11.2441
20
-1.04744
40
0.0639839
0
ARC
8
BLACK
10
15.8242
20
-0.12126
40
0.12
50
-0
51
90
0
CIRCLE
8
BLACK
10
1.32283
20
-4.59075
40
0.0639839
0
LINE
8
BLACK
6
CONTINUOUS
10
0.207283
20
-0.439961
11
0.276181
21
-0.508858
0
LINE
8
BLACK
6
CONTINUOUS
10
0.276181
20
-0.439961
11
0.207283
21
-0.508858
0
LINE
8
BLACK
6
CONTINUOUS
10
0.207283
20
-3.05807
11
0.276181
21
-3.12697
0
LINE
8
BLACK
6
CONTINUOUS
10
0.276181
20
-3.05807
11
0.207283
21
-3.12697
0
LINE
8
BLACK
6
CONTINUOUS
10
0.207283
20
-3.8061
11
0.276181
21
-3.875
0
LINE
8
BLACK
6
CONTINUOUS
10
0.276181
20
-3.8061
11
0.207283
21
-3.875
0
LINE
8
BLACK
6
CONTINUOUS
10
0.297047
20
-1.56201
11
0.365945
21
-1.63091
0
LINE
8
BLACK
6
CONTINUOUS
10
0.365945
20
-1.56201
11
0.297047
21
-1.63091
0
LINE
8
BLACK
6
CONTINUOUS
10
0.483858
20
-2.30906
11
0.552756
21
-2.37795
0
LINE
8
BLACK
6
CONTINUOUS
10
0.552756
20
-2.30906
11
0.483858
21
-2.37795
0
LINE
8
BLACK
6
CONTINUOUS
10
0.607283
20
-0.439961
11
0.676181
21
-0.508858
0
LINE
8
BLACK
6
CONTINUOUS
10
0.676181
20
-0.439961
11
0.607283
21
-0.508858
0
LINE
8
BLACK
6
CONTINUOUS
10
0.607283
20
-3.05807
11
0.676181
21
-3.12697
0
LINE
8
BLACK
6
CONTINUOUS
10
0.676181
20
-3.05807
11
0.607283
21
-3.12697
0
LINE
8
BLACK
6
CONTINUOUS
10
0.607283
20
-3.8061
11
0.676181
21
-3.875
0
LINE
8
BLACK
6
CONTINUOUS
10
0.676181
20
-3.8061
11
0.607283
21
-3.875
0
LINE
8
BLACK
6
CONTINUOUS
10
0.697047
20
-1.56201
11
0.765945
21
-1.63091
0
LINE
8
BLACK
6
CONTINUOUS
10
0.765945
20
-1.56201
11
0.697047
21
-1.63091
0
LINE
8
BLACK
6
CONTINUOUS
10
0.883858
20
-2.30906
11
0.952756
21
-2.37795
0
LINE
8
BLACK
6
CONTINUOUS
10
0.952756
20
-2.30906
11
0.883858
21
-2.37795
0
LINE
8
BLACK
6
CONTINUOUS
10
0.955315
20
-0.439961
11
1.02421
21
-0.508858
0
LINE
8
BLACK
6
CONTINUOUS
10
1.02421
20
-0.439961
11
0.955315
21
-0.508858
0
LINE
8
BLACK
6
CONTINUOUS
10
0.955315
20
-3.05807
11
1.02421
21
-3.12697
0
LINE
8
BLACK
6
CONTINUOUS
10
1.02421
20
-3.05807
11
0.955315
21
-3.12697
0
LINE
8
BLACK
6
CONTINUOUS
10
1.15138
20
-1.56201
11
1.22028
21
-1.63091
0
LINE
8
BLACK
6
CONTINUOUS
10
1.22028
20
-1.56201
11
1.15138
21
-1.63091
0
LINE
8
BLACK
6
CONTINUOUS
10
1.32933
20
-3.8061
11
1.39823
21
-3.875
0
LINE
8
BLACK
6
CONTINUOUS
10
1.39823
20
-3.8061
11
1.32933
21
-3.875
0
LINE
8
BLACK
6
CONTINUOUS
10
1.35531
20
-0.439961
11
1.42421
21
-0.508858
0
LINE
8
BLACK
6
CONTINUOUS
10
1.42421
20
-0.439961
11
1.35531
21
-0.508858
0
LINE
8
BLACK
6
CONTINUOUS
10
1.35531
20
-3.05807
11
1.42421
21
-3.12697
0
LINE
8
BLACK
6
CONTINUOUS
10
1.42421
20
-3.05807
11
1.35531
21
-3.12697
0
LINE
8
BLACK
6
CONTINUOUS
10
1.5124
20
-2.30906
11
1.5813
21
-2.37795
0
LINE
8
BLACK
6
CONTINUOUS
10
1.5813
20
-2.30906
11
1.5124
21
-2.37795
0
LINE
8
BLACK
6
CONTINUOUS
10
1.55138
20
-1.56201
11
1.62028
21
-1.63091
0
LINE
8
BLACK
6
CONTINUOUS
10
1.62028
20
-1.56201
11
1.55138
21
-1.63091
0
LINE
8
BLACK
6
CONTINUOUS
10
1.70335
20
-3.05807
11
1.77224
21
-3.12697
0
LINE
8
BLACK
6
CONTINUOUS
10
1.77224
20
-3.05807
11
1.70335
21
-3.12697
0
LINE
8
BLACK
6
CONTINUOUS
10
1.72933
20
-3.8061
11
1.79823
21
-3.875
0
LINE
8
BLACK
6
CONTINUOUS
10
1.79823
20
-3.8061
11
1.72933
21
-3.875
0
LINE
8
BLACK
6
CONTINUOUS
10
1.89941
20
-1.56201
11
1.96831
21
-1.63091
0
LINE
8
BLACK
6
CONTINUOUS
10
1.96831
20
-1.56201
11
1.89941
21
-1.63091
0
LINE
8
BLACK
6
CONTINUOUS
10
1.9124
20
-2.30906
11
1.9813
21
-2.37795
0
LINE
8
BLACK
6
CONTINUOUS
10
1.9813
20
-2.30906
11
1.9124
21
-2.37795
0
LINE
8
BLACK
6
CONTINUOUS
10
2.07736
20
-3.8061
11
2.14626
21
-3.875
0
LINE
8
BLACK
6
CONTINUOUS
10
2.14626
20
-3.8061
11
2.07736
21
-3.875
0
LINE
8
BLACK
6
CONTINUOUS
10
2.07736
20
-4.55807
11
2.14626
21
-4.62697
0
LINE
8
BLACK
6
CONTINUOUS
10
2.14626
20
-4.55807
11
2.07736
21
-4.62697
0
LINE
8
BLACK
6
CONTINUOUS
10
2.10335
20
-3.05807
11
2.17224
21
-3.12697
0
LINE
8
BLACK
6
CONTINUOUS
10
2.17224
20
-3.05807
11
2.10335
21
-3.12697
0
LINE
8
BLACK
6
CONTINUOUS
10
2.26043
20
-2.30906
11
2.32933
21
-2.37795
0
LINE
8
BLACK
6
CONTINUOUS
10
2.32933
20
-2.30906
11
2.26043
21
-2.37795
0
LINE
8
BLACK
6
CONTINUOUS
10
2.29941
20
-1.56201
11
2.36831
21
-1.63091
0
LINE
8
BLACK
6
CONTINUOUS
10
2.36831
20
-1.56201
11
2.29941
21
-1.63091
0
LINE
8
BLACK
6
CONTINUOUS
10
2.45138
20
-3.05807
11
2.52028
21
-3.12697
0
LINE
8
BLACK
6
CONTINUOUS
10
2.52028
20
-3.05807
11
2.45138
21
-3.12697
0
LINE
8
BLACK
6
CONTINUOUS
10
2.47736
20
-3.8061
11
2.54626
21
-3.875
0
LINE
8
BLACK
6
CONTINUOUS
10
2.54626
20
-3.8061
11
2.47736
21
-3.875
0
LINE
8
BLACK
6
CONTINUOUS
10
2.47736
20
-4.55807
11
2.54626
21
-4.62697
0
LINE
8
BLACK
6
CONTINUOUS
10
2.54626
20
-4.55807
11
2.47736
21
-4.62697
0
LINE
8
BLACK
6
CONTINUOUS
10
2.64035
20
-0.439961
11
2.70925
21
-0.508858
0
LINE
8
BLACK
6
CONTINUOUS
10
2.70925
20
-0.439961
11
2.64035
21
-0.508858
0
LINE
8
BLACK
6
CONTINUOUS
10
2.64744
20
-1.56201
11
2.71634
21
-1.63091
0
LINE
8
BLACK
6
CONTINUOUS
10
2.71634
20
-1.56201
11
2.64744
21
-1.63091
0
LINE
8
BLACK
6
CONTINUOUS
10
2.66043
20
-2.30906
11
2.72933
21
-2.37795
0
LINE
8
BLACK
6
CONTINUOUS
10
2.72933
20
-2.30906
11
2.66043
21
-2.37795
0
LINE
8
BLACK
6
CONTINUOUS
10
2.82539
20
-3.8061
11
2.89429
21
-3.875
0
LINE
8
BLACK
6
CONTINUOUS
10
2.89429
20
-3.8061
11
2.82539
21
-3.875
0
LINE
8
BLACK
6
CONTINUOUS
10
2.82539
20
-4.55807
11
2.89429
21
-4.62697
0
LINE
8
BLACK
6
CONTINUOUS
10
2.89429
20
-4.55807
11
2.82539
21
-4.62697
0
LINE
8
BLACK
6
CONTINUOUS
10
2.85138
20
-3.05807
11
2.92028
21
-3.12697
0
LINE
8
BLACK
6
CONTINUOUS
10
2.92028
20
-3.05807
11
2.85138
21
-3.12697
0
LINE
8
BLACK
6
CONTINUOUS
10
3.00846
20
-2.30906
11
3.07736
21
-2.37795
0
LINE
8
BLACK
6
CONTINUOUS
10
3.07736
20
-2.30906
11
3.00846
21
-2.37795
0
LINE
8
BLACK
6
CONTINUOUS
10
3.04035
20
-0.439961
11
3.10925
21
-0.508858
0
LINE
8
BLACK
6
CONTINUOUS
10
3.10925
20
-0.439961
11
3.04035
21
-0.508858
0
LINE
8
BLACK
6
CONTINUOUS
10
3.04744
20
-1.56201
11
3.11634
21
-1.63091
0
LINE
8
BLACK
6
CONTINUOUS
10
3.11634
20
-1.56201
11
3.04744
21
-1.63091
0
LINE
8
BLACK
6
CONTINUOUS
10
3.19941
20
-3.05807
11
3.26831
21
-3.12697
0
LINE
8
BLACK
6
CONTINUOUS
10
3.26831
20
-3.05807
11
3.19941
21
-3.12697
0
LINE
8
BLACK
6
CONTINUOUS
10
3.22539
20
-3.8061
11
3.29429
21
-3.875
0
LINE
8
BLACK
6
CONTINUOUS
10
3.29429
20
-3.8061
11
3.22539
21
-3.875
0
LINE
8
BLACK
6
CONTINUOUS
10
3.22539
20
-4.55807
11
3.29429
21
-4.62697
0
LINE
8
BLACK
6
CONTINUOUS
10
3.29429
20
-4.55807
11
3.22539
21
-4.62697
0
LINE
8
BLACK
6
CONTINUOUS
10
3.39547
20
-1.56201
11
3.46437
21
-1.63091
0
LINE
8
BLACK
6
CONTINUOUS
10
3.46437
20
-1.56201
11
3.39547
21
-1.63091
0
LINE
8
BLACK
6
CONTINUOUS
10
3.40846
20
-2.30906
11
3.47736
21
-2.37795
0
LINE
8
BLACK
6
CONTINUOUS
10
3.47736
20
-2.30906
11
3.40846
21
-2.37795
0
LINE
8
BLACK
6
CONTINUOUS
10
3.57343
20
-3.8061
11
3.64232
21
-3.875
0
LINE
8
BLACK
6
CONTINUOUS
10
3.64232
20
-3.8061
11
3.57343
21
-3.875
0
LINE
8
BLACK
6
CONTINUOUS
10
3.59941
20
-3.05807
11
3.66831
21
-3.12697
0
LINE
8
BLACK
6
CONTINUOUS
10
3.66831
20
-3.05807
11
3.59941
21
-3.12697
0
LINE
8
BLACK
6
CONTINUOUS
10
3.7565
20
-2.30906
11
3.82539
21
-2.37795
0
LINE
8
BLACK
6
CONTINUOUS
10
3.82539
20
-2.30906
11
3.7565
21
-2.37795
0
LINE
8
BLACK
6
CONTINUOUS
10
3.79547
20
-1.56201
11
3.86437
21
-1.63091
0
LINE
8
BLACK
6
CONTINUOUS
10
3.86437
20
-1.56201
11
3.79547
21
-1.63091
0
LINE
8
BLACK
6
CONTINUOUS
10
3.94744
20
-3.05807
11
4.01634
21
-3.12697
0
LINE
8
BLACK
6
CONTINUOUS
10
4.01634
20
-3.05807
11
3.94744
21
-3.12697
0
LINE
8
BLACK
6
CONTINUOUS
10
3.97343
20
-3.8061
11
4.04232
21
-3.875
0
LINE
8
BLACK
6
CONTINUOUS
10
4.04232
20
-3.8061
11
3.97343
21
-3.875
0
LINE
8
BLACK
6
CONTINUOUS
10
4.13642
20
-0.439961
11
4.20531
21
-0.508858
0
LINE
8
BLACK
6
CONTINUOUS
10
4.20531
20
-0.439961
11
4.13642
21
-0.508858
0
LINE
8
BLACK
6
CONTINUOUS
10
4.1435
20
-1.56201
11
4.2124
21
-1.63091
0
LINE
8
BLACK
6
CONTINUOUS
10
4.2124
20
-1.56201
11
4.1435
21
-1.63091
0
LINE
8
BLACK
6
CONTINUOUS
10
4.1565
20
-2.30906
11
4.22539
21
-2.37795
0
LINE
8
BLACK
6
CONTINUOUS
10
4.22539
20
-2.30906
11
4.1565
21
-2.37795
0
LINE
8
BLACK
6
CONTINUOUS
10
4.32146
20
-3.8061
11
4.39035
21
-3.875
0
LINE
8
BLACK
6
CONTINUOUS
10
4.39035
20
-3.8061
11
4.32146
21
-3.875
0
LINE
8
BLACK
6
CONTINUOUS
10
4.34744
20
-3.05807
11
4.41634
21
-3.12697
0
LINE
8
BLACK
6
CONTINUOUS
10
4.41634
20
-3.05807
11
4.34744
21
-3.12697
0
LINE
8
BLACK
6
CONTINUOUS
10
4.50453
20
-2.30906
11
4.57343
21
-2.37795
0
LINE
8
BLACK
6
CONTINUOUS
10
4.57343
20
-2.30906
11
4.50453
21
-2.37795
0
LINE
8
BLACK
6
CONTINUOUS
10
4.53642
20
-0.439961
11
4.60531
21
-0.508858
0
LINE
8
BLACK
6
CONTINUOUS
10
4.60531
20
-0.439961
11
4.53642
21
-0.508858
0
LINE
8
BLACK
6
CONTINUOUS
10
4.5435
20
-1.56201
11
4.6124
21
-1.63091
0
LINE
8
BLACK
6
CONTINUOUS
10
4.6124
20
-1.56201
11
4.5435
21
-1.63091
0
LINE
8
BLACK
6
CONTINUOUS
10
4.69547
20
-3.05807
11
4.76437
21
-3.12697
0
LINE
8
BLACK
6
CONTINUOUS
10
4.76437
20
-3.05807
11
4.69547
21
-3.12697
0
LINE
8
BLACK
6
CONTINUOUS
10
4.72146
20
-3.8061
11
4.79035
21
-3.875
0
LINE
8
BLACK
6
CONTINUOUS
10
4.79035
20
-3.8061
11
4.72146
21
-3.875
0
LINE
8
BLACK
6
CONTINUOUS
10
4.89154
20
-1.56201
11
4.96043
21
-1.63091
0
LINE
8
BLACK
6
CONTINUOUS
10
4.96043
20
-1.56201
11
4.89154
21
-1.63091
0
LINE
8
BLACK
6
CONTINUOUS
10
4.90453
20
-2.30906
11
4.97343
21
-2.37795
0
LINE
8
BLACK
6
CONTINUOUS
10
4.97343
20
-2.30906
11
4.90453
21
-2.37795
0
LINE
8
BLACK
6
CONTINUOUS
10
5.06949
20
-3.8061
11
5.13839
21
-3.875
0
LINE
8
BLACK
6
CONTINUOUS
10
5.13839
20
-3.8061
11
5.06949
21
-3.875
0
LINE
8
BLACK
6
CONTINUOUS
10
5.09547
20
-3.05807
11
5.16437
21
-3.12697
0
LINE
8
BLACK
6
CONTINUOUS
10
5.16437
20
-3.05807
11
5.09547
21
-3.12697
0
LINE
8
BLACK
6
CONTINUOUS
10
5.25256
20
-2.30906
11
5.32146
21
-2.37795
0
LINE
8
BLACK
6
CONTINUOUS
10
5.32146
20
-2.30906
11
5.25256
21
-2.37795
0
LINE
8
BLACK
6
CONTINUOUS
10
5.29154
20
-1.56201
11
5.36043
21
-1.63091
0
LINE
8
BLACK
6
CONTINUOUS
10
5.36043
20
-1.56201
11
5.29154
21
-1.63091
0
LINE
8
BLACK
6
CONTINUOUS
10
5.4435
20
-3.05807
11
5.5124
21
-3.12697
0
LINE
8
BLACK
6
CONTINUOUS
10
5.5124
20
-3.05807
11
5.4435
21
-3.12697
0
LINE
8
BLACK
6
CONTINUOUS
10
5.46949
20
-3.8061
11
5.53839
21
-3.875
0
LINE
8
BLACK
6
CONTINUOUS
10
5.53839
20
-3.8061
11
5.46949
21
-3.875
0
LINE
8
BLACK
6
CONTINUOUS
10
5.63248
20
-0.439961
11
5.70138
21
-0.508858
0
LINE
8
BLACK
6
CONTINUOUS
10
5.70138
20
-0.439961
11
5.63248
21
-0.508858
0
LINE
8
BLACK
6
CONTINUOUS
10
5.63957
20
-1.56201
11
5.70846
21
-1.63091
0
LINE
8
BLACK
6
CONTINUOUS
10
5.70846
20
-1.56201
11
5.63957
21
-1.63091
0
LINE
8
BLACK
6
CONTINUOUS
10
5.65256
20
-2.30906
11
5.72146
21
-2.37795
0
LINE
8
BLACK
6
CONTINUOUS
10
5.72146
20
-2.30906
11
5.65256
21
-2.37795
0
LINE
8
BLACK
6
CONTINUOUS
10
5.81752
20
-3.8061
11
5.88642
21
-3.875
0
LINE
8
BLACK
6
CONTINUOUS
10
5.88642
20
-3.8061
11
5.81752
21
-3.875
0
LINE
8
BLACK
6
CONTINUOUS
10
5.81752
20
-4.55807
11
5.88642
21
-4.62697
0
LINE
8
BLACK
6
CONTINUOUS
10
5.88642
20
-4.55807
11
5.81752
21
-4.62697
0
LINE
8
BLACK
6
CONTINUOUS
10
5.8435
20
-3.05807
11
5.9124
21
-3.12697
0
LINE
8
BLACK
6
CONTINUOUS
10
5.9124
20
-3.05807
11
5.8435
21
-3.12697
0
LINE
8
BLACK
6
CONTINUOUS
10
6.00059
20
-2.30906
11
6.06949
21
-2.37795
0
LINE
8
BLACK
6
CONTINUOUS
10
6.06949
20
-2.30906
11
6.00059
21
-2.37795
0
LINE
8
BLACK
6
CONTINUOUS
10
6.03248
20
-0.439961
11
6.10138
21
-0.508858
0
LINE
8
BLACK
6
CONTINUOUS
10
6.10138
20
-0.439961
11
6.03248
21
-0.508858
0
LINE
8
BLACK
6
CONTINUOUS
10
6.03957
20
-1.56201
11
6.10846
21
-1.63091
0
LINE
8
BLACK
6
CONTINUOUS
10
6.10846
20
-1.56201
11
6.03957
21
-1.63091
0
LINE
8
BLACK
6
CONTINUOUS
10
6.19154
20
-3.05807
11
6.26043
21
-3.12697
0
LINE
8
BLACK
6
CONTINUOUS
10
6.26043
20
-3.05807
11
6.19154
21
-3.12697
0
LINE
8
BLACK
6
CONTINUOUS
10
6.21752
20
-3.8061
11
6.28642
21
-3.875
0
LINE
8
BLACK
6
CONTINUOUS
10
6.28642
20
-3.8061
11
6.21752
21
-3.875
0
LINE
8
BLACK
6
CONTINUOUS
10
6.21752
20
-4.55807
11
6.28642
21
-4.62697
0
LINE
8
BLACK
6
CONTINUOUS
10
6.28642
20
-4.55807
11
6.21752
21
-4.62697
0
LINE
8
BLACK
6
CONTINUOUS
10
6.3876
20
-1.56201
11
6.4565
21
-1.63091
0
LINE
8
BLACK
6
CONTINUOUS
10
6.4565
20
-1.56201
11
6.3876
21
-1.63091
0
LINE
8
BLACK
6
CONTINUOUS
10
6.40059
20
-2.30906
11
6.46949
21
-2.37795
0
LINE
8
BLACK
6
CONTINUOUS
10
6.46949
20
-2.30906
11
6.40059
21
-2.37795
0
LINE
8
BLACK
6
CONTINUOUS
10
6.56555
20
-3.8061
11
6.63445
21
-3.875
0
LINE
8
BLACK
6
CONTINUOUS
10
6.63445
20
-3.8061
11
6.56555
21
-3.875
0
LINE
8
BLACK
6
CONTINUOUS
10
6.56555
20
-4.55807
11
6.63445
21
-4.62697
0
LINE
8
BLACK
6
CONTINUOUS
10
6.63445
20
-4.55807
11
6.56555
21
-4.62697
0
LINE
8
BLACK
6
CONTINUOUS
10
6.59154
20
-3.05807
11
6.66043
21
-3.12697
0
LINE
8
BLACK
6
CONTINUOUS
10
6.66043
20
-3.05807
11
6.59154
21
-3.12697
0
LINE
8
BLACK
6
CONTINUOUS
10
6.74862
20
-2.30906
11
6.81752
21
-2.37795
0
LINE
8
BLACK
6
CONTINUOUS
10
6.81752
20
-2.30906
11
6.74862
21
-2.37795
0
LINE
8
BLACK
6
CONTINUOUS
10
6.7876
20
-1.56201
11
6.8565
21
-1.63091
0
LINE
8
BLACK
6
CONTINUOUS
10
6.8565
20
-1.56201
11
6.7876
21
-1.63091
0
LINE
8
BLACK
6
CONTINUOUS
10
6.93957
20
-3.05807
11
7.00846
21
-3.12697
0
LINE
8
BLACK
6
CONTINUOUS
10
7.00846
20
-3.05807
11
6.93957
21
-3.12697
0
LINE
8
BLACK
6
CONTINUOUS
10
6.96555
20
-3.8061
11
7.03445
21
-3.875
0
LINE
8
BLACK
6
CONTINUOUS
10
7.03445
20
-3.8061
11
6.96555
21
-3.875
0
LINE
8
BLACK
6
CONTINUOUS
10
6.96555
20
-4.55807
11
7.03445
21
-4.62697
0
LINE
8
BLACK
6
CONTINUOUS
10
7.03445
20
-4.55807
11
6.96555
21
-4.62697
0
LINE
8
BLACK
6
CONTINUOUS
10
7.12854
20
-0.439961
11
7.19744
21
-0.508858
0
LINE
8
BLACK
6
CONTINUOUS
10
7.19744
20
-0.439961
11
7.12854
21
-0.508858
0
LINE
8
BLACK
6
CONTINUOUS
10
7.13563
20
-1.56201
11
7.20453
21
-1.63091
0
LINE
8
BLACK
6
CONTINUOUS
10
7.20453
20
-1.56201
11
7.13563
21
-1.63091
0
LINE
8
BLACK
6
CONTINUOUS
10
7.14862
20
-2.30906
11
7.21752
21
-2.37795
0
LINE
8
BLACK
6
CONTINUOUS
10
7.21752
20
-2.30906
11
7.14862
21
-2.37795
0
LINE
8
BLACK
6
CONTINUOUS
10
7.31358
20
-3.8061
11
7.38248
21
-3.875
0
LINE
8
BLACK
6
CONTINUOUS
10
7.38248
20
-3.8061
11
7.31358
21
-3.875
0
LINE
8
BLACK
6
CONTINUOUS
10
7.33957
20
-3.05807
11
7.40846
21
-3.12697
0
LINE
8
BLACK
6
CONTINUOUS
10
7.40846
20
-3.05807
11
7.33957
21
-3.12697
0
LINE
8
BLACK
6
CONTINUOUS
10
7.49665
20
-2.30906
11
7.56555
21
-2.37795
0
LINE
8
BLACK
6
CONTINUOUS
10
7.56555
20
-2.30906
11
7.49665
21
-2.37795
0
LINE
8
BLACK
6
CONTINUOUS
10
7.52854
20
-0.439961
11
7.59744
21
-0.508858
0
LINE
8
BLACK
6
CONTINUOUS
10
7.59744
20
-0.439961
11
7.52854
21
-0.508858
0
LINE
8
BLACK
6
CONTINUOUS
10
7.53563
20
-1.56201
11
7.60453
21
-1.63091
0
LINE
8
BLACK
6
CONTINUOUS
10
7.60453
20
-1.56201
11
7.53563
21
-1.63091
0
LINE
8
BLACK
6
CONTINUOUS
10
7.6876
20
-3.05807
11
7.7565
21
-3.12697
0
LINE
8
BLACK
6
CONTINUOUS
10
7.7565
20
-3.05807
11
7.6876
21
-3.12697
0
LINE
8
BLACK
6
CONTINUOUS
10
7.71358
20
-3.8061
11
7.78248
21
-3.875
0
LINE
8
BLACK
6
CONTINUOUS
10
7.78248
20
-3.8061
11
7.71358
21
-3.875
0
LINE
8
BLACK
6
CONTINUOUS
10
7.88366
20
-1.56201
11
7.95256
21
-1.63091
0
LINE
8
BLACK
6
CONTINUOUS
10
7.95256
20
-1.56201
11
7.88366
21
-1.63091
0
LINE
8
BLACK
6
CONTINUOUS
10
7.89665
20
-2.30906
11
7.96555
21
-2.37795
0
LINE
8
BLACK
6
CONTINUOUS
10
7.96555
20
-2.30906
11
7.89665
21
-2.37795
0
LINE
8
BLACK
6
CONTINUOUS
10
8.06161
20
-3.8061
11
8.13051
21
-3.875
0
LINE
8
BLACK
6
CONTINUOUS
10
8.13051
20
-3.8061
11
8.06161
21
-3.875
0
LINE
8
BLACK
6
CONTINUOUS
10
8.0876
20
-3.05807
11
8.1565
21
-3.12697
0
LINE
8
BLACK
6
CONTINUOUS
10
8.1565
20
-3.05807
11
8.0876
21
-3.12697
0
LINE
8
BLACK
6
CONTINUOUS
10
8.24469
20
-2.30906
11
8.31358
21
-2.37795
0
LINE
8
BLACK
6
CONTINUOUS
10
8.31358
20
-2.30906
11
8.24469
21
-2.37795
0
LINE
8
BLACK
6
CONTINUOUS
10
8.28366
20
-1.56201
11
8.35256
21
-1.63091
0
LINE
8
BLACK
6
CONTINUOUS
10
8.35256
20
-1.56201
11
8.28366
21
-1.63091
0
LINE
8
BLACK
6
CONTINUOUS
10
8.43563
20
-3.05807
11
8.50453
21
-3.12697
0
LINE
8
BLACK
6
CONTINUOUS
10
8.50453
20
-3.05807
11
8.43563
21
-3.12697
0
LINE
8
BLACK
6
CONTINUOUS
10
8.46161
20
-3.8061
11
8.53051
21
-3.875
0
LINE
8
BLACK
6
CONTINUOUS
10
8.53051
20
-3.8061
11
8.46161
21
-3.875
0
LINE
8
BLACK
6
CONTINUOUS
10
8.62461
20
-0.439961
11
8.6935
21
-0.508858
0
LINE
8
BLACK
6
CONTINUOUS
10
8.6935
20
-0.439961
11
8.62461
21
-0.508858
0
LINE
8
BLACK
6
CONTINUOUS
10
8.63169
20
-1.56201
11
8.70059
21
-1.63091
0
LINE
8
BLACK
6
CONTINUOUS
10
8.70059
20
-1.56201
11
8.63169
21
-1.63091
0
LINE
8
BLACK
6
CONTINUOUS
10
8.64469
20
-2.30906
11
8.71358
21
-2.37795
0
LINE
8
BLACK
6
CONTINUOUS
10
8.71358
20
-2.30906
11
8.64469
21
-2.37795
0
LINE
8
BLACK
6
CONTINUOUS
10
8.80965
20
-3.8061
11
8.87854
21
-3.875
0
LINE
8
BLACK
6
CONTINUOUS
10
8.87854
20
-3.8061
11
8.80965
21
-3.875
0
LINE
8
BLACK
6
CONTINUOUS
10
8.83563
20
-3.05807
11
8.90453
21
-3.12697
0
LINE
8
BLACK
6
CONTINUOUS
10
8.90453
20
-3.05807
11
8.83563
21
-3.12697
0
LINE
8
BLACK
6
CONTINUOUS
10
8.99272
20
-2.30906
11
9.06161
21
-2.37795
0
LINE
8
BLACK
6
CONTINUOUS
10
9.06161
20
-2.30906
11
8.99272
21
-2.37795
0
LINE
8
BLACK
6
CONTINUOUS
10
9.02461
20
-0.439961
11
9.0935
21
-0.508858
0
LINE
8
BLACK
6
CONTINUOUS
10
9.0935
20
-0.439961
11
9.02461
21
-0.508858
0
LINE
8
BLACK
6
CONTINUOUS
10
9.03169
20
-1.56201
11
9.10059
21
-1.63091
0
LINE
8
BLACK
6
CONTINUOUS
10
9.10059
20
-1.56201
11
9.03169
21
-1.63091
0
LINE
8
BLACK
6
CONTINUOUS
10
9.18366
20
-3.05807
11
9.25256
21
-3.12697
0
LINE
8
BLACK
6
CONTINUOUS
10
9.25256
20
-3.05807
11
9.18366
21
-3.12697
0
LINE
8
BLACK
6
CONTINUOUS
10
9.20965
20
-3.8061
11
9.27854
21
-3.875
0
LINE
8
BLACK
6
CONTINUOUS
10
9.27854
20
-3.8061
11
9.20965
21
-3.875
0
LINE
8
BLACK
6
CONTINUOUS
10
9.37972
20
-1.56201
11
9.44862
21
-1.63091
0
LINE
8
BLACK
6
CONTINUOUS
10
9.44862
20
-1.56201
11
9.37972
21
-1.63091
0
LINE
8
BLACK
6
CONTINUOUS
10
9.39272
20
-2.30906
11
9.46161
21
-2.37795
0
LINE
8
BLACK
6
CONTINUOUS
10
9.46161
20
-2.30906
11
9.39272
21
-2.37795
0
LINE
8
BLACK
6
CONTINUOUS
10
9.55768
20
-3.8061
11
9.62657
21
-3.875
0
LINE
8
BLACK
6
CONTINUOUS
10
9.62657
20
-3.8061
11
9.55768
21
-3.875
0
LINE
8
BLACK
6
CONTINUOUS
10
9.58366
20
-3.05807
11
9.65256
21
-3.12697
0
LINE
8
BLACK
6
CONTINUOUS
10
9.65256
20
-3.05807
11
9.58366
21
-3.12697
0
LINE
8
BLACK
6
CONTINUOUS
10
9.74075
20
-2.30906
11
9.80965
21
-2.37795
0
LINE
8
BLACK
6
CONTINUOUS
10
9.80965
20
-2.30906
11
9.74075
21
-2.37795
0
LINE
8
BLACK
6
CONTINUOUS
10
9.77972
20
-1.56201
11
9.84862
21
-1.63091
0
LINE
8
BLACK
6
CONTINUOUS
10
9.84862
20
-1.56201
11
9.77972
21
-1.63091
0
LINE
8
BLACK
6
CONTINUOUS
10
9.93169
20
-3.05807
11
10.0006
21
-3.12697
0
LINE
8
BLACK
6
CONTINUOUS
10
10.0006
20
-3.05807
11
9.93169
21
-3.12697
0
LINE
8
BLACK
6
CONTINUOUS
10
9.95768
20
-3.8061
11
10.0266
21
-3.875
0
LINE
8
BLACK
6
CONTINUOUS
10
10.0266
20
-3.8061
11
9.95768
21
-3.875
0
LINE
8
BLACK
6
CONTINUOUS
10
10.1278
20
-1.56201
11
10.1967
21
-1.63091
0
LINE
8
BLACK
6
CONTINUOUS
10
10.1967
20
-1.56201
11
10.1278
21
-1.63091
0
LINE
8
BLACK
6
CONTINUOUS
10
10.1407
20
-2.30906
11
10.2096
21
-2.37795
0
LINE
8
BLACK
6
CONTINUOUS
10
10.2096
20
-2.30906
11
10.1407
21
-2.37795
0
LINE
8
BLACK
6
CONTINUOUS
10
10.3057
20
-4.55413
11
10.3746
21
-4.62303
0
LINE
8
BLACK
6
CONTINUOUS
10
10.3746
20
-4.55413
11
10.3057
21
-4.62303
0
LINE
8
BLACK
6
CONTINUOUS
10
10.3096
20
-0.439961
11
10.3785
21
-0.508858
0
LINE
8
BLACK
6
CONTINUOUS
10
10.3785
20
-0.439961
11
10.3096
21
-0.508858
0
LINE
8
BLACK
6
CONTINUOUS
10
10.3317
20
-3.05807
11
10.4006
21
-3.12697
0
LINE
8
BLACK
6
CONTINUOUS
10
10.4006
20
-3.05807
11
10.3317
21
-3.12697
0
LINE
8
BLACK
6
CONTINUOUS
10
10.5278
20
-1.56201
11
10.5967
21
-1.63091
0
LINE
8
BLACK
6
CONTINUOUS
10
10.5967
20
-1.56201
11
10.5278
21
-1.63091
0
LINE
8
BLACK
6
CONTINUOUS
10
10.6797
20
-3.8061
11
10.7486
21
-3.875
0
LINE
8
BLACK
6
CONTINUOUS
10
10.7486
20
-3.8061
11
10.6797
21
-3.875
0
LINE
8
BLACK
6
CONTINUOUS
10
10.7057
20
-4.55413
11
10.7746
21
-4.62303
0
LINE
8
BLACK
6
CONTINUOUS
10
10.7746
20
-4.55413
11
10.7057
21
-4.62303
0
LINE
8
BLACK
6
CONTINUOUS
10
10.7096
20
-0.439961
11
10.7785
21
-0.508858
0
LINE
8
BLACK
6
CONTINUOUS
10
10.7785
20
-0.439961
11
10.7096
21
-0.508858
0
LINE
8
BLACK
6
CONTINUOUS
10
10.7693
20
-2.30906
11
10.8382
21
-2.37795
0
LINE
8
BLACK
6
CONTINUOUS
10
10.8382
20
-2.30906
11
10.7693
21
-2.37795
0
LINE
8
BLACK
6
CONTINUOUS
10
10.8667
20
-3.05807
11
10.9356
21
-3.12697
0
LINE
8
BLACK
6
CONTINUOUS
10
10.9356
20
-3.05807
11
10.8667
21
-3.12697
0
LINE
8
BLACK
6
CONTINUOUS
10
10.9693
20
-1.56201
11
11.0382
21
-1.63091
0
LINE
8
BLACK
6
CONTINUOUS
10
11.0382
20
-1.56201
11
10.9693
21
-1.63091
0
LINE
8
BLACK
6
CONTINUOUS
10
11.0522
20
-3.80315
11
11.1211
21
-3.87205
0
LINE
8
BLACK
6
CONTINUOUS
10
11.1211
20
-3.80315
11
11.0522
21
-3.87205
0
LINE
8
BLACK
6
CONTINUOUS
10
11.0537
20
-4.55413
11
11.1226
21
-4.62303
0
LINE
8
BLACK
6
CONTINUOUS
10
11.1226
20
-4.55413
11
11.0537
21
-4.62303
0
LINE
8
BLACK
6
CONTINUOUS
10
11.0577
20
-0.439961
11
11.1266
21
-0.508858
0
LINE
8
BLACK
6
CONTINUOUS
10
11.1266
20
-0.439961
11
11.0577
21
-0.508858
0
LINE
8
BLACK
6
CONTINUOUS
10
11.0797
20
-3.8061
11
11.1486
21
-3.875
0
LINE
8
BLACK
6
CONTINUOUS
10
11.1486
20
-3.8061
11
11.0797
21
-3.875
0
LINE
8
BLACK
6
CONTINUOUS
10
11.1693
20
-2.30906
11
11.2382
21
-2.37795
0
LINE
8
BLACK
6
CONTINUOUS
10
11.2382
20
-2.30906
11
11.1693
21
-2.37795
0
LINE
8
BLACK
6
CONTINUOUS
10
11.2667
20
-3.05807
11
11.3356
21
-3.12697
0
LINE
8
BLACK
6
CONTINUOUS
10
11.3356
20
-3.05807
11
11.2667
21
-3.12697
0
LINE
8
BLACK
6
CONTINUOUS
10
11.3693
20
-1.56201
11
11.4382
21
-1.63091
0
LINE
8
BLACK
6
CONTINUOUS
10
11.4382
20
-1.56201
11
11.3693
21
-1.63091
0
LINE
8
BLACK
6
CONTINUOUS
10
11.4522
20
-3.80315
11
11.5211
21
-3.87205
0
LINE
8
BLACK
6
CONTINUOUS
10
11.5211
20
-3.80315
11
11.4522
21
-3.87205
0
LINE
8
BLACK
6
CONTINUOUS
10
11.4537
20
-4.55413
11
11.5226
21
-4.62303
0
LINE
8
BLACK
6
CONTINUOUS
10
11.5226
20
-4.55413
11
11.4537
21
-4.62303
0
LINE
8
BLACK
6
CONTINUOUS
10
11.4577
20
-0.439961
11
11.5266
21
-0.508858
0
LINE
8
BLACK
6
CONTINUOUS
10
11.5266
20
-0.439961
11
11.4577
21
-0.508858
0
LINE
8
BLACK
6
CONTINUOUS
10
11.8018
20
-3.8061
11
11.8707
21
-3.875
0
LINE
8
BLACK
6
CONTINUOUS
10
11.8707
20
-3.8061
11
11.8018
21
-3.875
0
LINE
8
BLACK
6
CONTINUOUS
10
11.8018
20
-4.55413
11
11.8707
21
-4.62303
0
LINE
8
BLACK
6
CONTINUOUS
10
11.8707
20
-4.55413
11
11.8018
21
-4.62303
0
LINE
8
BLACK
6
CONTINUOUS
10
12.2018
20
-3.8061
11
12.2707
21
-3.875
0
LINE
8
BLACK
6
CONTINUOUS
10
12.2707
20
-3.8061
11
12.2018
21
-3.875
0
LINE
8
BLACK
6
CONTINUOUS
10
12.2018
20
-4.55413
11
12.2707
21
-4.62303
0
LINE
8
BLACK
6
CONTINUOUS
10
12.2707
20
-4.55413
11
12.2018
21
-4.62303
0
LINE
8
BLACK
6
CONTINUOUS
10
13.0805
20
-1.56201
11
13.1494
21
-1.63091
0
LINE
8
BLACK
6
CONTINUOUS
10
13.1494
20
-1.56201
11
13.0805
21
-1.63091
0
LINE
8
BLACK
6
CONTINUOUS
10
13.0805
20
-2.31004
11
13.1494
21
-2.37894
0
LINE
8
BLACK
6
CONTINUOUS
10
13.1494
20
-2.31004
11
13.0805
21
-2.37894
0
LINE
8
BLACK
6
CONTINUOUS
10
13.0805
20
-3.05807
11
13.1494
21
-3.12697
0
LINE
8
BLACK
6
CONTINUOUS
10
13.1494
20
-3.05807
11
13.0805
21
-3.12697
0
LINE
8
BLACK
6
CONTINUOUS
10
13.0805
20
-3.8061
11
13.1494
21
-3.875
0
LINE
8
BLACK
6
CONTINUOUS
10
13.1494
20
-3.8061
11
13.0805
21
-3.875
0
LINE
8
BLACK
6
CONTINUOUS
10
13.0805
20
-4.55413
11
13.1494
21
-4.62303
0
LINE
8
BLACK
6
CONTINUOUS
10
13.1494
20
-4.55413
11
13.0805
21
-4.62303
0
LINE
8
BLACK
6
CONTINUOUS
10
13.4805
20
-1.56201
11
13.5494
21
-1.63091
0
LINE
8
BLACK
6
CONTINUOUS
10
13.5494
20
-1.56201
11
13.4805
21
-1.63091
0
LINE
8
BLACK
6
CONTINUOUS
10
13.4805
20
-2.31004
11
13.5494
21
-2.37894
0
LINE
8
BLACK
6
CONTINUOUS
10
13.5494
20
-2.31004
11
13.4805
21
-2.37894
0
LINE
8
BLACK
6
CONTINUOUS
10
13.4805
20
-3.05807
11
13.5494
21
-3.12697
0
LINE
8
BLACK
6
CONTINUOUS
10
13.5494
20
-3.05807
11
13.4805
21
-3.12697
0
LINE
8
BLACK
6
CONTINUOUS
10
13.4805
20
-3.8061
11
13.5494
21
-3.875
0
LINE
8
BLACK
6
CONTINUOUS
10
13.5494
20
-3.8061
11
13.4805
21
-3.875
0
LINE
8
BLACK
6
CONTINUOUS
10
13.4805
20
-4.55413
11
13.5494
21
-4.62303
0
LINE
8
BLACK
6
CONTINUOUS
10
13.5494
20
-4.55413
11
13.4805
21
-4.62303
0
LINE
8
BLACK
6
CONTINUOUS
10
13.8285
20
-1.56201
11
13.8974
21
-1.63091
0
LINE
8
BLACK
6
CONTINUOUS
10
13.8974
20
-1.56201
11
13.8285
21
-1.63091
0
LINE
8
BLACK
6
CONTINUOUS
10
13.8285
20
-2.31004
11
13.8974
21
-2.37894
0
LINE
8
BLACK
6
CONTINUOUS
10
13.8974
20
-2.31004
11
13.8285
21
-2.37894
0
LINE
8
BLACK
6
CONTINUOUS
10
13.8285
20
-3.05807
11
13.8974
21
-3.12697
0
LINE
8
BLACK
6
CONTINUOUS
10
13.8974
20
-3.05807
11
13.8285
21
-3.12697
0
LINE
8
BLACK
6
CONTINUOUS
10
13.8285
20
-3.8061
11
13.8974
21
-3.875
0
LINE
8
BLACK
6
CONTINUOUS
10
13.8974
20
-3.8061
11
13.8285
21
-3.875
0
LINE
8
BLACK
6
CONTINUOUS
10
13.8285
20
-4.55413
11
13.8974
21
-4.62303
0
LINE
8
BLACK
6
CONTINUOUS
10
13.8974
20
-4.55413
11
13.8285
21
-4.62303
0
LINE
8
BLACK
6
CONTINUOUS
10
14.2285
20
-1.56201
11
14.2974
21
-1.63091
0
LINE
8
BLACK
6
CONTINUOUS
10
14.2974
20
-1.56201
11
14.2285
21
-1.63091
0
LINE
8
BLACK
6
CONTINUOUS
10
14.2285
20
-2.31004
11
14.2974
21
-2.37894
0
LINE
8
BLACK
6
CONTINUOUS
10
14.2974
20
-2.31004
11
14.2285
21
-2.37894
0
LINE
8
BLACK
6
CONTINUOUS
10
14.2285
20
-3.05807
11
14.2974
21
-3.12697
0
LINE
8
BLACK
6
CONTINUOUS
10
14.2974
20
-3.05807
11
14.2285
21
-3.12697
0
LINE
8
BLACK
6
CONTINUOUS
10
14.2285
20
-3.8061
11
14.2974
21
-3.875
0
LINE
8
BLACK
6
CONTINUOUS
10
14.2974
20
-3.8061
11
14.2285
21
-3.875
0
LINE
8
BLACK
6
CONTINUOUS
10
14.2285
20
-4.55413
11
14.2974
21
-4.62303
0
LINE
8
BLACK
6
CONTINUOUS
10
14.2974
20
-4.55413
11
14.2285
21
-4.62303
0
LINE
8
BLACK
6
CONTINUOUS
10
14.5766
20
-1.56201
11
14.6455
21
-1.63091
0
LINE
8
BLACK
6
CONTINUOUS
10
14.6455
20
-1.56201
11
14.5766
21
-1.63091
0
LINE
8
BLACK
6
CONTINUOUS
10
14.5766
20
-2.31004
11
14.6455
21
-2.37894
0
LINE
8
BLACK
6
CONTINUOUS
10
14.6455
20
-2.31004
11
14.5766
21
-2.37894
0
LINE
8
BLACK
6
CONTINUOUS
10
14.5766
20
-3.05807
11
14.6455
21
-3.12697
0
LINE
8
BLACK
6
CONTINUOUS
10
14.6455
20
-3.05807
11
14.5766
21
-3.12697
0
LINE
8
BLACK
6
CONTINUOUS
10
14.5766
20
-3.8061
11
14.6455
21
-3.875
0
LINE
8
BLACK
6
CONTINUOUS
10
14.6455
20
-3.8061
11
14.5766
21
-3.875
0
LINE
8
BLACK
6
CONTINUOUS
10
14.5766
20
-4.55413
11
14.6455
21
-4.62303
0
LINE
8
BLACK
6
CONTINUOUS
10
14.6455
20
-4.55413
11
14.5766
21
-4.62303
0
LINE
8
BLACK
6
CONTINUOUS
10
14.9766
20
-1.56201
11
15.0455
21
-1.63091
0
LINE
8
BLACK
6
CONTINUOUS
10
15.0455
20
-1.56201
11
14.9766
21
-1.63091
0
LINE
8
BLACK
6
CONTINUOUS
10
14.9766
20
-2.31004
11
15.0455
21
-2.37894
0
LINE
8
BLACK
6
CONTINUOUS
10
15.0455
20
-2.31004
11
14.9766
21
-2.37894
0
LINE
8
BLACK
6
CONTINUOUS
10
14.9766
20
-3.05807
11
15.0455
21
-3.12697
0
LINE
8
BLACK
6
CONTINUOUS
10
15.0455
20
-3.05807
11
14.9766
21
-3.12697
0
LINE
8
BLACK
6
CONTINUOUS
10
14.9766
20
-3.8061
11
15.0455
21
-3.875
0
LINE
8
BLACK
6
CONTINUOUS
10
15.0455
20
-3.8061
11
14.9766
21
-3.875
0
LINE
8
BLACK
6
CONTINUOUS
10
14.9766
20
-4.55413
11
15.0455
21
-4.62303
0
LINE
8
BLACK
6
CONTINUOUS
10
15.0455
20
-4.55413
11
14.9766
21
-4.62303
0
LINE
8
BLACK
6
CONTINUOUS
10
15.3246
20
-1.56201
11
15.3935
21
-1.63091
0
LINE
8
BLACK
6
CONTINUOUS
10
15.3935
20
-1.56201
11
15.3246
21
-1.63091
0
LINE
8
BLACK
6
CONTINUOUS
10
15.3246
20
-2.31004
11
15.3935
21
-2.37894
0
LINE
8
BLACK
6
CONTINUOUS
10
15.3935
20
-2.31004
11
15.3246
21
-2.37894
0
LINE
8
BLACK
6
CONTINUOUS
10
15.3246
20
-3.05807
11
15.3935
21
-3.12697
0
LINE
8
BLACK
6
CONTINUOUS
10
15.3935
20
-3.05807
11
15.3246
21
-3.12697
0
LINE
8
BLACK
6
CONTINUOUS
10
15.3246
20
-3.8061
11
15.3935
21
-3.875
0
LINE
8
BLACK
6
CONTINUOUS
10
15.3935
20
-3.8061
11
15.3246
21
-3.875
0
LINE
8
BLACK
6
CONTINUOUS
10
15.3246
20
-4.55413
11
15.3935
21
-4.62303
0
LINE
8
BLACK
6
CONTINUOUS
10
15.3935
20
-4.55413
11
15.3246
21
-4.62303
0
LINE
8
BLACK
6
CONTINUOUS
10
15.7246
20
-1.56201
11
15.7935
21
-1.63091
0
LINE
8
BLACK
6
CONTINUOUS
10
15.7935
20
-1.56201
11
15.7246
21
-1.63091
0
LINE
8
BLACK
6
CONTINUOUS
10
15.7246
20
-2.31004
11
15.7935
21
-2.37894
0
LINE
8
BLACK
6
CONTINUOUS
10
15.7935
20
-2.31004
11
15.7246
21
-2.37894
0
LINE
8
BLACK
6
CONTINUOUS
10
15.7246
20
-3.05807
11
15.7935
21
-3.12697
0
LINE
8
BLACK
6
CONTINUOUS
10
15.7935
20
-3.05807
11
15.7246
21
-3.12697
0
LINE
8
BLACK
6
CONTINUOUS
10
15.7246
20
-3.8061
11
15.7935
21
-3.875
0
LINE
8
BLACK
6
CONTINUOUS
10
15.7935
20
-3.8061
11
15.7246
21
-3.875
0
LINE
8
BLACK
6
CONTINUOUS
10
15.7246
20
-4.55413
11
15.7935
21
-4.62303
0
LINE
8
BLACK
6
CONTINUOUS
10
15.7935
20
-4.55413
11
15.7246
21
-4.62303
0
CIRCLE
8
BLACK
10
0.441732
20
-0.474409
40
0.0785
0
CIRCLE
8
BLACK
10
0.441732
20
-3.09252
40
0.0785
0
CIRCLE
8
BLACK
10
0.441732
20
-3.84055
40
0.0785
0
CIRCLE
8
BLACK
10
0.531496
20
-1.59646
40
0.0785
0
CIRCLE
8
BLACK
10
0.718307
20
-2.3435
40
0.0785
0
CIRCLE
8
BLACK
10
1.18976
20
-0.474409
40
0.0785
0
CIRCLE
8
BLACK
10
1.18976
20
-3.09252
40
0.0785
0
CIRCLE
8
BLACK
10
1.38583
20
-1.59646
40
0.0785
0
CIRCLE
8
BLACK
10
1.56378
20
-3.84055
40
0.0785
0
CIRCLE
8
BLACK
10
1.74685
20
-2.3435
40
0.0785
0
CIRCLE
8
BLACK
10
1.9378
20
-3.09252
40
0.0785
0
CIRCLE
8
BLACK
10
2.13386
20
-1.59646
40
0.0785
0
CIRCLE
8
BLACK
10
2.31181
20
-3.84055
40
0.0785
0
CIRCLE
8
BLACK
10
2.31181
20
-4.59252
40
0.0785
0
CIRCLE
8
BLACK
10
2.49488
20
-2.3435
40
0.0785
0
CIRCLE
8
BLACK
10
2.68583
20
-3.09252
40
0.0785
0
CIRCLE
8
BLACK
10
2.8748
20
-0.474409
40
0.0785
0
CIRCLE
8
BLACK
10
2.88189
20
-1.59646
40
0.0785
0
CIRCLE
8
BLACK
10
3.05984
20
-3.84055
40
0.0785
0
CIRCLE
8
BLACK
10
3.05984
20
-4.59252
40
0.0785
0
CIRCLE
8
BLACK
10
3.24291
20
-2.3435
40
0.0785
0
CIRCLE
8
BLACK
10
3.43386
20
-3.09252
40
0.0785
0
CIRCLE
8
BLACK
10
3.62992
20
-1.59646
40
0.0785
0
CIRCLE
8
BLACK
10
3.80787
20
-3.84055
40
0.0785
0
CIRCLE
8
BLACK
10
3.99094
20
-2.3435
40
0.0785
0
CIRCLE
8
BLACK
10
4.18189
20
-3.09252
40
0.0785
0
CIRCLE
8
BLACK
10
4.37087
20
-0.474409
40
0.0785
0
CIRCLE
8
BLACK
10
4.37795
20
-1.59646
40
0.0785
0
CIRCLE
8
BLACK
10
4.55591
20
-3.84055
40
0.0785
0
CIRCLE
8
BLACK
10
4.73898
20
-2.3435
40
0.0785
0
CIRCLE
8
BLACK
10
4.92992
20
-3.09252
40
0.0785
0
CIRCLE
8
BLACK
10
5.12598
20
-1.59646
40
0.0785
0
CIRCLE
8
BLACK
10
5.30394
20
-3.84055
40
0.0785
0
CIRCLE
8
BLACK
10
5.48701
20
-2.3435
40
0.0785
0
CIRCLE
8
BLACK
10
5.67795
20
-3.09252
40
0.0785
0
CIRCLE
8
BLACK
10
5.86693
20
-0.474409
40
0.0785
0
CIRCLE
8
BLACK
10
5.87402
20
-1.59646
40
0.0785
0
CIRCLE
8
BLACK
10
6.05197
20
-3.84055
40
0.0785
0
CIRCLE
8
BLACK
10
6.05197
20
-4.59252
40
0.0785
0
CIRCLE
8
BLACK
10
6.23504
20
-2.3435
40
0.0785
0
CIRCLE
8
BLACK
10
6.42598
20
-3.09252
40
0.0785
0
CIRCLE
8
BLACK
10
6.62205
20
-1.59646
40
0.0785
0
CIRCLE
8
BLACK
10
6.8
20
-3.84055
40
0.0785
0
CIRCLE
8
BLACK
10
6.8
20
-4.59252
40
0.0785
0
CIRCLE
8
BLACK
10
6.98307
20
-2.3435
40
0.0785
0
CIRCLE
8
BLACK
10
7.17402
20
-3.09252
40
0.0785
0
CIRCLE
8
BLACK
10
7.36299
20
-0.474409
40
0.0785
0
CIRCLE
8
BLACK
10
7.37008
20
-1.59646
40
0.0785
0
CIRCLE
8
BLACK
10
7.54803
20
-3.84055
40
0.0785
0
CIRCLE
8
BLACK
10
7.7311
20
-2.3435
40
0.0785
0
CIRCLE
8
BLACK
10
7.92205
20
-3.09252
40
0.0785
0
CIRCLE
8
BLACK
10
8.11811
20
-1.59646
40
0.0785
0
CIRCLE
8
BLACK
10
8.29606
20
-3.84055
40
0.0785
0
CIRCLE
8
BLACK
10
8.47913
20
-2.3435
40
0.0785
0
CIRCLE
8
BLACK
10
8.67008
20
-3.09252
40
0.0785
0
CIRCLE
8
BLACK
10
8.85906
20
-0.474409
40
0.0785
0
CIRCLE
8
BLACK
10
8.86614
20
-1.59646
40
0.0785
0
CIRCLE
8
BLACK
10
9.04409
20
-3.84055
40
0.0785
0
CIRCLE
8
BLACK
10
9.22717
20
-2.3435
40
0.0785
0
CIRCLE
8
BLACK
10
9.41811
20
-3.09252
40
0.0785
0
CIRCLE
8
BLACK
10
9.61417
20
-1.59646
40
0.0785
0
CIRCLE
8
BLACK
10
9.79213
20
-3.84055
40
0.0785
0
CIRCLE
8
BLACK
10
9.9752
20
-2.3435
40
0.0785
0
CIRCLE
8
BLACK
10
10.1661
20
-3.09252
40
0.0785
0
CIRCLE
8
BLACK
10
10.3622
20
-1.59646
40
0.0785
0
CIRCLE
8
BLACK
10
10.5402
20
-4.58858
40
0.0785
0
CIRCLE
8
BLACK
10
10.5441
20
-0.474409
40
0.0785
0
CIRCLE
8
BLACK
10
10.9142
20
-3.84055
40
0.0785
0
CIRCLE
8
BLACK
10
11.0037
20
-2.3435
40
0.0785
0
CIRCLE
8
BLACK
10
11.1012
20
-3.09252
40
0.0785
0
CIRCLE
8
BLACK
10
11.2037
20
-1.59646
40
0.0785
0
CIRCLE
8
BLACK
10
11.2866
20
-3.8376
40
0.0785
0
CIRCLE
8
BLACK
10
11.2882
20
-4.58858
40
0.0785
0
CIRCLE
8
BLACK
10
11.2921
20
-0.474409
40
0.0785
0
CIRCLE
8
BLACK
10
12.0362
20
-3.84055
40
0.0785
0
CIRCLE
8
BLACK
10
12.0362
20
-4.58858
40
0.0785
0
CIRCLE
8
BLACK
10
13.315
20
-1.59646
40
0.0785
0
CIRCLE
8
BLACK
10
13.315
20
-2.34449
40
0.0785
0
CIRCLE
8
BLACK
10
13.315
20
-3.09252
40
0.0785
0
CIRCLE
8
BLACK
10
13.315
20
-3.84055
40
0.0785
0
CIRCLE
8
BLACK
10
13.315
20
-4.58858
40
0.0785
0
CIRCLE
8
BLACK
10
14.063
20
-1.59646
40
0.0785
0
CIRCLE
8
BLACK
10
14.063
20
-2.34449
40
0.0785
0
CIRCLE
8
BLACK
10
14.063
20
-3.09252
40
0.0785
0
CIRCLE
8
BLACK
10
14.063
20
-3.84055
40
0.0785
0
CIRCLE
8
BLACK
10
14.063
20
-4.58858
40
0.0785
0
CIRCLE
8
BLACK
10
14.811
20
-1.59646
40
0.0785
0
CIRCLE
8
BLACK
10
14.811
20
-2.34449
40
0.0785
0
CIRCLE
8
BLACK
10
14.811
20
-3.09252
40
0.0785
0
CIRCLE
8
BLACK
10
14.811
20
-3.84055
40
0.0785
0
CIRCLE
8
BLACK
10
14.811
20
-4.58858
40
0.0785
0
CIRCLE
8
BLACK
10
15.5591
20
-1.59646
40
0.0785
0
CIRCLE
8
BLACK
10
15.5591
20
-2.34449
40
0.0785
0
CIRCLE
8
BLACK
10
15.5591
20
-3.09252
40
0.0785
0
CIRCLE
8
BLACK
10
15.5591
20
-3.84055
40
0.0785
0
CIRCLE
8
BLACK
10
15.5591
20
-4.58858
40
0.0785
0
LINE
8
BLACK
6
CONTINUOUS
10
0.0940035
20
-5.47401
11
0.0940035
21
-5.39527
0
LINE
8
BLACK
6
CONTINUOUS
10
0.0940035
20
-5.39527
11
0.112751
21
-5.39527
0
LINE
8
BLACK
6
CONTINUOUS
10
0.112751
20
-5.39527
11
0.124
21
-5.39902
0
LINE
8
BLACK
6
CONTINUOUS
10
0.124
20
-5.39902
11
0.131499
21
-5.40651
0
LINE
8
BLACK
6
CONTINUOUS
10
0.131499
20
-5.40651
11
0.135248
21
-5.41401
0
LINE
8
BLACK
6
CONTINUOUS
10
0.135248
20
-5.41401
11
0.138998
21
-5.42901
0
LINE
8
BLACK
6
CONTINUOUS
10
0.138998
20
-5.42901
11
0.138998
21
-5.44026
0
LINE
8
BLACK
6
CONTINUOUS
10
0.138998
20
-5.44026
11
0.135248
21
-5.45526
0
LINE
8
BLACK
6
CONTINUOUS
10
0.135248
20
-5.45526
11
0.131499
21
-5.46276
0
LINE
8
BLACK
6
CONTINUOUS
10
0.131499
20
-5.46276
11
0.124
21
-5.47026
0
LINE
8
BLACK
6
CONTINUOUS
10
0.124
20
-5.47026
11
0.112751
21
-5.47401
0
LINE
8
BLACK
6
CONTINUOUS
10
0.112751
20
-5.47401
11
0.0940035
21
-5.47401
0
LINE
8
BLACK
6
CONTINUOUS
10
0.172744
20
-5.47401
11
0.172744
21
-5.42151
0
LINE
8
BLACK
6
CONTINUOUS
10
0.172744
20
-5.43651
11
0.176493
21
-5.42901
0
LINE
8
BLACK
6
CONTINUOUS
10
0.176493
20
-5.42901
11
0.180243
21
-5.42526
0
LINE
8
BLACK
6
CONTINUOUS
10
0.180243
20
-5.42526
11
0.187742
21
-5.42151
0
LINE
8
BLACK
6
CONTINUOUS
10
0.187742
20
-5.42151
11
0.195241
21
-5.42151
0
LINE
8
BLACK
6
CONTINUOUS
10
0.221488
20
-5.47401
11
0.221488
21
-5.42151
0
LINE
8
BLACK
6
CONTINUOUS
10
0.221488
20
-5.39527
11
0.217738
21
-5.39902
0
LINE
8
BLACK
6
CONTINUOUS
10
0.217738
20
-5.39902
11
0.221488
21
-5.40277
0
LINE
8
BLACK
6
CONTINUOUS
10
0.221488
20
-5.40277
11
0.225237
21
-5.39902
0
LINE
8
BLACK
6
CONTINUOUS
10
0.225237
20
-5.39902
11
0.221488
21
-5.39527
0
LINE
8
BLACK
6
CONTINUOUS
10
0.221488
20
-5.39527
11
0.221488
21
-5.40277
0
LINE
8
BLACK
6
CONTINUOUS
10
0.270231
20
-5.47401
11
0.262732
21
-5.47026
0
LINE
8
BLACK
6
CONTINUOUS
10
0.262732
20
-5.47026
11
0.258983
21
-5.46276
0
LINE
8
BLACK
6
CONTINUOUS
10
0.258983
20
-5.46276
11
0.258983
21
-5.39527
0
LINE
8
BLACK
6
CONTINUOUS
10
0.311476
20
-5.47401
11
0.303977
21
-5.47026
0
LINE
8
BLACK
6
CONTINUOUS
10
0.303977
20
-5.47026
11
0.300228
21
-5.46276
0
LINE
8
BLACK
6
CONTINUOUS
10
0.300228
20
-5.46276
11
0.300228
21
-5.39527
0
LINE
8
BLACK
6
CONTINUOUS
10
0.388717
20
-5.47401
11
0.388717
21
-5.39527
0
LINE
8
BLACK
6
CONTINUOUS
10
0.388717
20
-5.39527
11
0.414963
21
-5.45151
0
LINE
8
BLACK
6
CONTINUOUS
10
0.414963
20
-5.45151
11
0.44121
21
-5.39527
0
LINE
8
BLACK
6
CONTINUOUS
10
0.44121
20
-5.39527
11
0.44121
21
-5.47401
0
LINE
8
BLACK
6
CONTINUOUS
10
0.512451
20
-5.47401
11
0.512451
21
-5.43276
0
LINE
8
BLACK
6
CONTINUOUS
10
0.512451
20
-5.43276
11
0.508702
21
-5.42526
0
LINE
8
BLACK
6
CONTINUOUS
10
0.508702
20
-5.42526
11
0.501203
21
-5.42151
0
LINE
8
BLACK
6
CONTINUOUS
10
0.501203
20
-5.42151
11
0.486204
21
-5.42151
0
LINE
8
BLACK
6
CONTINUOUS
10
0.486204
20
-5.42151
11
0.478705
21
-5.42526
0
LINE
8
BLACK
6
CONTINUOUS
10
0.512451
20
-5.47026
11
0.504952
21
-5.47401
0
LINE
8
BLACK
6
CONTINUOUS
10
0.504952
20
-5.47401
11
0.486204
21
-5.47401
0
LINE
8
BLACK
6
CONTINUOUS
10
0.486204
20
-5.47401
11
0.478705
21
-5.47026
0
LINE
8
BLACK
6
CONTINUOUS
10
0.478705
20
-5.47026
11
0.474956
21
-5.46276
0
LINE
8
BLACK
6
CONTINUOUS
10
0.474956
20
-5.46276
11
0.474956
21
-5.45526
0
LINE
8
BLACK
6
CONTINUOUS
10
0.474956
20
-5.45526
11
0.478705
21
-5.44776
0
LINE
8
BLACK
6
CONTINUOUS
10
0.478705
20
-5.44776
11
0.486204
21
-5.44401
0
LINE
8
BLACK
6
CONTINUOUS
10
0.486204
20
-5.44401
11
0.504952
21
-5.44401
0
LINE
8
BLACK
6
CONTINUOUS
10
0.504952
20
-5.44401
11
0.512451
21
-5.44026
0
LINE
8
BLACK
6
CONTINUOUS
10
0.549947
20
-5.42151
11
0.549947
21
-5.50025
0
LINE
8
BLACK
6
CONTINUOUS
10
0.549947
20
-5.42526
11
0.557446
21
-5.42151
0
LINE
8
BLACK
6
CONTINUOUS
10
0.557446
20
-5.42151
11
0.572444
21
-5.42151
0
LINE
8
BLACK
6
CONTINUOUS
10
0.572444
20
-5.42151
11
0.579943
21
-5.42526
0
LINE
8
BLACK
6
CONTINUOUS
10
0.579943
20
-5.42526
11
0.583692
21
-5.42901
0
LINE
8
BLACK
6
CONTINUOUS
10
0.583692
20
-5.42901
11
0.587442
21
-5.43651
0
LINE
8
BLACK
6
CONTINUOUS
10
0.587442
20
-5.43651
11
0.587442
21
-5.45901
0
LINE
8
BLACK
6
CONTINUOUS
10
0.587442
20
-5.45901
11
0.583692
21
-5.46651
0
LINE
8
BLACK
6
CONTINUOUS
10
0.583692
20
-5.46651
11
0.579943
21
-5.47026
0
LINE
8
BLACK
6
CONTINUOUS
10
0.579943
20
-5.47026
11
0.572444
21
-5.47401
0
LINE
8
BLACK
6
CONTINUOUS
10
0.572444
20
-5.47401
11
0.557446
21
-5.47401
0
LINE
8
BLACK
6
CONTINUOUS
10
0.557446
20
-5.47401
11
0.549947
21
-5.47026
0
LINE
8
BLACK
6
CONTINUOUS
10
0.621188
20
-5.46651
11
0.624937
21
-5.47026
0
LINE
8
BLACK
6
CONTINUOUS
10
0.624937
20
-5.47026
11
0.621188
21
-5.47401
0
LINE
8
BLACK
6
CONTINUOUS
10
0.621188
20
-5.47401
11
0.617438
21
-5.47026
0
LINE
8
BLACK
6
CONTINUOUS
10
0.617438
20
-5.47026
11
0.621188
21
-5.46651
0
LINE
8
BLACK
6
CONTINUOUS
10
0.621188
20
-5.46651
11
0.621188
21
-5.47401
0
LINE
8
BLACK
6
CONTINUOUS
10
0.621188
20
-5.42526
11
0.624937
21
-5.42901
0
LINE
8
BLACK
6
CONTINUOUS
10
0.624937
20
-5.42901
11
0.621188
21
-5.43276
0
LINE
8
BLACK
6
CONTINUOUS
10
0.621188
20
-5.43276
11
0.617438
21
-5.42901
0
LINE
8
BLACK
6
CONTINUOUS
10
0.617438
20
-5.42901
11
0.621188
21
-5.42526
0
LINE
8
BLACK
6
CONTINUOUS
10
0.621188
20
-5.42526
11
0.621188
21
-5.43276
0
LINE
8
BLACK
6
CONTINUOUS
10
-0.0723819
20
-5.57598
11
-0.00348425
21
-5.64488
0
LINE
8
BLACK
6
CONTINUOUS
10
-0.00348425
20
-5.57598
11
-0.0723819
21
-5.64488
0
LINE
8
BLACK
6
CONTINUOUS
10
0.135248
20
-5.63936
11
0.090254
21
-5.63936
0
LINE
8
BLACK
6
CONTINUOUS
10
0.112751
20
-5.63936
11
0.112751
21
-5.56062
0
LINE
8
BLACK
6
CONTINUOUS
10
0.112751
20
-5.56062
11
0.105252
21
-5.57187
0
LINE
8
BLACK
6
CONTINUOUS
10
0.105252
20
-5.57187
11
0.0977531
21
-5.57937
0
LINE
8
BLACK
6
CONTINUOUS
10
0.0977531
20
-5.57937
11
0.090254
21
-5.58312
0
LINE
8
BLACK
6
CONTINUOUS
10
0.168994
20
-5.63186
11
0.172744
21
-5.63561
0
LINE
8
BLACK
6
CONTINUOUS
10
0.172744
20
-5.63561
11
0.168994
21
-5.63936
0
LINE
8
BLACK
6
CONTINUOUS
10
0.168994
20
-5.63936
11
0.165245
21
-5.63561
0
LINE
8
BLACK
6
CONTINUOUS
10
0.165245
20
-5.63561
11
0.168994
21
-5.63186
0
LINE
8
BLACK
6
CONTINUOUS
10
0.168994
20
-5.63186
11
0.168994
21
-5.63936
0
LINE
8
BLACK
6
CONTINUOUS
10
0.19899
20
-5.56062
11
0.251484
21
-5.56062
0
LINE
8
BLACK
6
CONTINUOUS
10
0.251484
20
-5.56062
11
0.217738
21
-5.63936
0
LINE
8
BLACK
6
CONTINUOUS
10
0.318975
20
-5.56062
11
0.28148
21
-5.56062
0
LINE
8
BLACK
6
CONTINUOUS
10
0.28148
20
-5.56062
11
0.277731
21
-5.59812
0
LINE
8
BLACK
6
CONTINUOUS
10
0.277731
20
-5.59812
11
0.28148
21
-5.59437
0
LINE
8
BLACK
6
CONTINUOUS
10
0.28148
20
-5.59437
11
0.288979
21
-5.59062
0
LINE
8
BLACK
6
CONTINUOUS
10
0.288979
20
-5.59062
11
0.307727
21
-5.59062
0
LINE
8
BLACK
6
CONTINUOUS
10
0.307727
20
-5.59062
11
0.315226
21
-5.59437
0
LINE
8
BLACK
6
CONTINUOUS
10
0.315226
20
-5.59437
11
0.318975
21
-5.59812
0
LINE
8
BLACK
6
CONTINUOUS
10
0.318975
20
-5.59812
11
0.322725
21
-5.60561
0
LINE
8
BLACK
6
CONTINUOUS
10
0.322725
20
-5.60561
11
0.322725
21
-5.62436
0
LINE
8
BLACK
6
CONTINUOUS
10
0.322725
20
-5.62436
11
0.318975
21
-5.63186
0
LINE
8
BLACK
6
CONTINUOUS
10
0.318975
20
-5.63186
11
0.315226
21
-5.63561
0
LINE
8
BLACK
6
CONTINUOUS
10
0.315226
20
-5.63561
11
0.307727
21
-5.63936
0
LINE
8
BLACK
6
CONTINUOUS
10
0.307727
20
-5.63936
11
0.288979
21
-5.63936
0
LINE
8
BLACK
6
CONTINUOUS
10
0.288979
20
-5.63936
11
0.28148
21
-5.63561
0
LINE
8
BLACK
6
CONTINUOUS
10
0.28148
20
-5.63561
11
0.277731
21
-5.63186
0
LINE
8
BLACK
6
CONTINUOUS
10
0.371469
20
-5.56062
11
0.378968
21
-5.56062
0
LINE
8
BLACK
6
CONTINUOUS
10
0.378968
20
-5.56062
11
0.386467
21
-5.56437
0
LINE
8
BLACK
6
CONTINUOUS
10
0.386467
20
-5.56437
11
0.390217
21
-5.56812
0
LINE
8
BLACK
6
CONTINUOUS
10
0.390217
20
-5.56812
11
0.393966
21
-5.57562
0
LINE
8
BLACK
6
CONTINUOUS
10
0.393966
20
-5.57562
11
0.397716
21
-5.59062
0
LINE
8
BLACK
6
CONTINUOUS
10
0.397716
20
-5.59062
11
0.397716
21
-5.60936
0
LINE
8
BLACK
6
CONTINUOUS
10
0.397716
20
-5.60936
11
0.393966
21
-5.62436
0
LINE
8
BLACK
6
CONTINUOUS
10
0.393966
20
-5.62436
11
0.390217
21
-5.63186
0
LINE
8
BLACK
6
CONTINUOUS
10
0.390217
20
-5.63186
11
0.386467
21
-5.63561
0
LINE
8
BLACK
6
CONTINUOUS
10
0.386467
20
-5.63561
11
0.378968
21
-5.63936
0
LINE
8
BLACK
6
CONTINUOUS
10
0.378968
20
-5.63936
11
0.371469
21
-5.63936
0
LINE
8
BLACK
6
CONTINUOUS
10
0.371469
20
-5.63936
11
0.36397
21
-5.63561
0
LINE
8
BLACK
6
CONTINUOUS
10
0.36397
20
-5.63561
11
0.36022
21
-5.63186
0
LINE
8
BLACK
6
CONTINUOUS
10
0.36022
20
-5.63186
11
0.356471
21
-5.62436
0
LINE
8
BLACK
6
CONTINUOUS
10
0.356471
20
-5.62436
11
0.352721
21
-5.60936
0
LINE
8
BLACK
6
CONTINUOUS
10
0.352721
20
-5.60936
11
0.352721
21
-5.59062
0
LINE
8
BLACK
6
CONTINUOUS
10
0.352721
20
-5.59062
11
0.356471
21
-5.57562
0
LINE
8
BLACK
6
CONTINUOUS
10
0.356471
20
-5.57562
11
0.36022
21
-5.56812
0
LINE
8
BLACK
6
CONTINUOUS
10
0.36022
20
-5.56812
11
0.36397
21
-5.56437
0
LINE
8
BLACK
6
CONTINUOUS
10
0.36397
20
-5.56437
11
0.371469
21
-5.56062
0
LINE
8
BLACK
6
CONTINUOUS
10
0.431461
20
-5.63936
11
0.431461
21
-5.58687
0
LINE
8
BLACK
6
CONTINUOUS
10
0.431461
20
-5.59437
11
0.435211
21
-5.59062
0
LINE
8
BLACK
6
CONTINUOUS
10
0.435211
20
-5.59062
11
0.44271
21
-5.58687
0
LINE
8
BLACK
6
CONTINUOUS
10
0.44271
20
-5.58687
11
0.453959
21
-5.58687
0
LINE
8
BLACK
6
CONTINUOUS
10
0.453959
20
-5.58687
11
0.461458
21
-5.59062
0
LINE
8
BLACK
6
CONTINUOUS
10
0.461458
20
-5.59062
11
0.465207
21
-5.59812
0
LINE
8
BLACK
6
CONTINUOUS
10
0.465207
20
-5.59812
11
0.465207
21
-5.63936
0
LINE
8
BLACK
6
CONTINUOUS
10
0.465207
20
-5.59812
11
0.468957
21
-5.59062
0
LINE
8
BLACK
6
CONTINUOUS
10
0.468957
20
-5.59062
11
0.476456
21
-5.58687
0
LINE
8
BLACK
6
CONTINUOUS
10
0.476456
20
-5.58687
11
0.487704
21
-5.58687
0
LINE
8
BLACK
6
CONTINUOUS
10
0.487704
20
-5.58687
11
0.495203
21
-5.59062
0
LINE
8
BLACK
6
CONTINUOUS
10
0.495203
20
-5.59062
11
0.498953
21
-5.59812
0
LINE
8
BLACK
6
CONTINUOUS
10
0.498953
20
-5.59812
11
0.498953
21
-5.63936
0
LINE
8
BLACK
6
CONTINUOUS
10
0.536448
20
-5.63936
11
0.536448
21
-5.58687
0
LINE
8
BLACK
6
CONTINUOUS
10
0.536448
20
-5.59437
11
0.540198
21
-5.59062
0
LINE
8
BLACK
6
CONTINUOUS
10
0.540198
20
-5.59062
11
0.547697
21
-5.58687
0
LINE
8
BLACK
6
CONTINUOUS
10
0.547697
20
-5.58687
11
0.558945
21
-5.58687
0
LINE
8
BLACK
6
CONTINUOUS
10
0.558945
20
-5.58687
11
0.566445
21
-5.59062
0
LINE
8
BLACK
6
CONTINUOUS
10
0.566445
20
-5.59062
11
0.570194
21
-5.59812
0
LINE
8
BLACK
6
CONTINUOUS
10
0.570194
20
-5.59812
11
0.570194
21
-5.63936
0
LINE
8
BLACK
6
CONTINUOUS
10
0.570194
20
-5.59812
11
0.573944
21
-5.59062
0
LINE
8
BLACK
6
CONTINUOUS
10
0.573944
20
-5.59062
11
0.581443
21
-5.58687
0
LINE
8
BLACK
6
CONTINUOUS
10
0.581443
20
-5.58687
11
0.592691
21
-5.58687
0
LINE
8
BLACK
6
CONTINUOUS
10
0.592691
20
-5.58687
11
0.60019
21
-5.59062
0
LINE
8
BLACK
6
CONTINUOUS
10
0.60019
20
-5.59062
11
0.60394
21
-5.59812
0
LINE
8
BLACK
6
CONTINUOUS
10
0.60394
20
-5.59812
11
0.60394
21
-5.63936
0
LINE
8
BLACK
6
CONTINUOUS
10
0.744922
20
-5.55687
11
0.677431
21
-5.65811
0
LINE
8
BLACK
6
CONTINUOUS
10
0.833411
20
-5.56062
11
0.84091
21
-5.56062
0
LINE
8
BLACK
6
CONTINUOUS
10
0.84091
20
-5.56062
11
0.848409
21
-5.56437
0
LINE
8
BLACK
6
CONTINUOUS
10
0.848409
20
-5.56437
11
0.852159
21
-5.56812
0
LINE
8
BLACK
6
CONTINUOUS
10
0.852159
20
-5.56812
11
0.855908
21
-5.57562
0
LINE
8
BLACK
6
CONTINUOUS
10
0.855908
20
-5.57562
11
0.859658
21
-5.59062
0
LINE
8
BLACK
6
CONTINUOUS
10
0.859658
20
-5.59062
11
0.859658
21
-5.60936
0
LINE
8
BLACK
6
CONTINUOUS
10
0.859658
20
-5.60936
11
0.855908
21
-5.62436
0
LINE
8
BLACK
6
CONTINUOUS
10
0.855908
20
-5.62436
11
0.852159
21
-5.63186
0
LINE
8
BLACK
6
CONTINUOUS
10
0.852159
20
-5.63186
11
0.848409
21
-5.63561
0
LINE
8
BLACK
6
CONTINUOUS
10
0.848409
20
-5.63561
11
0.84091
21
-5.63936
0
LINE
8
BLACK
6
CONTINUOUS
10
0.84091
20
-5.63936
11
0.833411
21
-5.63936
0
LINE
8
BLACK
6
CONTINUOUS
10
0.833411
20
-5.63936
11
0.825912
21
-5.63561
0
LINE
8
BLACK
6
CONTINUOUS
10
0.825912
20
-5.63561
11
0.822163
21
-5.63186
0
LINE
8
BLACK
6
CONTINUOUS
10
0.822163
20
-5.63186
11
0.818413
21
-5.62436
0
LINE
8
BLACK
6
CONTINUOUS
10
0.818413
20
-5.62436
11
0.814664
21
-5.60936
0
LINE
8
BLACK
6
CONTINUOUS
10
0.814664
20
-5.60936
11
0.814664
21
-5.59062
0
LINE
8
BLACK
6
CONTINUOUS
10
0.814664
20
-5.59062
11
0.818413
21
-5.57562
0
LINE
8
BLACK
6
CONTINUOUS
10
0.818413
20
-5.57562
11
0.822163
21
-5.56812
0
LINE
8
BLACK
6
CONTINUOUS
10
0.822163
20
-5.56812
11
0.825912
21
-5.56437
0
LINE
8
BLACK
6
CONTINUOUS
10
0.825912
20
-5.56437
11
0.833411
21
-5.56062
0
LINE
8
BLACK
6
CONTINUOUS
10
0.893404
20
-5.63186
11
0.897153
21
-5.63561
0
LINE
8
BLACK
6
CONTINUOUS
10
0.897153
20
-5.63561
11
0.893404
21
-5.63936
0
LINE
8
BLACK
6
CONTINUOUS
10
0.893404
20
-5.63936
11
0.889654
21
-5.63561
0
LINE
8
BLACK
6
CONTINUOUS
10
0.889654
20
-5.63561
11
0.893404
21
-5.63186
0
LINE
8
BLACK
6
CONTINUOUS
10
0.893404
20
-5.63186
11
0.893404
21
-5.63936
0
LINE
8
BLACK
6
CONTINUOUS
10
0.945897
20
-5.56062
11
0.953396
21
-5.56062
0
LINE
8
BLACK
6
CONTINUOUS
10
0.953396
20
-5.56062
11
0.960895
21
-5.56437
0
LINE
8
BLACK
6
CONTINUOUS
10
0.960895
20
-5.56437
11
0.964645
21
-5.56812
0
LINE
8
BLACK
6
CONTINUOUS
10
0.964645
20
-5.56812
11
0.968394
21
-5.57562
0
LINE
8
BLACK
6
CONTINUOUS
10
0.968394
20
-5.57562
11
0.972144
21
-5.59062
0
LINE
8
BLACK
6
CONTINUOUS
10
0.972144
20
-5.59062
11
0.972144
21
-5.60936
0
LINE
8
BLACK
6
CONTINUOUS
10
0.972144
20
-5.60936
11
0.968394
21
-5.62436
0
LINE
8
BLACK
6
CONTINUOUS
10
0.968394
20
-5.62436
11
0.964645
21
-5.63186
0
LINE
8
BLACK
6
CONTINUOUS
10
0.964645
20
-5.63186
11
0.960895
21
-5.63561
0
LINE
8
BLACK
6
CONTINUOUS
10
0.960895
20
-5.63561
11
0.953396
21
-5.63936
0
LINE
8
BLACK
6
CONTINUOUS
10
0.953396
20
-5.63936
11
0.945897
21
-5.63936
0
LINE
8
BLACK
6
CONTINUOUS
10
0.945897
20
-5.63936
11
0.938398
21
-5.63561
0
LINE
8
BLACK
6
CONTINUOUS
10
0.938398
20
-5.63561
11
0.934649
21
-5.63186
0
LINE
8
BLACK
6
CONTINUOUS
10
0.934649
20
-5.63186
11
0.930899
21
-5.62436
0
LINE
8
BLACK
6
CONTINUOUS
10
0.930899
20
-5.62436
11
0.927149
21
-5.60936
0
LINE
8
BLACK
6
CONTINUOUS
10
0.927149
20
-5.60936
11
0.927149
21
-5.59062
0
LINE
8
BLACK
6
CONTINUOUS
10
0.927149
20
-5.59062
11
0.930899
21
-5.57562
0
LINE
8
BLACK
6
CONTINUOUS
10
0.930899
20
-5.57562
11
0.934649
21
-5.56812
0
LINE
8
BLACK
6
CONTINUOUS
10
0.934649
20
-5.56812
11
0.938398
21
-5.56437
0
LINE
8
BLACK
6
CONTINUOUS
10
0.938398
20
-5.56437
11
0.945897
21
-5.56062
0
LINE
8
BLACK
6
CONTINUOUS
10
1.03964
20
-5.56062
11
1.02464
21
-5.56062
0
LINE
8
BLACK
6
CONTINUOUS
10
1.02464
20
-5.56062
11
1.01714
21
-5.56437
0
LINE
8
BLACK
6
CONTINUOUS
10
1.01714
20
-5.56437
11
1.01339
21
-5.56812
0
LINE
8
BLACK
6
CONTINUOUS
10
1.01339
20
-5.56812
11
1.00589
21
-5.57937
0
LINE
8
BLACK
6
CONTINUOUS
10
1.00589
20
-5.57937
11
1.00214
21
-5.59437
0
LINE
8
BLACK
6
CONTINUOUS
10
1.00214
20
-5.59437
11
1.00214
21
-5.62436
0
LINE
8
BLACK
6
CONTINUOUS
10
1.00214
20
-5.62436
11
1.00589
21
-5.63186
0
LINE
8
BLACK
6
CONTINUOUS
10
1.00589
20
-5.63186
11
1.00964
21
-5.63561
0
LINE
8
BLACK
6
CONTINUOUS
10
1.00964
20
-5.63561
11
1.01714
21
-5.63936
0
LINE
8
BLACK
6
CONTINUOUS
10
1.01714
20
-5.63936
11
1.03214
21
-5.63936
0
LINE
8
BLACK
6
CONTINUOUS
10
1.03214
20
-5.63936
11
1.03964
21
-5.63561
0
LINE
8
BLACK
6
CONTINUOUS
10
1.03964
20
-5.63561
11
1.04338
21
-5.63186
0
LINE
8
BLACK
6
CONTINUOUS
10
1.04338
20
-5.63186
11
1.04713
21
-5.62436
0
LINE
8
BLACK
6
CONTINUOUS
10
1.04713
20
-5.62436
11
1.04713
21
-5.60561
0
LINE
8
BLACK
6
CONTINUOUS
10
1.04713
20
-5.60561
11
1.04338
21
-5.59812
0
LINE
8
BLACK
6
CONTINUOUS
10
1.04338
20
-5.59812
11
1.03964
21
-5.59437
0
LINE
8
BLACK
6
CONTINUOUS
10
1.03964
20
-5.59437
11
1.03214
21
-5.59062
0
LINE
8
BLACK
6
CONTINUOUS
10
1.03214
20
-5.59062
11
1.01714
21
-5.59062
0
LINE
8
BLACK
6
CONTINUOUS
10
1.01714
20
-5.59062
11
1.00964
21
-5.59437
0
LINE
8
BLACK
6
CONTINUOUS
10
1.00964
20
-5.59437
11
1.00589
21
-5.59812
0
LINE
8
BLACK
6
CONTINUOUS
10
1.00589
20
-5.59812
11
1.00214
21
-5.60561
0
LINE
8
BLACK
6
CONTINUOUS
10
1.09213
20
-5.59437
11
1.08463
21
-5.59062
0
LINE
8
BLACK
6
CONTINUOUS
10
1.08463
20
-5.59062
11
1.08088
21
-5.58687
0
LINE
8
BLACK
6
CONTINUOUS
10
1.08088
20
-5.58687
11
1.07713
21
-5.57937
0
LINE
8
BLACK
6
CONTINUOUS
10
1.07713
20
-5.57937
11
1.07713
21
-5.57562
0
LINE
8
BLACK
6
CONTINUOUS
10
1.07713
20
-5.57562
11
1.08088
21
-5.56812
0
LINE
8
BLACK
6
CONTINUOUS
10
1.08088
20
-5.56812
11
1.08463
21
-5.56437
0
LINE
8
BLACK
6
CONTINUOUS
10
1.08463
20
-5.56437
11
1.09213
21
-5.56062
0
LINE
8
BLACK
6
CONTINUOUS
10
1.09213
20
-5.56062
11
1.10713
21
-5.56062
0
LINE
8
BLACK
6
CONTINUOUS
10
1.10713
20
-5.56062
11
1.11463
21
-5.56437
0
LINE
8
BLACK
6
CONTINUOUS
10
1.11463
20
-5.56437
11
1.11838
21
-5.56812
0
LINE
8
BLACK
6
CONTINUOUS
10
1.11838
20
-5.56812
11
1.12213
21
-5.57562
0
LINE
8
BLACK
6
CONTINUOUS
10
1.12213
20
-5.57562
11
1.12213
21
-5.57937
0
LINE
8
BLACK
6
CONTINUOUS
10
1.12213
20
-5.57937
11
1.11838
21
-5.58687
0
LINE
8
BLACK
6
CONTINUOUS
10
1.11838
20
-5.58687
11
1.11463
21
-5.59062
0
LINE
8
BLACK
6
CONTINUOUS
10
1.11463
20
-5.59062
11
1.10713
21
-5.59437
0
LINE
8
BLACK
6
CONTINUOUS
10
1.10713
20
-5.59437
11
1.09213
21
-5.59437
0
LINE
8
BLACK
6
CONTINUOUS
10
1.09213
20
-5.59437
11
1.08463
21
-5.59812
0
LINE
8
BLACK
6
CONTINUOUS
10
1.08463
20
-5.59812
11
1.08088
21
-5.60187
0
LINE
8
BLACK
6
CONTINUOUS
10
1.08088
20
-5.60187
11
1.07713
21
-5.60936
0
LINE
8
BLACK
6
CONTINUOUS
10
1.07713
20
-5.60936
11
1.07713
21
-5.62436
0
LINE
8
BLACK
6
CONTINUOUS
10
1.07713
20
-5.62436
11
1.08088
21
-5.63186
0
LINE
8
BLACK
6
CONTINUOUS
10
1.08088
20
-5.63186
11
1.08463
21
-5.63561
0
LINE
8
BLACK
6
CONTINUOUS
10
1.08463
20
-5.63561
11
1.09213
21
-5.63936
0
LINE
8
BLACK
6
CONTINUOUS
10
1.09213
20
-5.63936
11
1.10713
21
-5.63936
0
LINE
8
BLACK
6
CONTINUOUS
10
1.10713
20
-5.63936
11
1.11463
21
-5.63561
0
LINE
8
BLACK
6
CONTINUOUS
10
1.11463
20
-5.63561
11
1.11838
21
-5.63186
0
LINE
8
BLACK
6
CONTINUOUS
10
1.11838
20
-5.63186
11
1.12213
21
-5.62436
0
LINE
8
BLACK
6
CONTINUOUS
10
1.12213
20
-5.62436
11
1.12213
21
-5.60936
0
LINE
8
BLACK
6
CONTINUOUS
10
1.12213
20
-5.60936
11
1.11838
21
-5.60187
0
LINE
8
BLACK
6
CONTINUOUS
10
1.11838
20
-5.60187
11
1.11463
21
-5.59812
0
LINE
8
BLACK
6
CONTINUOUS
10
1.11463
20
-5.59812
11
1.10713
21
-5.59437
0
LINE
8
BLACK
6
CONTINUOUS
10
1.15962
20
-5.63936
11
1.17462
21
-5.63936
0
LINE
8
BLACK
6
CONTINUOUS
10
1.17462
20
-5.63936
11
1.18212
21
-5.63561
0
LINE
8
BLACK
6
CONTINUOUS
10
1.18212
20
-5.63561
11
1.18587
21
-5.63186
0
LINE
8
BLACK
6
CONTINUOUS
10
1.18587
20
-5.63186
11
1.19337
21
-5.62061
0
LINE
8
BLACK
6
CONTINUOUS
10
1.19337
20
-5.62061
11
1.19712
21
-5.60561
0
LINE
8
BLACK
6
CONTINUOUS
10
1.19712
20
-5.60561
11
1.19712
21
-5.57562
0
LINE
8
BLACK
6
CONTINUOUS
10
1.19712
20
-5.57562
11
1.19337
21
-5.56812
0
LINE
8
BLACK
6
CONTINUOUS
10
1.19337
20
-5.56812
11
1.18962
21
-5.56437
0
LINE
8
BLACK
6
CONTINUOUS
10
1.18962
20
-5.56437
11
1.18212
21
-5.56062
0
LINE
8
BLACK
6
CONTINUOUS
10
1.18212
20
-5.56062
11
1.16712
21
-5.56062
0
LINE
8
BLACK
6
CONTINUOUS
10
1.16712
20
-5.56062
11
1.15962
21
-5.56437
0
LINE
8
BLACK
6
CONTINUOUS
10
1.15962
20
-5.56437
11
1.15587
21
-5.56812
0
LINE
8
BLACK
6
CONTINUOUS
10
1.15587
20
-5.56812
11
1.15212
21
-5.57562
0
LINE
8
BLACK
6
CONTINUOUS
10
1.15212
20
-5.57562
11
1.15212
21
-5.59437
0
LINE
8
BLACK
6
CONTINUOUS
10
1.15212
20
-5.59437
11
1.15587
21
-5.60187
0
LINE
8
BLACK
6
CONTINUOUS
10
1.15587
20
-5.60187
11
1.15962
21
-5.60561
0
LINE
8
BLACK
6
CONTINUOUS
10
1.15962
20
-5.60561
11
1.16712
21
-5.60936
0
LINE
8
BLACK
6
CONTINUOUS
10
1.16712
20
-5.60936
11
1.18212
21
-5.60936
0
LINE
8
BLACK
6
CONTINUOUS
10
1.18212
20
-5.60936
11
1.18962
21
-5.60561
0
LINE
8
BLACK
6
CONTINUOUS
10
1.18962
20
-5.60561
11
1.19337
21
-5.60187
0
LINE
8
BLACK
6
CONTINUOUS
10
1.19337
20
-5.60187
11
1.19712
21
-5.59437
0
LINE
8
BLACK
6
CONTINUOUS
10
1.22711
20
-5.56062
11
1.22711
21
-5.57562
0
LINE
8
BLACK
6
CONTINUOUS
10
1.25711
20
-5.56062
11
1.25711
21
-5.57562
0
LINE
8
BLACK
6
CONTINUOUS
10
1.3606
20
-5.66936
11
1.35685
21
-5.66561
0
LINE
8
BLACK
6
CONTINUOUS
10
1.35685
20
-5.66561
11
1.34935
21
-5.65436
0
LINE
8
BLACK
6
CONTINUOUS
10
1.34935
20
-5.65436
11
1.3456
21
-5.64686
0
LINE
8
BLACK
6
CONTINUOUS
10
1.3456
20
-5.64686
11
1.34185
21
-5.63561
0
LINE
8
BLACK
6
CONTINUOUS
10
1.34185
20
-5.63561
11
1.3381
21
-5.61686
0
LINE
8
BLACK
6
CONTINUOUS
10
1.3381
20
-5.61686
11
1.3381
21
-5.60187
0
LINE
8
BLACK
6
CONTINUOUS
10
1.3381
20
-5.60187
11
1.34185
21
-5.58312
0
LINE
8
BLACK
6
CONTINUOUS
10
1.34185
20
-5.58312
11
1.3456
21
-5.57187
0
LINE
8
BLACK
6
CONTINUOUS
10
1.3456
20
-5.57187
11
1.34935
21
-5.56437
0
LINE
8
BLACK
6
CONTINUOUS
10
1.34935
20
-5.56437
11
1.35685
21
-5.55312
0
LINE
8
BLACK
6
CONTINUOUS
10
1.35685
20
-5.55312
11
1.3606
21
-5.54937
0
LINE
8
BLACK
6
CONTINUOUS
10
1.43184
20
-5.63936
11
1.38684
21
-5.63936
0
LINE
8
BLACK
6
CONTINUOUS
10
1.40934
20
-5.63936
11
1.40934
21
-5.56062
0
LINE
8
BLACK
6
CONTINUOUS
10
1.40934
20
-5.56062
11
1.40184
21
-5.57187
0
LINE
8
BLACK
6
CONTINUOUS
10
1.40184
20
-5.57187
11
1.39434
21
-5.57937
0
LINE
8
BLACK
6
CONTINUOUS
10
1.39434
20
-5.57937
11
1.38684
21
-5.58312
0
LINE
8
BLACK
6
CONTINUOUS
10
1.46933
20
-5.63936
11
1.48433
21
-5.63936
0
LINE
8
BLACK
6
CONTINUOUS
10
1.48433
20
-5.63936
11
1.49183
21
-5.63561
0
LINE
8
BLACK
6
CONTINUOUS
10
1.49183
20
-5.63561
11
1.49558
21
-5.63186
0
LINE
8
BLACK
6
CONTINUOUS
10
1.49558
20
-5.63186
11
1.50308
21
-5.62061
0
LINE
8
BLACK
6
CONTINUOUS
10
1.50308
20
-5.62061
11
1.50683
21
-5.60561
0
LINE
8
BLACK
6
CONTINUOUS
10
1.50683
20
-5.60561
11
1.50683
21
-5.57562
0
LINE
8
BLACK
6
CONTINUOUS
10
1.50683
20
-5.57562
11
1.50308
21
-5.56812
0
LINE
8
BLACK
6
CONTINUOUS
10
1.50308
20
-5.56812
11
1.49933
21
-5.56437
0
LINE
8
BLACK
6
CONTINUOUS
10
1.49933
20
-5.56437
11
1.49183
21
-5.56062
0
LINE
8
BLACK
6
CONTINUOUS
10
1.49183
20
-5.56062
11
1.47683
21
-5.56062
0
LINE
8
BLACK
6
CONTINUOUS
10
1.47683
20
-5.56062
11
1.46933
21
-5.56437
0
LINE
8
BLACK
6
CONTINUOUS
10
1.46933
20
-5.56437
11
1.46558
21
-5.56812
0
LINE
8
BLACK
6
CONTINUOUS
10
1.46558
20
-5.56812
11
1.46183
21
-5.57562
0
LINE
8
BLACK
6
CONTINUOUS
10
1.46183
20
-5.57562
11
1.46183
21
-5.59437
0
LINE
8
BLACK
6
CONTINUOUS
10
1.46183
20
-5.59437
11
1.46558
21
-5.60187
0
LINE
8
BLACK
6
CONTINUOUS
10
1.46558
20
-5.60187
11
1.46933
21
-5.60561
0
LINE
8
BLACK
6
CONTINUOUS
10
1.46933
20
-5.60561
11
1.47683
21
-5.60936
0
LINE
8
BLACK
6
CONTINUOUS
10
1.47683
20
-5.60936
11
1.49183
21
-5.60936
0
LINE
8
BLACK
6
CONTINUOUS
10
1.49183
20
-5.60936
11
1.49933
21
-5.60561
0
LINE
8
BLACK
6
CONTINUOUS
10
1.49933
20
-5.60561
11
1.50308
21
-5.60187
0
LINE
8
BLACK
6
CONTINUOUS
10
1.50308
20
-5.60187
11
1.50683
21
-5.59437
0
LINE
8
BLACK
6
CONTINUOUS
10
1.53682
20
-5.56812
11
1.54057
21
-5.56437
0
LINE
8
BLACK
6
CONTINUOUS
10
1.54057
20
-5.56437
11
1.54807
21
-5.56062
0
LINE
8
BLACK
6
CONTINUOUS
10
1.54807
20
-5.56062
11
1.56682
21
-5.56062
0
LINE
8
BLACK
6
CONTINUOUS
10
1.56682
20
-5.56062
11
1.57432
21
-5.56437
0
LINE
8
BLACK
6
CONTINUOUS
10
1.57432
20
-5.56437
11
1.57807
21
-5.56812
0
LINE
8
BLACK
6
CONTINUOUS
10
1.57807
20
-5.56812
11
1.58182
21
-5.57562
0
LINE
8
BLACK
6
CONTINUOUS
10
1.58182
20
-5.57562
11
1.58182
21
-5.58312
0
LINE
8
BLACK
6
CONTINUOUS
10
1.58182
20
-5.58312
11
1.57807
21
-5.59437
0
LINE
8
BLACK
6
CONTINUOUS
10
1.57807
20
-5.59437
11
1.53307
21
-5.63936
0
LINE
8
BLACK
6
CONTINUOUS
10
1.53307
20
-5.63936
11
1.58182
21
-5.63936
0
LINE
8
BLACK
6
CONTINUOUS
10
1.66281
20
-5.63936
11
1.66281
21
-5.56062
0
LINE
8
BLACK
6
CONTINUOUS
10
1.69655
20
-5.63936
11
1.69655
21
-5.59812
0
LINE
8
BLACK
6
CONTINUOUS
10
1.69655
20
-5.59812
11
1.6928
21
-5.59062
0
LINE
8
BLACK
6
CONTINUOUS
10
1.6928
20
-5.59062
11
1.6853
21
-5.58687
0
LINE
8
BLACK
6
CONTINUOUS
10
1.6853
20
-5.58687
11
1.67406
21
-5.58687
0
LINE
8
BLACK
6
CONTINUOUS
10
1.67406
20
-5.58687
11
1.66656
21
-5.59062
0
LINE
8
BLACK
6
CONTINUOUS
10
1.66656
20
-5.59062
11
1.66281
21
-5.59437
0
LINE
8
BLACK
6
CONTINUOUS
10
1.7453
20
-5.63936
11
1.7378
21
-5.63561
0
LINE
8
BLACK
6
CONTINUOUS
10
1.7378
20
-5.63561
11
1.73405
21
-5.63186
0
LINE
8
BLACK
6
CONTINUOUS
10
1.73405
20
-5.63186
11
1.7303
21
-5.62436
0
LINE
8
BLACK
6
CONTINUOUS
10
1.7303
20
-5.62436
11
1.7303
21
-5.60187
0
LINE
8
BLACK
6
CONTINUOUS
10
1.7303
20
-5.60187
11
1.73405
21
-5.59437
0
LINE
8
BLACK
6
CONTINUOUS
10
1.73405
20
-5.59437
11
1.7378
21
-5.59062
0
LINE
8
BLACK
6
CONTINUOUS
10
1.7378
20
-5.59062
11
1.7453
21
-5.58687
0
LINE
8
BLACK
6
CONTINUOUS
10
1.7453
20
-5.58687
11
1.75655
21
-5.58687
0
LINE
8
BLACK
6
CONTINUOUS
10
1.75655
20
-5.58687
11
1.76404
21
-5.59062
0
LINE
8
BLACK
6
CONTINUOUS
10
1.76404
20
-5.59062
11
1.76779
21
-5.59437
0
LINE
8
BLACK
6
CONTINUOUS
10
1.76779
20
-5.59437
11
1.77154
21
-5.60187
0
LINE
8
BLACK
6
CONTINUOUS
10
1.77154
20
-5.60187
11
1.77154
21
-5.62436
0
LINE
8
BLACK
6
CONTINUOUS
10
1.77154
20
-5.62436
11
1.76779
21
-5.63186
0
LINE
8
BLACK
6
CONTINUOUS
10
1.76779
20
-5.63186
11
1.76404
21
-5.63561
0
LINE
8
BLACK
6
CONTINUOUS
10
1.76404
20
-5.63561
11
1.75655
21
-5.63936
0
LINE
8
BLACK
6
CONTINUOUS
10
1.75655
20
-5.63936
11
1.7453
21
-5.63936
0
LINE
8
BLACK
6
CONTINUOUS
10
1.81654
20
-5.63936
11
1.80904
21
-5.63561
0
LINE
8
BLACK
6
CONTINUOUS
10
1.80904
20
-5.63561
11
1.80529
21
-5.62811
0
LINE
8
BLACK
6
CONTINUOUS
10
1.80529
20
-5.62811
11
1.80529
21
-5.56062
0
LINE
8
BLACK
6
CONTINUOUS
10
1.87653
20
-5.63561
11
1.86903
21
-5.63936
0
LINE
8
BLACK
6
CONTINUOUS
10
1.86903
20
-5.63936
11
1.85403
21
-5.63936
0
LINE
8
BLACK
6
CONTINUOUS
10
1.85403
20
-5.63936
11
1.84653
21
-5.63561
0
LINE
8
BLACK
6
CONTINUOUS
10
1.84653
20
-5.63561
11
1.84279
21
-5.62811
0
LINE
8
BLACK
6
CONTINUOUS
10
1.84279
20
-5.62811
11
1.84279
21
-5.59812
0
LINE
8
BLACK
6
CONTINUOUS
10
1.84279
20
-5.59812
11
1.84653
21
-5.59062
0
LINE
8
BLACK
6
CONTINUOUS
10
1.84653
20
-5.59062
11
1.85403
21
-5.58687
0
LINE
8
BLACK
6
CONTINUOUS
10
1.85403
20
-5.58687
11
1.86903
21
-5.58687
0
LINE
8
BLACK
6
CONTINUOUS
10
1.86903
20
-5.58687
11
1.87653
21
-5.59062
0
LINE
8
BLACK
6
CONTINUOUS
10
1.87653
20
-5.59062
11
1.88028
21
-5.59812
0
LINE
8
BLACK
6
CONTINUOUS
10
1.88028
20
-5.59812
11
1.88028
21
-5.60561
0
LINE
8
BLACK
6
CONTINUOUS
10
1.88028
20
-5.60561
11
1.84279
21
-5.61311
0
LINE
8
BLACK
6
CONTINUOUS
10
1.91028
20
-5.63561
11
1.91778
21
-5.63936
0
LINE
8
BLACK
6
CONTINUOUS
10
1.91778
20
-5.63936
11
1.93277
21
-5.63936
0
LINE
8
BLACK
6
CONTINUOUS
10
1.93277
20
-5.63936
11
1.94027
21
-5.63561
0
LINE
8
BLACK
6
CONTINUOUS
10
1.94027
20
-5.63561
11
1.94402
21
-5.62811
0
LINE
8
BLACK
6
CONTINUOUS
10
1.94402
20
-5.62811
11
1.94402
21
-5.62436
0
LINE
8
BLACK
6
CONTINUOUS
10
1.94402
20
-5.62436
11
1.94027
21
-5.61686
0
LINE
8
BLACK
6
CONTINUOUS
10
1.94027
20
-5.61686
11
1.93277
21
-5.61311
0
LINE
8
BLACK
6
CONTINUOUS
10
1.93277
20
-5.61311
11
1.92153
21
-5.61311
0
LINE
8
BLACK
6
CONTINUOUS
10
1.92153
20
-5.61311
11
1.91403
21
-5.60936
0
LINE
8
BLACK
6
CONTINUOUS
10
1.91403
20
-5.60936
11
1.91028
21
-5.60187
0
LINE
8
BLACK
6
CONTINUOUS
10
1.91028
20
-5.60187
11
1.91028
21
-5.59812
0
LINE
8
BLACK
6
CONTINUOUS
10
1.91028
20
-5.59812
11
1.91403
21
-5.59062
0
LINE
8
BLACK
6
CONTINUOUS
10
1.91403
20
-5.59062
11
1.92153
21
-5.58687
0
LINE
8
BLACK
6
CONTINUOUS
10
1.92153
20
-5.58687
11
1.93277
21
-5.58687
0
LINE
8
BLACK
6
CONTINUOUS
10
1.93277
20
-5.58687
11
1.94027
21
-5.59062
0
LINE
8
BLACK
6
CONTINUOUS
10
1.97027
20
-5.66936
11
1.97402
21
-5.66561
0
LINE
8
BLACK
6
CONTINUOUS
10
1.97402
20
-5.66561
11
1.98152
21
-5.65436
0
LINE
8
BLACK
6
CONTINUOUS
10
1.98152
20
-5.65436
11
1.98527
21
-5.64686
0
LINE
8
BLACK
6
CONTINUOUS
10
1.98527
20
-5.64686
11
1.98902
21
-5.63561
0
LINE
8
BLACK
6
CONTINUOUS
10
1.98902
20
-5.63561
11
1.99277
21
-5.61686
0
LINE
8
BLACK
6
CONTINUOUS
10
1.99277
20
-5.61686
11
1.99277
21
-5.60187
0
LINE
8
BLACK
6
CONTINUOUS
10
1.99277
20
-5.60187
11
1.98902
21
-5.58312
0
LINE
8
BLACK
6
CONTINUOUS
10
1.98902
20
-5.58312
11
1.98527
21
-5.57187
0
LINE
8
BLACK
6
CONTINUOUS
10
1.98527
20
-5.57187
11
1.98152
21
-5.56437
0
LINE
8
BLACK
6
CONTINUOUS
10
1.98152
20
-5.56437
11
1.97402
21
-5.55312
0
LINE
8
BLACK
6
CONTINUOUS
10
1.97402
20
-5.55312
11
1.97027
21
-5.54937
0
LINE
8
BLACK
6
CONTINUOUS
10
2.1
20
-5.66936
11
2.09625
21
-5.66561
0
LINE
8
BLACK
6
CONTINUOUS
10
2.09625
20
-5.66561
11
2.08875
21
-5.65436
0
LINE
8
BLACK
6
CONTINUOUS
10
2.08875
20
-5.65436
11
2.085
21
-5.64686
0
LINE
8
BLACK
6
CONTINUOUS
10
2.085
20
-5.64686
11
2.08126
21
-5.63561
0
LINE
8
BLACK
6
CONTINUOUS
10
2.08126
20
-5.63561
11
2.07751
21
-5.61686
0
LINE
8
BLACK
6
CONTINUOUS
10
2.07751
20
-5.61686
11
2.07751
21
-5.60187
0
LINE
8
BLACK
6
CONTINUOUS
10
2.07751
20
-5.60187
11
2.08126
21
-5.58312
0
LINE
8
BLACK
6
CONTINUOUS
10
2.08126
20
-5.58312
11
2.085
21
-5.57187
0
LINE
8
BLACK
6
CONTINUOUS
10
2.085
20
-5.57187
11
2.08875
21
-5.56437
0
LINE
8
BLACK
6
CONTINUOUS
10
2.08875
20
-5.56437
11
2.09625
21
-5.55312
0
LINE
8
BLACK
6
CONTINUOUS
10
2.09625
20
-5.55312
11
2.1
21
-5.54937
0
LINE
8
BLACK
6
CONTINUOUS
10
2.13
20
-5.58687
11
2.13
21
-5.63936
0
LINE
8
BLACK
6
CONTINUOUS
10
2.13
20
-5.59437
11
2.13375
21
-5.59062
0
LINE
8
BLACK
6
CONTINUOUS
10
2.13375
20
-5.59062
11
2.14125
21
-5.58687
0
LINE
8
BLACK
6
CONTINUOUS
10
2.14125
20
-5.58687
11
2.1525
21
-5.58687
0
LINE
8
BLACK
6
CONTINUOUS
10
2.1525
20
-5.58687
11
2.16
21
-5.59062
0
LINE
8
BLACK
6
CONTINUOUS
10
2.16
20
-5.59062
11
2.16374
21
-5.59812
0
LINE
8
BLACK
6
CONTINUOUS
10
2.16374
20
-5.59812
11
2.16374
21
-5.63936
0
LINE
8
BLACK
6
CONTINUOUS
10
2.21249
20
-5.63936
11
2.20499
21
-5.63561
0
LINE
8
BLACK
6
CONTINUOUS
10
2.20499
20
-5.63561
11
2.20124
21
-5.63186
0
LINE
8
BLACK
6
CONTINUOUS
10
2.20124
20
-5.63186
11
2.19749
21
-5.62436
0
LINE
8
BLACK
6
CONTINUOUS
10
2.19749
20
-5.62436
11
2.19749
21
-5.60187
0
LINE
8
BLACK
6
CONTINUOUS
10
2.19749
20
-5.60187
11
2.20124
21
-5.59437
0
LINE
8
BLACK
6
CONTINUOUS
10
2.20124
20
-5.59437
11
2.20499
21
-5.59062
0
LINE
8
BLACK
6
CONTINUOUS
10
2.20499
20
-5.59062
11
2.21249
21
-5.58687
0
LINE
8
BLACK
6
CONTINUOUS
10
2.21249
20
-5.58687
11
2.22374
21
-5.58687
0
LINE
8
BLACK
6
CONTINUOUS
10
2.22374
20
-5.58687
11
2.23124
21
-5.59062
0
LINE
8
BLACK
6
CONTINUOUS
10
2.23124
20
-5.59062
11
2.23499
21
-5.59437
0
LINE
8
BLACK
6
CONTINUOUS
10
2.23499
20
-5.59437
11
2.23874
21
-5.60187
0
LINE
8
BLACK
6
CONTINUOUS
10
2.23874
20
-5.60187
11
2.23874
21
-5.62436
0
LINE
8
BLACK
6
CONTINUOUS
10
2.23874
20
-5.62436
11
2.23499
21
-5.63186
0
LINE
8
BLACK
6
CONTINUOUS
10
2.23499
20
-5.63186
11
2.23124
21
-5.63561
0
LINE
8
BLACK
6
CONTINUOUS
10
2.23124
20
-5.63561
11
2.22374
21
-5.63936
0
LINE
8
BLACK
6
CONTINUOUS
10
2.22374
20
-5.63936
11
2.21249
21
-5.63936
0
LINE
8
BLACK
6
CONTINUOUS
10
2.26123
20
-5.58687
11
2.29123
21
-5.58687
0
LINE
8
BLACK
6
CONTINUOUS
10
2.27248
20
-5.56062
11
2.27248
21
-5.62811
0
LINE
8
BLACK
6
CONTINUOUS
10
2.27248
20
-5.62811
11
2.27623
21
-5.63561
0
LINE
8
BLACK
6
CONTINUOUS
10
2.27623
20
-5.63561
11
2.28373
21
-5.63936
0
LINE
8
BLACK
6
CONTINUOUS
10
2.28373
20
-5.63936
11
2.29123
21
-5.63936
0
LINE
8
BLACK
6
CONTINUOUS
10
2.36472
20
-5.58687
11
2.36472
21
-5.66561
0
LINE
8
BLACK
6
CONTINUOUS
10
2.36472
20
-5.59062
11
2.37222
21
-5.58687
0
LINE
8
BLACK
6
CONTINUOUS
10
2.37222
20
-5.58687
11
2.38722
21
-5.58687
0
LINE
8
BLACK
6
CONTINUOUS
10
2.38722
20
-5.58687
11
2.39472
21
-5.59062
0
LINE
8
BLACK
6
CONTINUOUS
10
2.39472
20
-5.59062
11
2.39847
21
-5.59437
0
LINE
8
BLACK
6
CONTINUOUS
10
2.39847
20
-5.59437
11
2.40222
21
-5.60187
0
LINE
8
BLACK
6
CONTINUOUS
10
2.40222
20
-5.60187
11
2.40222
21
-5.62436
0
LINE
8
BLACK
6
CONTINUOUS
10
2.40222
20
-5.62436
11
2.39847
21
-5.63186
0
LINE
8
BLACK
6
CONTINUOUS
10
2.39847
20
-5.63186
11
2.39472
21
-5.63561
0
LINE
8
BLACK
6
CONTINUOUS
10
2.39472
20
-5.63561
11
2.38722
21
-5.63936
0
LINE
8
BLACK
6
CONTINUOUS
10
2.38722
20
-5.63936
11
2.37222
21
-5.63936
0
LINE
8
BLACK
6
CONTINUOUS
10
2.37222
20
-5.63936
11
2.36472
21
-5.63561
0
LINE
8
BLACK
6
CONTINUOUS
10
2.44721
20
-5.63936
11
2.43971
21
-5.63561
0
LINE
8
BLACK
6
CONTINUOUS
10
2.43971
20
-5.63561
11
2.43596
21
-5.62811
0
LINE
8
BLACK
6
CONTINUOUS
10
2.43596
20
-5.62811
11
2.43596
21
-5.56062
0
LINE
8
BLACK
6
CONTINUOUS
10
2.51095
20
-5.63936
11
2.51095
21
-5.59812
0
LINE
8
BLACK
6
CONTINUOUS
10
2.51095
20
-5.59812
11
2.5072
21
-5.59062
0
LINE
8
BLACK
6
CONTINUOUS
10
2.5072
20
-5.59062
11
2.4997
21
-5.58687
0
LINE
8
BLACK
6
CONTINUOUS
10
2.4997
20
-5.58687
11
2.4847
21
-5.58687
0
LINE
8
BLACK
6
CONTINUOUS
10
2.4847
20
-5.58687
11
2.47721
21
-5.59062
0
LINE
8
BLACK
6
CONTINUOUS
10
2.51095
20
-5.63561
11
2.50345
21
-5.63936
0
LINE
8
BLACK
6
CONTINUOUS
10
2.50345
20
-5.63936
11
2.4847
21
-5.63936
0
LINE
8
BLACK
6
CONTINUOUS
10
2.4847
20
-5.63936
11
2.47721
21
-5.63561
0
LINE
8
BLACK
6
CONTINUOUS
10
2.47721
20
-5.63561
11
2.47346
21
-5.62811
0
LINE
8
BLACK
6
CONTINUOUS
10
2.47346
20
-5.62811
11
2.47346
21
-5.62061
0
LINE
8
BLACK
6
CONTINUOUS
10
2.47346
20
-5.62061
11
2.47721
21
-5.61311
0
LINE
8
BLACK
6
CONTINUOUS
10
2.47721
20
-5.61311
11
2.4847
21
-5.60936
0
LINE
8
BLACK
6
CONTINUOUS
10
2.4847
20
-5.60936
11
2.50345
21
-5.60936
0
LINE
8
BLACK
6
CONTINUOUS
10
2.50345
20
-5.60936
11
2.51095
21
-5.60561
0
LINE
8
BLACK
6
CONTINUOUS
10
2.5372
20
-5.58687
11
2.56719
21
-5.58687
0
LINE
8
BLACK
6
CONTINUOUS
10
2.54845
20
-5.56062
11
2.54845
21
-5.62811
0
LINE
8
BLACK
6
CONTINUOUS
10
2.54845
20
-5.62811
11
2.5522
21
-5.63561
0
LINE
8
BLACK
6
CONTINUOUS
10
2.5522
20
-5.63561
11
2.5597
21
-5.63936
0
LINE
8
BLACK
6
CONTINUOUS
10
2.5597
20
-5.63936
11
2.56719
21
-5.63936
0
LINE
8
BLACK
6
CONTINUOUS
10
2.62344
20
-5.63561
11
2.61594
21
-5.63936
0
LINE
8
BLACK
6
CONTINUOUS
10
2.61594
20
-5.63936
11
2.60094
21
-5.63936
0
LINE
8
BLACK
6
CONTINUOUS
10
2.60094
20
-5.63936
11
2.59344
21
-5.63561
0
LINE
8
BLACK
6
CONTINUOUS
10
2.59344
20
-5.63561
11
2.58969
21
-5.62811
0
LINE
8
BLACK
6
CONTINUOUS
10
2.58969
20
-5.62811
11
2.58969
21
-5.59812
0
LINE
8
BLACK
6
CONTINUOUS
10
2.58969
20
-5.59812
11
2.59344
21
-5.59062
0
LINE
8
BLACK
6
CONTINUOUS
10
2.59344
20
-5.59062
11
2.60094
21
-5.58687
0
LINE
8
BLACK
6
CONTINUOUS
10
2.60094
20
-5.58687
11
2.61594
21
-5.58687
0
LINE
8
BLACK
6
CONTINUOUS
10
2.61594
20
-5.58687
11
2.62344
21
-5.59062
0
LINE
8
BLACK
6
CONTINUOUS
10
2.62344
20
-5.59062
11
2.62719
21
-5.59812
0
LINE
8
BLACK
6
CONTINUOUS
10
2.62719
20
-5.59812
11
2.62719
21
-5.60561
0
LINE
8
BLACK
6
CONTINUOUS
10
2.62719
20
-5.60561
11
2.58969
21
-5.61311
0
LINE
8
BLACK
6
CONTINUOUS
10
2.69468
20
-5.63936
11
2.69468
21
-5.56062
0
LINE
8
BLACK
6
CONTINUOUS
10
2.69468
20
-5.63561
11
2.68718
21
-5.63936
0
LINE
8
BLACK
6
CONTINUOUS
10
2.68718
20
-5.63936
11
2.67218
21
-5.63936
0
LINE
8
BLACK
6
CONTINUOUS
10
2.67218
20
-5.63936
11
2.66468
21
-5.63561
0
LINE
8
BLACK
6
CONTINUOUS
10
2.66468
20
-5.63561
11
2.66093
21
-5.63186
0
LINE
8
BLACK
6
CONTINUOUS
10
2.66093
20
-5.63186
11
2.65718
21
-5.62436
0
LINE
8
BLACK
6
CONTINUOUS
10
2.65718
20
-5.62436
11
2.65718
21
-5.60187
0
LINE
8
BLACK
6
CONTINUOUS
10
2.65718
20
-5.60187
11
2.66093
21
-5.59437
0
LINE
8
BLACK
6
CONTINUOUS
10
2.66093
20
-5.59437
11
2.66468
21
-5.59062
0
LINE
8
BLACK
6
CONTINUOUS
10
2.66468
20
-5.59062
11
2.67218
21
-5.58687
0
LINE
8
BLACK
6
CONTINUOUS
10
2.67218
20
-5.58687
11
2.68718
21
-5.58687
0
LINE
8
BLACK
6
CONTINUOUS
10
2.68718
20
-5.58687
11
2.69468
21
-5.59062
0
LINE
8
BLACK
6
CONTINUOUS
10
2.72467
20
-5.66936
11
2.72842
21
-5.66561
0
LINE
8
BLACK
6
CONTINUOUS
10
2.72842
20
-5.66561
11
2.73592
21
-5.65436
0
LINE
8
BLACK
6
CONTINUOUS
10
2.73592
20
-5.65436
11
2.73967
21
-5.64686
0
LINE
8
BLACK
6
CONTINUOUS
10
2.73967
20
-5.64686
11
2.74342
21
-5.63561
0
LINE
8
BLACK
6
CONTINUOUS
10
2.74342
20
-5.63561
11
2.74717
21
-5.61686
0
LINE
8
BLACK
6
CONTINUOUS
10
2.74717
20
-5.61686
11
2.74717
21
-5.60187
0
LINE
8
BLACK
6
CONTINUOUS
10
2.74717
20
-5.60187
11
2.74342
21
-5.58312
0
LINE
8
BLACK
6
CONTINUOUS
10
2.74342
20
-5.58312
11
2.73967
21
-5.57187
0
LINE
8
BLACK
6
CONTINUOUS
10
2.73967
20
-5.57187
11
2.73592
21
-5.56437
0
LINE
8
BLACK
6
CONTINUOUS
10
2.73592
20
-5.56437
11
2.72842
21
-5.55312
0
LINE
8
BLACK
6
CONTINUOUS
10
2.72842
20
-5.55312
11
2.72467
21
-5.54937
0
CIRCLE
8
BLACK
10
-0.0428543
20
-5.72657
40
0.0393701
0
LINE
8
BLACK
6
CONTINUOUS
10
0.0865045
20
-5.67676
11
0.135248
21
-5.67676
0
LINE
8
BLACK
6
CONTINUOUS
10
0.135248
20
-5.67676
11
0.109002
21
-5.70676
0
LINE
8
BLACK
6
CONTINUOUS
10
0.109002
20
-5.70676
11
0.12025
21
-5.70676
0
LINE
8
BLACK
6
CONTINUOUS
10
0.12025
20
-5.70676
11
0.127749
21
-5.71051
0
LINE
8
BLACK
6
CONTINUOUS
10
0.127749
20
-5.71051
11
0.131499
21
-5.71426
0
LINE
8
BLACK
6
CONTINUOUS
10
0.131499
20
-5.71426
11
0.135248
21
-5.72176
0
LINE
8
BLACK
6
CONTINUOUS
10
0.135248
20
-5.72176
11
0.135248
21
-5.7405
0
LINE
8
BLACK
6
CONTINUOUS
10
0.135248
20
-5.7405
11
0.131499
21
-5.748
0
LINE
8
BLACK
6
CONTINUOUS
10
0.131499
20
-5.748
11
0.127749
21
-5.75175
0
LINE
8
BLACK
6
CONTINUOUS
10
0.127749
20
-5.75175
11
0.12025
21
-5.7555
0
LINE
8
BLACK
6
CONTINUOUS
10
0.12025
20
-5.7555
11
0.0977531
21
-5.7555
0
LINE
8
BLACK
6
CONTINUOUS
10
0.0977531
20
-5.7555
11
0.090254
21
-5.75175
0
LINE
8
BLACK
6
CONTINUOUS
10
0.090254
20
-5.75175
11
0.0865045
21
-5.748
0
LINE
8
BLACK
6
CONTINUOUS
10
0.168994
20
-5.748
11
0.172744
21
-5.75175
0
LINE
8
BLACK
6
CONTINUOUS
10
0.172744
20
-5.75175
11
0.168994
21
-5.7555
0
LINE
8
BLACK
6
CONTINUOUS
10
0.168994
20
-5.7555
11
0.165245
21
-5.75175
0
LINE
8
BLACK
6
CONTINUOUS
10
0.165245
20
-5.75175
11
0.168994
21
-5.748
0
LINE
8
BLACK
6
CONTINUOUS
10
0.168994
20
-5.748
11
0.168994
21
-5.7555
0
LINE
8
BLACK
6
CONTINUOUS
10
0.210239
20
-5.7555
11
0.225237
21
-5.7555
0
LINE
8
BLACK
6
CONTINUOUS
10
0.225237
20
-5.7555
11
0.232736
21
-5.75175
0
LINE
8
BLACK
6
CONTINUOUS
10
0.232736
20
-5.75175
11
0.236486
21
-5.748
0
LINE
8
BLACK
6
CONTINUOUS
10
0.236486
20
-5.748
11
0.243985
21
-5.73675
0
LINE
8
BLACK
6
CONTINUOUS
10
0.243985
20
-5.73675
11
0.247734
21
-5.72176
0
LINE
8
BLACK
6
CONTINUOUS
10
0.247734
20
-5.72176
11
0.247734
21
-5.69176
0
LINE
8
BLACK
6
CONTINUOUS
10
0.247734
20
-5.69176
11
0.243985
21
-5.68426
0
LINE
8
BLACK
6
CONTINUOUS
10
0.243985
20
-5.68426
11
0.240235
21
-5.68051
0
LINE
8
BLACK
6
CONTINUOUS
10
0.240235
20
-5.68051
11
0.232736
21
-5.67676
0
LINE
8
BLACK
6
CONTINUOUS
10
0.232736
20
-5.67676
11
0.217738
21
-5.67676
0
LINE
8
BLACK
6
CONTINUOUS
10
0.217738
20
-5.67676
11
0.210239
21
-5.68051
0
LINE
8
BLACK
6
CONTINUOUS
10
0.210239
20
-5.68051
11
0.206489
21
-5.68426
0
LINE
8
BLACK
6
CONTINUOUS
10
0.206489
20
-5.68426
11
0.20274
21
-5.69176
0
LINE
8
BLACK
6
CONTINUOUS
10
0.20274
20
-5.69176
11
0.20274
21
-5.71051
0
LINE
8
BLACK
6
CONTINUOUS
10
0.20274
20
-5.71051
11
0.206489
21
-5.71801
0
LINE
8
BLACK
6
CONTINUOUS
10
0.206489
20
-5.71801
11
0.210239
21
-5.72176
0
LINE
8
BLACK
6
CONTINUOUS
10
0.210239
20
-5.72176
11
0.217738
21
-5.72551
0
LINE
8
BLACK
6
CONTINUOUS
10
0.217738
20
-5.72551
11
0.232736
21
-5.72551
0
LINE
8
BLACK
6
CONTINUOUS
10
0.232736
20
-5.72551
11
0.240235
21
-5.72176
0
LINE
8
BLACK
6
CONTINUOUS
10
0.240235
20
-5.72176
11
0.243985
21
-5.71801
0
LINE
8
BLACK
6
CONTINUOUS
10
0.243985
20
-5.71801
11
0.247734
21
-5.71051
0
LINE
8
BLACK
6
CONTINUOUS
10
0.292729
20
-5.71051
11
0.28523
21
-5.70676
0
LINE
8
BLACK
6
CONTINUOUS
10
0.28523
20
-5.70676
11
0.28148
21
-5.70301
0
LINE
8
BLACK
6
CONTINUOUS
10
0.28148
20
-5.70301
11
0.277731
21
-5.69551
0
LINE
8
BLACK
6
CONTINUOUS
10
0.277731
20
-5.69551
11
0.277731
21
-5.69176
0
LINE
8
BLACK
6
CONTINUOUS
10
0.277731
20
-5.69176
11
0.28148
21
-5.68426
0
LINE
8
BLACK
6
CONTINUOUS
10
0.28148
20
-5.68426
11
0.28523
21
-5.68051
0
LINE
8
BLACK
6
CONTINUOUS
10
0.28523
20
-5.68051
11
0.292729
21
-5.67676
0
LINE
8
BLACK
6
CONTINUOUS
10
0.292729
20
-5.67676
11
0.307727
21
-5.67676
0
LINE
8
BLACK
6
CONTINUOUS
10
0.307727
20
-5.67676
11
0.315226
21
-5.68051
0
LINE
8
BLACK
6
CONTINUOUS
10
0.315226
20
-5.68051
11
0.318975
21
-5.68426
0
LINE
8
BLACK
6
CONTINUOUS
10
0.318975
20
-5.68426
11
0.322725
21
-5.69176
0
LINE
8
BLACK
6
CONTINUOUS
10
0.322725
20
-5.69176
11
0.322725
21
-5.69551
0
LINE
8
BLACK
6
CONTINUOUS
10
0.322725
20
-5.69551
11
0.318975
21
-5.70301
0
LINE
8
BLACK
6
CONTINUOUS
10
0.318975
20
-5.70301
11
0.315226
21
-5.70676
0
LINE
8
BLACK
6
CONTINUOUS
10
0.315226
20
-5.70676
11
0.307727
21
-5.71051
0
LINE
8
BLACK
6
CONTINUOUS
10
0.307727
20
-5.71051
11
0.292729
21
-5.71051
0
LINE
8
BLACK
6
CONTINUOUS
10
0.292729
20
-5.71051
11
0.28523
21
-5.71426
0
LINE
8
BLACK
6
CONTINUOUS
10
0.28523
20
-5.71426
11
0.28148
21
-5.71801
0
LINE
8
BLACK
6
CONTINUOUS
10
0.28148
20
-5.71801
11
0.277731
21
-5.72551
0
LINE
8
BLACK
6
CONTINUOUS
10
0.277731
20
-5.72551
11
0.277731
21
-5.7405
0
LINE
8
BLACK
6
CONTINUOUS
10
0.277731
20
-5.7405
11
0.28148
21
-5.748
0
LINE
8
BLACK
6
CONTINUOUS
10
0.28148
20
-5.748
11
0.28523
21
-5.75175
0
LINE
8
BLACK
6
CONTINUOUS
10
0.28523
20
-5.75175
11
0.292729
21
-5.7555
0
LINE
8
BLACK
6
CONTINUOUS
10
0.292729
20
-5.7555
11
0.307727
21
-5.7555
0
LINE
8
BLACK
6
CONTINUOUS
10
0.307727
20
-5.7555
11
0.315226
21
-5.75175
0
LINE
8
BLACK
6
CONTINUOUS
10
0.315226
20
-5.75175
11
0.318975
21
-5.748
0
LINE
8
BLACK
6
CONTINUOUS
10
0.318975
20
-5.748
11
0.322725
21
-5.7405
0
LINE
8
BLACK
6
CONTINUOUS
10
0.322725
20
-5.7405
11
0.322725
21
-5.72551
0
LINE
8
BLACK
6
CONTINUOUS
10
0.322725
20
-5.72551
11
0.318975
21
-5.71801
0
LINE
8
BLACK
6
CONTINUOUS
10
0.318975
20
-5.71801
11
0.315226
21
-5.71426
0
LINE
8
BLACK
6
CONTINUOUS
10
0.315226
20
-5.71426
11
0.307727
21
-5.71051
0
LINE
8
BLACK
6
CONTINUOUS
10
0.367719
20
-5.71051
11
0.36022
21
-5.70676
0
LINE
8
BLACK
6
CONTINUOUS
10
0.36022
20
-5.70676
11
0.356471
21
-5.70301
0
LINE
8
BLACK
6
CONTINUOUS
10
0.356471
20
-5.70301
11
0.352721
21
-5.69551
0
LINE
8
BLACK
6
CONTINUOUS
10
0.352721
20
-5.69551
11
0.352721
21
-5.69176
0
LINE
8
BLACK
6
CONTINUOUS
10
0.352721
20
-5.69176
11
0.356471
21
-5.68426
0
LINE
8
BLACK
6
CONTINUOUS
10
0.356471
20
-5.68426
11
0.36022
21
-5.68051
0
LINE
8
BLACK
6
CONTINUOUS
10
0.36022
20
-5.68051
11
0.367719
21
-5.67676
0
LINE
8
BLACK
6
CONTINUOUS
10
0.367719
20
-5.67676
11
0.382717
21
-5.67676
0
LINE
8
BLACK
6
CONTINUOUS
10
0.382717
20
-5.67676
11
0.390217
21
-5.68051
0
LINE
8
BLACK
6
CONTINUOUS
10
0.390217
20
-5.68051
11
0.393966
21
-5.68426
0
LINE
8
BLACK
6
CONTINUOUS
10
0.393966
20
-5.68426
11
0.397716
21
-5.69176
0
LINE
8
BLACK
6
CONTINUOUS
10
0.397716
20
-5.69176
11
0.397716
21
-5.69551
0
LINE
8
BLACK
6
CONTINUOUS
10
0.397716
20
-5.69551
11
0.393966
21
-5.70301
0
LINE
8
BLACK
6
CONTINUOUS
10
0.393966
20
-5.70301
11
0.390217
21
-5.70676
0
LINE
8
BLACK
6
CONTINUOUS
10
0.390217
20
-5.70676
11
0.382717
21
-5.71051
0
LINE
8
BLACK
6
CONTINUOUS
10
0.382717
20
-5.71051
11
0.367719
21
-5.71051
0
LINE
8
BLACK
6
CONTINUOUS
10
0.367719
20
-5.71051
11
0.36022
21
-5.71426
0
LINE
8
BLACK
6
CONTINUOUS
10
0.36022
20
-5.71426
11
0.356471
21
-5.71801
0
LINE
8
BLACK
6
CONTINUOUS
10
0.356471
20
-5.71801
11
0.352721
21
-5.72551
0
LINE
8
BLACK
6
CONTINUOUS
10
0.352721
20
-5.72551
11
0.352721
21
-5.7405
0
LINE
8
BLACK
6
CONTINUOUS
10
0.352721
20
-5.7405
11
0.356471
21
-5.748
0
LINE
8
BLACK
6
CONTINUOUS
10
0.356471
20
-5.748
11
0.36022
21
-5.75175
0
LINE
8
BLACK
6
CONTINUOUS
10
0.36022
20
-5.75175
11
0.367719
21
-5.7555
0
LINE
8
BLACK
6
CONTINUOUS
10
0.367719
20
-5.7555
11
0.382717
21
-5.7555
0
LINE
8
BLACK
6
CONTINUOUS
10
0.382717
20
-5.7555
11
0.390217
21
-5.75175
0
LINE
8
BLACK
6
CONTINUOUS
10
0.390217
20
-5.75175
11
0.393966
21
-5.748
0
LINE
8
BLACK
6
CONTINUOUS
10
0.393966
20
-5.748
11
0.397716
21
-5.7405
0
LINE
8
BLACK
6
CONTINUOUS
10
0.397716
20
-5.7405
11
0.397716
21
-5.72551
0
LINE
8
BLACK
6
CONTINUOUS
10
0.397716
20
-5.72551
11
0.393966
21
-5.71801
0
LINE
8
BLACK
6
CONTINUOUS
10
0.393966
20
-5.71801
11
0.390217
21
-5.71426
0
LINE
8
BLACK
6
CONTINUOUS
10
0.390217
20
-5.71426
11
0.382717
21
-5.71051
0
LINE
8
BLACK
6
CONTINUOUS
10
0.431461
20
-5.7555
11
0.431461
21
-5.70301
0
LINE
8
BLACK
6
CONTINUOUS
10
0.431461
20
-5.71051
11
0.435211
21
-5.70676
0
LINE
8
BLACK
6
CONTINUOUS
10
0.435211
20
-5.70676
11
0.44271
21
-5.70301
0
LINE
8
BLACK
6
CONTINUOUS
10
0.44271
20
-5.70301
11
0.453959
21
-5.70301
0
LINE
8
BLACK
6
CONTINUOUS
10
0.453959
20
-5.70301
11
0.461458
21
-5.70676
0
LINE
8
BLACK
6
CONTINUOUS
10
0.461458
20
-5.70676
11
0.465207
21
-5.71426
0
LINE
8
BLACK
6
CONTINUOUS
10
0.465207
20
-5.71426
11
0.465207
21
-5.7555
0
LINE
8
BLACK
6
CONTINUOUS
10
0.465207
20
-5.71426
11
0.468957
21
-5.70676
0
LINE
8
BLACK
6
CONTINUOUS
10
0.468957
20
-5.70676
11
0.476456
21
-5.70301
0
LINE
8
BLACK
6
CONTINUOUS
10
0.476456
20
-5.70301
11
0.487704
21
-5.70301
0
LINE
8
BLACK
6
CONTINUOUS
10
0.487704
20
-5.70301
11
0.495203
21
-5.70676
0
LINE
8
BLACK
6
CONTINUOUS
10
0.495203
20
-5.70676
11
0.498953
21
-5.71426
0
LINE
8
BLACK
6
CONTINUOUS
10
0.498953
20
-5.71426
11
0.498953
21
-5.7555
0
LINE
8
BLACK
6
CONTINUOUS
10
0.536448
20
-5.7555
11
0.536448
21
-5.70301
0
LINE
8
BLACK
6
CONTINUOUS
10
0.536448
20
-5.71051
11
0.540198
21
-5.70676
0
LINE
8
BLACK
6
CONTINUOUS
10
0.540198
20
-5.70676
11
0.547697
21
-5.70301
0
LINE
8
BLACK
6
CONTINUOUS
10
0.547697
20
-5.70301
11
0.558945
21
-5.70301
0
LINE
8
BLACK
6
CONTINUOUS
10
0.558945
20
-5.70301
11
0.566445
21
-5.70676
0
LINE
8
BLACK
6
CONTINUOUS
10
0.566445
20
-5.70676
11
0.570194
21
-5.71426
0
LINE
8
BLACK
6
CONTINUOUS
10
0.570194
20
-5.71426
11
0.570194
21
-5.7555
0
LINE
8
BLACK
6
CONTINUOUS
10
0.570194
20
-5.71426
11
0.573944
21
-5.70676
0
LINE
8
BLACK
6
CONTINUOUS
10
0.573944
20
-5.70676
11
0.581443
21
-5.70301
0
LINE
8
BLACK
6
CONTINUOUS
10
0.581443
20
-5.70301
11
0.592691
21
-5.70301
0
LINE
8
BLACK
6
CONTINUOUS
10
0.592691
20
-5.70301
11
0.60019
21
-5.70676
0
LINE
8
BLACK
6
CONTINUOUS
10
0.60019
20
-5.70676
11
0.60394
21
-5.71426
0
LINE
8
BLACK
6
CONTINUOUS
10
0.60394
20
-5.71426
11
0.60394
21
-5.7555
0
LINE
8
BLACK
6
CONTINUOUS
10
0.744922
20
-5.67301
11
0.677431
21
-5.77425
0
LINE
8
BLACK
6
CONTINUOUS
10
0.833411
20
-5.67676
11
0.84091
21
-5.67676
0
LINE
8
BLACK
6
CONTINUOUS
10
0.84091
20
-5.67676
11
0.848409
21
-5.68051
0
LINE
8
BLACK
6
CONTINUOUS
10
0.848409
20
-5.68051
11
0.852159
21
-5.68426
0
LINE
8
BLACK
6
CONTINUOUS
10
0.852159
20
-5.68426
11
0.855908
21
-5.69176
0
LINE
8
BLACK
6
CONTINUOUS
10
0.855908
20
-5.69176
11
0.859658
21
-5.70676
0
LINE
8
BLACK
6
CONTINUOUS
10
0.859658
20
-5.70676
11
0.859658
21
-5.72551
0
LINE
8
BLACK
6
CONTINUOUS
10
0.859658
20
-5.72551
11
0.855908
21
-5.7405
0
LINE
8
BLACK
6
CONTINUOUS
10
0.855908
20
-5.7405
11
0.852159
21
-5.748
0
LINE
8
BLACK
6
CONTINUOUS
10
0.852159
20
-5.748
11
0.848409
21
-5.75175
0
LINE
8
BLACK
6
CONTINUOUS
10
0.848409
20
-5.75175
11
0.84091
21
-5.7555
0
LINE
8
BLACK
6
CONTINUOUS
10
0.84091
20
-5.7555
11
0.833411
21
-5.7555
0
LINE
8
BLACK
6
CONTINUOUS
10
0.833411
20
-5.7555
11
0.825912
21
-5.75175
0
LINE
8
BLACK
6
CONTINUOUS
10
0.825912
20
-5.75175
11
0.822163
21
-5.748
0
LINE
8
BLACK
6
CONTINUOUS
10
0.822163
20
-5.748
11
0.818413
21
-5.7405
0
LINE
8
BLACK
6
CONTINUOUS
10
0.818413
20
-5.7405
11
0.814664
21
-5.72551
0
LINE
8
BLACK
6
CONTINUOUS
10
0.814664
20
-5.72551
11
0.814664
21
-5.70676
0
LINE
8
BLACK
6
CONTINUOUS
10
0.814664
20
-5.70676
11
0.818413
21
-5.69176
0
LINE
8
BLACK
6
CONTINUOUS
10
0.818413
20
-5.69176
11
0.822163
21
-5.68426
0
LINE
8
BLACK
6
CONTINUOUS
10
0.822163
20
-5.68426
11
0.825912
21
-5.68051
0
LINE
8
BLACK
6
CONTINUOUS
10
0.825912
20
-5.68051
11
0.833411
21
-5.67676
0
LINE
8
BLACK
6
CONTINUOUS
10
0.893404
20
-5.748
11
0.897153
21
-5.75175
0
LINE
8
BLACK
6
CONTINUOUS
10
0.897153
20
-5.75175
11
0.893404
21
-5.7555
0
LINE
8
BLACK
6
CONTINUOUS
10
0.893404
20
-5.7555
11
0.889654
21
-5.75175
0
LINE
8
BLACK
6
CONTINUOUS
10
0.889654
20
-5.75175
11
0.893404
21
-5.748
0
LINE
8
BLACK
6
CONTINUOUS
10
0.893404
20
-5.748
11
0.893404
21
-5.7555
0
LINE
8
BLACK
6
CONTINUOUS
10
0.972144
20
-5.7555
11
0.927149
21
-5.7555
0
LINE
8
BLACK
6
CONTINUOUS
10
0.949647
20
-5.7555
11
0.949647
21
-5.67676
0
LINE
8
BLACK
6
CONTINUOUS
10
0.949647
20
-5.67676
11
0.942148
21
-5.68801
0
LINE
8
BLACK
6
CONTINUOUS
10
0.942148
20
-5.68801
11
0.934649
21
-5.69551
0
LINE
8
BLACK
6
CONTINUOUS
10
0.934649
20
-5.69551
11
0.927149
21
-5.69926
0
LINE
8
BLACK
6
CONTINUOUS
10
1.04338
20
-5.67676
11
1.00589
21
-5.67676
0
LINE
8
BLACK
6
CONTINUOUS
10
1.00589
20
-5.67676
11
1.00214
21
-5.71426
0
LINE
8
BLACK
6
CONTINUOUS
10
1.00214
20
-5.71426
11
1.00589
21
-5.71051
0
LINE
8
BLACK
6
CONTINUOUS
10
1.00589
20
-5.71051
11
1.01339
21
-5.70676
0
LINE
8
BLACK
6
CONTINUOUS
10
1.01339
20
-5.70676
11
1.03214
21
-5.70676
0
LINE
8
BLACK
6
CONTINUOUS
10
1.03214
20
-5.70676
11
1.03964
21
-5.71051
0
LINE
8
BLACK
6
CONTINUOUS
10
1.03964
20
-5.71051
11
1.04338
21
-5.71426
0
LINE
8
BLACK
6
CONTINUOUS
10
1.04338
20
-5.71426
11
1.04713
21
-5.72176
0
LINE
8
BLACK
6
CONTINUOUS
10
1.04713
20
-5.72176
11
1.04713
21
-5.7405
0
LINE
8
BLACK
6
CONTINUOUS
10
1.04713
20
-5.7405
11
1.04338
21
-5.748
0
LINE
8
BLACK
6
CONTINUOUS
10
1.04338
20
-5.748
11
1.03964
21
-5.75175
0
LINE
8
BLACK
6
CONTINUOUS
10
1.03964
20
-5.75175
11
1.03214
21
-5.7555
0
LINE
8
BLACK
6
CONTINUOUS
10
1.03214
20
-5.7555
11
1.01339
21
-5.7555
0
LINE
8
BLACK
6
CONTINUOUS
10
1.01339
20
-5.7555
11
1.00589
21
-5.75175
0
LINE
8
BLACK
6
CONTINUOUS
10
1.00589
20
-5.75175
11
1.00214
21
-5.748
0
LINE
8
BLACK
6
CONTINUOUS
10
1.07338
20
-5.67676
11
1.12587
21
-5.67676
0
LINE
8
BLACK
6
CONTINUOUS
10
1.12587
20
-5.67676
11
1.09213
21
-5.7555
0
LINE
8
BLACK
6
CONTINUOUS
10
1.17087
20
-5.67676
11
1.17837
21
-5.67676
0
LINE
8
BLACK
6
CONTINUOUS
10
1.17837
20
-5.67676
11
1.18587
21
-5.68051
0
LINE
8
BLACK
6
CONTINUOUS
10
1.18587
20
-5.68051
11
1.18962
21
-5.68426
0
LINE
8
BLACK
6
CONTINUOUS
10
1.18962
20
-5.68426
11
1.19337
21
-5.69176
0
LINE
8
BLACK
6
CONTINUOUS
10
1.19337
20
-5.69176
11
1.19712
21
-5.70676
0
LINE
8
BLACK
6
CONTINUOUS
10
1.19712
20
-5.70676
11
1.19712
21
-5.72551
0
LINE
8
BLACK
6
CONTINUOUS
10
1.19712
20
-5.72551
11
1.19337
21
-5.7405
0
LINE
8
BLACK
6
CONTINUOUS
10
1.19337
20
-5.7405
11
1.18962
21
-5.748
0
LINE
8
BLACK
6
CONTINUOUS
10
1.18962
20
-5.748
11
1.18587
21
-5.75175
0
LINE
8
BLACK
6
CONTINUOUS
10
1.18587
20
-5.75175
11
1.17837
21
-5.7555
0
LINE
8
BLACK
6
CONTINUOUS
10
1.17837
20
-5.7555
11
1.17087
21
-5.7555
0
LINE
8
BLACK
6
CONTINUOUS
10
1.17087
20
-5.7555
11
1.16337
21
-5.75175
0
LINE
8
BLACK
6
CONTINUOUS
10
1.16337
20
-5.75175
11
1.15962
21
-5.748
0
LINE
8
BLACK
6
CONTINUOUS
10
1.15962
20
-5.748
11
1.15587
21
-5.7405
0
LINE
8
BLACK
6
CONTINUOUS
10
1.15587
20
-5.7405
11
1.15212
21
-5.72551
0
LINE
8
BLACK
6
CONTINUOUS
10
1.15212
20
-5.72551
11
1.15212
21
-5.70676
0
LINE
8
BLACK
6
CONTINUOUS
10
1.15212
20
-5.70676
11
1.15587
21
-5.69176
0
LINE
8
BLACK
6
CONTINUOUS
10
1.15587
20
-5.69176
11
1.15962
21
-5.68426
0
LINE
8
BLACK
6
CONTINUOUS
10
1.15962
20
-5.68426
11
1.16337
21
-5.68051
0
LINE
8
BLACK
6
CONTINUOUS
10
1.16337
20
-5.68051
11
1.17087
21
-5.67676
0
LINE
8
BLACK
6
CONTINUOUS
10
1.22711
20
-5.67676
11
1.22711
21
-5.69176
0
LINE
8
BLACK
6
CONTINUOUS
10
1.25711
20
-5.67676
11
1.25711
21
-5.69176
0
LINE
8
BLACK
6
CONTINUOUS
10
1.3606
20
-5.7855
11
1.35685
21
-5.78175
0
LINE
8
BLACK
6
CONTINUOUS
10
1.35685
20
-5.78175
11
1.34935
21
-5.7705
0
LINE
8
BLACK
6
CONTINUOUS
10
1.34935
20
-5.7705
11
1.3456
21
-5.763
0
LINE
8
BLACK
6
CONTINUOUS
10
1.3456
20
-5.763
11
1.34185
21
-5.75175
0
LINE
8
BLACK
6
CONTINUOUS
10
1.34185
20
-5.75175
11
1.3381
21
-5.73301
0
LINE
8
BLACK
6
CONTINUOUS
10
1.3381
20
-5.73301
11
1.3381
21
-5.71801
0
LINE
8
BLACK
6
CONTINUOUS
10
1.3381
20
-5.71801
11
1.34185
21
-5.69926
0
LINE
8
BLACK
6
CONTINUOUS
10
1.34185
20
-5.69926
11
1.3456
21
-5.68801
0
LINE
8
BLACK
6
CONTINUOUS
10
1.3456
20
-5.68801
11
1.34935
21
-5.68051
0
LINE
8
BLACK
6
CONTINUOUS
10
1.34935
20
-5.68051
11
1.35685
21
-5.66926
0
LINE
8
BLACK
6
CONTINUOUS
10
1.35685
20
-5.66926
11
1.3606
21
-5.66551
0
LINE
8
BLACK
6
CONTINUOUS
10
1.39434
20
-5.7555
11
1.40934
21
-5.7555
0
LINE
8
BLACK
6
CONTINUOUS
10
1.40934
20
-5.7555
11
1.41684
21
-5.75175
0
LINE
8
BLACK
6
CONTINUOUS
10
1.41684
20
-5.75175
11
1.42059
21
-5.748
0
LINE
8
BLACK
6
CONTINUOUS
10
1.42059
20
-5.748
11
1.42809
21
-5.73675
0
LINE
8
BLACK
6
CONTINUOUS
10
1.42809
20
-5.73675
11
1.43184
21
-5.72176
0
LINE
8
BLACK
6
CONTINUOUS
10
1.43184
20
-5.72176
11
1.43184
21
-5.69176
0
LINE
8
BLACK
6
CONTINUOUS
10
1.43184
20
-5.69176
11
1.42809
21
-5.68426
0
LINE
8
BLACK
6
CONTINUOUS
10
1.42809
20
-5.68426
11
1.42434
21
-5.68051
0
LINE
8
BLACK
6
CONTINUOUS
10
1.42434
20
-5.68051
11
1.41684
21
-5.67676
0
LINE
8
BLACK
6
CONTINUOUS
10
1.41684
20
-5.67676
11
1.40184
21
-5.67676
0
LINE
8
BLACK
6
CONTINUOUS
10
1.40184
20
-5.67676
11
1.39434
21
-5.68051
0
LINE
8
BLACK
6
CONTINUOUS
10
1.39434
20
-5.68051
11
1.39059
21
-5.68426
0
LINE
8
BLACK
6
CONTINUOUS
10
1.39059
20
-5.68426
11
1.38684
21
-5.69176
0
LINE
8
BLACK
6
CONTINUOUS
10
1.38684
20
-5.69176
11
1.38684
21
-5.71051
0
LINE
8
BLACK
6
CONTINUOUS
10
1.38684
20
-5.71051
11
1.39059
21
-5.71801
0
LINE
8
BLACK
6
CONTINUOUS
10
1.39059
20
-5.71801
11
1.39434
21
-5.72176
0
LINE
8
BLACK
6
CONTINUOUS
10
1.39434
20
-5.72176
11
1.40184
21
-5.72551
0
LINE
8
BLACK
6
CONTINUOUS
10
1.40184
20
-5.72551
11
1.41684
21
-5.72551
0
LINE
8
BLACK
6
CONTINUOUS
10
1.41684
20
-5.72551
11
1.42434
21
-5.72176
0
LINE
8
BLACK
6
CONTINUOUS
10
1.42434
20
-5.72176
11
1.42809
21
-5.71801
0
LINE
8
BLACK
6
CONTINUOUS
10
1.42809
20
-5.71801
11
1.43184
21
-5.71051
0
LINE
8
BLACK
6
CONTINUOUS
10
1.49933
20
-5.67676
11
1.48433
21
-5.67676
0
LINE
8
BLACK
6
CONTINUOUS
10
1.48433
20
-5.67676
11
1.47683
21
-5.68051
0
LINE
8
BLACK
6
CONTINUOUS
10
1.47683
20
-5.68051
11
1.47308
21
-5.68426
0
LINE
8
BLACK
6
CONTINUOUS
10
1.47308
20
-5.68426
11
1.46558
21
-5.69551
0
LINE
8
BLACK
6
CONTINUOUS
10
1.46558
20
-5.69551
11
1.46183
21
-5.71051
0
LINE
8
BLACK
6
CONTINUOUS
10
1.46183
20
-5.71051
11
1.46183
21
-5.7405
0
LINE
8
BLACK
6
CONTINUOUS
10
1.46183
20
-5.7405
11
1.46558
21
-5.748
0
LINE
8
BLACK
6
CONTINUOUS
10
1.46558
20
-5.748
11
1.46933
21
-5.75175
0
LINE
8
BLACK
6
CONTINUOUS
10
1.46933
20
-5.75175
11
1.47683
21
-5.7555
0
LINE
8
BLACK
6
CONTINUOUS
10
1.47683
20
-5.7555
11
1.49183
21
-5.7555
0
LINE
8
BLACK
6
CONTINUOUS
10
1.49183
20
-5.7555
11
1.49933
21
-5.75175
0
LINE
8
BLACK
6
CONTINUOUS
10
1.49933
20
-5.75175
11
1.50308
21
-5.748
0
LINE
8
BLACK
6
CONTINUOUS
10
1.50308
20
-5.748
11
1.50683
21
-5.7405
0
LINE
8
BLACK
6
CONTINUOUS
10
1.50683
20
-5.7405
11
1.50683
21
-5.72176
0
LINE
8
BLACK
6
CONTINUOUS
10
1.50683
20
-5.72176
11
1.50308
21
-5.71426
0
LINE
8
BLACK
6
CONTINUOUS
10
1.50308
20
-5.71426
11
1.49933
21
-5.71051
0
LINE
8
BLACK
6
CONTINUOUS
10
1.49933
20
-5.71051
11
1.49183
21
-5.70676
0
LINE
8
BLACK
6
CONTINUOUS
10
1.49183
20
-5.70676
11
1.47683
21
-5.70676
0
LINE
8
BLACK
6
CONTINUOUS
10
1.47683
20
-5.70676
11
1.46933
21
-5.71051
0
LINE
8
BLACK
6
CONTINUOUS
10
1.46933
20
-5.71051
11
1.46558
21
-5.71426
0
LINE
8
BLACK
6
CONTINUOUS
10
1.46558
20
-5.71426
11
1.46183
21
-5.72176
0
LINE
8
BLACK
6
CONTINUOUS
10
1.58782
20
-5.7555
11
1.58782
21
-5.67676
0
LINE
8
BLACK
6
CONTINUOUS
10
1.62156
20
-5.7555
11
1.62156
21
-5.71426
0
LINE
8
BLACK
6
CONTINUOUS
10
1.62156
20
-5.71426
11
1.61781
21
-5.70676
0
LINE
8
BLACK
6
CONTINUOUS
10
1.61781
20
-5.70676
11
1.61031
21
-5.70301
0
LINE
8
BLACK
6
CONTINUOUS
10
1.61031
20
-5.70301
11
1.59907
21
-5.70301
0
LINE
8
BLACK
6
CONTINUOUS
10
1.59907
20
-5.70301
11
1.59157
21
-5.70676
0
LINE
8
BLACK
6
CONTINUOUS
10
1.59157
20
-5.70676
11
1.58782
21
-5.71051
0
LINE
8
BLACK
6
CONTINUOUS
10
1.67031
20
-5.7555
11
1.66281
21
-5.75175
0
LINE
8
BLACK
6
CONTINUOUS
10
1.66281
20
-5.75175
11
1.65906
21
-5.748
0
LINE
8
BLACK
6
CONTINUOUS
10
1.65906
20
-5.748
11
1.65531
21
-5.7405
0
LINE
8
BLACK
6
CONTINUOUS
10
1.65531
20
-5.7405
11
1.65531
21
-5.71801
0
LINE
8
BLACK
6
CONTINUOUS
10
1.65531
20
-5.71801
11
1.65906
21
-5.71051
0
LINE
8
BLACK
6
CONTINUOUS
10
1.65906
20
-5.71051
11
1.66281
21
-5.70676
0
LINE
8
BLACK
6
CONTINUOUS
10
1.66281
20
-5.70676
11
1.67031
21
-5.70301
0
LINE
8
BLACK
6
CONTINUOUS
10
1.67031
20
-5.70301
11
1.68156
21
-5.70301
0
LINE
8
BLACK
6
CONTINUOUS
10
1.68156
20
-5.70301
11
1.68905
21
-5.70676
0
LINE
8
BLACK
6
CONTINUOUS
10
1.68905
20
-5.70676
11
1.6928
21
-5.71051
0
LINE
8
BLACK
6
CONTINUOUS
10
1.6928
20
-5.71051
11
1.69655
21
-5.71801
0
LINE
8
BLACK
6
CONTINUOUS
10
1.69655
20
-5.71801
11
1.69655
21
-5.7405
0
LINE
8
BLACK
6
CONTINUOUS
10
1.69655
20
-5.7405
11
1.6928
21
-5.748
0
LINE
8
BLACK
6
CONTINUOUS
10
1.6928
20
-5.748
11
1.68905
21
-5.75175
0
LINE
8
BLACK
6
CONTINUOUS
10
1.68905
20
-5.75175
11
1.68156
21
-5.7555
0
LINE
8
BLACK
6
CONTINUOUS
10
1.68156
20
-5.7555
11
1.67031
21
-5.7555
0
LINE
8
BLACK
6
CONTINUOUS
10
1.74155
20
-5.7555
11
1.73405
21
-5.75175
0
LINE
8
BLACK
6
CONTINUOUS
10
1.73405
20
-5.75175
11
1.7303
21
-5.74425
0
LINE
8
BLACK
6
CONTINUOUS
10
1.7303
20
-5.74425
11
1.7303
21
-5.67676
0
LINE
8
BLACK
6
CONTINUOUS
10
1.80154
20
-5.75175
11
1.79404
21
-5.7555
0
LINE
8
BLACK
6
CONTINUOUS
10
1.79404
20
-5.7555
11
1.77904
21
-5.7555
0
LINE
8
BLACK
6
CONTINUOUS
10
1.77904
20
-5.7555
11
1.77154
21
-5.75175
0
LINE
8
BLACK
6
CONTINUOUS
10
1.77154
20
-5.75175
11
1.76779
21
-5.74425
0
LINE
8
BLACK
6
CONTINUOUS
10
1.76779
20
-5.74425
11
1.76779
21
-5.71426
0
LINE
8
BLACK
6
CONTINUOUS
10
1.76779
20
-5.71426
11
1.77154
21
-5.70676
0
LINE
8
BLACK
6
CONTINUOUS
10
1.77154
20
-5.70676
11
1.77904
21
-5.70301
0
LINE
8
BLACK
6
CONTINUOUS
10
1.77904
20
-5.70301
11
1.79404
21
-5.70301
0
LINE
8
BLACK
6
CONTINUOUS
10
1.79404
20
-5.70301
11
1.80154
21
-5.70676
0
LINE
8
BLACK
6
CONTINUOUS
10
1.80154
20
-5.70676
11
1.80529
21
-5.71426
0
LINE
8
BLACK
6
CONTINUOUS
10
1.80529
20
-5.71426
11
1.80529
21
-5.72176
0
LINE
8
BLACK
6
CONTINUOUS
10
1.80529
20
-5.72176
11
1.76779
21
-5.72926
0
LINE
8
BLACK
6
CONTINUOUS
10
1.83529
20
-5.75175
11
1.84279
21
-5.7555
0
LINE
8
BLACK
6
CONTINUOUS
10
1.84279
20
-5.7555
11
1.85778
21
-5.7555
0
LINE
8
BLACK
6
CONTINUOUS
10
1.85778
20
-5.7555
11
1.86528
21
-5.75175
0
LINE
8
BLACK
6
CONTINUOUS
10
1.86528
20
-5.75175
11
1.86903
21
-5.74425
0
LINE
8
BLACK
6
CONTINUOUS
10
1.86903
20
-5.74425
11
1.86903
21
-5.7405
0
LINE
8
BLACK
6
CONTINUOUS
10
1.86903
20
-5.7405
11
1.86528
21
-5.73301
0
LINE
8
BLACK
6
CONTINUOUS
10
1.86528
20
-5.73301
11
1.85778
21
-5.72926
0
LINE
8
BLACK
6
CONTINUOUS
10
1.85778
20
-5.72926
11
1.84653
21
-5.72926
0
LINE
8
BLACK
6
CONTINUOUS
10
1.84653
20
-5.72926
11
1.83904
21
-5.72551
0
LINE
8
BLACK
6
CONTINUOUS
10
1.83904
20
-5.72551
11
1.83529
21
-5.71801
0
LINE
8
BLACK
6
CONTINUOUS
10
1.83529
20
-5.71801
11
1.83529
21
-5.71426
0
LINE
8
BLACK
6
CONTINUOUS
10
1.83529
20
-5.71426
11
1.83904
21
-5.70676
0
LINE
8
BLACK
6
CONTINUOUS
10
1.83904
20
-5.70676
11
1.84653
21
-5.70301
0
LINE
8
BLACK
6
CONTINUOUS
10
1.84653
20
-5.70301
11
1.85778
21
-5.70301
0
LINE
8
BLACK
6
CONTINUOUS
10
1.85778
20
-5.70301
11
1.86528
21
-5.70676
0
LINE
8
BLACK
6
CONTINUOUS
10
1.89528
20
-5.7855
11
1.89903
21
-5.78175
0
LINE
8
BLACK
6
CONTINUOUS
10
1.89903
20
-5.78175
11
1.90653
21
-5.7705
0
LINE
8
BLACK
6
CONTINUOUS
10
1.90653
20
-5.7705
11
1.91028
21
-5.763
0
LINE
8
BLACK
6
CONTINUOUS
10
1.91028
20
-5.763
11
1.91403
21
-5.75175
0
LINE
8
BLACK
6
CONTINUOUS
10
1.91403
20
-5.75175
11
1.91778
21
-5.73301
0
LINE
8
BLACK
6
CONTINUOUS
10
1.91778
20
-5.73301
11
1.91778
21
-5.71801
0
LINE
8
BLACK
6
CONTINUOUS
10
1.91778
20
-5.71801
11
1.91403
21
-5.69926
0
LINE
8
BLACK
6
CONTINUOUS
10
1.91403
20
-5.69926
11
1.91028
21
-5.68801
0
LINE
8
BLACK
6
CONTINUOUS
10
1.91028
20
-5.68801
11
1.90653
21
-5.68051
0
LINE
8
BLACK
6
CONTINUOUS
10
1.90653
20
-5.68051
11
1.89903
21
-5.66926
0
LINE
8
BLACK
6
CONTINUOUS
10
1.89903
20
-5.66926
11
1.89528
21
-5.66551
0
LINE
8
BLACK
6
CONTINUOUS
10
2.02501
20
-5.7855
11
2.02126
21
-5.78175
0
LINE
8
BLACK
6
CONTINUOUS
10
2.02126
20
-5.78175
11
2.01376
21
-5.7705
0
LINE
8
BLACK
6
CONTINUOUS
10
2.01376
20
-5.7705
11
2.01001
21
-5.763
0
LINE
8
BLACK
6
CONTINUOUS
10
2.01001
20
-5.763
11
2.00626
21
-5.75175
0
LINE
8
BLACK
6
CONTINUOUS
10
2.00626
20
-5.75175
11
2.00252
21
-5.73301
0
LINE
8
BLACK
6
CONTINUOUS
10
2.00252
20
-5.73301
11
2.00252
21
-5.71801
0
LINE
8
BLACK
6
CONTINUOUS
10
2.00252
20
-5.71801
11
2.00626
21
-5.69926
0
LINE
8
BLACK
6
CONTINUOUS
10
2.00626
20
-5.69926
11
2.01001
21
-5.68801
0
LINE
8
BLACK
6
CONTINUOUS
10
2.01001
20
-5.68801
11
2.01376
21
-5.68051
0
LINE
8
BLACK
6
CONTINUOUS
10
2.01376
20
-5.68051
11
2.02126
21
-5.66926
0
LINE
8
BLACK
6
CONTINUOUS
10
2.02126
20
-5.66926
11
2.02501
21
-5.66551
0
LINE
8
BLACK
6
CONTINUOUS
10
2.05501
20
-5.70301
11
2.05501
21
-5.7555
0
LINE
8
BLACK
6
CONTINUOUS
10
2.05501
20
-5.71051
11
2.05876
21
-5.70676
0
LINE
8
BLACK
6
CONTINUOUS
10
2.05876
20
-5.70676
11
2.06626
21
-5.70301
0
LINE
8
BLACK
6
CONTINUOUS
10
2.06626
20
-5.70301
11
2.07751
21
-5.70301
0
LINE
8
BLACK
6
CONTINUOUS
10
2.07751
20
-5.70301
11
2.085
21
-5.70676
0
LINE
8
BLACK
6
CONTINUOUS
10
2.085
20
-5.70676
11
2.08875
21
-5.71426
0
LINE
8
BLACK
6
CONTINUOUS
10
2.08875
20
-5.71426
11
2.08875
21
-5.7555
0
LINE
8
BLACK
6
CONTINUOUS
10
2.1375
20
-5.7555
11
2.13
21
-5.75175
0
LINE
8
BLACK
6
CONTINUOUS
10
2.13
20
-5.75175
11
2.12625
21
-5.748
0
LINE
8
BLACK
6
CONTINUOUS
10
2.12625
20
-5.748
11
2.1225
21
-5.7405
0
LINE
8
BLACK
6
CONTINUOUS
10
2.1225
20
-5.7405
11
2.1225
21
-5.71801
0
LINE
8
BLACK
6
CONTINUOUS
10
2.1225
20
-5.71801
11
2.12625
21
-5.71051
0
LINE
8
BLACK
6
CONTINUOUS
10
2.12625
20
-5.71051
11
2.13
21
-5.70676
0
LINE
8
BLACK
6
CONTINUOUS
10
2.13
20
-5.70676
11
2.1375
21
-5.70301
0
LINE
8
BLACK
6
CONTINUOUS
10
2.1375
20
-5.70301
11
2.14875
21
-5.70301
0
LINE
8
BLACK
6
CONTINUOUS
10
2.14875
20
-5.70301
11
2.15625
21
-5.70676
0
LINE
8
BLACK
6
CONTINUOUS
10
2.15625
20
-5.70676
11
2.16
21
-5.71051
0
LINE
8
BLACK
6
CONTINUOUS
10
2.16
20
-5.71051
11
2.16374
21
-5.71801
0
LINE
8
BLACK
6
CONTINUOUS
10
2.16374
20
-5.71801
11
2.16374
21
-5.7405
0
LINE
8
BLACK
6
CONTINUOUS
10
2.16374
20
-5.7405
11
2.16
21
-5.748
0
LINE
8
BLACK
6
CONTINUOUS
10
2.16
20
-5.748
11
2.15625
21
-5.75175
0
LINE
8
BLACK
6
CONTINUOUS
10
2.15625
20
-5.75175
11
2.14875
21
-5.7555
0
LINE
8
BLACK
6
CONTINUOUS
10
2.14875
20
-5.7555
11
2.1375
21
-5.7555
0
LINE
8
BLACK
6
CONTINUOUS
10
2.18624
20
-5.70301
11
2.21624
21
-5.70301
0
LINE
8
BLACK
6
CONTINUOUS
10
2.19749
20
-5.67676
11
2.19749
21
-5.74425
0
LINE
8
BLACK
6
CONTINUOUS
10
2.19749
20
-5.74425
11
2.20124
21
-5.75175
0
LINE
8
BLACK
6
CONTINUOUS
10
2.20124
20
-5.75175
11
2.20874
21
-5.7555
0
LINE
8
BLACK
6
CONTINUOUS
10
2.20874
20
-5.7555
11
2.21624
21
-5.7555
0
LINE
8
BLACK
6
CONTINUOUS
10
2.28973
20
-5.70301
11
2.28973
21
-5.78175
0
LINE
8
BLACK
6
CONTINUOUS
10
2.28973
20
-5.70676
11
2.29723
21
-5.70301
0
LINE
8
BLACK
6
CONTINUOUS
10
2.29723
20
-5.70301
11
2.31223
21
-5.70301
0
LINE
8
BLACK
6
CONTINUOUS
10
2.31223
20
-5.70301
11
2.31973
21
-5.70676
0
LINE
8
BLACK
6
CONTINUOUS
10
2.31973
20
-5.70676
11
2.32347
21
-5.71051
0
LINE
8
BLACK
6
CONTINUOUS
10
2.32347
20
-5.71051
11
2.32722
21
-5.71801
0
LINE
8
BLACK
6
CONTINUOUS
10
2.32722
20
-5.71801
11
2.32722
21
-5.7405
0
LINE
8
BLACK
6
CONTINUOUS
10
2.32722
20
-5.7405
11
2.32347
21
-5.748
0
LINE
8
BLACK
6
CONTINUOUS
10
2.32347
20
-5.748
11
2.31973
21
-5.75175
0
LINE
8
BLACK
6
CONTINUOUS
10
2.31973
20
-5.75175
11
2.31223
21
-5.7555
0
LINE
8
BLACK
6
CONTINUOUS
10
2.31223
20
-5.7555
11
2.29723
21
-5.7555
0
LINE
8
BLACK
6
CONTINUOUS
10
2.29723
20
-5.7555
11
2.28973
21
-5.75175
0
LINE
8
BLACK
6
CONTINUOUS
10
2.37222
20
-5.7555
11
2.36472
21
-5.75175
0
LINE
8
BLACK
6
CONTINUOUS
10
2.36472
20
-5.75175
11
2.36097
21
-5.74425
0
LINE
8
BLACK
6
CONTINUOUS
10
2.36097
20
-5.74425
11
2.36097
21
-5.67676
0
LINE
8
BLACK
6
CONTINUOUS
10
2.43596
20
-5.7555
11
2.43596
21
-5.71426
0
LINE
8
BLACK
6
CONTINUOUS
10
2.43596
20
-5.71426
11
2.43221
21
-5.70676
0
LINE
8
BLACK
6
CONTINUOUS
10
2.43221
20
-5.70676
11
2.42471
21
-5.70301
0
LINE
8
BLACK
6
CONTINUOUS
10
2.42471
20
-5.70301
11
2.40971
21
-5.70301
0
LINE
8
BLACK
6
CONTINUOUS
10
2.40971
20
-5.70301
11
2.40222
21
-5.70676
0
LINE
8
BLACK
6
CONTINUOUS
10
2.43596
20
-5.75175
11
2.42846
21
-5.7555
0
LINE
8
BLACK
6
CONTINUOUS
10
2.42846
20
-5.7555
11
2.40971
21
-5.7555
0
LINE
8
BLACK
6
CONTINUOUS
10
2.40971
20
-5.7555
11
2.40222
21
-5.75175
0
LINE
8
BLACK
6
CONTINUOUS
10
2.40222
20
-5.75175
11
2.39847
21
-5.74425
0
LINE
8
BLACK
6
CONTINUOUS
10
2.39847
20
-5.74425
11
2.39847
21
-5.73675
0
LINE
8
BLACK
6
CONTINUOUS
10
2.39847
20
-5.73675
11
2.40222
21
-5.72926
0
LINE
8
BLACK
6
CONTINUOUS
10
2.40222
20
-5.72926
11
2.40971
21
-5.72551
0
LINE
8
BLACK
6
CONTINUOUS
10
2.40971
20
-5.72551
11
2.42846
21
-5.72551
0
LINE
8
BLACK
6
CONTINUOUS
10
2.42846
20
-5.72551
11
2.43596
21
-5.72176
0
LINE
8
BLACK
6
CONTINUOUS
10
2.46221
20
-5.70301
11
2.4922
21
-5.70301
0
LINE
8
BLACK
6
CONTINUOUS
10
2.47346
20
-5.67676
11
2.47346
21
-5.74425
0
LINE
8
BLACK
6
CONTINUOUS
10
2.47346
20
-5.74425
11
2.47721
21
-5.75175
0
LINE
8
BLACK
6
CONTINUOUS
10
2.47721
20
-5.75175
11
2.4847
21
-5.7555
0
LINE
8
BLACK
6
CONTINUOUS
10
2.4847
20
-5.7555
11
2.4922
21
-5.7555
0
LINE
8
BLACK
6
CONTINUOUS
10
2.54845
20
-5.75175
11
2.54095
21
-5.7555
0
LINE
8
BLACK
6
CONTINUOUS
10
2.54095
20
-5.7555
11
2.52595
21
-5.7555
0
LINE
8
BLACK
6
CONTINUOUS
10
2.52595
20
-5.7555
11
2.51845
21
-5.75175
0
LINE
8
BLACK
6
CONTINUOUS
10
2.51845
20
-5.75175
11
2.5147
21
-5.74425
0
LINE
8
BLACK
6
CONTINUOUS
10
2.5147
20
-5.74425
11
2.5147
21
-5.71426
0
LINE
8
BLACK
6
CONTINUOUS
10
2.5147
20
-5.71426
11
2.51845
21
-5.70676
0
LINE
8
BLACK
6
CONTINUOUS
10
2.51845
20
-5.70676
11
2.52595
21
-5.70301
0
LINE
8
BLACK
6
CONTINUOUS
10
2.52595
20
-5.70301
11
2.54095
21
-5.70301
0
LINE
8
BLACK
6
CONTINUOUS
10
2.54095
20
-5.70301
11
2.54845
21
-5.70676
0
LINE
8
BLACK
6
CONTINUOUS
10
2.54845
20
-5.70676
11
2.5522
21
-5.71426
0
LINE
8
BLACK
6
CONTINUOUS
10
2.5522
20
-5.71426
11
2.5522
21
-5.72176
0
LINE
8
BLACK
6
CONTINUOUS
10
2.5522
20
-5.72176
11
2.5147
21
-5.72926
0
LINE
8
BLACK
6
CONTINUOUS
10
2.61969
20
-5.7555
11
2.61969
21
-5.67676
0
LINE
8
BLACK
6
CONTINUOUS
10
2.61969
20
-5.75175
11
2.61219
21
-5.7555
0
LINE
8
BLACK
6
CONTINUOUS
10
2.61219
20
-5.7555
11
2.59719
21
-5.7555
0
LINE
8
BLACK
6
CONTINUOUS
10
2.59719
20
-5.7555
11
2.58969
21
-5.75175
0
LINE
8
BLACK
6
CONTINUOUS
10
2.58969
20
-5.75175
11
2.58594
21
-5.748
0
LINE
8
BLACK
6
CONTINUOUS
10
2.58594
20
-5.748
11
2.58219
21
-5.7405
0
LINE
8
BLACK
6
CONTINUOUS
10
2.58219
20
-5.7405
11
2.58219
21
-5.71801
0
LINE
8
BLACK
6
CONTINUOUS
10
2.58219
20
-5.71801
11
2.58594
21
-5.71051
0
LINE
8
BLACK
6
CONTINUOUS
10
2.58594
20
-5.71051
11
2.58969
21
-5.70676
0
LINE
8
BLACK
6
CONTINUOUS
10
2.58969
20
-5.70676
11
2.59719
21
-5.70301
0
LINE
8
BLACK
6
CONTINUOUS
10
2.59719
20
-5.70301
11
2.61219
21
-5.70301
0
LINE
8
BLACK
6
CONTINUOUS
10
2.61219
20
-5.70301
11
2.61969
21
-5.70676
0
LINE
8
BLACK
6
CONTINUOUS
10
2.64968
20
-5.7855
11
2.65343
21
-5.78175
0
LINE
8
BLACK
6
CONTINUOUS
10
2.65343
20
-5.78175
11
2.66093
21
-5.7705
0
LINE
8
BLACK
6
CONTINUOUS
10
2.66093
20
-5.7705
11
2.66468
21
-5.763
0
LINE
8
BLACK
6
CONTINUOUS
10
2.66468
20
-5.763
11
2.66843
21
-5.75175
0
LINE
8
BLACK
6
CONTINUOUS
10
2.66843
20
-5.75175
11
2.67218
21
-5.73301
0
LINE
8
BLACK
6
CONTINUOUS
10
2.67218
20
-5.73301
11
2.67218
21
-5.71801
0
LINE
8
BLACK
6
CONTINUOUS
10
2.67218
20
-5.71801
11
2.66843
21
-5.69926
0
LINE
8
BLACK
6
CONTINUOUS
10
2.66843
20
-5.69926
11
2.66468
21
-5.68801
0
LINE
8
BLACK
6
CONTINUOUS
10
2.66468
20
-5.68801
11
2.66093
21
-5.68051
0
LINE
8
BLACK
6
CONTINUOUS
10
2.66093
20
-5.68051
11
2.65343
21
-5.66926
0
LINE
8
BLACK
6
CONTINUOUS
10
2.65343
20
-5.66926
11
2.64968
21
-5.66551
  0
ENDSEC
  0
EOF
