M48
; DRILL file {KiCad (6.99.0-4502-gf1556ed801-dirty)} date Thu 15 Dec 2022 08:46:35 PM EST
; FORMAT={-:-/ absolute / metric / decimal}
; #@! TF.CreationDate,2022-12-15T20:46:35-05:00
; #@! TF.GenerationSoftware,Kicad,Pcbnew,(6.99.0-4502-gf1556ed801-dirty)
; #@! TF.FileFunction,NonPlated,1,2,NPTH
FMAT,2
METRIC
; #@! TA.AperFunction,NonPlated,NPTH,ComponentDrill
T1C1.750
; #@! TA.AperFunction,NonPlated,NPTH,ComponentDrill
T2C3.988
%
G90
G05
T1
X6.14Y-12.05
X6.14Y-78.55
X6.14Y-97.55
X8.42Y-40.55
X13.165Y-59.525
X16.3Y-12.05
X16.3Y-78.55
X16.3Y-97.55
X18.58Y-40.55
X23.325Y-59.525
X25.14Y-12.05
X25.14Y-78.55
X30.12Y-40.55
X34.64Y-97.55
X35.3Y-12.05
X35.3Y-78.55
X39.29Y-59.525
X40.28Y-40.55
X44.14Y-78.55
X44.8Y-97.55
X49.12Y-40.55
X49.45Y-59.525
X53.64Y-97.55
X53.64Y-116.65
X54.3Y-78.55
X58.29Y-59.525
X59.28Y-40.55
X63.14Y-78.55
X63.8Y-97.55
X63.8Y-116.65
X67.94Y-12.05
X68.12Y-40.55
X68.45Y-59.525
X72.64Y-97.55
X72.64Y-116.65
X73.3Y-78.55
X77.29Y-59.525
X78.1Y-12.05
X78.28Y-40.55
X82.14Y-78.55
X82.8Y-97.55
X82.8Y-116.65
X87.12Y-40.55
X87.45Y-59.525
X91.64Y-97.55
X92.3Y-78.55
X96.29Y-59.525
X97.28Y-40.55
X101.14Y-78.55
X101.8Y-97.55
X105.94Y-12.05
X106.12Y-40.55
X106.45Y-59.525
X110.64Y-97.55
X111.3Y-78.55
X115.29Y-59.525
X116.1Y-12.05
X116.28Y-40.55
X120.14Y-78.55
X120.8Y-97.55
X125.12Y-40.55
X125.45Y-59.525
X129.64Y-97.55
X130.3Y-78.55
X134.29Y-59.525
X135.28Y-40.55
X139.14Y-78.55
X139.8Y-97.55
X143.94Y-12.05
X144.12Y-40.55
X144.45Y-59.525
X148.64Y-97.55
X148.64Y-116.65
X149.3Y-78.55
X153.29Y-59.525
X154.1Y-12.05
X154.28Y-40.55
X158.14Y-78.55
X158.8Y-97.55
X158.8Y-116.65
X163.12Y-40.55
X163.45Y-59.525
X167.64Y-97.55
X167.64Y-116.65
X168.3Y-78.55
X172.29Y-59.525
X173.28Y-40.55
X177.14Y-78.55
X177.8Y-97.55
X177.8Y-116.65
X181.94Y-12.05
X182.12Y-40.55
X182.45Y-59.525
X186.64Y-97.55
X187.3Y-78.55
X191.29Y-59.525
X192.1Y-12.05
X192.28Y-40.55
X196.14Y-78.55
X196.8Y-97.55
X201.12Y-40.55
X201.45Y-59.525
X205.64Y-97.55
X206.3Y-78.55
X210.29Y-59.525
X211.28Y-40.55
X215.14Y-78.55
X215.8Y-97.55
X219.94Y-12.05
X220.12Y-40.55
X220.45Y-59.525
X224.64Y-97.55
X225.3Y-78.55
X229.29Y-59.525
X230.1Y-12.05
X230.28Y-40.55
X234.14Y-78.55
X234.8Y-97.55
X239.12Y-40.55
X239.45Y-59.525
X243.64Y-97.55
X244.3Y-78.55
X248.29Y-59.525
X249.28Y-40.55
X253.14Y-78.55
X253.8Y-97.55
X258.12Y-40.55
X258.45Y-59.525
X262.64Y-116.55
X262.74Y-12.05
X263.3Y-78.55
X268.28Y-40.55
X272.14Y-97.55
X272.8Y-116.55
X272.9Y-12.05
X274.415Y-59.525
X276.89Y-78.55
X279.495Y-40.55
X281.6Y-97.475
X281.64Y-116.55
X281.74Y-12.05
X282.3Y-97.55
X284.575Y-59.525
X287.05Y-78.55
X289.655Y-40.55
X291.76Y-97.475
X291.8Y-116.55
X291.9Y-12.05
X300.64Y-97.55
X300.64Y-116.55
X310.8Y-97.55
X310.8Y-116.55
X333.12Y-40.55
X333.12Y-59.55
X333.12Y-78.55
X333.12Y-97.55
X333.12Y-116.55
X343.28Y-40.55
X343.28Y-59.55
X343.28Y-78.55
X343.28Y-97.55
X343.28Y-116.55
X352.12Y-40.55
X352.12Y-59.55
X352.12Y-78.55
X352.12Y-97.55
X352.12Y-116.55
X362.28Y-40.55
X362.28Y-59.55
X362.28Y-78.55
X362.28Y-97.55
X362.28Y-116.55
X371.12Y-40.55
X371.12Y-59.55
X371.12Y-78.55
X371.12Y-97.55
X371.12Y-116.55
X381.28Y-40.55
X381.28Y-59.55
X381.28Y-78.55
X381.28Y-97.55
X381.28Y-116.55
X390.12Y-40.55
X390.12Y-59.55
X390.12Y-78.55
X390.12Y-97.55
X390.12Y-116.55
X400.28Y-40.55
X400.28Y-59.55
X400.28Y-78.55
X400.28Y-97.55
X400.28Y-116.55
T2
X11.22Y-12.05
X11.22Y-78.55
X11.22Y-97.55
X13.5Y-40.55
X18.245Y-59.525
X30.22Y-12.05
X30.22Y-78.55
X35.2Y-40.55
X39.72Y-97.55
X44.37Y-59.525
X49.22Y-78.55
X54.2Y-40.55
X58.72Y-97.55
X58.72Y-116.65
X63.37Y-59.525
X68.22Y-78.55
X73.02Y-12.05
X73.2Y-40.55
X77.72Y-97.55
X77.72Y-116.65
X82.37Y-59.525
X87.22Y-78.55
X92.2Y-40.55
X96.72Y-97.55
X101.37Y-59.525
X106.22Y-78.55
X111.02Y-12.05
X111.2Y-40.55
X115.72Y-97.55
X120.37Y-59.525
X125.22Y-78.55
X130.2Y-40.55
X134.72Y-97.55
X139.37Y-59.525
X144.22Y-78.55
X149.02Y-12.05
X149.2Y-40.55
X153.72Y-97.55
X153.72Y-116.65
X158.37Y-59.525
X163.22Y-78.55
X168.2Y-40.55
X172.72Y-97.55
X172.72Y-116.65
X177.37Y-59.525
X182.22Y-78.55
X187.02Y-12.05
X187.2Y-40.55
X191.72Y-97.55
X196.37Y-59.525
X201.22Y-78.55
X206.2Y-40.55
X210.72Y-97.55
X215.37Y-59.525
X220.22Y-78.55
X225.02Y-12.05
X225.2Y-40.55
X229.72Y-97.55
X234.37Y-59.525
X239.22Y-78.55
X244.2Y-40.55
X248.72Y-97.55
X253.37Y-59.525
X258.22Y-78.55
X263.2Y-40.55
X267.72Y-116.55
X267.82Y-12.05
X277.22Y-97.55
X279.495Y-59.525
X281.97Y-78.55
X284.575Y-40.55
X286.68Y-97.475
X286.72Y-116.55
X286.82Y-12.05
X305.72Y-97.55
X305.72Y-116.55
X338.2Y-40.55
X338.2Y-59.55
X338.2Y-78.55
X338.2Y-97.55
X338.2Y-116.55
X357.2Y-40.55
X357.2Y-59.55
X357.2Y-78.55
X357.2Y-97.55
X357.2Y-116.55
X376.2Y-40.55
X376.2Y-59.55
X376.2Y-78.55
X376.2Y-97.55
X376.2Y-116.55
X395.2Y-40.55
X395.2Y-59.55
X395.2Y-78.55
X395.2Y-97.55
X395.2Y-116.55
T0
M30
