M48
; DRILL file {KiCad (6.99.0-4502-gf1556ed801-dirty)} date Thu 15 Dec 2022 09:25:30 PM EST
; FORMAT={-:-/ absolute / inch / decimal}
; #@! TF.CreationDate,2022-12-15T21:25:30-05:00
; #@! TF.GenerationSoftware,Kicad,Pcbnew,(6.99.0-4502-gf1556ed801-dirty)
; #@! TF.FileFunction,NonPlated,1,2,NPTH
FMAT,2
INCH
; #@! TA.AperFunction,NonPlated,NPTH,ComponentDrill
T1C0.0689
; #@! TA.AperFunction,NonPlated,NPTH,ComponentDrill
T2C0.1570
%
G90
G05
T1
X0.2417Y-0.4744
X0.2417Y-3.0925
X0.2417Y-3.8406
X0.3315Y-1.5965
X0.5183Y-2.3435
X0.6417Y-0.4744
X0.6417Y-3.0925
X0.6417Y-3.8406
X0.7315Y-1.5965
X0.9183Y-2.3435
X0.9898Y-0.4744
X0.9898Y-3.0925
X1.1858Y-1.5965
X1.3638Y-3.8406
X1.3898Y-0.4744
X1.3898Y-3.0925
X1.5469Y-2.3435
X1.5858Y-1.5965
X1.7378Y-3.0925
X1.7638Y-3.8406
X1.9339Y-1.5965
X1.9469Y-2.3435
X2.1118Y-3.8406
X2.1118Y-4.5925
X2.1378Y-3.0925
X2.2949Y-2.3435
X2.3339Y-1.5965
X2.4858Y-3.0925
X2.5118Y-3.8406
X2.5118Y-4.5925
X2.6748Y-0.4744
X2.6819Y-1.5965
X2.6949Y-2.3435
X2.8598Y-3.8406
X2.8598Y-4.5925
X2.8858Y-3.0925
X3.0429Y-2.3435
X3.0748Y-0.4744
X3.0819Y-1.5965
X3.2339Y-3.0925
X3.2598Y-3.8406
X3.2598Y-4.5925
X3.4299Y-1.5965
X3.4429Y-2.3435
X3.6079Y-3.8406
X3.6339Y-3.0925
X3.7909Y-2.3435
X3.8299Y-1.5965
X3.9819Y-3.0925
X4.0079Y-3.8406
X4.1709Y-0.4744
X4.178Y-1.5965
X4.1909Y-2.3435
X4.3559Y-3.8406
X4.3819Y-3.0925
X4.539Y-2.3435
X4.5709Y-0.4744
X4.578Y-1.5965
X4.7299Y-3.0925
X4.7559Y-3.8406
X4.926Y-1.5965
X4.939Y-2.3435
X5.1039Y-3.8406
X5.1299Y-3.0925
X5.287Y-2.3435
X5.326Y-1.5965
X5.478Y-3.0925
X5.5039Y-3.8406
X5.6669Y-0.4744
X5.674Y-1.5965
X5.687Y-2.3435
X5.852Y-3.8406
X5.852Y-4.5925
X5.878Y-3.0925
X6.035Y-2.3435
X6.0669Y-0.4744
X6.074Y-1.5965
X6.226Y-3.0925
X6.252Y-3.8406
X6.252Y-4.5925
X6.422Y-1.5965
X6.435Y-2.3435
X6.6Y-3.8406
X6.6Y-4.5925
X6.626Y-3.0925
X6.7831Y-2.3435
X6.822Y-1.5965
X6.974Y-3.0925
X7.0Y-3.8406
X7.0Y-4.5925
X7.163Y-0.4744
X7.1701Y-1.5965
X7.1831Y-2.3435
X7.348Y-3.8406
X7.374Y-3.0925
X7.5311Y-2.3435
X7.563Y-0.4744
X7.5701Y-1.5965
X7.722Y-3.0925
X7.748Y-3.8406
X7.9181Y-1.5965
X7.9311Y-2.3435
X8.0961Y-3.8406
X8.122Y-3.0925
X8.2791Y-2.3435
X8.3181Y-1.5965
X8.4701Y-3.0925
X8.4961Y-3.8406
X8.6591Y-0.4744
X8.6661Y-1.5965
X8.6791Y-2.3435
X8.8441Y-3.8406
X8.8701Y-3.0925
X9.0272Y-2.3435
X9.0591Y-0.4744
X9.0661Y-1.5965
X9.2181Y-3.0925
X9.2441Y-3.8406
X9.4142Y-1.5965
X9.4272Y-2.3435
X9.5921Y-3.8406
X9.6181Y-3.0925
X9.7752Y-2.3435
X9.8142Y-1.5965
X9.9661Y-3.0925
X9.9921Y-3.8406
X10.1622Y-1.5965
X10.1752Y-2.3435
X10.3402Y-4.5886
X10.3441Y-0.4744
X10.3661Y-3.0925
X10.5622Y-1.5965
X10.7142Y-3.8406
X10.7402Y-4.5886
X10.7441Y-0.4744
X10.8037Y-2.3435
X10.9012Y-3.0925
X11.0037Y-1.5965
X11.0866Y-3.8376
X11.0882Y-4.5886
X11.0921Y-0.4744
X11.1142Y-3.8406
X11.2037Y-2.3435
X11.3012Y-3.0925
X11.4037Y-1.5965
X11.4866Y-3.8376
X11.4882Y-4.5886
X11.4921Y-0.4744
X11.8362Y-3.8406
X11.8362Y-4.5886
X12.2362Y-3.8406
X12.2362Y-4.5886
X13.115Y-1.5965
X13.115Y-2.3445
X13.115Y-3.0925
X13.115Y-3.8406
X13.115Y-4.5886
X13.515Y-1.5965
X13.515Y-2.3445
X13.515Y-3.0925
X13.515Y-3.8406
X13.515Y-4.5886
X13.863Y-1.5965
X13.863Y-2.3445
X13.863Y-3.0925
X13.863Y-3.8406
X13.863Y-4.5886
X14.263Y-1.5965
X14.263Y-2.3445
X14.263Y-3.0925
X14.263Y-3.8406
X14.263Y-4.5886
X14.611Y-1.5965
X14.611Y-2.3445
X14.611Y-3.0925
X14.611Y-3.8406
X14.611Y-4.5886
X15.011Y-1.5965
X15.011Y-2.3445
X15.011Y-3.0925
X15.011Y-3.8406
X15.011Y-4.5886
X15.3591Y-1.5965
X15.3591Y-2.3445
X15.3591Y-3.0925
X15.3591Y-3.8406
X15.3591Y-4.5886
X15.7591Y-1.5965
X15.7591Y-2.3445
X15.7591Y-3.0925
X15.7591Y-3.8406
X15.7591Y-4.5886
T2
X0.4417Y-0.4744
X0.4417Y-3.0925
X0.4417Y-3.8406
X0.5315Y-1.5965
X0.7183Y-2.3435
X1.1898Y-0.4744
X1.1898Y-3.0925
X1.3858Y-1.5965
X1.5638Y-3.8406
X1.7469Y-2.3435
X1.9378Y-3.0925
X2.1339Y-1.5965
X2.3118Y-3.8406
X2.3118Y-4.5925
X2.4949Y-2.3435
X2.6858Y-3.0925
X2.8748Y-0.4744
X2.8819Y-1.5965
X3.0598Y-3.8406
X3.0598Y-4.5925
X3.2429Y-2.3435
X3.4339Y-3.0925
X3.6299Y-1.5965
X3.8079Y-3.8406
X3.9909Y-2.3435
X4.1819Y-3.0925
X4.3709Y-0.4744
X4.378Y-1.5965
X4.5559Y-3.8406
X4.739Y-2.3435
X4.9299Y-3.0925
X5.126Y-1.5965
X5.3039Y-3.8406
X5.487Y-2.3435
X5.678Y-3.0925
X5.8669Y-0.4744
X5.874Y-1.5965
X6.052Y-3.8406
X6.052Y-4.5925
X6.235Y-2.3435
X6.426Y-3.0925
X6.622Y-1.5965
X6.8Y-3.8406
X6.8Y-4.5925
X6.9831Y-2.3435
X7.174Y-3.0925
X7.363Y-0.4744
X7.3701Y-1.5965
X7.548Y-3.8406
X7.7311Y-2.3435
X7.922Y-3.0925
X8.1181Y-1.5965
X8.2961Y-3.8406
X8.4791Y-2.3435
X8.6701Y-3.0925
X8.8591Y-0.4744
X8.8661Y-1.5965
X9.0441Y-3.8406
X9.2272Y-2.3435
X9.4181Y-3.0925
X9.6142Y-1.5965
X9.7921Y-3.8406
X9.9752Y-2.3435
X10.1661Y-3.0925
X10.3622Y-1.5965
X10.5402Y-4.5886
X10.5441Y-0.4744
X10.9142Y-3.8406
X11.0037Y-2.3435
X11.1012Y-3.0925
X11.2037Y-1.5965
X11.2866Y-3.8376
X11.2882Y-4.5886
X11.2921Y-0.4744
X12.0362Y-3.8406
X12.0362Y-4.5886
X13.315Y-1.5965
X13.315Y-2.3445
X13.315Y-3.0925
X13.315Y-3.8406
X13.315Y-4.5886
X14.063Y-1.5965
X14.063Y-2.3445
X14.063Y-3.0925
X14.063Y-3.8406
X14.063Y-4.5886
X14.811Y-1.5965
X14.811Y-2.3445
X14.811Y-3.0925
X14.811Y-3.8406
X14.811Y-4.5886
X15.5591Y-1.5965
X15.5591Y-2.3445
X15.5591Y-3.0925
X15.5591Y-3.8406
X15.5591Y-4.5886
T0
M30
