M48
; DRILL file {KiCad (6.99.0-4502-gf1556ed801-dirty)} date Fri 16 Dec 2022 01:37:26 AM EST
; FORMAT={-:-/ absolute / inch / decimal}
; #@! TF.CreationDate,2022-12-16T01:37:26-05:00
; #@! TF.GenerationSoftware,Kicad,Pcbnew,(6.99.0-4502-gf1556ed801-dirty)
; #@! TF.FileFunction,Plated,1,2,PTH
FMAT,2
INCH
; #@! TA.AperFunction,Plated,PTH,ViaDrill
T1C0.0157
; #@! TA.AperFunction,Plated,PTH,ComponentDrill
T2C0.0354
; #@! TA.AperFunction,Plated,PTH,ComponentDrill
T3C0.0579
; #@! TA.AperFunction,Plated,PTH,ViaDrill
T4C0.0591
; #@! TA.AperFunction,Plated,PTH,ComponentDrill
T5C0.0787
; #@! TA.AperFunction,Plated,PTH,ComponentDrill
T6C0.1063
%
G90
G05
T1
X0.4026Y-0.2776
X0.5226Y-1.0423
X0.623Y-1.8711
X0.6585Y-0.1388
X0.6772Y-0.9656
X0.8632Y-2.5778
X0.9874Y-1.1614
X1.0512Y-3.5157
X1.0858Y-1.1614
X1.1486Y-3.5955
X1.253Y-1.8996
X1.3199Y-1.9744
X1.4774Y-1.001
X1.6772Y-1.7195
X1.8514Y-4.1752
X1.9213Y-0.2844
X1.9656Y-1.7736
X1.9852Y-1.8435
X2.0167Y-0.9567
X2.0551Y-4.2638
X2.1358Y-1.8681
X2.1978Y-2.9626
X2.2215Y-3.2175
X2.2264Y-0.814
X2.3878Y-2.9656
X2.4291Y-2.748
X2.4301Y-2.6831
X2.4409Y-3.5138
X2.4921Y-4.2746
X2.5069Y-2.751
X2.5089Y-2.6063
X2.5807Y-4.3494
X2.6142Y-3.3425
X2.6506Y-1.939
X2.7087Y-1.0423
X2.7087Y-1.2136
X2.752Y-3.4587
X2.7933Y-1.752
X2.8232Y-1.8757
X2.9232Y-2.0778
X2.9626Y-1.8091
X2.9882Y-4.1959
X3.1358Y-2.7618
X3.1407Y-2.6476
X3.1437Y-1.6978
X3.1447Y-3.2028
X3.1496Y-4.2264
X3.2215Y-4.2313
X3.2874Y-2.5719
X3.3445Y-4.314
X3.4222Y-1.2136
X3.4232Y-3.3839
X3.4252Y-1.0886
X3.4439Y-0.0738
X3.4459Y-1.9311
X3.4469Y-0.1713
X3.4685Y-1.7303
X3.4862Y-3.4931
X3.622Y-3.3307
X3.623Y-3.4803
X3.6407Y-0.8878
X3.6772Y-0.3051
X3.8508Y-1.4882
X3.8671Y-1.6939
X3.8967Y-3.2539
X3.9045Y-0.6575
X3.9045Y-2.7461
X3.9094Y-2.6831
X3.9862Y-2.6142
X3.987Y-2.7429
X4.0516Y-1.4917
X4.0748Y-2.5659
X4.128Y-1.7264
X4.1732Y-1.8681
X4.1874Y-1.3063
X4.2205Y-3.3356
X4.2874Y-1.8091
X4.2913Y-1.7618
X4.312Y-0.9941
X4.313Y-1.2116
X4.315Y-1.8711
X4.3189Y-2.4252
X4.3888Y-1.8681
X4.5925Y-1.7224
X4.623Y-2.749
X4.6299Y-2.6496
X4.6762Y-3.2913
X4.8199Y-0.0699
X4.8199Y-2.5561
X4.8228Y-0.1713
X4.8917Y-1.2293
X4.8927Y-1.0886
X4.9006Y-1.7264
X5.0089Y-0.252
X5.0098Y-3.4459
X5.0148Y-3.3819
X5.128Y-2.5167
X5.1329Y-0.7815
X5.2175Y-2.9636
X5.2343Y-3.2421
X5.2628Y-1.8898
X5.2648Y-1.7667
X5.3209Y-1.4835
X5.3907Y-2.5876
X5.3986Y-2.7451
X5.4213Y-1.7244
X5.4213Y-3.2539
X5.5384Y-0.7313
X5.548Y-1.4799
X5.6201Y-1.7392
X5.6756Y-0.926
X5.6762Y-1.0561
X5.6762Y-1.2234
X5.6831Y-2.4764
X5.7096Y-0.8297
X5.8553Y-3.4646
X5.8573Y-3.3317
X5.9476Y-4.1217
X5.9626Y-1.8091
X5.9872Y-3.1929
X6.0354Y-1.8612
X6.1319Y-1.7205
X6.1388Y-2.7618
X6.1437Y-2.6526
X6.1506Y-0.7726
X6.1965Y-4.1594
X6.2096Y-3.2323
X6.2648Y-2.5561
X6.276Y-4.752
X6.3169Y-1.0364
X6.3248Y-1.2303
X6.3346Y-1.1339
X6.3622Y-0.1693
X6.3632Y-0.0758
X6.373Y-0.5305
X6.3848Y-1.7057
X6.4949Y-4.7417
X6.5049Y-3.4587
X6.5108Y-3.378
X6.5935Y-3.4419
X6.6014Y-0.2874
X6.6594Y-3.3209
X6.69Y-2.003
X6.7008Y-2.9724
X6.7071Y-4.1382
X6.7234Y-2.501
X6.7461Y-1.8376
X6.81Y-1.0364
X6.8321Y-1.8648
X6.8376Y-0.5118
X6.8435Y-2.9744
X6.8504Y-1.4752
X6.8947Y-1.7165
X6.8947Y-2.5906
X6.9193Y-3.2077
X6.9272Y-2.7116
X6.9528Y-4.163
X6.9693Y-1.7213
X6.998Y-1.4717
X6.998Y-2.5266
X7.0817Y-1.7244
X7.1134Y-4.7154
X7.1791Y-0.8287
X7.1791Y-1.0925
X7.1811Y-0.9547
X7.1811Y-1.2077
X7.2909Y-4.7319
X7.3878Y-1.7904
X7.3907Y-1.8671
X7.4833Y-2.4941
X7.5083Y-4.1134
X7.5846Y-1.0463
X7.6575Y-4.1547
X7.6634Y-1.7126
X7.7042Y-2.7377
X7.7156Y-2.6467
X7.8189Y-0.0797
X7.8189Y-0.1673
X7.8445Y-1.1339
X7.8504Y-1.2274
X7.8583Y-1.7244
X7.9331Y-0.5089
X7.9961Y-3.3789
X8.0049Y-3.4872
X8.0344Y-3.2638
X8.1781Y-0.2313
X8.2232Y-4.1563
X8.2431Y-2.4715
X8.3258Y-3.4665
X8.3346Y-3.3415
X8.374Y-1.0463
X8.3878Y-2.6831
X8.3878Y-2.7657
X8.4232Y-1.5049
X8.424Y-4.1894
X8.4478Y-0.5089
X8.4803Y-2.6348
X8.497Y-2.7785
X8.6388Y-1.7303
X8.6791Y-0.8051
X8.6791Y-0.9606
X8.6821Y-1.0846
X8.687Y-1.2362
X8.7343Y-2.5167
X8.7411Y-3.5472
X8.8179Y-3.4833
X8.8479Y-1.8824
X8.8669Y-4.1697
X8.9705Y-1.7904
X8.9715Y-1.875
X9.0044Y-2.0389
X9.0378Y-4.0984
X9.0591Y-2.5463
X9.1309Y-1.7205
X9.2185Y-1.8317
X9.2195Y-1.751
X9.2283Y-3.3061
X9.2766Y-1.0837
X9.3219Y-0.1614
X9.3238Y-0.0847
X9.3484Y-1.7244
X9.3612Y-1.253
X9.4144Y-2.5512
X9.4508Y-3.2884
X9.4685Y-0.5512
X9.4724Y-3.939
X9.501Y-1.0098
X9.5167Y-3.4921
X9.5344Y-2.7224
X9.5394Y-2.6526
X9.6004Y-3.935
X9.8327Y-1.0187
X9.8711Y-2.6831
X9.8711Y-2.7677
X9.8996Y-1.7037
X9.9508Y-2.627
X9.9675Y-2.7746
X10.002Y-0.5571
X10.0276Y-0.9262
X10.0325Y-1.8602
X10.0354Y-1.7402
X10.0374Y-0.8819
X10.0463Y-2.6073
X10.0598Y-0.8346
X10.063Y-1.1348
X10.0669Y-1.2303
X10.0994Y-1.0778
X10.1646Y-1.0272
X10.1652Y-0.9268
X10.1683Y-1.2441
X10.1703Y-3.2933
X10.1713Y-1.1388
X10.1752Y-0.8888
X10.1807Y-3.8925
X10.1841Y-1.69
X10.1909Y-0.8512
X10.2205Y-1.0748
X10.2667Y-1.3661
X10.3435Y-3.5138
X10.3455Y-1.3898
X10.3455Y-3.4134
X10.3598Y-3.8843
X10.4281Y-2.4941
X10.448Y-1.1311
X10.5118Y-2.2648
X10.5138Y-0.9833
X10.56Y-3.3396
X10.6142Y-1.876
X10.6171Y-1.7904
X10.622Y-3.2953
X10.6329Y-3.5659
X10.689Y-4.2618
X10.7018Y-1.6801
X10.7392Y-2.9045
X10.7677Y-0.7402
X10.7785Y-3.5659
X10.7815Y-4.3209
X10.8071Y-3.4557
X10.8199Y-3.313
X10.8376Y-2.5285
X10.8573Y-1.8858
X10.8583Y-1.7539
X10.9063Y-1.1189
X10.9862Y-0.0768
X10.9921Y-0.1614
X11.1929Y-0.8449
X11.2057Y-3.9055
X11.2195Y-0.8848
X11.2303Y-2.7116
X11.2379Y-0.9196
X11.2904Y-3.4134
X11.2923Y-3.3287
X11.311Y-2.6289
X11.314Y-3.2293
X11.3366Y-3.3002
X11.3366Y-3.3917
X11.3396Y-0.8103
X11.3622Y-0.8425
X11.3927Y-0.8701
X11.4732Y-1.1565
X11.497Y-0.9016
X11.497Y-2.5974
X11.5305Y-2.3484
X11.5705Y-1.5835
X11.5724Y-2.6488
X11.5777Y-2.7161
X11.5837Y-0.9665
X11.5955Y-3.2894
X11.5955Y-4.3927
X11.5955Y-4.4911
X11.6114Y-2.6545
X11.6171Y-2.7149
X11.626Y-1.2215
X11.6433Y-3.3945
X11.6585Y-1.8878
X11.6693Y-1.1565
X11.6732Y-0.7667
X11.6781Y-0.6325
X11.6795Y-2.5102
X11.687Y-1.2372
X11.687Y-1.689
X11.7037Y-1.0581
X11.7106Y-0.9902
X11.7106Y-1.9114
X11.7155Y-1.2655
X11.7287Y-1.7819
X11.7392Y-1.9406
X11.7415Y-1.0469
X11.7441Y-1.2979
X11.7475Y-1.8165
X11.7539Y-0.4144
X11.7687Y-1.9666
X11.772Y-1.8473
X11.7756Y-0.1683
X11.7812Y-1.2792
X11.7943Y-4.3041
X11.8002Y-0.0847
X11.8061Y-1.0482
X11.8197Y-1.2711
X11.8415Y-4.0719
X11.8671Y-2.4104
X11.8701Y-3.9341
X11.8727Y-1.103
X11.8996Y-4.2982
X11.9105Y-1.1138
X11.9409Y-4.1348
X11.9695Y-1.2362
X12.0787Y-2.3435
X12.1453Y-3.4031
X12.1624Y-4.1388
X12.2886Y-3.7213
X12.4478Y-2.1476
X12.4519Y-2.7748
X12.452Y-2.202
X12.4852Y-4.1811
X12.4941Y-1.2372
X12.5219Y-2.3648
X12.5219Y-2.4948
X12.5219Y-3.1548
X12.5305Y-1.7707
X12.5659Y-1.1235
X12.5659Y-1.2411
X12.5719Y-2.2331
X12.5719Y-2.7748
X12.5719Y-3.499
X12.5728Y-4.3622
X12.6335Y-3.023
X12.6382Y-4.0047
X12.6622Y-2.2039
X12.6841Y-1.7667
X12.6917Y-4.1783
X12.6978Y-2.552
X12.7057Y-4.2697
X12.7352Y-0.4301
X12.7382Y-0.5256
X12.7815Y-2.2972
X12.787Y-3.7929
X12.7874Y-1.2205
X12.7992Y-3.5846
X12.8374Y-1.2354
X12.8583Y-1.0921
X12.8657Y-2.1165
X12.8657Y-2.2358
X12.8839Y-3.4469
X12.8874Y-3.6941
X12.9055Y-2.3307
X12.9154Y-1.4035
X12.9276Y-1.9598
X12.9343Y-1.1898
X12.9764Y-1.2776
X12.9961Y-3.785
X13.0167Y-1.5669
X13.0209Y-3.9591
X13.0689Y-1.2333
X13.1083Y-1.9409
X13.1181Y-4.123
X13.1191Y-4.0049
X13.1969Y-3.502
X13.2008Y-1.8189
X13.2008Y-3.3573
X13.2244Y-2.7972
X13.237Y-2.5961
X13.2898Y-2.1618
X13.3736Y-2.0157
X13.3831Y-3.9854
X13.4087Y-2.6925
X13.4577Y-1.8435
X13.4854Y-1.9327
X13.5079Y-1.9951
X13.5535Y-1.4728
X13.5656Y-1.0262
X13.5709Y-2.0374
X13.5925Y-1.1235
X13.5925Y-1.1858
X13.6043Y-1.3022
X13.6075Y-1.4728
X13.616Y-1.092
X13.6289Y-3.2343
X13.6437Y-4.7028
X13.65Y-3.9122
X13.6998Y-1.185
X13.7382Y-2.0035
X13.7382Y-2.1965
X13.7394Y-1.8917
X13.7394Y-2.0957
X13.7492Y-4.1157
X13.7512Y-2.4744
X13.7587Y-4.0012
X13.763Y-1.5059
X13.7673Y-1.3795
X13.7766Y-1.8337
X13.81Y-1.185
X13.8122Y-2.0134
X13.8311Y-2.4449
X13.8445Y-3.3858
X13.8553Y-3.4843
X13.8632Y-3.9547
X13.8799Y-2.4881
X13.898Y-1.9307
X13.9065Y-3.5236
X13.9134Y-3.378
X13.938Y-2.7766
X13.9419Y-2.0315
X13.9488Y-2.5748
X13.9965Y-1.924
X14.0226Y-3.31
X14.0413Y-1.4024
X14.0423Y-3.6663
X14.0622Y-1.7961
X14.0679Y-2.5778
X14.0919Y-0.3176
X14.2264Y-3.4063
X14.228Y-1.8228
X14.2343Y-0.6326
X14.2343Y-0.6368
X14.2587Y-2.0134
X14.2589Y-1.2722
X14.2638Y-1.1235
X14.2844Y-3.752
X14.3061Y-1.2363
X14.3126Y-1.1235
X14.3267Y-0.2489
X14.352Y-1.1235
X14.3539Y-1.3106
X14.3835Y-1.5843
X14.3937Y-4.7106
X14.3976Y-4.8199
X14.4031Y-1.0811
X14.4114Y-4.0226
X14.4705Y-2.9024
X14.4752Y-2.6429
X14.4807Y-2.7409
X14.4823Y-3.0862
X14.4831Y-3.5201
X14.487Y-3.0012
X14.4902Y-3.4205
X14.4933Y-2.1008
X14.4969Y-2.0146
X14.5Y-3.2665
X14.5187Y-4.0246
X14.5266Y-2.3012
X14.5378Y-1.7409
X14.5571Y-2.4616
X14.5594Y-1.1984
X14.5659Y-2.062
X14.5659Y-2.6555
X14.5683Y-3.1722
X14.6368Y-0.9675
X14.6377Y-0.8591
X14.6447Y-2.6624
X14.6475Y-0.7989
X14.648Y-1.2469
X14.6614Y-2.4596
X14.6644Y-2.062
X14.6995Y-0.2103
X14.7087Y-1.625
X14.7322Y-0.241
X14.7671Y-0.1676
X14.7835Y-2.5817
X14.7873Y-0.5245
X14.7878Y-1.1465
X14.8287Y-1.8848
X14.8345Y-0.3158
X14.8778Y-0.8473
X14.883Y-0.362
X14.8975Y-0.4418
X14.9122Y-1.1559
X14.9409Y-2.4085
X14.9565Y-0.3843
X15.0374Y-0.1181
X15.0482Y-2.2047
X15.0531Y-1.1669
X15.0561Y-0.9291
X15.0602Y-1.2748
X15.062Y-2.2726
X15.0896Y-2.5
X15.0955Y-2.0827
X15.0955Y-2.6998
X15.0984Y-1.9823
X15.0984Y-2.4232
X15.1112Y-2.7992
X15.1181Y-1.0541
X15.1398Y-2.2687
X15.1663Y-1.5374
X15.1712Y-1.4621
X15.2096Y-1.4537
X15.2156Y-1.5276
X15.2884Y-1.1673
X15.3135Y-0.8155
X15.3366Y-0.9675
X15.3474Y-0.5837
X15.3642Y-1.0433
X15.408Y-1.0005
X15.4409Y-1.8563
X15.4911Y-2.872
X15.5246Y-2.1299
X15.5896Y-1.8553
X15.8346Y-2.2106
T2
X12.6348Y-1.5313
X12.6348Y-1.5813
X12.6348Y-1.6313
X12.6348Y-1.6813
X12.6348Y-2.3187
X12.6348Y-2.3687
X12.6348Y-2.4187
X12.6348Y-2.4687
X12.6348Y-3.1061
X12.6348Y-3.1561
X12.6348Y-3.2061
X12.6348Y-3.2561
T3
X0.2917Y-0.3744
X0.2917Y-2.9925
X0.2917Y-3.7406
X0.3384Y-0.3199
X0.3384Y-2.938
X0.3384Y-3.686
X0.3815Y-1.4965
X0.4281Y-1.4419
X0.5417Y-0.2744
X0.5417Y-2.8925
X0.5417Y-3.6406
X0.5683Y-2.2435
X0.5746Y-0.3071
X0.5746Y-2.9252
X0.5746Y-3.6732
X0.615Y-2.189
X0.6315Y-1.3965
X0.6644Y-1.4291
X0.8183Y-2.1435
X0.8512Y-2.1762
X1.0398Y-0.3744
X1.0398Y-2.9925
X1.0864Y-0.3199
X1.0864Y-2.938
X1.2358Y-1.4965
X1.2825Y-1.4419
X1.2898Y-0.2744
X1.2898Y-2.8925
X1.3226Y-0.3071
X1.3226Y-2.9252
X1.4138Y-3.7406
X1.4604Y-3.686
X1.4858Y-1.3965
X1.5187Y-1.4291
X1.5969Y-2.2435
X1.6435Y-2.189
X1.6638Y-3.6406
X1.6967Y-3.6732
X1.7878Y-2.9925
X1.8344Y-2.938
X1.8469Y-2.1435
X1.8797Y-2.1762
X1.9839Y-1.4965
X2.0305Y-1.4419
X2.0378Y-2.8925
X2.0707Y-2.9252
X2.1618Y-3.7406
X2.1618Y-4.4925
X2.2085Y-3.686
X2.2085Y-4.438
X2.2339Y-1.3965
X2.2667Y-1.4291
X2.3449Y-2.2435
X2.3915Y-2.189
X2.4118Y-3.6406
X2.4118Y-4.3925
X2.4447Y-3.6732
X2.4447Y-4.4252
X2.5358Y-2.9925
X2.5825Y-2.938
X2.5949Y-2.1435
X2.6278Y-2.1762
X2.7248Y-0.3744
X2.7319Y-1.4965
X2.7715Y-0.3199
X2.7785Y-1.4419
X2.7858Y-2.8925
X2.8187Y-2.9252
X2.9098Y-3.7406
X2.9098Y-4.4925
X2.9565Y-3.686
X2.9565Y-4.438
X2.9748Y-0.2744
X2.9819Y-1.3965
X3.0077Y-0.3071
X3.0148Y-1.4291
X3.0929Y-2.2435
X3.1396Y-2.189
X3.1598Y-3.6406
X3.1598Y-4.3925
X3.1927Y-3.6732
X3.1927Y-4.4252
X3.2839Y-2.9925
X3.3305Y-2.938
X3.3429Y-2.1435
X3.3758Y-2.1762
X3.4799Y-1.4965
X3.5266Y-1.4419
X3.5339Y-2.8925
X3.5667Y-2.9252
X3.6579Y-3.7406
X3.7045Y-3.686
X3.7299Y-1.3965
X3.7628Y-1.4291
X3.8409Y-2.2435
X3.8876Y-2.189
X3.9079Y-3.6406
X3.9407Y-3.6732
X4.0319Y-2.9925
X4.0785Y-2.938
X4.0909Y-2.1435
X4.1238Y-2.1762
X4.2209Y-0.3744
X4.228Y-1.4965
X4.2675Y-0.3199
X4.2746Y-1.4419
X4.2819Y-2.8925
X4.3148Y-2.9252
X4.4059Y-3.7406
X4.4526Y-3.686
X4.4709Y-0.2744
X4.478Y-1.3965
X4.5037Y-0.3071
X4.5108Y-1.4291
X4.589Y-2.2435
X4.6356Y-2.189
X4.6559Y-3.6406
X4.6888Y-3.6732
X4.7799Y-2.9925
X4.8266Y-2.938
X4.839Y-2.1435
X4.8719Y-2.1762
X4.976Y-1.4965
X5.0226Y-1.4419
X5.0299Y-2.8925
X5.0628Y-2.9252
X5.1539Y-3.7406
X5.2006Y-3.686
X5.226Y-1.3965
X5.2589Y-1.4291
X5.337Y-2.2435
X5.3837Y-2.189
X5.4039Y-3.6406
X5.4368Y-3.6732
X5.528Y-2.9925
X5.5746Y-2.938
X5.587Y-2.1435
X5.6199Y-2.1762
X5.7169Y-0.3744
X5.724Y-1.4965
X5.7636Y-0.3199
X5.7707Y-1.4419
X5.778Y-2.8925
X5.8108Y-2.9252
X5.902Y-3.7406
X5.902Y-4.4925
X5.9486Y-3.686
X5.9486Y-4.438
X5.9669Y-0.2744
X5.974Y-1.3965
X5.9998Y-0.3071
X6.0069Y-1.4291
X6.085Y-2.2435
X6.1317Y-2.189
X6.152Y-3.6406
X6.152Y-4.3925
X6.1848Y-3.6732
X6.1848Y-4.4252
X6.276Y-2.9925
X6.3226Y-2.938
X6.335Y-2.1435
X6.3679Y-2.1762
X6.472Y-1.4965
X6.5187Y-1.4419
X6.526Y-2.8925
X6.5589Y-2.9252
X6.65Y-3.7406
X6.65Y-4.4925
X6.6967Y-3.686
X6.6967Y-4.438
X6.722Y-1.3965
X6.7549Y-1.4291
X6.8331Y-2.2435
X6.8797Y-2.189
X6.9Y-3.6406
X6.9Y-4.3925
X6.9329Y-3.6732
X6.9329Y-4.4252
X7.024Y-2.9925
X7.0707Y-2.938
X7.0831Y-2.1435
X7.1159Y-2.1762
X7.213Y-0.3744
X7.2201Y-1.4965
X7.2596Y-0.3199
X7.2667Y-1.4419
X7.274Y-2.8925
X7.3069Y-2.9252
X7.398Y-3.7406
X7.4447Y-3.686
X7.463Y-0.2744
X7.4701Y-1.3965
X7.4959Y-0.3071
X7.503Y-1.4291
X7.5811Y-2.2435
X7.6278Y-2.189
X7.648Y-3.6406
X7.6809Y-3.6732
X7.772Y-2.9925
X7.8187Y-2.938
X7.8311Y-2.1435
X7.864Y-2.1762
X7.9681Y-1.4965
X8.0148Y-1.4419
X8.022Y-2.8925
X8.0549Y-2.9252
X8.1461Y-3.7406
X8.1927Y-3.686
X8.2181Y-1.3965
X8.251Y-1.4291
X8.3291Y-2.2435
X8.3758Y-2.189
X8.3961Y-3.6406
X8.4289Y-3.6732
X8.5201Y-2.9925
X8.5667Y-2.938
X8.5791Y-2.1435
X8.612Y-2.1762
X8.7091Y-0.3744
X8.7161Y-1.4965
X8.7557Y-0.3199
X8.7628Y-1.4419
X8.7701Y-2.8925
X8.803Y-2.9252
X8.8941Y-3.7406
X8.9407Y-3.686
X8.9591Y-0.2744
X8.9661Y-1.3965
X8.9919Y-0.3071
X8.999Y-1.4291
X9.0772Y-2.2435
X9.1238Y-2.189
X9.1441Y-3.6406
X9.177Y-3.6732
X9.2681Y-2.9925
X9.3148Y-2.938
X9.3272Y-2.1435
X9.36Y-2.1762
X9.4642Y-1.4965
X9.5108Y-1.4419
X9.5181Y-2.8925
X9.551Y-2.9252
X9.6421Y-3.7406
X9.6888Y-3.686
X9.7142Y-1.3965
X9.747Y-1.4291
X9.8252Y-2.2435
X9.8719Y-2.189
X9.8921Y-3.6406
X9.925Y-3.6732
X10.0161Y-2.9925
X10.0628Y-2.938
X10.0752Y-2.1435
X10.1081Y-2.1762
X10.2122Y-1.4965
X10.2589Y-1.4419
X10.2661Y-2.8925
X10.299Y-2.9252
X10.3902Y-4.4886
X10.3941Y-0.3744
X10.4368Y-4.4341
X10.4407Y-0.3199
X10.4622Y-1.3965
X10.4951Y-1.4291
X10.6402Y-4.3886
X10.6441Y-0.2744
X10.673Y-4.4213
X10.677Y-0.3071
X10.7642Y-3.7406
X10.8108Y-3.686
X10.8537Y-2.2435
X10.9004Y-2.189
X10.9512Y-2.9925
X10.9978Y-2.938
X11.0142Y-3.6406
X11.047Y-3.6732
X11.0537Y-1.4965
X11.1004Y-1.4419
X11.1037Y-2.1435
X11.1366Y-2.1762
X11.1382Y-4.4886
X11.1421Y-0.3744
X11.1537Y-4.0049
X11.1848Y-4.4341
X11.1866Y-4.0376
X11.1888Y-0.3199
X11.2012Y-2.8925
X11.2341Y-2.9252
X11.3037Y-1.3965
X11.3366Y-1.4291
X11.3882Y-4.3886
X11.39Y-3.9921
X11.3921Y-0.2744
X11.4211Y-4.4213
X11.425Y-0.3071
X11.4366Y-3.9376
X11.8862Y-3.7406
X11.8862Y-4.4886
X11.9329Y-3.686
X11.9329Y-4.4341
X12.1362Y-3.6406
X12.1362Y-4.3886
X12.1691Y-3.6732
X12.1691Y-4.4213
X13.165Y-1.4965
X13.165Y-2.2445
X13.165Y-2.9925
X13.165Y-3.7406
X13.165Y-4.4886
X13.2116Y-1.4419
X13.2116Y-2.19
X13.2116Y-2.938
X13.2116Y-3.686
X13.2116Y-4.4341
X13.415Y-1.3965
X13.415Y-2.1445
X13.415Y-2.8925
X13.415Y-3.6406
X13.415Y-4.3886
X13.4478Y-1.4291
X13.4478Y-2.1772
X13.4478Y-2.9252
X13.4478Y-3.6732
X13.4478Y-4.4213
X13.913Y-1.4965
X13.913Y-2.2445
X13.913Y-2.9925
X13.913Y-3.7406
X13.913Y-4.4886
X13.9596Y-1.4419
X13.9596Y-2.19
X13.9596Y-2.938
X13.9596Y-3.686
X13.9596Y-4.4341
X14.163Y-1.3965
X14.163Y-2.1445
X14.163Y-2.8925
X14.163Y-3.6406
X14.163Y-4.3886
X14.1959Y-1.4291
X14.1959Y-2.1772
X14.1959Y-2.9252
X14.1959Y-3.6732
X14.1959Y-4.4213
X14.661Y-1.4965
X14.661Y-2.2445
X14.661Y-2.9925
X14.661Y-3.7406
X14.661Y-4.4886
X14.7077Y-1.4419
X14.7077Y-2.19
X14.7077Y-2.938
X14.7077Y-3.686
X14.7077Y-4.4341
X14.911Y-1.3965
X14.911Y-2.1445
X14.911Y-2.8925
X14.911Y-3.6406
X14.911Y-4.3886
X14.9439Y-1.4291
X14.9439Y-2.1772
X14.9439Y-2.9252
X14.9439Y-3.6732
X14.9439Y-4.4213
X15.4091Y-1.4965
X15.4091Y-2.2445
X15.4091Y-2.9925
X15.4091Y-3.7406
X15.4091Y-4.4886
X15.4557Y-1.4419
X15.4557Y-2.19
X15.4557Y-2.938
X15.4557Y-3.686
X15.4557Y-4.4341
X15.6591Y-1.3965
X15.6591Y-2.1445
X15.6591Y-2.8925
X15.6591Y-3.6406
X15.6591Y-4.3886
X15.6919Y-1.4291
X15.6919Y-2.1772
X15.6919Y-2.9252
X15.6919Y-3.6732
X15.6919Y-4.4213
T4
X15.1201Y-0.1171
T5
X0.2823Y-0.3189
X0.2823Y-2.937
X0.2823Y-3.685
X0.372Y-1.4409
X0.5589Y-2.188
X0.5972Y-0.2795
X0.5972Y-2.8976
X0.5972Y-3.6457
X0.687Y-1.4016
X0.8738Y-2.1486
X1.0303Y-0.3189
X1.0303Y-2.937
X1.2264Y-1.4409
X1.3453Y-0.2795
X1.3453Y-2.8976
X1.4043Y-3.685
X1.5413Y-1.4016
X1.5874Y-2.188
X1.7193Y-3.6457
X1.7783Y-2.937
X1.9024Y-2.1486
X1.9744Y-1.4409
X2.0933Y-2.8976
X2.1524Y-3.685
X2.1524Y-4.437
X2.2894Y-1.4016
X2.3354Y-2.188
X2.4673Y-3.6457
X2.4673Y-4.3976
X2.5264Y-2.937
X2.6504Y-2.1486
X2.7154Y-0.3189
X2.7224Y-1.4409
X2.8413Y-2.8976
X2.9004Y-3.685
X2.9004Y-4.437
X3.0303Y-0.2795
X3.0374Y-1.4016
X3.0835Y-2.188
X3.2154Y-3.6457
X3.2154Y-4.3976
X3.2744Y-2.937
X3.3984Y-2.1486
X3.4705Y-1.4409
X3.5894Y-2.8976
X3.6484Y-3.685
X3.7854Y-1.4016
X3.8315Y-2.188
X3.9634Y-3.6457
X4.0224Y-2.937
X4.1465Y-2.1486
X4.2114Y-0.3189
X4.2185Y-1.4409
X4.3374Y-2.8976
X4.3965Y-3.685
X4.5264Y-0.2795
X4.5335Y-1.4016
X4.5795Y-2.188
X4.7114Y-3.6457
X4.7705Y-2.937
X4.8945Y-2.1486
X4.9665Y-1.4409
X5.0854Y-2.8976
X5.1445Y-3.685
X5.2815Y-1.4016
X5.3276Y-2.188
X5.4594Y-3.6457
X5.5185Y-2.937
X5.6425Y-2.1486
X5.7075Y-0.3189
X5.7146Y-1.4409
X5.8335Y-2.8976
X5.8925Y-3.685
X5.8925Y-4.437
X6.0224Y-0.2795
X6.0295Y-1.4016
X6.0756Y-2.188
X6.2075Y-3.6457
X6.2075Y-4.3976
X6.2665Y-2.937
X6.3906Y-2.1486
X6.4626Y-1.4409
X6.5815Y-2.8976
X6.6406Y-3.685
X6.6406Y-4.437
X6.7776Y-1.4016
X6.8236Y-2.188
X6.9555Y-3.6457
X6.9555Y-4.3976
X7.0146Y-2.937
X7.1386Y-2.1486
X7.2035Y-0.3189
X7.2106Y-1.4409
X7.3295Y-2.8976
X7.3886Y-3.685
X7.5185Y-0.2795
X7.5256Y-1.4016
X7.5717Y-2.188
X7.7035Y-3.6457
X7.7626Y-2.937
X7.8866Y-2.1486
X7.9587Y-1.4409
X8.0776Y-2.8976
X8.1366Y-3.685
X8.2736Y-1.4016
X8.3197Y-2.188
X8.4516Y-3.6457
X8.5106Y-2.937
X8.6346Y-2.1486
X8.6996Y-0.3189
X8.7067Y-1.4409
X8.8256Y-2.8976
X8.8846Y-3.685
X9.0146Y-0.2795
X9.0217Y-1.4016
X9.0677Y-2.188
X9.1996Y-3.6457
X9.2587Y-2.937
X9.3827Y-2.1486
X9.4547Y-1.4409
X9.5736Y-2.8976
X9.6327Y-3.685
X9.7697Y-1.4016
X9.8157Y-2.188
X9.9476Y-3.6457
X10.0067Y-2.937
X10.1307Y-2.1486
X10.2028Y-1.4409
X10.3217Y-2.8976
X10.3807Y-4.4331
X10.3846Y-0.3189
X10.5177Y-1.4016
X10.6957Y-4.3937
X10.6996Y-0.2795
X10.7547Y-3.685
X10.8443Y-2.188
X10.9417Y-2.937
X11.0443Y-1.4409
X11.0697Y-3.6457
X11.1287Y-4.4331
X11.1311Y-4.0325
X11.1327Y-0.3189
X11.1593Y-2.1486
X11.2567Y-2.8976
X11.3593Y-1.4016
X11.4437Y-4.3937
X11.4461Y-3.9931
X11.4476Y-0.2795
X11.8768Y-3.685
X11.8768Y-4.4331
X12.1917Y-3.6457
X12.1917Y-4.3937
X13.1555Y-1.4409
X13.1555Y-2.189
X13.1555Y-2.937
X13.1555Y-3.685
X13.1555Y-4.4331
X13.4705Y-1.4016
X13.4705Y-2.1496
X13.4705Y-2.8976
X13.4705Y-3.6457
X13.4705Y-4.3937
X13.9035Y-1.4409
X13.9035Y-2.189
X13.9035Y-2.937
X13.9035Y-3.685
X13.9035Y-4.4331
X14.2185Y-1.4016
X14.2185Y-2.1496
X14.2185Y-2.8976
X14.2185Y-3.6457
X14.2185Y-4.3937
X14.6516Y-1.4409
X14.6516Y-2.189
X14.6516Y-2.937
X14.6516Y-3.685
X14.6516Y-4.4331
X14.9665Y-1.4016
X14.9665Y-2.1496
X14.9665Y-2.8976
X14.9665Y-3.6457
X14.9665Y-4.3937
X15.3996Y-1.4409
X15.3996Y-2.189
X15.3996Y-2.937
X15.3996Y-3.685
X15.3996Y-4.4331
X15.7146Y-1.4016
X15.7146Y-2.1496
X15.7146Y-2.8976
X15.7146Y-3.6457
X15.7146Y-4.3937
T6
X12.1447Y-2.6427
T0
M30
